<?xml version="1.0" encoding="UTF-8" standalone="no"?>
<svg
   id="Layer_1"
   data-name="Layer 1"
   viewBox="0 0 290.36056 74.301252"
   version="1.1"
   sodipodi:docname="light.svg"
   inkscape:version="1.3.2 (091e20e, 2023-11-25, custom)"
   width="290.36057"
   height="74.301254"
   inkscape:export-filename="..\standard\light-2048.png"
   inkscape:export-xdpi="677.11676"
   inkscape:export-ydpi="677.11676"
   xmlns:inkscape="http://www.inkscape.org/namespaces/inkscape"
   xmlns:sodipodi="http://sodipodi.sourceforge.net/DTD/sodipodi-0.dtd"
   xmlns="http://www.w3.org/2000/svg"
   xmlns:svg="http://www.w3.org/2000/svg">
  <sodipodi:namedview
     id="namedview83"
     pagecolor="#ffffff"
     bordercolor="#666666"
     borderopacity="1.0"
     inkscape:pageshadow="2"
     inkscape:pageopacity="0.0"
     inkscape:pagecheckerboard="true"
     showgrid="false"
     inkscape:zoom="2.6541448"
     inkscape:cx="94.757453"
     inkscape:cy="37.111766"
     inkscape:window-width="1920"
     inkscape:window-height="991"
     inkscape:window-x="-9"
     inkscape:window-y="-9"
     inkscape:window-maximized="1"
     inkscape:current-layer="Layer_1"
     inkscape:showpageshadow="2"
     inkscape:deskcolor="#d1d1d1" />
  <defs
     id="defs4">
    <style
       id="style2">.cls-1{fill:#fff;}</style>
  </defs>
  <path
     class="cls-1"
     d="M 8.3605727,0.00178644 A 8.45,8.45 0 1 0 14.430573,2.4817864 8.25,8.25 0 0 0 8.3605727,0.00178644 Z"
     id="path8" />
  <rect
     class="cls-1"
     x="1.0705745"
     y="21.271788"
     width="14.57"
     height="52.240002"
     id="rect10" />
  <path
     class="cls-1"
     d="m 78.370573,14.521786 q -9.71,-8.8799996 -27.87,-8.8899996 h -24 V 73.511786 h 23.22 q 19.41,0 28.89,-9.22 9.48,-9.22 9.47,-25.1 0,-15.78 -9.71,-24.67 z m -11.15,40.35 q -5.58,5.25 -16,5.24 h -9.61 v -41.27 h 8.44 q 11.56,0 17.14,5.39 5.58,5.39 5.59,15.39 0.06,10.01 -5.56,15.25 z"
     id="path12" />
  <path
     class="cls-1"
     d="m 119.50057,20.391786 q -11.9,0 -19.759997,7.82 a 27.25,27.25 0 0 0 0,38.31 q 7.859997,7.77 19.759997,7.77 11.9,0 19.72,-7.77 a 27.25,27.25 0 0 0 0,-38.33 q -7.82,-7.79 -19.72,-7.8 z m 9.32,37.44 a 12.79,12.79 0 0 1 -18.64,0 15,15 0 0 1 -3.65,-10.44 15.16,15.16 0 0 1 3.69,-10.49 12.68,12.68 0 0 1 18.64,0 15.16,15.16 0 0 1 3.64,10.49 15,15 0 0 1 -3.68,10.44 z"
     id="path14" />
  <path
     class="cls-1"
     d="m 178.10057,61.371786 a 14,14 0 0 1 -9.66,-3.69 q -4.12,-3.69 -4.13,-10.34 -0.01,-6.65 4.13,-10.39 a 14.2,14.2 0 0 1 9.86,-3.74 18.06,18.06 0 0 1 13.4,6.31 l 7.57,-9.9 a 28.94,28.94 0 0 0 -10.14,-6.9 30.47,30.47 0 0 0 -11.42,-2.33 27.83,27.83 0 0 0 -19.49,7.53 q -8.21,7.53 -8.2,19.52 0.01,11.99 8.11,19.42 a 28.31,28.31 0 0 0 19.86,7.43 q 11.75,0 21.85,-10.49 l -8.62,-9.71 q -5.83,7.29 -13.12,7.28 z"
     id="path16" />
  <path
     class="cls-1"
     d="m 224.62057,61.571786 a 4.83,4.83 0 0 1 -3.69,-1.7 6.69,6.69 0 0 1 -1.56,-4.71 v -22.53 h 12.63 v -11.36 h -12.63 V 5.6317864 h -14.66 V 55.841786 q 0,8.55 5.2,13.5 a 17.73,17.73 0 0 0 12.72,4.95 q 7.51,0 14.32,-6.21 l -5.44,-10.2 a 8.41,8.41 0 0 1 -6.89,3.69 z"
     id="path18" />
  <path
     class="cls-1"
     d="m 264.22057,73.831786 v -11.88 h -0.33 a 11.77,11.77 0 0 1 -8.84,-4 14.66,14.66 0 0 1 -3.83,-10.46 15.61,15.61 0 0 1 3.69,-10.64 11.36,11.36 0 0 1 8.83,-4.22 10.79,10.79 0 0 1 8.65,4.27 16.26,16.26 0 0 1 3.49,10.64 c 0,0.14 0,0.29 0,0.44 h 6.85 v 2.5 a 23.37,23.37 0 0 1 7.25,-2.78 l 0.38,-0.08 v -26.35 h -14.66 v 4.37 a 19.81,19.81 0 0 0 -13.69,-5.25 25,25 0 0 0 -17.79,7.29 q -7.67,7.27 -7.67,19.47 0,12.2 7.48,19.66 a 23.92,23.92 0 0 0 17.48,7.48 23.19,23.19 0 0 0 2.71,-0.1 z"
     id="path20" />
  <path
     class="cls-1"
     d="m 266.12057,49.921786 v 23.91 l 24.24,-24.23 a 22,22 0 0 0 -9.57,4.59 v -4.27 z"
     id="path22" />
</svg>
