<?xml version="1.0" encoding="UTF-8" standalone="no"?>
<!-- Created with Inkscape (http://www.inkscape.org/) -->

<svg
   width="68.175369mm"
   height="150mm"
   viewBox="0 0 68.175369 150"
   version="1.1"
   id="svg1"
   inkscape:version="1.3 (0e150ed6c4, 2023-07-21)"
   sodipodi:docname="CBC_All_Portrait_Light.svg"
   xmlns:inkscape="http://www.inkscape.org/namespaces/inkscape"
   xmlns:sodipodi="http://sodipodi.sourceforge.net/DTD/sodipodi-0.dtd"
   xmlns="http://www.w3.org/2000/svg"
   xmlns:svg="http://www.w3.org/2000/svg">
  <sodipodi:namedview
     id="namedview1"
     pagecolor="#a2a2a2"
     bordercolor="#999999"
     borderopacity="1"
     inkscape:showpageshadow="2"
     inkscape:pageopacity="0"
     inkscape:pagecheckerboard="true"
     inkscape:deskcolor="#d1d1d1"
     inkscape:document-units="mm"
     showguides="true"
     inkscape:zoom="3.6661821"
     inkscape:cx="99.149468"
     inkscape:cy="417.73703"
     inkscape:window-width="3200"
     inkscape:window-height="1711"
     inkscape:window-x="2391"
     inkscape:window-y="369"
     inkscape:window-maximized="1"
     inkscape:current-layer="layer1"
     showgrid="false" />
  <defs
     id="defs1" />
  <g
     inkscape:label="Layer 1"
     inkscape:groupmode="layer"
     id="layer1"
     transform="translate(-93.133333,-55.033325)">
    <path
       id="path3"
       d="m 112.23347,204.50003 c 0.74827,0 1.2609,-0.59532 1.2609,-1.27744 v -0.004 c 0,-0.68213 -0.50436,-1.26917 -1.25677,-1.26917 -0.74827,0 -1.2609,0.59531 -1.2609,1.2733 v 0.008 c 0,0.68213 0.50436,1.26918 1.25677,1.26918 z m 0.004,-0.25632 c -0.56224,0 -0.97152,-0.45889 -0.97152,-1.02112 v -0.004 c 0,-0.56224 0.40101,-1.01286 0.96739,-1.01286 0.56224,0 0.97151,0.45889 0.97151,1.01699 v 0.008 c 0,0.56224 -0.401,1.01286 -0.96738,1.01286 z m 1.71152,0.77721 h 0.27286 v -0.9095 c 0.14056,0.20257 0.35966,0.38447 0.69866,0.38447 0.44235,0 0.8723,-0.3514 0.8723,-0.94671 v -0.008 c 0,-0.59943 -0.43408,-0.94257 -0.8723,-0.94257 -0.33486,0 -0.54984,0.18603 -0.69866,0.40514 v -0.36794 h -0.27286 z m 0.92191,-0.76481 c -0.339,0 -0.66146,-0.28525 -0.66146,-0.70693 v -0.008 c 0,-0.41341 0.32246,-0.70279 0.66146,-0.70279 0.34727,0 0.64079,0.27699 0.64079,0.70694 v 0.008 c 0,0.43822 -0.28939,0.7028 -0.64079,0.7028 z m 1.49759,-0.59944 h 1.4428 c 0.004,-0.0413 0.004,-0.0703 0.004,-0.0951 0,-0.5333 -0.31006,-0.96324 -0.8475,-0.96324 -0.50436,0 -0.87643,0.42168 -0.87643,0.95085 0,0.56637 0.40928,0.95085 0.9095,0.95085 0.34727,0 0.56638,-0.13643 0.75241,-0.34314 l -0.1695,-0.14882 c -0.14882,0.15296 -0.32659,0.25631 -0.57464,0.25631 -0.32246,0 -0.60358,-0.22324 -0.64078,-0.60771 z m 0,-0.21911 c 0.0372,-0.3514 0.27698,-0.61185 0.59117,-0.61185 0.35967,0 0.54984,0.28112 0.58291,0.61185 z m 1.83451,1.02113 h 0.27285 v -0.72761 c 0,-0.54983 0.3266,-0.83509 0.72347,-0.83509 h 0.0207 v -0.29352 c -0.34727,-0.0124 -0.61185,0.20669 -0.74414,0.50849 v -0.47542 h -0.27285 z m 1.79834,0.0372 c 0.31833,0 0.52916,-0.14469 0.65319,-0.31006 v 0.27286 h 0.26872 v -1.11622 c 0,-0.23151 -0.062,-0.40514 -0.19017,-0.5333 -0.12816,-0.13229 -0.33073,-0.20257 -0.58705,-0.20257 -0.26872,0 -0.46302,0.0661 -0.66559,0.1571 l 0.0827,0.21911 c 0.1695,-0.0744 0.339,-0.12816 0.55397,-0.12816 0.34314,0 0.53744,0.1695 0.53744,0.49195 v 0.0579 c -0.16123,-0.0455 -0.32246,-0.0786 -0.55397,-0.0786 -0.46302,0 -0.78135,0.2067 -0.78135,0.59531 v 0.008 c 0,0.37206 0.339,0.56636 0.68213,0.56636 z m 0.0537,-0.21911 c -0.24805,0 -0.45888,-0.1323 -0.45888,-0.35966 v -0.008 c 0,-0.21911 0.1943,-0.36795 0.52916,-0.36795 0.22324,0 0.40101,0.0413 0.5333,0.0785 v 0.1695 c 0,0.28939 -0.26871,0.48782 -0.60358,0.48782 z m 1.94924,0.21497 c 0.12815,0 0.23151,-0.0289 0.32659,-0.0786 v -0.23151 c -0.0951,0.0455 -0.17363,0.062 -0.26458,0.062 -0.1819,0 -0.30593,-0.0827 -0.30593,-0.30178 v -1.06661 h 0.57878 v -0.23978 h -0.57878 v -0.54983 h -0.27285 v 0.54983 h -0.25218 v 0.23978 h 0.25218 v 1.09967 c 0,0.37208 0.22324,0.51678 0.51677,0.51678 z m 0.83715,-0.83509 h 1.44281 c 0.004,-0.0413 0.004,-0.0703 0.004,-0.0951 0,-0.5333 -0.31006,-0.96324 -0.8475,-0.96324 -0.50436,0 -0.87643,0.42168 -0.87643,0.95085 0,0.56637 0.40928,0.95085 0.9095,0.95085 0.34727,0 0.56638,-0.13643 0.75241,-0.34314 l -0.1695,-0.14882 c -0.14882,0.15296 -0.32659,0.25631 -0.57464,0.25631 -0.32246,0 -0.60358,-0.22324 -0.64079,-0.60771 z m 0,-0.21911 c 0.0372,-0.3514 0.27699,-0.61185 0.59118,-0.61185 0.35967,0 0.54984,0.28112 0.58291,0.61185 z m 2.60036,1.05834 c 0.33487,0 0.55397,-0.18603 0.69867,-0.40514 v 0.36793 h 0.27285 v -2.57556 h -0.27285 v 1.09969 c -0.14056,-0.20258 -0.35967,-0.38448 -0.69867,-0.38448 -0.43408,0 -0.86816,0.35139 -0.86816,0.94672 v 0.008 c 0,0.59946 0.43408,0.94259 0.86816,0.94259 z m 0.0496,-0.23978 c -0.34313,0 -0.64079,-0.27699 -0.64079,-0.70693 v -0.008 c 0,-0.43821 0.28939,-0.70278 0.64079,-0.70278 0.339,0 0.66146,0.28524 0.66146,0.70278 v 0.008 c 0,0.41755 -0.32246,0.70693 -0.66146,0.70693 z m 3.38067,0.23978 c 0.44235,0 0.8723,-0.35141 0.8723,-0.94671 v -0.008 c 0,-0.59942 -0.43408,-0.94256 -0.8723,-0.94256 -0.33486,0 -0.54983,0.18602 -0.69866,0.40513 v -1.12035 h -0.27285 v 2.57556 h 0.27285 v -0.34726 c 0.14056,0.20256 0.35967,0.38447 0.69866,0.38447 z m -0.0496,-0.23978 c -0.33899,0 -0.66145,-0.28525 -0.66145,-0.70693 v -0.008 c 0,-0.41341 0.32246,-0.70278 0.66145,-0.70278 0.34727,0 0.64079,0.27699 0.64079,0.70694 v 0.008 c 0,0.43822 -0.28939,0.7028 -0.64079,0.7028 z m 1.52963,0.77722 c 0.27285,0 0.45062,-0.13643 0.60358,-0.51263 l 0.76481,-1.88517 h -0.28939 l -0.58291,1.52136 -0.66146,-1.52136 h -0.30179 l 0.82683,1.81488 c -0.10749,0.26044 -0.21084,0.34313 -0.37208,0.34313 -0.11575,0 -0.19843,-0.0207 -0.28525,-0.0661 l -0.091,0.21497 c 0.12402,0.0579 0.23564,0.0909 0.38861,0.0909 z m 2.69027,-2.79466 h 0.31006 v -0.30179 h -0.31006 z m 0.0165,2.22001 h 0.27285 v -1.82315 h -0.27285 z m 0.85989,0 h 0.8599 c 0.77308,0 1.31051,-0.54156 1.31051,-1.2361 v -0.004 c 0,-0.69453 -0.53743,-1.22783 -1.31051,-1.22783 h -0.8599 z m 0.28112,-0.25631 v -1.95545 h 0.57878 c 0.62425,0 1.02113,0.42995 1.02113,0.97566 v 0.008 c 0,0.5457 -0.39688,0.97152 -1.02113,0.97152 z m 3.17914,0.29766 c 0.54984,0 0.95498,-0.43822 0.95498,-0.95085 v -0.008 c 0,-0.51263 -0.40101,-0.94257 -0.95085,-0.94257 -0.54984,0 -0.95084,0.43409 -0.95084,0.95085 v 0.008 c 0,0.51263 0.39687,0.94258 0.94671,0.94258 z m 0.004,-0.24392 c -0.38447,0 -0.67386,-0.3142 -0.67386,-0.70693 v -0.008 c 0,-0.38446 0.27285,-0.70279 0.66973,-0.70279 0.38447,0 0.67386,0.31833 0.67386,0.71106 v 0.008 c 0,0.38447 -0.27285,0.69866 -0.66973,0.69867 z m 2.17351,0.24392 c 0.34313,0 0.56224,-0.14883 0.74414,-0.35141 l -0.17363,-0.16122 c -0.14469,0.15295 -0.32246,0.26871 -0.55397,0.26871 -0.38447,0 -0.67386,-0.3142 -0.67386,-0.70693 v -0.008 c 0,-0.38859 0.28525,-0.70279 0.65319,-0.70279 0.24805,0 0.40928,0.11988 0.55397,0.27284 l 0.1819,-0.19017 c -0.1695,-0.17776 -0.38447,-0.32246 -0.73174,-0.32246 -0.5333,0 -0.93431,0.4341 -0.93431,0.95085 v 0.008 c 0,0.5085 0.40101,0.94258 0.93431,0.94259 z m 1.71566,-0.008 c 0.12816,0 0.23151,-0.0289 0.3266,-0.0786 v -0.23152 c -0.0951,0.0455 -0.17364,0.062 -0.26459,0.062 -0.1819,0 -0.30592,-0.0827 -0.30592,-0.3018 v -1.0666 h 0.57877 v -0.23977 h -0.57877 v -0.54985 h -0.27285 v 0.54985 h -0.25219 v 0.23977 h 0.25219 v 1.09968 c 0,0.37207 0.22324,0.51677 0.51676,0.51677 z m 1.27124,0.004 c 0.31833,0 0.52917,-0.14469 0.65319,-0.31006 v 0.27287 h 0.26872 v -1.11622 c 0,-0.23152 -0.062,-0.40515 -0.19017,-0.5333 -0.12816,-0.1323 -0.33073,-0.20257 -0.58705,-0.20257 -0.26871,0 -0.46302,0.0661 -0.66559,0.1571 l 0.0827,0.21911 c 0.1695,-0.0744 0.339,-0.12816 0.55398,-0.12816 0.34313,0 0.53743,0.1695 0.53743,0.49195 v 0.0579 c -0.16123,-0.0455 -0.32246,-0.0786 -0.55397,-0.0786 -0.46302,0 -0.78135,0.20669 -0.78135,0.5953 v 0.008 c 0,0.37206 0.339,0.56636 0.68213,0.56636 z m 0.0537,-0.21911 c -0.24804,0 -0.45888,-0.13228 -0.45888,-0.35966 v -0.008 c 0,-0.21911 0.1943,-0.36794 0.52916,-0.36794 0.22325,0 0.40101,0.0413 0.5333,0.0785 v 0.1695 c 0,0.28939 -0.26871,0.48782 -0.60358,0.48782 z m 0,0"
       style="fill:#3e444f;fill-opacity:1;fill-rule:nonzero;stroke:none;stroke-width:0.35278"
       aria-label="Operated by iDocta"
       inkscape:label="Operated by iDocta" />
    <g
       id="g24"
       transform="translate(1.7631348e-5,10.234367)">
      <path
         id="text7"
         style="font-size:9.17222px;font-family:Gotham;-inkscape-font-specification:'Gotham, Normal';text-align:center;letter-spacing:-0.264583px;text-anchor:middle;fill:#3e444f;stroke-width:4.23333;fill-opacity:1"
         inkscape:label="Aalst"
         d="M 114.09793 157.15489 L 112.98998 160.51179 L 111.96886 157.16729 L 110.80304 157.16729 L 112.48976 162.14477 L 113.43647 162.14477 L 114.55268 158.91189 L 115.66476 162.14477 L 116.61147 162.14477 L 118.29819 157.16729 L 117.16131 157.16729 L 116.14018 160.51179 L 115.03224 157.15489 L 114.09793 157.15489 z M 124.48127 158.25353 C 123.92024 158.26883 123.59502 158.59718 123.39348 159.08552 L 123.39348 158.32485 L 122.31861 158.32485 L 122.31861 162.10756 L 123.39348 162.10756 L 123.39348 160.71023 C 123.39348 159.80899 123.82757 159.37491 124.54277 159.37491 L 124.59651 159.37491 L 124.59651 158.25457 C 124.55701 158.25257 124.51871 158.25253 124.48127 158.25353 z M 126.67184 158.25457 C 125.57217 158.25457 124.80322 159.1434 124.80322 160.2224 L 124.80322 160.23894 C 124.80322 161.39649 125.64244 162.19024 126.77932 162.19024 C 127.46144 162.19024 127.96995 161.92566 128.32135 161.48744 L 127.7095 160.94174 C 127.41185 161.21872 127.1514 161.33035 126.79173 161.33035 C 126.31217 161.33035 125.97316 161.07816 125.86568 160.59034 L 128.49912 160.59034 C 128.50712 160.49114 128.51565 160.3919 128.51565 160.30922 C 128.51565 159.23435 127.93688 158.25457 126.67184 158.25457 z M 130.64265 158.25457 C 129.77448 158.25457 128.9642 158.89122 128.9642 160.01983 L 128.9642 160.03223 C 128.9642 161.15671 129.76208 161.7975 130.64265 161.7975 C 131.21729 161.7975 131.56042 161.56598 131.87875 161.18152 L 131.87875 161.36755 C 131.87875 162.04555 131.53149 162.39695 130.79975 162.39695 C 130.29952 162.39695 129.91092 162.26879 129.52231 162.04968 L 129.15437 162.85583 C 129.63393 163.10801 130.21271 163.25271 130.82869 163.25271 C 131.56043 163.25271 132.10613 163.09561 132.45753 162.74421 C 132.77586 162.42589 132.93709 161.92979 132.93709 161.2518 L 132.93709 158.32485 L 131.86635 158.32485 L 131.86635 158.82094 C 131.57697 158.50261 131.22969 158.25457 130.64265 158.25457 z M 135.40619 158.25457 C 134.30652 158.25457 133.53757 159.1434 133.53757 160.2224 L 133.53757 160.23894 C 133.53757 161.39649 134.3768 162.19024 135.51367 162.19024 C 136.19579 162.19024 136.7043 161.92566 137.0557 161.48744 L 136.44385 160.94174 C 136.1462 161.21872 135.88575 161.33035 135.52608 161.33035 C 135.04652 161.33035 134.70751 161.07816 134.60003 160.59034 L 137.23347 160.59034 C 137.24147 160.49114 137.25 160.3919 137.25 160.30922 C 137.25 159.23435 136.67123 158.25457 135.40619 158.25457 z M 140.055 158.25457 C 139.51343 158.25457 139.18684 158.54395 138.94292 158.86228 L 138.94292 158.32485 L 137.86805 158.32485 L 137.86805 162.10756 L 138.94292 162.10756 L 138.94292 159.99916 C 138.94292 159.49066 139.18684 159.23022 139.59198 159.23022 C 139.99299 159.23022 140.22036 159.49066 140.22036 159.99916 L 140.22036 162.10756 L 141.2911 162.10756 L 141.2911 159.99916 C 141.2911 159.49066 141.53915 159.23022 141.94016 159.23022 C 142.34116 159.23022 142.56854 159.49066 142.56854 159.99916 L 142.56854 162.10756 L 143.63928 162.10756 L 143.63928 159.64363 C 143.63928 158.73413 143.15971 158.25457 142.36184 158.25457 C 141.84921 158.25457 141.45233 158.4654 141.1216 158.85401 C 140.92316 158.47367 140.55109 158.25457 140.055 158.25457 z M 119.88465 158.2835 C 119.24386 158.2835 118.83458 158.40339 118.41704 158.58529 L 118.68576 159.40385 C 119.0289 159.27569 119.31828 159.20128 119.72756 159.20128 C 120.26499 159.20128 120.54198 159.44519 120.54198 159.89167 L 120.54198 159.95369 C 120.27326 159.86269 119.99628 159.80072 119.61594 159.80072 C 118.71885 159.80072 118.09045 160.18107 118.09045 161.00789 L 118.09045 161.02029 C 118.09045 161.76856 118.6775 162.17784 119.39269 162.17784 C 119.91359 162.17784 120.27326 161.98767 120.53371 161.69828 L 120.53371 162.10756 L 121.57137 162.10756 L 121.57137 159.91235 C 121.57137 159.40386 121.44322 158.99044 121.1621 158.70518 C 120.89338 158.43646 120.47169 158.2835 119.88465 158.2835 z M 126.67184 159.11446 C 127.12246 159.11446 127.40771 159.44105 127.46972 159.92061 L 125.85328 159.92061 C 125.94008 159.43279 126.22949 159.11446 126.67184 159.11446 z M 135.40619 159.11446 C 135.85681 159.11446 136.14206 159.44105 136.20407 159.92061 L 134.58763 159.92061 C 134.67443 159.43279 134.96385 159.11446 135.40619 159.11446 z M 130.95271 159.14288 C 131.47775 159.14288 131.87875 159.50256 131.87875 160.01932 L 131.87875 160.03172 C 131.87875 160.54849 131.47775 160.90815 130.95271 160.90815 C 130.43182 160.90815 130.03907 160.55262 130.03907 160.03172 L 130.03907 160.01932 C 130.03907 159.50256 130.43182 159.14288 130.95271 159.14288 z M 119.87225 160.44099 C 120.1327 160.44099 120.37248 160.49889 120.55438 160.58155 L 120.55438 160.77172 C 120.55438 161.16033 120.21538 161.43732 119.71516 161.43732 C 119.36789 161.43732 119.12811 161.26782 119.12811 160.97843 L 119.12811 160.96241 C 119.12811 160.62755 119.41337 160.44151 119.87225 160.44151 L 119.87225 160.44099 z M 138.26854 164.71774 L 138.26854 166.58222 C 138.01224 166.2763 137.66083 166.01585 137.09032 166.01585 C 136.19323 166.01585 135.3664 166.70625 135.3664 167.97128 L 135.3664 167.98369 C 135.3664 169.24873 136.20563 169.93912 137.09032 169.93912 C 137.64429 169.93912 138.0081 169.67867 138.26854 169.32727 L 138.26854 169.86884 L 139.33928 169.86884 L 139.33928 164.71774 L 138.26854 164.71774 z M 113.42355 164.84538 C 111.89806 164.84538 110.79012 165.99466 110.79012 167.40026 L 110.79012 167.41266 C 110.79012 168.81826 111.88566 169.95101 113.41115 169.95101 C 114.9325 169.95101 116.04044 168.80172 116.04044 167.40026 L 116.04044 167.38372 C 116.04044 165.97813 114.94904 164.84538 113.42355 164.84538 z M 124.69935 165.11875 L 124.69935 166.08613 L 124.24873 166.08613 L 124.24873 167.0039 L 124.69935 167.0039 L 124.69935 168.79811 C 124.69935 169.67041 125.14169 169.93085 125.79902 169.93085 C 126.15869 169.93085 126.41915 169.84816 126.64652 169.71175 L 126.64652 168.85185 C 126.48943 168.93865 126.31578 168.98828 126.11735 168.98828 C 125.87757 168.98828 125.77008 168.86839 125.77008 168.62034 L 125.77008 167.0039 L 126.65892 167.0039 L 126.65892 166.08613 L 125.77008 166.08613 L 125.77008 165.11875 L 124.69935 165.11875 z M 113.41115 165.84583 C 114.28344 165.84583 114.9077 166.55277 114.9077 167.40026 L 114.9077 167.41266 C 114.9077 168.26016 114.29998 168.95055 113.42355 168.95055 C 112.55125 168.95055 111.927 168.24362 111.927 167.40026 L 111.927 167.38372 C 111.927 166.53623 112.53471 165.84583 113.41115 165.84583 z M 118.58706 166.01533 C 117.40883 166.01533 116.53654 166.8959 116.53654 167.98317 L 116.53654 167.99971 C 116.53654 169.08698 117.40471 169.95101 118.57466 169.95101 C 119.75289 169.95101 120.62931 169.07044 120.62931 167.98317 L 120.62931 167.97077 C 120.62931 166.88351 119.76114 166.01533 118.58706 166.01533 z M 128.85413 166.01585 C 127.75446 166.01585 126.98551 166.90468 126.98551 167.98369 L 126.98551 168.00022 C 126.98551 169.15777 127.82473 169.95153 128.96162 169.95153 C 129.64375 169.95153 130.15224 169.68694 130.50364 169.24873 L 129.8918 168.70302 C 129.59415 168.98001 129.33369 169.09163 128.97402 169.09163 C 128.49446 169.09163 128.15547 168.83945 128.04798 168.35162 L 130.68141 168.35162 C 130.68941 168.25242 130.69795 168.15319 130.69795 168.0705 C 130.69795 166.99563 130.11917 166.01585 128.85413 166.01585 z M 133.49881 166.01585 C 132.95311 166.01585 132.63478 166.30524 132.39087 166.62356 L 132.39087 166.08613 L 131.316 166.08613 L 131.316 169.86884 L 132.39087 169.86884 L 132.39087 167.76044 C 132.39087 167.25196 132.65131 166.9915 133.06059 166.9915 C 133.46987 166.9915 133.70965 167.25196 133.70965 167.76044 L 133.70965 169.86884 L 134.78039 169.86884 L 134.78039 167.42145 C 134.78039 166.55329 134.30909 166.01585 133.49881 166.01585 z M 141.80838 166.01585 C 140.7087 166.01585 139.93976 166.90468 139.93976 167.98369 L 139.93976 168.00022 C 139.93976 169.15778 140.77899 169.95153 141.91587 169.95153 C 142.598 169.95153 143.1065 169.68694 143.45789 169.24873 L 142.84604 168.70302 C 142.54838 168.98001 142.28793 169.09163 141.92827 169.09163 C 141.44871 169.09163 141.10972 168.83944 141.00223 168.35162 L 143.63566 168.35162 C 143.64366 168.25242 143.6522 168.15318 143.6522 168.0705 C 143.6522 166.99563 143.07341 166.01585 141.80838 166.01585 z M 122.50413 166.02773 C 121.74346 166.02773 121.1192 166.46182 121.1192 167.23076 L 121.1192 167.24316 C 121.1192 167.97903 121.72278 168.22295 122.25195 168.38005 C 122.66536 168.50821 123.0333 168.58262 123.0333 168.81826 L 123.0333 168.83066 C 123.0333 169.00016 122.89274 169.11178 122.58268 169.11178 C 122.22715 169.11178 121.7972 168.95882 121.38792 168.66117 L 120.92903 169.3681 C 121.4334 169.76084 122.02457 169.93861 122.55374 169.93861 C 123.3723 169.93861 124.00068 169.55827 124.00068 168.71904 L 124.00068 168.70251 C 124.00068 168.01211 123.3847 167.75993 122.85553 167.58216 C 122.44626 167.4416 122.08659 167.34238 122.08659 167.13154 L 122.08659 167.11501 C 122.08659 166.96618 122.22301 166.85456 122.48346 166.85456 C 122.75631 166.85456 123.13252 166.99098 123.50459 167.20596 L 123.91387 166.46595 C 123.5046 166.1931 122.98369 166.02773 122.50413 166.02773 z M 128.85413 166.87574 C 129.30475 166.87574 129.59 167.20234 129.65202 167.6819 L 128.03558 167.6819 C 128.12238 167.19407 128.41179 166.87574 128.85413 166.87574 z M 141.80838 166.87574 C 142.259 166.87574 142.54425 167.20234 142.60626 167.6819 L 140.98983 167.6819 C 141.07663 167.19407 141.36603 166.87574 141.80838 166.87574 z M 137.36317 166.92535 C 137.8634 166.92535 138.28095 167.34291 138.28095 167.97128 L 138.28095 167.98369 C 138.28095 168.61207 137.8634 169.02962 137.36317 169.02962 C 136.86294 169.02962 136.44127 168.61207 136.44127 167.98369 L 136.44127 167.97128 C 136.44127 167.33464 136.86294 166.92535 137.36317 166.92535 z M 118.57466 166.94137 C 119.16583 166.94137 119.57098 167.42506 119.57098 167.98317 L 119.57098 167.99971 C 119.57098 168.55368 119.20304 169.0291 118.58706 169.0291 C 117.99588 169.0291 117.59487 168.54127 117.59487 167.98317 L 117.59487 167.97077 C 117.59487 167.41268 117.96281 166.94137 118.57466 166.94137 z M 121.82924 172.60769 C 120.33269 172.60769 119.23715 173.75699 119.23715 175.16258 L 119.23715 175.17498 C 119.23715 176.63432 120.29962 177.71333 121.83751 177.71333 C 122.73875 177.71333 123.43741 177.36193 123.9459 176.93198 L 123.9459 174.78637 L 121.8003 174.78637 L 121.8003 175.72482 L 122.89584 175.72482 L 122.89584 176.43175 C 122.61886 176.63019 122.26746 176.72941 121.87058 176.72941 C 120.99829 176.72941 120.37403 176.06382 120.37403 175.16258 L 120.37403 175.14604 C 120.37403 174.30682 121.00241 173.60815 121.79203 173.60815 C 122.36667 173.60815 122.70567 173.79005 123.08601 174.10838 L 123.76814 173.28155 C 123.25551 172.84748 122.71808 172.60769 121.82924 172.60769 z M 133.2456 172.88003 L 133.2456 173.84741 L 132.79498 173.84741 L 132.79498 174.76519 L 133.2456 174.76519 L 133.2456 176.55939 C 133.2456 177.43169 133.68795 177.69214 134.34527 177.69214 C 134.70494 177.69214 134.96538 177.60944 135.19276 177.47303 L 135.19276 176.61313 C 135.03566 176.69993 134.86204 176.74956 134.6636 176.74956 C 134.42382 176.74956 134.31633 176.62967 134.31633 176.38162 L 134.31633 174.76519 L 135.20517 174.76519 L 135.20517 173.84741 L 134.31633 173.84741 L 134.31633 172.88003 L 133.2456 172.88003 z M 131.03074 173.77713 C 130.48503 173.77713 130.16671 174.06652 129.9228 174.38485 L 129.9228 173.84741 L 128.84793 173.84741 L 128.84793 177.63013 L 129.9228 177.63013 L 129.9228 175.52173 C 129.9228 175.01323 130.18325 174.75278 130.59253 174.75278 C 131.00181 174.75278 131.24158 175.01323 131.24158 175.52173 L 131.24158 177.63013 L 132.31232 177.63013 L 132.31232 175.18273 C 132.31232 174.31457 131.84102 173.77713 131.03074 173.77713 z M 126.38607 173.77765 C 125.28639 173.77765 124.51745 174.66649 124.51745 175.74549 L 124.51745 175.76202 C 124.51745 176.91958 125.35666 177.71333 126.49355 177.71333 C 127.17568 177.71333 127.68418 177.44874 128.03558 177.01053 L 127.42373 176.46482 C 127.12608 176.7418 126.86562 176.85343 126.50596 176.85343 C 126.02641 176.85343 125.68739 176.60124 125.57991 176.11342 L 128.21334 176.11342 C 128.22134 176.01422 128.22988 175.91498 128.22988 175.8323 C 128.22988 174.75743 127.65109 173.77765 126.38607 173.77765 z M 126.38607 174.63703 C 126.83669 174.63703 127.12194 174.96362 127.18395 175.44318 L 125.56751 175.44318 C 125.65431 174.95535 125.94372 174.63703 126.38607 174.63703 z M 128.4309 180.35761 L 128.4309 185.50665 L 129.50319 185.50665 L 129.50319 180.35761 L 128.4309 180.35761 z M 120.84532 180.53383 L 118.72917 185.50665 L 119.83659 185.50665 L 120.28825 184.39922 L 122.37649 184.39922 L 122.82763 185.50665 L 123.96347 185.50665 L 121.84732 180.53383 L 120.84532 180.53383 z M 133.75151 180.75965 L 133.75151 181.726 L 133.30037 181.726 L 133.30037 182.64274 L 133.75151 182.64274 L 133.75151 184.43488 C 133.75151 185.30959 134.19619 185.57021 134.85222 185.57021 C 135.21197 185.57021 135.47294 185.48559 135.69868 185.35162 L 135.69868 184.49121 C 135.54348 184.57581 135.36701 184.62505 135.16951 184.62505 C 134.92966 184.62505 134.82379 184.50507 134.82379 184.25815 L 134.82379 182.64274 L 135.71263 182.64274 L 135.71263 181.726 L 134.82379 181.726 L 134.82379 180.75965 L 133.75151 180.75965 z M 131.58523 181.66967 C 130.82339 181.66967 130.20237 182.1002 130.20237 182.86908 L 130.20237 182.88304 C 130.20237 183.61668 130.80193 183.86319 131.33098 184.01837 C 131.74718 184.14536 132.11388 184.22329 132.11388 184.45607 L 132.11388 184.47002 C 132.11388 184.63931 131.97313 184.75217 131.66275 184.75217 C 131.31005 184.75217 130.87971 184.5968 130.47057 184.30052 L 130.0122 185.0059 C 130.51304 185.40093 131.10527 185.57745 131.63432 185.57745 C 132.45258 185.57745 133.08023 185.19629 133.08023 184.35685 L 133.08023 184.3429 C 133.08023 183.6516 132.4667 183.39788 131.93767 183.22152 C 131.52853 183.08044 131.16872 182.98147 131.16872 182.76986 L 131.16872 182.75591 C 131.16872 182.60777 131.30304 182.49495 131.56404 182.49495 C 131.83914 182.49495 132.21286 182.62923 132.58672 182.8479 L 132.996 182.10686 C 132.58688 181.83177 132.0649 181.66967 131.58523 181.66967 z M 125.97472 181.68363 C 125.33281 181.68363 124.92382 181.80356 124.50763 181.98697 L 124.77583 182.805 C 125.1215 182.67803 125.41056 182.60088 125.81969 182.60088 C 126.35579 182.60088 126.63101 182.8474 126.63101 183.2918 L 126.63101 183.35536 C 126.36295 183.26366 126.08796 183.20033 125.70704 183.20033 C 124.81118 183.20033 124.1831 183.58115 124.1831 184.40646 L 124.1831 184.42041 C 124.1831 185.16813 124.76875 185.57745 125.48121 185.57745 C 126.00322 185.57745 126.36279 185.38711 126.62378 185.09789 L 126.62378 185.50665 L 127.66092 185.50665 L 127.66092 183.31298 C 127.66092 182.8051 127.53381 182.38901 127.25165 182.10686 C 126.98359 181.8388 126.5602 181.68363 125.97472 181.68363 z M 121.33211 181.83866 L 121.9884 183.44011 L 120.67634 183.44011 L 121.33211 181.83866 z M 125.96077 183.84215 C 126.22177 183.84215 126.46157 183.89866 126.64496 183.98323 L 126.64496 184.17391 C 126.64496 184.56188 126.30659 184.83692 125.80574 184.83692 C 125.46011 184.83692 125.22025 184.66726 125.22025 184.37804 L 125.22025 184.36408 C 125.22025 184.02549 125.50225 183.84215 125.96077 183.84215 z " />
      <path
         style="fill:#3e444f;fill-opacity:1;fill-rule:nonzero;stroke:none;stroke-width:0.35278"
         d="M 134.86735,177.69202"
         id="path21" />
    </g>
    <g
       id="g2"
       transform="translate(0,9.3446249)">
      <g
         id="g1"
         inkscape:label="CBC Logo">
        <path
           id="path23"
           d="m 127.22186,137.91147 c -8.81807,0 -16.85367,-3.34892 -22.90618,-8.84379 l 22.90618,22.90548 22.90273,-22.9023 c -6.05155,5.4931 -14.08607,8.84061 -22.90273,8.84061"
           style="fill:#bdbcbc;fill-opacity:1;fill-rule:nonzero;stroke:none;stroke-width:0.0352778" />
        <path
           id="path28"
           d="m 151.7396,127.49253 c 6.04062,-6.14927 9.5691,-14.36723 9.5691,-23.66822 0,-9.159875 -3.61915,-17.469558 -9.49748,-23.594133 0.89676,0.932038 1.45133,2.196041 1.45133,3.592336 0,2.864556 -2.32199,5.185834 -5.18619,5.185834 -1.48696,0 -2.82293,-0.628298 -3.76837,-1.630892 4.10598,4.26544 6.63539,10.05911 6.63539,16.446855 0,6.36235 -2.51036,12.13521 -6.58777,16.39606 0.94262,-0.97402 2.25778,-1.58468 3.72075,-1.58468 2.8642,0 5.18619,2.32128 5.18619,5.18619 0,1.43404 -0.58244,2.73226 -1.52295,3.67065"
           style="fill:#bdbcbc;fill-opacity:1;fill-rule:nonzero;stroke:none;stroke-width:0.0352778" />
        <path
           id="path34"
           d="m 148.07636,118.63569 c -1.48837,0 -2.82575,0.63006 -3.7712,1.63371 -4.31588,4.48134 -10.37025,7.2764 -17.0833,7.2764 -13.101,0 -23.7225,-10.62144 -23.7225,-23.7229 0,-7e-4 0,-7e-4 0,-7e-4 0,0 0,-3.6e-4 0,-7.1e-4 0,-13.101466 10.6215,-23.723252 23.7225,-23.723252 6.71305,0 12.76742,2.795058 17.0833,7.276747 0.94545,1.003653 2.28283,1.633362 3.7712,1.633362 2.8642,0 5.18619,-2.321278 5.18619,-5.185834 0,-1.434395 -0.58244,-2.731911 -1.52295,-3.670653 l 7.1e-4,-7.06e-4 c -6.19972,-6.41985 -14.88969,-10.418586 -24.51845,-10.418586 -18.82634,0 -34.088527,15.262226 -34.088527,34.088922 0,3.5e-4 0,3.5e-4 0,3.5e-4 0,3.6e-4 0,3.6e-4 0,0.001 0,18.82634 15.262187,34.08857 34.088527,34.08857 9.62876,0 18.31873,-3.99874 24.51845,-10.41824 l -7.1e-4,-7e-4 c 0.94051,-0.93839 1.52295,-2.23661 1.52295,-3.67065 0,-2.86491 -2.32199,-5.18619 -5.18619,-5.18619"
           style="fill:#e31b22;fill-opacity:1;fill-rule:nonzero;stroke:none;stroke-width:0.0352778" />
      </g>
      <path
         id="path4"
         style="fill:#231f20;fill-opacity:1;fill-rule:nonzero;stroke:none;stroke-width:0.0352778"
         d="m 117.14799,91.482745 c -1.77862,0.009 -3.04915,1.430824 -3.04115,3.140384 v 0.0176 c 0.009,1.73567 1.30161,3.10135 3.04581,3.09335 1.0965,-0.005 1.78537,-0.43178 2.41225,-1.07384 l -0.45113,-0.43821 c -0.57559,0.55563 -1.11792,0.8776 -1.94665,0.8816 -1.3298,0.006 -2.34532,-1.08498 -2.35232,-2.48409 v -0.017 c -0.007,-1.38994 0.98952,-2.483264 2.32803,-2.489264 0.82035,-0.004 1.39143,0.3384 1.90324,0.819594 l 0.46354,-0.503334 c -0.60702,-0.56691 -1.26497,-0.95171 -2.36162,-0.94671 z m 20.73724,1.488804 c -0.76871,0.004 -1.2329,0.3943 -1.52394,0.87902 l -0.004,-0.7767 -0.66456,0.003 0.0217,4.46381 0.66508,-0.003 -0.0124,-2.55592 c -0.004,-0.8375 0.56232,-1.40108 1.33066,-1.40508 0.78599,-0.004 1.23779,0.51197 1.24179,1.341 l 0.0129,2.60708 0.66456,-0.003 -0.0139,-2.77141 c -0.005,-1.06186 -0.63859,-1.7837 -1.71773,-1.7787 z m -5.45858,0.0263 c -1.34691,0.006 -2.32576,1.08167 -2.31976,2.3425 v 0.017 c 0.006,1.26047 0.987,2.3087 2.32544,2.3027 1.34691,-0.007 2.33454,-1.08201 2.32854,-2.34249 v -0.0176 c -0.006,-1.26047 -0.99578,-2.30919 -2.33422,-2.30219 z m -4.92321,0.0238 c -0.76828,0.004 -1.23228,0.39498 -1.52343,0.88005 l -0.004,-0.77722 -0.66456,0.003 0.0217,4.46381 0.66507,-0.003 -0.0129,-2.55591 c -0.004,-0.8375 0.56331,-1.40109 1.3317,-1.40509 0.78578,-0.004 1.23779,0.51181 1.24179,1.34049 l 0.0124,2.60759 0.66456,-0.003 -0.0134,-2.77192 c -0.005,-1.06186 -0.63926,-1.78422 -1.71875,-1.77922 z m -5.25033,0.0512 c -0.65624,0.004 -1.13075,0.16126 -1.62161,0.38809 l 0.20154,0.54363 c 0.41356,-0.19226 0.82722,-0.32459 1.35392,-0.32659 0.83742,-0.004 1.32254,0.40805 1.32654,1.20251 l 0.001,0.13797 c -0.39786,-0.11039 -0.7952,-0.18593 -1.36529,-0.18293 -1.13097,0.005 -1.90618,0.50963 -1.90118,1.46813 l 5.2e-4,0.0176 c 0.005,0.91511 0.83587,1.38531 1.67328,1.38131 0.78563,-0.004 1.29319,-0.36841 1.60197,-0.7674 l 0.003,0.66508 0.65629,-0.003 -0.0134,-2.72852 c -0.003,-0.57009 -0.16028,-1.00077 -0.47284,-1.31051 -0.32106,-0.3175 -0.81367,-0.48824 -1.44384,-0.48524 z m 10.15907,0.51211 c 0.94121,-0.005 1.66156,0.77731 1.66656,1.73581 v 0.0176 c 0.005,0.94122 -0.66497,1.72099 -1.63194,1.72599 -0.94086,0.005 -1.65226,-0.76904 -1.65726,-1.72754 v -0.017 c -0.005,-0.94086 0.65568,-1.72978 1.62264,-1.73478 z m -10.19111,1.77663 c 0.54377,-0.003 0.97595,0.0905 1.30431,0.18397 l 0.002,0.41445 c 0.003,0.70802 -0.65878,1.20316 -1.47898,1.20716 -0.60442,0.003 -1.12355,-0.3224 -1.12655,-0.88367 l -5.1e-4,-0.0176 c -0.003,-0.53516 0.47077,-0.90034 1.29966,-0.90434 z m 3.77445,5.265831 -0.75965,0.004 0.004,0.7338 0.76016,-0.004 z m -13.17026,0.19379 -2.57349,0.0124 v 5.2e-4 l 0.0295,6.04356 2.68511,-0.0129 c 1.32112,-0.006 2.19039,-0.6241 2.18539,-1.65985 v -0.017 c -0.004,-0.82903 -0.58479,-1.24077 -1.30276,-1.45314 0.47406,-0.20955 0.95588,-0.6179 0.95188,-1.40354 v -0.0171 c -0.002,-0.38841 -0.14148,-0.70743 -0.39326,-0.96531 -0.34685,-0.33514 -0.89167,-0.53062 -1.58233,-0.52762 z m -0.0579,0.6134 c 0.86335,-0.004 1.34007,0.38188 1.34307,0.97772 v 0.0176 c 0.004,0.70803 -0.5642,1.08172 -1.38441,1.08572 l -1.78749,0.009 -0.0103,-2.08101 z m 29.70568,0.74414 c -0.88053,0.004 -1.51708,0.51684 -1.51308,1.28519 v 0.0176 c 0.004,0.82021 0.78234,1.05773 1.48259,1.25316 0.58773,0.16122 1.11577,0.33157 1.11777,0.78031 v 0.0171 c 0.002,0.4318 -0.3852,0.71062 -0.92036,0.71262 -0.5267,0.003 -1.06316,-0.20206 -1.54823,-0.56224 l -0.33486,0.47646 c 0.50306,0.40322 1.21217,0.64999 1.85105,0.64699 0.88936,-0.004 1.58633,-0.49985 1.58233,-1.34617 v -0.0171 c -0.004,-0.80257 -0.74791,-1.06681 -1.4397,-1.27072 -0.59655,-0.1785 -1.14987,-0.33977 -1.15187,-0.76274 v -0.0176 c -0.002,-0.37112 0.3332,-0.64864 0.85989,-0.65164 0.43145,-0.002 0.90734,0.15964 1.32292,0.42529 l 0.30024,-0.50229 c -0.45897,-0.29986 -1.0647,-0.48721 -1.60869,-0.48421 z m -3.95531,0.0191 c -0.88054,0.004 -1.5176,0.51736 -1.5136,1.28571 v 0.0171 c 0.004,0.82021 0.78233,1.05808 1.48259,1.25316 0.58773,0.16122 1.11577,0.33158 1.11777,0.78031 l 5.1e-4,0.0176 c 0.002,0.4318 -0.3852,0.70962 -0.92036,0.71262 -0.52669,0.002 -1.06367,-0.20206 -1.54874,-0.56224 l -0.33434,0.47594 c 0.50306,0.40358 1.21182,0.6505 1.85105,0.6475 0.88934,-0.005 1.58581,-0.49986 1.58181,-1.34617 v -0.0171 c -0.004,-0.80292 -0.74791,-1.06733 -1.4397,-1.27124 -0.59655,-0.1785 -1.14987,-0.33976 -1.15187,-0.76274 v -0.0171 c -0.002,-0.37147 0.33372,-0.65015 0.86041,-0.65215 0.43145,-0.002 0.90735,0.16017 1.32292,0.42581 l 0.29972,-0.5023 c -0.45896,-0.29985 -1.06419,-0.48772 -1.60817,-0.48472 z m -4.35322,0.005 c -1.23472,0.006 -2.13559,1.04606 -2.12959,2.34146 0.007,1.38959 1.01273,2.32627 2.23862,2.32027 0.84631,-0.004 1.38842,-0.34339 1.83503,-0.84646 l -0.41599,-0.36948 c -0.36089,0.38169 -0.79144,0.63417 -1.40457,0.63717 -0.78563,0.004 -1.47891,-0.53692 -1.57871,-1.47743 l 3.53983,-0.0171 c 0.008,-0.10372 0.008,-0.17276 0.008,-0.23306 -0.007,-1.31269 -0.77174,-2.36241 -2.09289,-2.35541 z m -4.73356,0.0222 c -0.76835,0.004 -1.23238,0.39498 -1.52343,0.88005 l -0.004,-0.77773 -0.66456,0.004 0.0217,4.46278 0.66455,-0.003 -0.0124,-2.55592 c -0.004,-0.83713 0.563,-1.40108 1.3317,-1.40508 0.78564,-0.004 1.23727,0.51198 1.24127,1.34101 l 0.0129,2.60759 0.66456,-0.003 -0.0134,-2.77141 c -0.005,-1.06221 -0.63925,-1.78422 -1.71875,-1.77922 z m -6.88227,0.0512 c -0.88057,0.005 -1.51709,0.51736 -1.51309,1.28571 v 0.017 c 0.004,0.82021 0.78213,1.05807 1.4826,1.25316 0.58773,0.16157 1.11576,0.33158 1.11776,0.78031 v 0.0176 c 0.002,0.4318 -0.38513,0.70962 -0.92036,0.71262 -0.52666,0.002 -1.06301,-0.20257 -1.54822,-0.56276 l -0.33487,0.47698 c 0.50313,0.40323 1.2122,0.64999 1.85105,0.64699 0.88939,-0.004 1.58634,-0.50022 1.58234,-1.34618 v -0.017 c -0.004,-0.80293 -0.74795,-1.06717 -1.43971,-1.27072 -0.59655,-0.17851 -1.14987,-0.34028 -1.15187,-0.76326 v -0.0171 c -0.002,-0.37113 0.33335,-0.64964 0.8599,-0.65164 0.43173,-0.002 0.90728,0.15966 1.32292,0.4253 l 0.29972,-0.50281 c -0.45903,-0.29986 -1.06412,-0.48621 -1.60817,-0.48421 z m 3.40289,0.0615 -0.66456,0.003 0.0217,4.46381 0.66507,-0.003 z m -6.00273,0.0294 -0.65629,0.003 0.0129,2.55592 c 0.004,0.83714 -0.57186,1.40108 -1.33171,1.40508 -0.78559,0.004 -1.23726,-0.51232 -1.24126,-1.341 l -0.0129,-2.60708 -0.66508,0.003 0.0139,2.77141 -5.1e-4,5.2e-4 c 0.005,1.06185 0.63913,1.78418 1.71824,1.77818 0.76857,-0.004 1.22458,-0.39429 1.52445,-0.87901 l 0.004,0.77669 0.65577,-0.003 z m 14.2012,0.39688 c 0.88053,-0.004 1.35015,0.68412 1.43195,1.49551 l -2.87527,0.014 c 0.0907,-0.86431 0.67497,-1.50547 1.44332,-1.50947 z m -21.30052,1.35599 c 1.0534,-0.005 1.60828,0.37219 1.61128,1.02836 v 0.0171 c 0.003,0.6731 -0.56487,1.08124 -1.48002,1.08624 l -2.02882,0.01 -0.0108,-2.13269 z m 4.19975,5.78982 c -1.77864,0.008 -3.04967,1.43134 -3.04167,3.1409 v 0.0171 c 0.009,1.73566 1.30227,3.10235 3.04632,3.09335 1.09664,-0.005 1.78495,-0.43143 2.41226,-1.07383 l -0.45114,-0.43822 c -0.57591,0.55527 -1.11827,0.8776 -1.94716,0.8816 -1.32979,0.007 -2.3448,-1.0848 -2.3518,-2.48357 v -0.0176 c -0.007,-1.38995 0.98901,-2.48325 2.32751,-2.48925 0.82007,-0.004 1.39209,0.33874 1.90376,0.81958 l 0.46354,-0.50281 c -0.60717,-0.56692 -1.26498,-0.95223 -2.36162,-0.94723 z m 13.94179,0.26872 -0.66508,0.003 0.007,1.3472 -0.62167,0.003 0.003,0.58704 0.62167,-0.003 0.0129,2.69441 h -5.2e-4 c 0.005,0.90664 0.5501,1.25871 1.26659,1.25471 0.31962,-0.002 0.57005,-0.0723 0.80254,-0.19431 l -0.003,-0.56999 c -0.23213,0.11359 -0.42176,0.15765 -0.64648,0.15865 -0.44909,0.002 -0.75299,-0.19499 -0.75499,-0.73897 l -0.0124,-2.60708 1.41542,-0.007 -0.003,-0.58757 -1.41645,0.007 z m 4.21576,1.21646 c -1.23473,0.006 -2.13558,1.04658 -2.12958,2.34198 0.007,1.38994 1.01288,2.32627 2.23913,2.32027 0.84596,-0.004 1.3879,-0.34375 1.83452,-0.84646 l -0.416,-0.36948 c -0.36078,0.3816 -0.7912,0.63454 -1.40405,0.63768 h -5.1e-4 c -0.78543,0.003 -1.47842,-0.5373 -1.5782,-1.47794 l 3.53983,-0.0176 c 0.008,-0.10337 0.008,-0.17185 0.007,-0.23255 -0.006,-1.31268 -0.77123,-2.36193 -2.09238,-2.35593 z m 5.38003,0.0279 c -0.80758,0.005 -1.42295,0.53291 -1.73736,1.25367 l -0.006,-1.1653 -0.66404,0.003 0.0217,4.46381 0.66456,-0.003 -0.009,-1.77871 c -0.006,-1.34654 0.78467,-2.04965 1.7601,-2.05465 l 0.0517,-5.2e-4 -0.003,-0.71727 c -0.0264,-9.3e-4 -0.0525,-0.001 -0.0786,-0.001 z m -13.35577,0.0263 c -0.76853,0.004 -1.23262,0.39447 -1.52394,0.87954 l -0.004,-0.77722 -0.66456,0.003 0.0217,4.4633 0.66456,-0.003 -0.0124,-2.55591 c -0.004,-0.83714 0.56331,-1.40208 1.3317,-1.40508 0.78581,-0.004 1.23727,0.51233 1.24127,1.341 l 0.0129,2.60708 0.66455,-0.003 -0.0134,-2.7714 c -0.005,-1.06222 -0.63948,-1.78371 -1.71876,-1.77871 z m -5.18211,0.0248 c -1.23472,0.006 -2.13559,1.04709 -2.12959,2.34249 0.007,1.38959 1.01258,2.32576 2.23863,2.31976 0.84626,-0.004 1.38892,-0.34375 1.83554,-0.84646 l -0.41651,-0.36897 c -0.36065,0.38159 -0.79123,0.63303 -1.40405,0.63717 h -5.2e-4 c -0.78541,0.003 -1.47862,-0.53695 -1.57819,-1.47795 l 3.54035,-0.017 c 0.008,-0.10336 0.007,-0.17236 0.007,-0.23306 -0.006,-1.31269 -0.7714,-2.36193 -2.09238,-2.35593 z m 13.14286,0.48266 c 0.88089,-0.005 1.35098,0.68361 1.43248,1.495 l -2.87528,0.0145 c 0.0907,-0.8643 0.67446,-1.50547 1.4428,-1.50947 z m -13.15733,0.0791 c 0.88067,-0.005 1.35035,0.68361 1.43195,1.495 l -2.87527,0.0139 c 0.0907,-0.8636 0.67476,-1.50495 1.44332,-1.50895 z" />
    </g>
    <g
       id="g60"
       transform="matrix(0.26458333,0,0,0.26458333,93.215083,55.032807)">
      <path
         id="path35"
         style="fill:#e31b22;fill-opacity:1;fill-rule:nonzero;stroke:none"
         d="m 470.2588,4201.8854 c -59.16394,0 -110.9748,-21.5795 -140.00977,-53.9795 -21.24998,-23.9099 -34.14551,-54.0134 -34.14551,-86.7334 0,-32.8199 12.89553,-62.8152 34.14551,-86.8652 29.03497,-32.35 80.22596,-53.8916 138.2959,-53.8916 58.14095,0 109.21393,21.5416 138.29591,53.8916 1.58199,1.87 3.18655,3.6378 4.64355,5.5078 l -4.36523,16.5527 c -20.35898,-29.3599 -54.19498,-48.3984 -92.46094,-48.3984 -62.23394,0 -112.71973,50.6432 -112.71973,113.2031 0,62.55 50.48579,113.2471 112.71973,113.2471 22.01597,0 42.42429,-6.3005 59.78027,-17.2705 l -59.78027,-95.9766 112.48535,65.2442 c -12.28499,19.52 -29.79318,36.4673 -51.03516,49.2773 -26.90297,16.18 -64.31865,26.1914 -105.84961,26.1914 z m 305.65431,-48.0322 c -8.035,0 -15.73268,-1.4976 -22.76368,-4.0576 l -101.55762,-37.1338 h 104.41407 l 17.88574,-66.9873 c -17.33998,14.91 -39.95163,24.0527 -64.59961,24.0527 -48.98395,0 -88.72559,-33.0649 -88.72559,-73.7549 0,-40.7199 39.74164,-73.8427 88.72559,-73.8427 35.28096,0 66.50368,17.4171 85.72266,44.0771 l 10.3418,-38.9648 h 82.0459 l -47.15333,176.9385 c -7.66399,28.6299 -33.51497,49.6728 -64.33593,49.6728 z m 180.9082,0 c -6.13999,0 -12.02886,-1.4972 -17.25586,-3.8672 l -79.70215,-37.3242 h 56.04493 v -185.4199 h 81.94336 v 164.8095 c 0,11.43 9.17321,20.6104 20.49321,20.6104 11.2499,0 20.4492,-9.1804 20.4492,-20.6104 v -164.8095 h 81.9726 v 185.4199 c 0,22.74 -18.3024,41.1914 -40.9424,41.1914 -6.3099,0 -12.0777,-1.4972 -17.3877,-3.8672 l -65.1562,-30.6152 c -3.183,19.53 -19.99401,34.4824 -40.45899,34.4824 z m 314.19439,0 c -64.2,0 -116.0743,-52.2488 -116.0743,-116.7187 0,-64.33 51.8743,-116.7188 116.0743,-116.7188 64.1399,0 116.1181,52.3888 116.1181,116.7188 0,64.4699 -51.9782,116.7187 -116.1181,116.7187 z m 199.7607,0 c -6.2,0 -12.1652,-1.4972 -17.2852,-3.8672 l -79.7314,-37.3242 h 55.9863 v -185.4199 h 82.0459 v 164.8095 c 0,11.43 9.0846,20.6104 20.4346,20.6104 11.29,0 20.4639,-9.1804 20.4639,-20.6104 v -164.8095 h 82.0459 v 185.4199 c 0,22.74 -18.451,41.1914 -41.001,41.1914 -6.25,0 -12.0845,-1.4972 -17.3145,-3.8672 l -65.2148,-30.6152 c -3.29,19.53 -20.0597,34.4824 -40.4297,34.4824 z m -218.6426,-16.3916 c 10.8828,-0.4288 20.7665,-7.9134 23.7158,-19.1016 l 39.8145,-149.165 c 3.65,-13.75 -4.5108,-27.7156 -18.0908,-31.4356 -13.77,-3.7899 -27.7123,4.3555 -31.3623,18.1055 l -39.8145,149.1797 c -3.65,13.67 4.3701,27.8981 18.1201,31.5381 2.5444,0.6937 5.1058,0.9779 7.6172,0.8789 z M 743.36428,4037.1345 c 22.74597,0 41.10351,-18.4322 41.10351,-41.1622 0,-22.7499 -18.35754,-41.1474 -41.10351,-41.1474 -22.58598,0 -40.89844,18.3975 -40.89844,41.1474 0,22.73 18.31246,41.1622 40.89844,41.1622 z"
         transform="matrix(0.13333333,0,0,-0.13333333,0,560.25333)" />
      <path
         id="path40"
         style="fill:#231f20;fill-opacity:1;fill-rule:nonzero;stroke:none"
         d="m 863.02737,3776.319 v -82.5293 h 8.70117 v 33.457 c 0,10.97 7.46419,18.3252 17.53418,18.3252 10.28499,0 16.17187,-6.7767 16.17187,-17.6367 v -34.1455 h 8.70118 v 36.2842 c 0,13.9 -8.24983,23.4082 -22.38282,23.4082 -10.06599,0 -16.17742,-5.0911 -20.02441,-11.4111 v 34.248 z m 367.82223,0 v -35.2734 c -4.51,6.55 -11.5228,12.4365 -22.3828,12.4365 -14.02,0 -27.9199,-11.3002 -27.9199,-30.4102 v -0.2343 c 0,-19.22 13.8999,-30.293 27.9199,-30.293 10.74,0 17.6428,5.9932 22.3828,12.9932 v -11.7481 h 8.7159 v 82.5293 z m -189.4043,-1.6846 v -9.6093 h 9.961 v 9.6093 z m -708.25193,-0.3515 c -23.28898,0 -40.03418,-18.5378 -40.03418,-40.9278 v -0.2197 c 0,-22.72 16.85729,-40.708 39.69726,-40.708 14.36699,0 23.40529,5.5414 31.65528,13.9014 l -5.87403,5.7715 c -7.57799,-7.24 -14.69753,-11.4258 -25.56152,-11.4258 -17.40998,0 -30.62988,14.3607 -30.62988,32.6806 v 0.2344 c 0,18.2 13.1149,32.4463 30.62988,32.4463 10.74199,0 18.2037,-4.5145 24.8877,-10.8545 l 6.09375,6.5625 c -7.918,7.46 -16.50428,12.5391 -30.86426,12.5391 z m 990.89353,0 c -23.2999,0 -40.0488,-18.5378 -40.0488,-40.9278 v -0.2197 c 0,-22.72 16.8573,-40.708 39.6973,-40.708 14.37,0 23.4053,5.5414 31.6553,13.9014 l -5.8741,5.7715 c -7.58,-7.24 -14.7015,-11.4258 -25.5615,-11.4258 -17.42,0 -30.6445,14.3607 -30.6445,32.6806 v 0.2344 c 0,18.2 13.1245,32.4463 30.6445,32.4463 10.74,0 18.2077,-4.5145 24.8877,-10.8545 l 6.0938,6.5625 c -7.91,7.46 -16.4997,12.5391 -30.8497,12.5391 z m -623.54001,-0.7764 -36.06445,-79.7168 h 9.15527 l 9.375,20.9033 h 43.09571 l 9.25781,-20.9033 h 9.60937 l -36.06445,79.7168 z m 123.26661,-3.6328 v -17.6367 h -8.14453 v -7.6904 h 8.14453 v -35.2735 c 0,-11.87 7.1268,-16.5088 16.50879,-16.5088 4.18399,0 7.45858,0.9103 10.51758,2.4903 v 7.456 c -3.059,-1.46 -5.54045,-2.0361 -8.48145,-2.0361 -5.87499,0 -9.84375,2.6112 -9.84375,9.7412 v 34.1309 h 18.54492 v 7.6904 h -18.54492 v 17.6367 z m 673.916,0 v -17.6367 h -8.1445 v -7.6904 h 8.1445 v -35.2735 c 0,-11.87 7.1242,-16.5088 16.4942,-16.5088 4.18,0 7.4676,0.9103 10.5175,2.4903 v 7.456 c -3.0499,-1.46 -5.5314,-2.0361 -8.4814,-2.0361 -5.87,0 -9.8144,2.6112 -9.8144,9.7412 v 34.1309 h 18.5302 v 7.6904 h -18.5302 v 17.6367 z m -793.11034,-6.7676 17.97363,-40.3711 h -36.06445 z m -238.65235,-9.624 c -10.07099,0 -16.17242,-5.0911 -20.02442,-11.4111 v 10.166 h -8.70117 v -58.4473 h 8.70117 v 33.457 c 0,10.97 7.46319,18.3252 17.53418,18.3252 10.28499,0 16.17188,-6.7767 16.17188,-17.6367 v -34.1455 h 8.70117 v 36.2842 c 0,13.9 -8.25383,23.4082 -22.38281,23.4082 z m 64.40918,0 c -17.63698,0 -30.52734,-14.0174 -30.52734,-30.5273 v -0.2198 c 0,-16.51 12.77698,-30.3076 30.29296,-30.3076 17.63599,0 30.64454,14.0274 30.64454,30.5274 v 0.2197 c 0,16.51 -12.88318,30.3076 -30.41016,30.3076 z m 71.41113,0 c -10.06599,0 -16.18141,-5.0911 -20.02441,-11.4111 v 10.166 h -8.70117 v -58.4473 h 8.70117 v 33.457 c 0,10.97 7.46419,18.3252 17.53418,18.3252 10.28099,0 16.17188,-6.7767 16.17188,-17.6367 v -34.1455 h 8.70117 v 36.2842 c 0,13.9 -8.24983,23.4082 -22.38282,23.4082 z m 354.36036,0 c -17.63598,0 -30.52734,-14.0174 -30.52734,-30.5273 v -0.2198 c 0,-16.51 12.78364,-30.3076 30.30762,-30.3076 17.63998,0 30.64453,14.0274 30.64453,30.5274 v 0.2197 c 0,16.51 -12.88882,30.3076 -30.42481,30.3076 z m 188.71582,0 c -16.17,0 -28.0517,-13.5574 -28.0517,-30.5273 0,-18.2 13.115,-30.5274 29.165,-30.5274 11.1,0 18.2067,4.407 24.0967,10.957 l -5.4346,4.878 c -4.76,-4.98 -10.4077,-8.2617 -18.4277,-8.2617 -10.3,0 -19.3457,7.1331 -20.5957,19.4531 h 46.3769 c 0.11,1.35 0.1026,2.2569 0.1026,3.0469 0,17.1899 -9.9515,30.9814 -27.2315,30.9814 z m 244.5264,0 c -16.17,0 -28.0518,-13.5574 -28.0518,-30.5273 0,-18.2 13.1151,-30.5274 29.1651,-30.5274 11.1,0 18.2067,4.407 24.0966,10.957 l -5.4345,4.878 c -4.76,-4.98 -10.4078,-8.2617 -18.4278,-8.2617 -10.3,0 -19.331,7.1331 -20.581,19.4531 h 46.3623 c 0.12,1.35 0.1172,2.2569 0.1172,3.0469 0,17.1899 -9.9661,30.9814 -27.2461,30.9814 z m 67.793,0 c -10.08,0 -16.1745,-5.0911 -20.0245,-11.4111 v 10.166 h -8.7011 v -58.4473 h 8.7011 v 33.457 c 0,10.97 7.4596,18.3252 17.5196,18.3252 10.3,0 16.1718,-6.7767 16.1718,-17.6367 v -34.1455 h 8.7159 v 36.2842 c 0,13.9 -8.2629,23.4082 -22.3828,23.4082 z m 102.4804,0 c -16.17,0 -28.0371,-13.5574 -28.0371,-30.5273 0,-18.2 13.1197,-30.5274 29.1797,-30.5274 11.07,0 18.1874,4.407 24.0674,10.957 l -5.4199,4.878 c -4.75,-4.98 -10.3978,-8.2617 -18.4278,-8.2617 -10.29,0 -19.331,7.1331 -20.581,19.4531 h 46.3476 c 0.12,1.35 0.1172,2.2569 0.1172,3.0469 0,17.1899 -9.9361,30.9814 -27.2461,30.9814 z m -529.2773,-0.2051 c -10.5669,-0.011 -18.6713,-6.8874 -22.8369,-16.3037 v 15.2637 h -8.68657 v -58.4473 h 8.68657 v 23.2764 c 0,17.65 10.4084,26.8066 23.1884,26.8066 h 0.6885 v 9.3897 c -0.3459,0.014 -0.6992,0.015 -1.04,0.015 z m 599.8828,0 c -10.5657,-0.011 -18.6517,-6.8874 -22.8076,-16.3037 v 15.2637 h -8.7158 v -58.4473 h 8.7158 v 23.2764 c 0,17.65 10.3838,26.8066 23.1738,26.8066 h 0.6592 v 9.3897 c -0.346,0.014 -0.6846,0.015 -1.0254,0.015 z m -544.8633,-0.015 c -11.53,0 -19.9072,-6.6732 -19.9072,-16.7432 v -0.2197 c 0,-10.74 10.1759,-13.9088 19.3359,-16.5088 7.69,-2.15 14.5899,-4.4179 14.5899,-10.2979 v -0.2197 c 0,-5.65 -5.075,-9.2724 -12.085,-9.2724 -6.9,0 -13.9042,2.706 -20.2441,7.456 l -4.4092,-6.2109 c 6.54,-5.32 15.8192,-8.5987 24.1992,-8.5987 11.64,0 20.8008,6.4542 20.8008,17.5342 v 0.2344 c 0,10.51 -9.7247,14.0185 -18.7647,16.7285 -7.81,2.37 -15.0439,4.5088 -15.0439,10.0488 v 0.2344 c 0,4.86 4.4186,8.4815 11.3086,8.4815 5.65,0 11.8898,-2.1443 17.2998,-5.6543 l 3.9551,6.5625 c -6,3.96 -13.9152,6.4453 -21.0352,6.4453 z m -688.15431,-0.1172 c -8.58599,0 -14.80989,-2.0405 -21.25489,-4.9805 l 2.59278,-7.1191 c 5.42899,2.49 10.85891,4.1894 17.7539,4.1894 10.96499,0 17.29981,-5.4349 17.29981,-15.8349 v -1.8164 c -5.2,1.47 -10.39545,2.4902 -17.85645,2.4902 -14.81198,0 -24.99023,-6.5516 -24.99023,-19.1016 v -0.2343 c 0,-11.98 10.85718,-18.1934 21.82617,-18.1934 10.28099,0 16.94551,4.7463 21.02051,9.9463 v -8.7012 h 8.59863 v 35.7276 c 0,7.4699 -2.0384,13.1126 -6.1084,17.1826 -4.17999,4.18 -10.61984,6.4453 -18.88183,6.4453 z m 356.38184,-0.9082 v -36.2842 c 0,-13.91 8.26148,-23.4082 22.39746,-23.4082 10.06299,0 16.05277,5.0811 20.00977,11.4111 v -10.166 h 8.58398 v 58.4473 h -8.58398 v -33.4717 c 0,-10.97 -7.58519,-18.3105 -17.53418,-18.3105 -10.28499,0 -16.15723,6.7913 -16.15723,17.6513 v 34.1309 z m 288.38377,0 v -58.4473 h 8.7012 v 58.4473 z m 102.5977,-6.1084 c 11.53,0 17.6421,-9.0429 18.6621,-19.6729 h -37.6611 c 1.25,11.31 8.949,19.6729 18.999,19.6729 z m 244.541,0 c 11.53,0 17.6275,-9.0429 18.6475,-19.6729 h -37.6465 c 1.25,11.31 8.949,19.6729 18.999,19.6729 z m 170.2734,0 c 11.54,0 17.6568,-9.0429 18.6768,-19.6729 h -37.6611 c 1.25,11.31 8.9244,19.6729 18.9843,19.6729 z m -1029.28709,-0.3223 c 12.32799,0 21.70899,-10.2916 21.70899,-22.8515 v -0.2198 c 0,-12.32 -8.81062,-22.5 -21.47461,-22.5 -12.32399,0 -21.5918,10.1798 -21.5918,22.7198 v 0.2197 c 0,12.33 8.69244,22.6318 21.35742,22.6318 z m 425.78615,0 c 12.32799,0 21.70898,-10.2916 21.70898,-22.8515 v -0.2198 c 0,-12.32 -8.81727,-22.5 -21.48926,-22.5 -12.32398,0 -21.59179,10.1798 -21.59179,22.7198 v 0.2197 c 0,12.33 8.70408,22.6318 21.37207,22.6318 z m 254.12114,-0.1318 c 10.8599,0 21.1377,-9.04 21.1377,-22.5 v -0.2197 c 0,-13.45 -10.2778,-22.6172 -21.1377,-22.6172 -11.07,0 -20.5811,8.8272 -20.5811,22.6172 v 0.2197 c 0,14.14 9.2811,22.5 20.5811,22.5 z m -813.35455,-22.5 c 7.12099,0 12.76843,-1.2356 17.06543,-2.4756 v -5.4346 c 0,-9.27 -8.71114,-15.7177 -19.45313,-15.7177 -7.91399,0 -14.69238,4.3101 -14.69238,11.6601 v 0.2197 c 0,7.01 6.22009,11.7481 17.08008,11.7481 z"
         transform="matrix(0.13333333,0,0,-0.13333333,0,560.25333)" />
    </g>
  </g>
</svg>
