<?xml version="1.0" encoding="UTF-8" standalone="no"?>
<!-- Created with Inkscape (http://www.inkscape.org/) -->

<svg
   width="68.175369mm"
   height="117.52326mm"
   viewBox="0 0 68.175369 117.52326"
   version="1.1"
   id="svg1"
   inkscape:version="1.3 (0e150ed6c4, 2023-07-21)"
   sodipodi:docname="CBC_Aalst_Portrait_Less_Text.svg"
   xmlns:inkscape="http://www.inkscape.org/namespaces/inkscape"
   xmlns:sodipodi="http://sodipodi.sourceforge.net/DTD/sodipodi-0.dtd"
   xmlns="http://www.w3.org/2000/svg"
   xmlns:svg="http://www.w3.org/2000/svg">
  <sodipodi:namedview
     id="namedview1"
     pagecolor="#a2a2a2"
     bordercolor="#999999"
     borderopacity="1"
     inkscape:showpageshadow="2"
     inkscape:pageopacity="0"
     inkscape:pagecheckerboard="true"
     inkscape:deskcolor="#d1d1d1"
     inkscape:document-units="mm"
     showguides="true"
     inkscape:zoom="2.5923822"
     inkscape:cx="-71.941552"
     inkscape:cy="245.52707"
     inkscape:window-width="3200"
     inkscape:window-height="1711"
     inkscape:window-x="2391"
     inkscape:window-y="369"
     inkscape:window-maximized="1"
     inkscape:current-layer="layer1"
     showgrid="false" />
  <defs
     id="defs1" />
  <g
     inkscape:label="Layer 1"
     inkscape:groupmode="layer"
     id="layer1"
     transform="translate(-93.133333,-55.033325)">
    <path
       id="path3"
       d="m 112.21641,172.02329 c 0.74827,0 1.2609,-0.59532 1.2609,-1.27744 v -0.004 c 0,-0.68213 -0.50436,-1.26917 -1.25677,-1.26917 -0.74827,0 -1.2609,0.59531 -1.2609,1.2733 v 0.008 c 0,0.68213 0.50436,1.26918 1.25677,1.26918 z m 0.004,-0.25632 c -0.56224,0 -0.97152,-0.45889 -0.97152,-1.02112 v -0.004 c 0,-0.56224 0.40101,-1.01286 0.96739,-1.01286 0.56224,0 0.97151,0.45889 0.97151,1.01699 v 0.008 c 0,0.56224 -0.401,1.01286 -0.96738,1.01286 z m 1.71152,0.77721 h 0.27286 v -0.9095 c 0.14056,0.20257 0.35966,0.38447 0.69866,0.38447 0.44235,0 0.8723,-0.3514 0.8723,-0.94671 v -0.008 c 0,-0.59944 -0.43408,-0.94258 -0.8723,-0.94258 -0.33486,0 -0.54984,0.18604 -0.69866,0.40515 v -0.36794 h -0.27286 z m 0.92191,-0.76481 c -0.339,0 -0.66146,-0.28525 -0.66146,-0.70693 v -0.008 c 0,-0.41341 0.32246,-0.7028 0.66146,-0.7028 0.34727,0 0.64079,0.27699 0.64079,0.70694 v 0.008 c 0,0.43822 -0.28939,0.7028 -0.64079,0.7028 z m 1.49759,-0.59944 h 1.4428 c 0.004,-0.0413 0.004,-0.0703 0.004,-0.0951 0,-0.5333 -0.31006,-0.96325 -0.8475,-0.96325 -0.50436,0 -0.87643,0.42168 -0.87643,0.95085 0,0.56637 0.40928,0.95085 0.9095,0.95085 0.34727,0 0.56638,-0.13643 0.75241,-0.34314 l -0.1695,-0.14882 c -0.14882,0.15296 -0.32659,0.25631 -0.57464,0.25631 -0.32246,0 -0.60358,-0.22324 -0.64078,-0.60771 z m 0,-0.21911 c 0.0372,-0.3514 0.27698,-0.61185 0.59117,-0.61185 0.35967,0 0.54984,0.28112 0.58291,0.61185 z m 1.83451,1.02113 h 0.27285 v -0.72761 c 0,-0.54984 0.3266,-0.83509 0.72347,-0.83509 h 0.0207 v -0.29352 c -0.34727,-0.0124 -0.61185,0.2067 -0.74414,0.50849 v -0.47542 h -0.27285 z m 1.79834,0.0372 c 0.31833,0 0.52916,-0.14469 0.65319,-0.31006 v 0.27286 h 0.26872 v -1.11622 c 0,-0.23151 -0.062,-0.40514 -0.19017,-0.5333 -0.12816,-0.13229 -0.33073,-0.20257 -0.58705,-0.20257 -0.26872,0 -0.46302,0.0661 -0.66559,0.1571 l 0.0827,0.21911 c 0.1695,-0.0744 0.339,-0.12816 0.55397,-0.12816 0.34314,0 0.53744,0.1695 0.53744,0.49196 v 0.0579 c -0.16123,-0.0455 -0.32246,-0.0786 -0.55397,-0.0786 -0.46302,0 -0.78135,0.2067 -0.78135,0.59531 v 0.008 c 0,0.37207 0.339,0.56637 0.68213,0.56637 z m 0.0537,-0.21911 c -0.24805,0 -0.45888,-0.13229 -0.45888,-0.35966 v -0.008 c 0,-0.21911 0.1943,-0.36794 0.52916,-0.36794 0.22324,0 0.40101,0.0413 0.5333,0.0785 v 0.1695 c 0,0.28939 -0.26871,0.48782 -0.60358,0.48782 z m 1.94924,0.21498 c 0.12815,0 0.23151,-0.0289 0.32659,-0.0786 v -0.23151 c -0.0951,0.0455 -0.17363,0.062 -0.26458,0.062 -0.1819,0 -0.30593,-0.0827 -0.30593,-0.30179 v -1.0666 h 0.57878 v -0.23978 h -0.57878 v -0.54984 h -0.27285 v 0.54984 h -0.25218 v 0.23978 h 0.25218 v 1.09967 c 0,0.37207 0.22324,0.51677 0.51677,0.51677 z m 0.83715,-0.83509 h 1.44281 c 0.004,-0.0413 0.004,-0.0703 0.004,-0.0951 0,-0.5333 -0.31006,-0.96325 -0.8475,-0.96325 -0.50436,0 -0.87643,0.42168 -0.87643,0.95085 0,0.56637 0.40928,0.95085 0.9095,0.95085 0.34727,0 0.56638,-0.13643 0.75241,-0.34314 l -0.1695,-0.14882 c -0.14882,0.15296 -0.32659,0.25631 -0.57464,0.25631 -0.32246,0 -0.60358,-0.22324 -0.64079,-0.60771 z m 0,-0.21911 c 0.0372,-0.3514 0.27699,-0.61185 0.59118,-0.61185 0.35967,0 0.54984,0.28112 0.58291,0.61185 z m 2.60036,1.05833 c 0.33487,0 0.55397,-0.18603 0.69867,-0.40514 v 0.36794 h 0.27285 v -2.57556 h -0.27285 v 1.09968 c -0.14056,-0.20258 -0.35967,-0.38448 -0.69867,-0.38448 -0.43408,0 -0.86816,0.3514 -0.86816,0.94672 v 0.008 c 0,0.59945 0.43408,0.94258 0.86816,0.94258 z m 0.0496,-0.23978 c -0.34313,0 -0.64079,-0.27698 -0.64079,-0.70693 v -0.008 c 0,-0.43821 0.28939,-0.7028 0.64079,-0.7028 0.339,0 0.66146,0.28526 0.66146,0.7028 v 0.008 c 0,0.41755 -0.32246,0.70693 -0.66146,0.70693 z m 3.38067,0.23978 c 0.44235,0 0.8723,-0.3514 0.8723,-0.94671 v -0.008 c 0,-0.59944 -0.43408,-0.94258 -0.8723,-0.94258 -0.33486,0 -0.54983,0.18604 -0.69866,0.40515 v -1.12035 h -0.27285 v 2.57556 h 0.27285 v -0.34727 c 0.14056,0.20257 0.35967,0.38447 0.69866,0.38447 z m -0.0496,-0.23978 c -0.33899,0 -0.66145,-0.28525 -0.66145,-0.70693 v -0.008 c 0,-0.41341 0.32246,-0.7028 0.66145,-0.7028 0.34727,0 0.64079,0.27699 0.64079,0.70694 v 0.008 c 0,0.43822 -0.28939,0.7028 -0.64079,0.7028 z m 1.52963,0.77722 c 0.27285,0 0.45062,-0.13643 0.60358,-0.51263 l 0.76481,-1.88516 h -0.28939 l -0.58291,1.52135 -0.66146,-1.52135 h -0.30179 l 0.82683,1.81488 c -0.10749,0.26045 -0.21084,0.34313 -0.37208,0.34313 -0.11575,0 -0.19843,-0.0207 -0.28525,-0.0661 l -0.091,0.21498 c 0.12402,0.0579 0.23564,0.0909 0.38861,0.0909 z m 2.69027,-2.79466 h 0.31006 v -0.30179 h -0.31006 z m 0.0165,2.22002 h 0.27285 v -1.82315 h -0.27285 z m 0.85989,0 h 0.8599 c 0.77308,0 1.31051,-0.54157 1.31051,-1.2361 v -0.004 c 0,-0.69453 -0.53743,-1.22783 -1.31051,-1.22783 h -0.8599 z m 0.28112,-0.25632 v -1.95544 h 0.57878 c 0.62425,0 1.02113,0.42995 1.02113,0.97566 v 0.008 c 0,0.54571 -0.39688,0.97152 -1.02113,0.97152 z m 3.17914,0.29766 c 0.54984,0 0.95498,-0.43822 0.95498,-0.95085 v -0.008 c 0,-0.51263 -0.40101,-0.94258 -0.95085,-0.94258 -0.54984,0 -0.95084,0.43409 -0.95084,0.95085 v 0.008 c 0,0.51263 0.39687,0.94258 0.94671,0.94258 z m 0.004,-0.24392 c -0.38447,0 -0.67386,-0.31419 -0.67386,-0.70693 v -0.008 c 0,-0.38447 0.27285,-0.7028 0.66973,-0.7028 0.38447,0 0.67386,0.31833 0.67386,0.71107 v 0.008 c 0,0.38447 -0.27285,0.69866 -0.66973,0.69866 z m 2.17351,0.24392 c 0.34313,0 0.56224,-0.14883 0.74414,-0.3514 l -0.17363,-0.16123 c -0.14469,0.15296 -0.32246,0.26871 -0.55397,0.26871 -0.38447,0 -0.67386,-0.31419 -0.67386,-0.70693 v -0.008 c 0,-0.3886 0.28525,-0.7028 0.65319,-0.7028 0.24805,0 0.40928,0.11989 0.55397,0.27285 l 0.1819,-0.19017 c -0.1695,-0.17776 -0.38447,-0.32246 -0.73174,-0.32246 -0.5333,0 -0.93431,0.43409 -0.93431,0.95085 v 0.008 c 0,0.50849 0.40101,0.94258 0.93431,0.94258 z m 1.71566,-0.008 c 0.12816,0 0.23151,-0.0289 0.3266,-0.0786 v -0.23151 c -0.0951,0.0455 -0.17364,0.062 -0.26459,0.062 -0.1819,0 -0.30592,-0.0827 -0.30592,-0.30179 v -1.0666 h 0.57877 v -0.23978 h -0.57877 v -0.54984 h -0.27285 v 0.54984 h -0.25219 v 0.23978 h 0.25219 v 1.09967 c 0,0.37207 0.22324,0.51677 0.51676,0.51677 z m 1.27124,0.004 c 0.31833,0 0.52917,-0.14469 0.65319,-0.31006 v 0.27286 h 0.26872 v -1.11622 c 0,-0.23151 -0.062,-0.40514 -0.19017,-0.5333 -0.12816,-0.13229 -0.33073,-0.20257 -0.58705,-0.20257 -0.26871,0 -0.46302,0.0661 -0.66559,0.1571 l 0.0827,0.21911 c 0.1695,-0.0744 0.339,-0.12816 0.55398,-0.12816 0.34313,0 0.53743,0.1695 0.53743,0.49196 v 0.0579 c -0.16123,-0.0455 -0.32246,-0.0786 -0.55397,-0.0786 -0.46302,0 -0.78135,0.2067 -0.78135,0.59531 v 0.008 c 0,0.37207 0.339,0.56637 0.68213,0.56637 z m 0.0537,-0.21911 c -0.24804,0 -0.45888,-0.13229 -0.45888,-0.35966 v -0.008 c 0,-0.21911 0.1943,-0.36794 0.52916,-0.36794 0.22325,0 0.40101,0.0413 0.5333,0.0785 v 0.1695 c 0,0.28939 -0.26871,0.48782 -0.60358,0.48782 z m 0,0"
       style="fill:#ffffff;fill-opacity:1;fill-rule:nonzero;stroke:none;stroke-width:0.35278"
       aria-label="Operated by iDocta"
       inkscape:label="Operated by iDocta" />
    <g
       id="g1"
       inkscape:label="C logo"
       transform="translate(0,-8.5209447)">
      <path
         id="path23"
         d="m 127.22186,146.43241 c -8.81807,0 -16.85367,-3.34892 -22.90618,-8.84379 l 22.90618,22.90548 22.90273,-22.9023 c -6.05155,5.4931 -14.08607,8.84061 -22.90273,8.84061"
         style="fill:#bdbcbc;fill-opacity:1;fill-rule:nonzero;stroke:none;stroke-width:0.0352778" />
      <path
         id="path28"
         d="m 151.7396,136.01347 c 6.04062,-6.14927 9.5691,-14.36723 9.5691,-23.66822 0,-9.15987 -3.61915,-17.469553 -9.49748,-23.594128 0.89676,0.932038 1.45133,2.196041 1.45133,3.592336 0,2.864556 -2.32199,5.185834 -5.18619,5.185834 -1.48696,0 -2.82293,-0.628298 -3.76837,-1.630892 4.10598,4.26544 6.63539,10.05911 6.63539,16.44685 0,6.36235 -2.51036,12.13521 -6.58777,16.39606 0.94262,-0.97402 2.25778,-1.58468 3.72075,-1.58468 2.8642,0 5.18619,2.32128 5.18619,5.18619 0,1.43404 -0.58244,2.73226 -1.52295,3.67065"
         style="fill:#bdbcbc;fill-opacity:1;fill-rule:nonzero;stroke:none;stroke-width:0.0352778" />
      <path
         id="path34"
         d="m 148.07636,127.15663 c -1.48837,0 -2.82575,0.63006 -3.7712,1.63371 -4.31588,4.48134 -10.37025,7.2764 -17.0833,7.2764 -13.101,0 -23.7225,-10.62144 -23.7225,-23.7229 0,-7e-4 0,-7e-4 0,-7e-4 0,0 0,-3.6e-4 0,-7.1e-4 0,-13.101461 10.6215,-23.723247 23.7225,-23.723247 6.71305,0 12.76742,2.795058 17.0833,7.276747 0.94545,1.003653 2.28283,1.633362 3.7712,1.633362 2.8642,0 5.18619,-2.321278 5.18619,-5.185834 0,-1.434395 -0.58244,-2.731911 -1.52295,-3.670653 l 7.1e-4,-7.06e-4 c -6.19972,-6.41985 -14.88969,-10.418586 -24.51845,-10.418586 -18.82634,0 -34.088527,15.262226 -34.088527,34.088917 0,3.5e-4 0,3.5e-4 0,3.5e-4 0,3.6e-4 0,3.6e-4 0,10e-4 0,18.82634 15.262187,34.08857 34.088527,34.08857 9.62876,0 18.31873,-3.99874 24.51845,-10.41824 l -7.1e-4,-7e-4 c 0.94051,-0.93839 1.52295,-2.23661 1.52295,-3.67065 0,-2.86491 -2.32199,-5.18619 -5.18619,-5.18619"
         style="fill:#e31b22;fill-opacity:1;fill-rule:nonzero;stroke:none;stroke-width:0.0352778" />
    </g>
    <path
       id="path35"
       style="fill:#e31b22;fill-opacity:1;fill-rule:nonzero;stroke:none;stroke-width:0.0352778"
       d="m 109.75283,55.033325 c -2.08717,0 -3.91495,0.760761 -4.93924,1.90376 -0.74965,0.84349 -1.20457,1.90599 -1.20457,3.060278 0,1.157816 0.45492,2.215467 1.20457,3.063896 1.02429,1.141236 2.8302,1.901692 4.87878,1.901692 2.05108,0 3.85282,-0.760456 4.87877,-1.901692 0.0558,-0.06597 0.11241,-0.128335 0.16381,-0.194304 l -0.15399,-0.583943 c -0.71822,1.035754 -1.91188,1.707906 -3.26182,1.707906 -2.19547,0 -3.9765,-1.786579 -3.9765,-3.993555 0,-2.206623 1.78103,-3.995105 3.9765,-3.995105 0.77668,0 1.49664,0.222269 2.10892,0.609265 l -2.10892,3.38584 3.96823,-2.301668 c -0.43339,-0.688622 -1.05103,-1.287004 -1.8004,-1.738912 -0.94908,-0.570794 -2.26902,-0.923458 -3.73414,-0.923458 z m 10.7828,1.69447 c -0.28345,0 -0.55502,0.05231 -0.80305,0.142627 l -3.58273,1.310514 h 3.6835 l 0.63097,2.362647 c -0.61172,-0.52599 -1.40941,-0.848527 -2.27893,-0.848527 -1.72805,0 -3.13004,1.166974 -3.13004,2.602425 0,1.43651 1.40199,2.605009 3.13004,2.605009 1.24463,0 2.3461,-0.614956 3.0241,-1.555461 l 0.36484,1.37511 h 2.8944 l -1.66347,-6.241996 c -0.27037,-1.010002 -1.18233,-1.752348 -2.26963,-1.752348 z m 6.38204,0 c -0.21661,0 -0.42436,0.0523 -0.60875,0.135909 l -2.81171,1.317232 h 1.97714 v 6.541203 h 2.89078 v -5.814115 c 0,-0.403225 0.32361,-0.727088 0.72295,-0.727088 0.39688,0 0.7214,0.323863 0.7214,0.727088 v 5.814115 h 2.89182 v -6.541203 c 0,-0.802216 -0.64568,-1.453141 -1.44436,-1.453141 -0.22261,0 -0.42608,0.0523 -0.6134,0.135909 l -2.29857,1.080554 c -0.11229,-0.688974 -0.70534,-1.216463 -1.4273,-1.216463 z m 11.08408,0 c -2.26483,0 -4.09484,1.843223 -4.09484,4.117578 0,2.269418 1.83001,4.117578 4.09484,4.117578 2.26272,0 4.09639,-1.84816 4.09639,-4.117578 0,-2.274355 -1.83367,-4.117578 -4.09639,-4.117578 z m 7.04711,0 c -0.21872,0 -0.42915,0.0523 -0.60978,0.135909 l -2.81275,1.317232 h 1.97508 v 6.541203 h 2.89439 v -5.814115 c 0,-0.403225 0.32049,-0.727088 0.72089,-0.727088 0.39829,0 0.72192,0.323863 0.72192,0.727088 v 5.814115 h 2.8944 v -6.541203 c 0,-0.802216 -0.65092,-1.453141 -1.44643,-1.453141 -0.22049,0 -0.42631,0.0523 -0.61081,0.135909 l -2.30064,1.080554 c -0.11607,-0.688974 -0.70767,-1.216463 -1.42627,-1.216463 z m -7.71322,0.578259 c 0.38392,0.01513 0.73259,0.279169 0.83664,0.673861 l 1.40457,5.261695 c 0.12876,0.485068 -0.15914,0.97826 -0.63821,1.109493 -0.48577,0.133702 -0.97763,-0.153652 -1.10639,-0.638721 l -1.40456,-5.262728 c -0.12876,-0.482247 0.15416,-0.9847 0.63923,-1.11311 0.0898,-0.02447 0.18012,-0.03398 0.26872,-0.03049 z m -17.94826,3.539319 c 0.80243,0 1.45004,0.650245 1.45004,1.452108 0,0.802568 -0.64761,1.451591 -1.45004,1.451591 -0.79678,0 -1.4428,-0.649023 -1.4428,-1.451591 0,-0.801863 0.64602,-1.452108 1.4428,-1.452108 z"
       inkscape:label="Canon logo" />
    <path
       d="m 114.37923,164.53009 h 1.67482 l 0.68273,-1.67479 h 3.15762 l 0.68272,1.67479 h 1.71749 l -3.20029,-7.52067 h -1.51481 z m 2.94426,-3.1256 0.99211,-2.42154 0.99206,2.42154 z m 7.26631,3.23228 c 0.78941,0 1.33345,-0.28803 1.72815,-0.72541 v 0.61873 h 1.56815 v -3.31763 c 0,-0.76806 -0.19202,-1.39743 -0.61873,-1.82411 -0.40538,-0.40538 -1.04544,-0.64008 -1.93083,-0.64008 -0.97076,0 -1.58949,0.18136 -2.21887,0.45872 l 0.40536,1.23743 c 0.52273,-0.19202 0.9601,-0.30936 1.57881,-0.30936 0.81074,0 1.22679,0.37338 1.22679,1.04544 v 0.0959 c -0.40538,-0.13867 -0.82142,-0.23469 -1.39748,-0.23469 -1.35478,0 -2.30421,0.57605 -2.30421,1.82414 v 0.0213 c 0,1.13077 0.88543,1.74949 1.96286,1.74949 z m 0.49069,-1.1201 c -0.52269,0 -0.88539,-0.256 -0.88539,-0.6934 v -0.0213 c 0,-0.51205 0.4267,-0.7894 1.1201,-0.7894 0.39471,0 0.75739,0.0854 1.03476,0.21334 v 0.28803 c 0,0.58672 -0.51205,1.00276 -1.26947,1.00276 z m 3.97002,1.01342 h 1.6215 v -7.78732 h -1.6215 z m 4.84476,0.10666 c 1.23743,0 2.18685,-0.57604 2.18685,-1.84551 v -0.0213 c 0,-1.04543 -0.92809,-1.42945 -1.72815,-1.69614 -0.61873,-0.21335 -1.16277,-0.36271 -1.16277,-0.68273 v -0.0213 c 0,-0.22402 0.20267,-0.39469 0.59738,-0.39469 0.41603,0 0.98142,0.20269 1.5468,0.53338 l 0.61872,-1.12011 c -0.61872,-0.41602 -1.40812,-0.66138 -2.13352,-0.66138 -1.1521,0 -2.09083,0.65071 -2.09083,1.81347 v 0.0213 c 0,1.10946 0.90674,1.48282 1.7068,1.71751 0.6294,0.19202 1.1841,0.30937 1.1841,0.66139 v 0.0213 c 0,0.25601 -0.21335,0.4267 -0.68272,0.4267 -0.53338,0 -1.18411,-0.23469 -1.80284,-0.68275 l -0.69339,1.06677 c 0.7574,0.59738 1.65348,0.86408 2.45357,0.86408 z m 4.86607,-0.0104 c 0.54404,0 0.93874,-0.12799 1.28013,-0.33068 v -1.30143 c -0.23471,0.12797 -0.5014,0.20267 -0.80009,0.20267 -0.36271,0 -0.52272,-0.18134 -0.52272,-0.55474 v -2.44288 h 1.34414 v -1.38679 h -1.34414 v -1.46148 h -1.62147 v 1.46148 h -0.68272 v 1.38679 h 0.68272 v 2.70956 c 0,1.3228 0.67205,1.7175 1.66415,1.7175 z"
       id="text7"
       style="font-size:9.17222px;font-family:Gotham;-inkscape-font-specification:'Gotham, Normal';text-align:center;letter-spacing:-0.264583px;text-anchor:middle;fill:#ffffff;stroke-width:4.23333"
       aria-label="Aalst"
       inkscape:label="Aalst" />
  </g>
</svg>
