<?xml version="1.0" encoding="UTF-8" standalone="no"?>
<!-- Created with Inkscape (http://www.inkscape.org/) -->

<svg
   width="68.175369mm"
   height="140.24838mm"
   viewBox="0 0 68.175369 140.24838"
   version="1.1"
   id="svg1"
   inkscape:version="1.3 (0e150ed6c4, 2023-07-21)"
   sodipodi:docname="CBC_All_Portrait_Less_Text_Light.svg"
   xmlns:inkscape="http://www.inkscape.org/namespaces/inkscape"
   xmlns:sodipodi="http://sodipodi.sourceforge.net/DTD/sodipodi-0.dtd"
   xmlns="http://www.w3.org/2000/svg"
   xmlns:svg="http://www.w3.org/2000/svg">
  <sodipodi:namedview
     id="namedview1"
     pagecolor="#a2a2a2"
     bordercolor="#999999"
     borderopacity="1"
     inkscape:showpageshadow="2"
     inkscape:pageopacity="0"
     inkscape:pagecheckerboard="true"
     inkscape:deskcolor="#d1d1d1"
     inkscape:document-units="mm"
     showguides="true"
     inkscape:zoom="5.1847643"
     inkscape:cx="173.10334"
     inkscape:cy="350.93206"
     inkscape:window-width="3200"
     inkscape:window-height="1711"
     inkscape:window-x="2391"
     inkscape:window-y="369"
     inkscape:window-maximized="1"
     inkscape:current-layer="layer1"
     showgrid="false" />
  <defs
     id="defs1" />
  <g
     inkscape:label="Layer 1"
     inkscape:groupmode="layer"
     id="layer1"
     transform="translate(-93.133333,-55.033325)">
    <path
       id="path3"
       d="m 112.23347,194.74841 c 0.74827,0 1.2609,-0.59532 1.2609,-1.27744 v -0.004 c 0,-0.68213 -0.50436,-1.26917 -1.25677,-1.26917 -0.74827,0 -1.2609,0.59531 -1.2609,1.2733 v 0.008 c 0,0.68213 0.50436,1.26918 1.25677,1.26918 z m 0.004,-0.25632 c -0.56224,0 -0.97152,-0.45889 -0.97152,-1.02112 v -0.004 c 0,-0.56224 0.40101,-1.01286 0.96739,-1.01286 0.56224,0 0.97151,0.45889 0.97151,1.01699 v 0.008 c 0,0.56224 -0.401,1.01286 -0.96738,1.01286 z m 1.71152,0.77721 h 0.27286 v -0.9095 c 0.14056,0.20257 0.35966,0.38447 0.69866,0.38447 0.44235,0 0.8723,-0.3514 0.8723,-0.94671 v -0.008 c 0,-0.59944 -0.43408,-0.94258 -0.8723,-0.94258 -0.33486,0 -0.54984,0.18604 -0.69866,0.40515 v -0.36794 h -0.27286 z m 0.92191,-0.76481 c -0.339,0 -0.66146,-0.28525 -0.66146,-0.70693 v -0.008 c 0,-0.41341 0.32246,-0.7028 0.66146,-0.7028 0.34727,0 0.64079,0.27699 0.64079,0.70694 v 0.008 c 0,0.43822 -0.28939,0.7028 -0.64079,0.7028 z m 1.49759,-0.59944 h 1.4428 c 0.004,-0.0413 0.004,-0.0703 0.004,-0.0951 0,-0.5333 -0.31006,-0.96324 -0.8475,-0.96324 -0.50436,0 -0.87643,0.42168 -0.87643,0.95085 0,0.56637 0.40928,0.95085 0.9095,0.95085 0.34727,0 0.56638,-0.13643 0.75241,-0.34314 l -0.1695,-0.14882 c -0.14882,0.15296 -0.32659,0.25631 -0.57464,0.25631 -0.32246,0 -0.60358,-0.22324 -0.64078,-0.60771 z m 0,-0.21911 c 0.0372,-0.3514 0.27698,-0.61185 0.59117,-0.61185 0.35967,0 0.54984,0.28112 0.58291,0.61185 z m 1.83451,1.02113 h 0.27285 v -0.72761 c 0,-0.54983 0.3266,-0.83509 0.72347,-0.83509 h 0.0207 v -0.29352 c -0.34727,-0.0124 -0.61185,0.2067 -0.74414,0.50849 v -0.47542 h -0.27285 z m 1.79834,0.0372 c 0.31833,0 0.52916,-0.14469 0.65319,-0.31006 v 0.27286 h 0.26872 v -1.11622 c 0,-0.23151 -0.062,-0.40514 -0.19017,-0.5333 -0.12816,-0.13229 -0.33073,-0.20257 -0.58705,-0.20257 -0.26872,0 -0.46302,0.0661 -0.66559,0.1571 l 0.0827,0.21911 c 0.1695,-0.0744 0.339,-0.12816 0.55397,-0.12816 0.34314,0 0.53744,0.1695 0.53744,0.49196 v 0.0579 c -0.16123,-0.0455 -0.32246,-0.0786 -0.55397,-0.0786 -0.46302,0 -0.78135,0.2067 -0.78135,0.59531 v 0.008 c 0,0.37207 0.339,0.56637 0.68213,0.56637 z m 0.0537,-0.21911 c -0.24805,0 -0.45888,-0.1323 -0.45888,-0.35966 v -0.008 c 0,-0.21911 0.1943,-0.36795 0.52916,-0.36795 0.22324,0 0.40101,0.0413 0.5333,0.0785 v 0.1695 c 0,0.28939 -0.26871,0.48782 -0.60358,0.48782 z m 1.94924,0.21497 c 0.12815,0 0.23151,-0.0289 0.32659,-0.0786 v -0.23151 c -0.0951,0.0455 -0.17363,0.062 -0.26458,0.062 -0.1819,0 -0.30593,-0.0827 -0.30593,-0.30179 v -1.0666 h 0.57878 v -0.23978 h -0.57878 v -0.54984 h -0.27285 v 0.54984 h -0.25218 v 0.23978 h 0.25218 v 1.09967 c 0,0.37207 0.22324,0.51677 0.51677,0.51677 z m 0.83715,-0.83509 h 1.44281 c 0.004,-0.0413 0.004,-0.0703 0.004,-0.0951 0,-0.5333 -0.31006,-0.96324 -0.8475,-0.96324 -0.50436,0 -0.87643,0.42168 -0.87643,0.95085 0,0.56637 0.40928,0.95085 0.9095,0.95085 0.34727,0 0.56638,-0.13643 0.75241,-0.34314 l -0.1695,-0.14882 c -0.14882,0.15296 -0.32659,0.25631 -0.57464,0.25631 -0.32246,0 -0.60358,-0.22324 -0.64079,-0.60771 z m 0,-0.21911 c 0.0372,-0.3514 0.27699,-0.61185 0.59118,-0.61185 0.35967,0 0.54984,0.28112 0.58291,0.61185 z m 2.60036,1.05834 c 0.33487,0 0.55397,-0.18603 0.69867,-0.40514 v 0.36794 h 0.27285 v -2.57556 h -0.27285 v 1.09968 c -0.14056,-0.20258 -0.35967,-0.38448 -0.69867,-0.38448 -0.43408,0 -0.86816,0.3514 -0.86816,0.94672 v 0.008 c 0,0.59945 0.43408,0.94258 0.86816,0.94258 z m 0.0496,-0.23978 c -0.34313,0 -0.64079,-0.27699 -0.64079,-0.70693 v -0.008 c 0,-0.43821 0.28939,-0.70279 0.64079,-0.70279 0.339,0 0.66146,0.28525 0.66146,0.70279 v 0.008 c 0,0.41755 -0.32246,0.70693 -0.66146,0.70693 z m 3.38067,0.23978 c 0.44235,0 0.8723,-0.35141 0.8723,-0.94671 v -0.008 c 0,-0.59943 -0.43408,-0.94257 -0.8723,-0.94257 -0.33486,0 -0.54983,0.18603 -0.69866,0.40514 v -1.12035 h -0.27285 v 2.57556 h 0.27285 v -0.34727 c 0.14056,0.20257 0.35967,0.38447 0.69866,0.38447 z m -0.0496,-0.23978 c -0.33899,0 -0.66145,-0.28525 -0.66145,-0.70693 v -0.008 c 0,-0.41341 0.32246,-0.70279 0.66145,-0.70279 0.34727,0 0.64079,0.27699 0.64079,0.70694 v 0.008 c 0,0.43822 -0.28939,0.7028 -0.64079,0.7028 z m 1.52963,0.77722 c 0.27285,0 0.45062,-0.13643 0.60358,-0.51263 l 0.76481,-1.88517 h -0.28939 l -0.58291,1.52136 -0.66146,-1.52136 h -0.30179 l 0.82683,1.81488 c -0.10749,0.26045 -0.21084,0.34313 -0.37208,0.34313 -0.11575,0 -0.19843,-0.0207 -0.28525,-0.0661 l -0.091,0.21498 c 0.12402,0.0579 0.23564,0.0909 0.38861,0.0909 z m 2.69027,-2.79466 h 0.31006 v -0.30179 h -0.31006 z m 0.0165,2.22002 h 0.27285 v -1.82315 h -0.27285 z m 0.85989,0 h 0.8599 c 0.77308,0 1.31051,-0.54157 1.31051,-1.2361 v -0.004 c 0,-0.69453 -0.53743,-1.22783 -1.31051,-1.22783 h -0.8599 z m 0.28112,-0.25632 v -1.95544 h 0.57878 c 0.62425,0 1.02113,0.42995 1.02113,0.97566 v 0.008 c 0,0.54571 -0.39688,0.97152 -1.02113,0.97152 z m 3.17914,0.29766 c 0.54984,0 0.95498,-0.43822 0.95498,-0.95085 v -0.008 c 0,-0.51263 -0.40101,-0.94258 -0.95085,-0.94258 -0.54984,0 -0.95084,0.43409 -0.95084,0.95085 v 0.008 c 0,0.51263 0.39687,0.94258 0.94671,0.94258 z m 0.004,-0.24392 c -0.38447,0 -0.67386,-0.31419 -0.67386,-0.70693 v -0.008 c 0,-0.38447 0.27285,-0.7028 0.66973,-0.7028 0.38447,0 0.67386,0.31833 0.67386,0.71107 v 0.008 c 0,0.38447 -0.27285,0.69866 -0.66973,0.69866 z m 2.17351,0.24392 c 0.34313,0 0.56224,-0.14883 0.74414,-0.3514 l -0.17363,-0.16123 c -0.14469,0.15296 -0.32246,0.26871 -0.55397,0.26871 -0.38447,0 -0.67386,-0.31419 -0.67386,-0.70693 v -0.008 c 0,-0.3886 0.28525,-0.7028 0.65319,-0.7028 0.24805,0 0.40928,0.11989 0.55397,0.27285 l 0.1819,-0.19017 c -0.1695,-0.17776 -0.38447,-0.32246 -0.73174,-0.32246 -0.5333,0 -0.93431,0.43409 -0.93431,0.95085 v 0.008 c 0,0.50849 0.40101,0.94258 0.93431,0.94258 z m 1.71566,-0.008 c 0.12816,0 0.23151,-0.0289 0.3266,-0.0786 v -0.23151 c -0.0951,0.0455 -0.17364,0.062 -0.26459,0.062 -0.1819,0 -0.30592,-0.0827 -0.30592,-0.30179 v -1.0666 h 0.57877 v -0.23978 h -0.57877 v -0.54984 h -0.27285 v 0.54984 h -0.25219 v 0.23978 h 0.25219 v 1.09967 c 0,0.37207 0.22324,0.51677 0.51676,0.51677 z m 1.27124,0.004 c 0.31833,0 0.52917,-0.14469 0.65319,-0.31006 v 0.27286 h 0.26872 v -1.11622 c 0,-0.23151 -0.062,-0.40514 -0.19017,-0.5333 -0.12816,-0.13229 -0.33073,-0.20257 -0.58705,-0.20257 -0.26871,0 -0.46302,0.0661 -0.66559,0.1571 l 0.0827,0.21911 c 0.1695,-0.0744 0.339,-0.12816 0.55398,-0.12816 0.34313,0 0.53743,0.1695 0.53743,0.49196 v 0.0579 c -0.16123,-0.0455 -0.32246,-0.0786 -0.55397,-0.0786 -0.46302,0 -0.78135,0.2067 -0.78135,0.59531 v 0.008 c 0,0.37207 0.339,0.56637 0.68213,0.56637 z m 0.0537,-0.21911 c -0.24804,0 -0.45888,-0.13229 -0.45888,-0.35966 v -0.008 c 0,-0.21911 0.1943,-0.36794 0.52916,-0.36794 0.22325,0 0.40101,0.0413 0.5333,0.0785 v 0.1695 c 0,0.28939 -0.26871,0.48782 -0.60358,0.48782 z m 0,0"
       style="fill:#3e444f;fill-opacity:1;fill-rule:nonzero;stroke:none;stroke-width:0.35278"
       aria-label="Operated by iDocta"
       inkscape:label="Operated by iDocta" />
    <g
       id="g1"
       inkscape:label="C logo"
       transform="translate(0,-8.5209447)">
      <path
         id="path23"
         d="m 127.22186,146.43241 c -8.81807,0 -16.85367,-3.34892 -22.90618,-8.84379 l 22.90618,22.90548 22.90273,-22.9023 c -6.05155,5.4931 -14.08607,8.84061 -22.90273,8.84061"
         style="fill:#bdbcbc;fill-opacity:1;fill-rule:nonzero;stroke:none;stroke-width:0.0352778" />
      <path
         id="path28"
         d="m 151.7396,136.01347 c 6.04062,-6.14927 9.5691,-14.36723 9.5691,-23.66822 0,-9.15987 -3.61915,-17.469553 -9.49748,-23.594128 0.89676,0.932038 1.45133,2.196041 1.45133,3.592336 0,2.864556 -2.32199,5.185834 -5.18619,5.185834 -1.48696,0 -2.82293,-0.628298 -3.76837,-1.630892 4.10598,4.26544 6.63539,10.05911 6.63539,16.44685 0,6.36235 -2.51036,12.13521 -6.58777,16.39606 0.94262,-0.97402 2.25778,-1.58468 3.72075,-1.58468 2.8642,0 5.18619,2.32128 5.18619,5.18619 0,1.43404 -0.58244,2.73226 -1.52295,3.67065"
         style="fill:#bdbcbc;fill-opacity:1;fill-rule:nonzero;stroke:none;stroke-width:0.0352778" />
      <path
         id="path34"
         d="m 148.07636,127.15663 c -1.48837,0 -2.82575,0.63006 -3.7712,1.63371 -4.31588,4.48134 -10.37025,7.2764 -17.0833,7.2764 -13.101,0 -23.7225,-10.62144 -23.7225,-23.7229 0,-7e-4 0,-7e-4 0,-7e-4 0,0 0,-3.6e-4 0,-7.1e-4 0,-13.101461 10.6215,-23.723247 23.7225,-23.723247 6.71305,0 12.76742,2.795058 17.0833,7.276747 0.94545,1.003653 2.28283,1.633362 3.7712,1.633362 2.8642,0 5.18619,-2.321278 5.18619,-5.185834 0,-1.434395 -0.58244,-2.731911 -1.52295,-3.670653 l 7.1e-4,-7.06e-4 c -6.19972,-6.41985 -14.88969,-10.418586 -24.51845,-10.418586 -18.82634,0 -34.088527,15.262226 -34.088527,34.088917 0,3.5e-4 0,3.5e-4 0,3.5e-4 0,3.6e-4 0,3.6e-4 0,10e-4 0,18.82634 15.262187,34.08857 34.088527,34.08857 9.62876,0 18.31873,-3.99874 24.51845,-10.41824 l -7.1e-4,-7e-4 c 0.94051,-0.93839 1.52295,-2.23661 1.52295,-3.67065 0,-2.86491 -2.32199,-5.18619 -5.18619,-5.18619"
         style="fill:#e31b22;fill-opacity:1;fill-rule:nonzero;stroke:none;stroke-width:0.0352778" />
    </g>
    <path
       id="path35"
       style="fill:#e31b22;fill-opacity:1;fill-rule:nonzero;stroke:none;stroke-width:0.0352778"
       d="m 109.75283,55.033325 c -2.08717,0 -3.91495,0.760761 -4.93924,1.90376 -0.74965,0.84349 -1.20457,1.90599 -1.20457,3.060278 0,1.157816 0.45492,2.215467 1.20457,3.063896 1.02429,1.141236 2.8302,1.901692 4.87878,1.901692 2.05108,0 3.85282,-0.760456 4.87877,-1.901692 0.0558,-0.06597 0.11241,-0.128335 0.16381,-0.194304 l -0.15399,-0.583943 c -0.71822,1.035754 -1.91188,1.707906 -3.26182,1.707906 -2.19547,0 -3.9765,-1.786579 -3.9765,-3.993555 0,-2.206623 1.78103,-3.995105 3.9765,-3.995105 0.77668,0 1.49664,0.222269 2.10892,0.609265 l -2.10892,3.38584 3.96823,-2.301668 c -0.43339,-0.688622 -1.05103,-1.287004 -1.8004,-1.738912 -0.94908,-0.570794 -2.26902,-0.923458 -3.73414,-0.923458 z m 10.7828,1.69447 c -0.28345,0 -0.55502,0.05231 -0.80305,0.142627 l -3.58273,1.310514 h 3.6835 l 0.63097,2.362647 c -0.61172,-0.52599 -1.40941,-0.848527 -2.27893,-0.848527 -1.72805,0 -3.13004,1.166974 -3.13004,2.602425 0,1.43651 1.40199,2.605009 3.13004,2.605009 1.24463,0 2.3461,-0.614956 3.0241,-1.555461 l 0.36484,1.37511 h 2.8944 l -1.66347,-6.241996 c -0.27037,-1.010002 -1.18233,-1.752348 -2.26963,-1.752348 z m 6.38204,0 c -0.21661,0 -0.42436,0.0523 -0.60875,0.135909 l -2.81171,1.317232 h 1.97714 v 6.541203 h 2.89078 v -5.814115 c 0,-0.403225 0.32361,-0.727088 0.72295,-0.727088 0.39688,0 0.7214,0.323863 0.7214,0.727088 v 5.814115 h 2.89182 v -6.541203 c 0,-0.802216 -0.64568,-1.453141 -1.44436,-1.453141 -0.22261,0 -0.42608,0.0523 -0.6134,0.135909 l -2.29857,1.080554 c -0.11229,-0.688974 -0.70534,-1.216463 -1.4273,-1.216463 z m 11.08408,0 c -2.26483,0 -4.09484,1.843223 -4.09484,4.117578 0,2.269418 1.83001,4.117578 4.09484,4.117578 2.26272,0 4.09639,-1.84816 4.09639,-4.117578 0,-2.274355 -1.83367,-4.117578 -4.09639,-4.117578 z m 7.04711,0 c -0.21872,0 -0.42915,0.0523 -0.60978,0.135909 l -2.81275,1.317232 h 1.97508 v 6.541203 h 2.89439 v -5.814115 c 0,-0.403225 0.32049,-0.727088 0.72089,-0.727088 0.39829,0 0.72192,0.323863 0.72192,0.727088 v 5.814115 h 2.8944 v -6.541203 c 0,-0.802216 -0.65092,-1.453141 -1.44643,-1.453141 -0.22049,0 -0.42631,0.0523 -0.61081,0.135909 l -2.30064,1.080554 c -0.11607,-0.688974 -0.70767,-1.216463 -1.42627,-1.216463 z m -7.71322,0.578259 c 0.38392,0.01513 0.73259,0.279169 0.83664,0.673861 l 1.40457,5.261695 c 0.12876,0.485068 -0.15914,0.97826 -0.63821,1.109493 -0.48577,0.133702 -0.97763,-0.153652 -1.10639,-0.638721 l -1.40456,-5.262728 c -0.12876,-0.482247 0.15416,-0.9847 0.63923,-1.11311 0.0898,-0.02447 0.18012,-0.03398 0.26872,-0.03049 z m -17.94826,3.539319 c 0.80243,0 1.45004,0.650245 1.45004,1.452108 0,0.802568 -0.64761,1.451591 -1.45004,1.451591 -0.79678,0 -1.4428,-0.649023 -1.4428,-1.451591 0,-0.801863 0.64602,-1.452108 1.4428,-1.452108 z"
       inkscape:label="Canon logo" />
    <path
       id="text7"
       style="font-size:9.17222px;font-family:Gotham;-inkscape-font-specification:'Gotham, Normal';text-align:center;letter-spacing:-0.264583px;text-anchor:middle;fill:#3e444f;stroke-width:4.23333;fill-opacity:1"
       inkscape:label="Aalst"
       d="M 114.09794 157.841 L 112.99 161.1979 L 111.96888 157.85341 L 110.80306 157.85341 L 112.48977 162.83088 L 113.43649 162.83088 L 114.5527 159.598 L 115.66477 162.83088 L 116.61149 162.83088 L 118.29821 157.85341 L 117.16132 157.85341 L 116.1402 161.1979 L 115.03225 157.841 L 114.09794 157.841 z M 124.48129 158.93964 C 123.92026 158.95494 123.59504 159.2833 123.3935 159.77163 L 123.3935 159.01096 L 122.31863 159.01096 L 122.31863 162.79367 L 123.3935 162.79367 L 123.3935 161.39634 C 123.3935 160.4951 123.82759 160.06102 124.54279 160.06102 L 124.59653 160.06102 L 124.59653 158.94068 C 124.55703 158.93868 124.51873 158.93864 124.48129 158.93964 z M 126.67185 158.94068 C 125.57219 158.94068 124.80323 159.82952 124.80323 160.90852 L 124.80323 160.92505 C 124.80323 162.0826 125.64246 162.87635 126.77934 162.87635 C 127.46146 162.87635 127.96997 162.61177 128.32137 162.17356 L 127.70952 161.62785 C 127.41187 161.90483 127.15141 162.01646 126.79174 162.01646 C 126.31218 162.01646 125.97318 161.76427 125.8657 161.27645 L 128.49913 161.27645 C 128.50713 161.17725 128.51567 161.07801 128.51567 160.99533 C 128.51567 159.92046 127.93689 158.94068 126.67185 158.94068 z M 130.64267 158.94068 C 129.7745 158.94068 128.96422 159.57734 128.96422 160.70594 L 128.96422 160.71835 C 128.96422 161.84283 129.7621 162.48361 130.64267 162.48361 C 131.21731 162.48361 131.56044 162.25209 131.87877 161.86763 L 131.87877 162.05367 C 131.87877 162.73167 131.53151 163.08306 130.79977 163.08306 C 130.29954 163.08306 129.91094 162.9549 129.52233 162.73579 L 129.15439 163.54195 C 129.63395 163.79413 130.21273 163.93882 130.82871 163.93882 C 131.56045 163.93882 132.10615 163.78173 132.45755 163.43033 C 132.77588 163.11201 132.9371 162.6159 132.9371 161.93791 L 132.9371 159.01096 L 131.86637 159.01096 L 131.86637 159.50705 C 131.57699 159.18872 131.22971 158.94068 130.64267 158.94068 z M 135.4062 158.94068 C 134.30654 158.94068 133.53759 159.82952 133.53759 160.90852 L 133.53759 160.92505 C 133.53759 162.0826 134.37681 162.87635 135.51369 162.87635 C 136.19581 162.87635 136.70432 162.61177 137.05572 162.17356 L 136.44387 161.62785 C 136.14622 161.90483 135.88576 162.01646 135.52609 162.01646 C 135.04653 162.01646 134.70753 161.76427 134.60005 161.27645 L 137.23348 161.27645 C 137.24148 161.17725 137.25002 161.07801 137.25002 160.99533 C 137.25002 159.92046 136.67124 158.94068 135.4062 158.94068 z M 140.05502 158.94068 C 139.51345 158.94068 139.18686 159.23006 138.94294 159.54839 L 138.94294 159.01096 L 137.86807 159.01096 L 137.86807 162.79367 L 138.94294 162.79367 L 138.94294 160.68527 C 138.94294 160.17677 139.18686 159.91633 139.592 159.91633 C 139.99301 159.91633 140.22038 160.17677 140.22038 160.68527 L 140.22038 162.79367 L 141.29112 162.79367 L 141.29112 160.68527 C 141.29112 160.17677 141.53916 159.91633 141.94017 159.91633 C 142.34118 159.91633 142.56856 160.17677 142.56856 160.68527 L 142.56856 162.79367 L 143.63929 162.79367 L 143.63929 160.32974 C 143.63929 159.42024 143.15973 158.94068 142.36185 158.94068 C 141.84922 158.94068 141.45235 159.15151 141.12162 159.54012 C 140.92318 159.15978 140.55111 158.94068 140.05502 158.94068 z M 119.88467 158.96962 C 119.24388 158.96962 118.8346 159.08951 118.41706 159.27141 L 118.68578 160.08996 C 119.02892 159.9618 119.3183 159.88739 119.72758 159.88739 C 120.265 159.88739 120.542 160.13131 120.542 160.57779 L 120.542 160.6398 C 120.27328 160.5488 119.99629 160.48684 119.61595 160.48684 C 118.71887 160.48684 118.09047 160.86718 118.09047 161.694 L 118.09047 161.7064 C 118.09047 162.45467 118.67751 162.86395 119.39271 162.86395 C 119.91361 162.86395 120.27328 162.67378 120.53373 162.3844 L 120.53373 162.79367 L 121.57139 162.79367 L 121.57139 160.59846 C 121.57139 160.08997 121.44323 159.67656 121.16211 159.3913 C 120.89339 159.12258 120.47171 158.96962 119.88467 158.96962 z M 126.67185 159.80057 C 127.12247 159.80057 127.40773 160.12717 127.46974 160.60673 L 125.8533 160.60673 C 125.9401 160.11891 126.2295 159.80057 126.67185 159.80057 z M 135.4062 159.80057 C 135.85682 159.80057 136.14208 160.12717 136.20409 160.60673 L 134.58765 160.60673 C 134.67445 160.11891 134.96387 159.80057 135.4062 159.80057 z M 130.95273 159.82951 C 131.47777 159.82951 131.87877 160.18919 131.87877 160.70594 L 131.87877 160.71835 C 131.87877 161.23512 131.47777 161.59478 130.95273 161.59478 C 130.43184 161.59478 130.03909 161.23925 130.03909 160.71835 L 130.03909 160.70594 C 130.03909 160.18919 130.43184 159.82951 130.95273 159.82951 z M 119.87227 161.12762 C 120.13272 161.12762 120.3725 161.18552 120.5544 161.26818 L 120.5544 161.45835 C 120.5544 161.84696 120.2154 162.12395 119.71517 162.12395 C 119.3679 162.12395 119.12813 161.95445 119.12813 161.66506 L 119.12813 161.64852 C 119.12813 161.31366 119.41339 161.12762 119.87227 161.12762 z M 138.26856 165.40385 L 138.26856 167.26833 C 138.01225 166.96242 137.66085 166.70196 137.09034 166.70196 C 136.19325 166.70196 135.36641 167.39236 135.36641 168.6574 L 135.36641 168.6698 C 135.36641 169.93484 136.20565 170.62524 137.09034 170.62524 C 137.64431 170.62524 138.00811 170.36479 138.26856 170.01339 L 138.26856 170.55496 L 139.3393 170.55496 L 139.3393 165.40385 L 138.26856 165.40385 z M 113.42357 165.53149 C 111.89808 165.53149 110.79014 166.68077 110.79014 168.08637 L 110.79014 168.09878 C 110.79014 169.50437 111.88568 170.63712 113.41117 170.63712 C 114.93251 170.63712 116.04046 169.48783 116.04046 168.08637 L 116.04046 168.06984 C 116.04046 166.66424 114.94906 165.53149 113.42357 165.53149 z M 124.69936 165.80486 L 124.69936 166.77224 L 124.24875 166.77224 L 124.24875 167.69001 L 124.69936 167.69001 L 124.69936 169.48422 C 124.69936 170.35652 125.14171 170.61697 125.79904 170.61697 C 126.15871 170.61697 126.41916 170.53427 126.64653 170.39786 L 126.64653 169.53796 C 126.48944 169.62476 126.3158 169.67439 126.11737 169.67439 C 125.87759 169.67439 125.7701 169.5545 125.7701 169.30645 L 125.7701 167.69001 L 126.65894 167.69001 L 126.65894 166.77224 L 125.7701 166.77224 L 125.7701 165.80486 L 124.69936 165.80486 z M 113.41117 166.53195 C 114.28345 166.53195 114.90771 167.23888 114.90771 168.08637 L 114.90771 168.09878 C 114.90771 168.94627 114.3 169.63667 113.42357 169.63667 C 112.55127 169.63667 111.92702 168.92973 111.92702 168.08637 L 111.92702 168.06984 C 111.92702 167.22235 112.53473 166.53195 113.41117 166.53195 z M 118.58708 166.70144 C 117.40885 166.70144 116.53656 167.58201 116.53656 168.66928 L 116.53656 168.68582 C 116.53656 169.77309 117.40473 170.63712 118.57467 170.63712 C 119.7529 170.63712 120.62933 169.75655 120.62933 168.66928 L 120.62933 168.65688 C 120.62933 167.56962 119.76116 166.70144 118.58708 166.70144 z M 128.85415 166.70196 C 127.75448 166.70196 126.98553 167.59079 126.98553 168.6698 L 126.98553 168.68634 C 126.98553 169.84388 127.82475 170.63764 128.96164 170.63764 C 129.64377 170.63764 130.15226 170.37305 130.50366 169.93484 L 129.89181 169.38914 C 129.59416 169.66613 129.33371 169.77774 128.97404 169.77774 C 128.49448 169.77774 128.15549 169.52557 128.048 169.03774 L 130.68143 169.03774 C 130.68943 168.93854 130.69797 168.83931 130.69797 168.75662 C 130.69797 167.68175 130.11919 166.70196 128.85415 166.70196 z M 133.49883 166.70196 C 132.95313 166.70196 132.63479 166.99136 132.39089 167.30968 L 132.39089 166.77224 L 131.31602 166.77224 L 131.31602 170.55496 L 132.39089 170.55496 L 132.39089 168.44656 C 132.39089 167.93807 132.65133 167.67761 133.06061 167.67761 C 133.46989 167.67761 133.70967 167.93807 133.70967 168.44656 L 133.70967 170.55496 L 134.7804 170.55496 L 134.7804 168.10756 C 134.7804 167.2394 134.30911 166.70196 133.49883 166.70196 z M 141.8084 166.70196 C 140.70872 166.70196 139.93978 167.59079 139.93978 168.6698 L 139.93978 168.68634 C 139.93978 169.84389 140.77901 170.63764 141.91589 170.63764 C 142.59801 170.63764 143.10652 170.37305 143.45791 169.93484 L 142.84606 169.38914 C 142.5484 169.66613 142.28795 169.77774 141.92829 169.77774 C 141.44873 169.77774 141.10974 169.52556 141.00225 169.03774 L 143.63568 169.03774 C 143.64368 168.93854 143.65221 168.8393 143.65221 168.75662 C 143.65221 167.68175 143.07343 166.70196 141.8084 166.70196 z M 122.50415 166.71385 C 121.74348 166.71385 121.11922 167.14793 121.11922 167.91687 L 121.11922 167.92928 C 121.11922 168.66515 121.7228 168.90906 122.25197 169.06616 C 122.66538 169.19432 123.03332 169.26873 123.03332 169.50437 L 123.03332 169.51678 C 123.03332 169.68628 122.89276 169.7979 122.5827 169.7979 C 122.22717 169.7979 121.79722 169.64494 121.38794 169.34728 L 120.92905 170.05421 C 121.43342 170.44695 122.02459 170.62472 122.55376 170.62472 C 123.37232 170.62472 124.0007 170.24438 124.0007 169.40516 L 124.0007 169.38862 C 124.0007 168.69822 123.38472 168.44604 122.85555 168.26827 C 122.44628 168.12771 122.0866 168.0285 122.0866 167.81766 L 122.0866 167.80112 C 122.0866 167.65229 122.22303 167.54067 122.48348 167.54067 C 122.75633 167.54067 123.13254 167.67709 123.50461 167.89207 L 123.91388 167.15206 C 123.50461 166.87921 122.98371 166.71385 122.50415 166.71385 z M 128.85415 167.56186 C 129.30477 167.56186 129.59001 167.88845 129.65203 168.36801 L 128.0356 168.36801 C 128.1224 167.88018 128.41181 167.56186 128.85415 167.56186 z M 141.8084 167.56186 C 142.25902 167.56186 142.54427 167.88845 142.60628 168.36801 L 140.98984 168.36801 C 141.07664 167.88018 141.36605 167.56186 141.8084 167.56186 z M 137.36319 167.61147 C 137.86342 167.61147 138.28096 168.02902 138.28096 168.6574 L 138.28096 168.6698 C 138.28096 169.29818 137.86342 169.71573 137.36319 169.71573 C 136.86296 169.71573 136.44128 169.29818 136.44128 168.6698 L 136.44128 168.6574 C 136.44128 168.02075 136.86296 167.61147 137.36319 167.61147 z M 118.57467 167.62749 C 119.16584 167.62749 119.571 168.11117 119.571 168.66928 L 119.571 168.68582 C 119.571 169.23979 119.20306 169.71521 118.58708 169.71521 C 117.9959 169.71521 117.59489 169.22738 117.59489 168.66928 L 117.59489 168.65688 C 117.59489 168.09879 117.96282 167.62749 118.57467 167.62749 z M 121.82926 173.29381 C 120.33271 173.29381 119.23717 174.4431 119.23717 175.84869 L 119.23717 175.86109 C 119.23717 177.32043 120.29964 178.39944 121.83752 178.39944 C 122.73876 178.39944 123.43742 178.04804 123.94592 177.61809 L 123.94592 175.47249 L 121.80032 175.47249 L 121.80032 176.41093 L 122.89586 176.41093 L 122.89586 177.11786 C 122.61888 177.3163 122.26748 177.41552 121.8706 177.41552 C 120.99831 177.41552 120.37405 176.74993 120.37405 175.84869 L 120.37405 175.83215 C 120.37405 174.99293 121.00243 174.29426 121.79205 174.29426 C 122.36669 174.29426 122.70569 174.47616 123.08603 174.79449 L 123.76816 173.96767 C 123.25553 173.53359 122.71809 173.29381 121.82926 173.29381 z M 133.24561 173.56614 L 133.24561 174.53352 L 132.79499 174.53352 L 132.79499 175.4513 L 133.24561 175.4513 L 133.24561 177.2455 C 133.24561 178.1178 133.68797 178.37825 134.34529 178.37825 C 134.70496 178.37825 134.9654 178.29555 135.19278 178.15914 L 135.19278 177.29925 C 135.03568 177.38605 134.86205 177.43567 134.66361 177.43567 C 134.42383 177.43567 134.31635 177.31579 134.31635 177.06774 L 134.31635 175.4513 L 135.20518 175.4513 L 135.20518 174.53352 L 134.31635 174.53352 L 134.31635 173.56614 L 133.24561 173.56614 z M 131.03076 174.46324 C 130.48505 174.46324 130.16673 174.75263 129.92282 175.07096 L 129.92282 174.53352 L 128.84795 174.53352 L 128.84795 178.31624 L 129.92282 178.31624 L 129.92282 176.20784 C 129.92282 175.69934 130.18327 175.4389 130.59255 175.4389 C 131.00182 175.4389 131.2416 175.69934 131.2416 176.20784 L 131.2416 178.31624 L 132.31234 178.31624 L 132.31234 175.86884 C 132.31234 175.00068 131.84104 174.46324 131.03076 174.46324 z M 126.38608 174.46376 C 125.2864 174.46376 124.51746 175.3526 124.51746 176.4316 L 124.51746 176.44814 C 124.51746 177.6057 125.35668 178.39944 126.49357 178.39944 C 127.1757 178.39944 127.6842 178.13485 128.0356 177.69664 L 127.42375 177.15094 C 127.1261 177.42792 126.86564 177.53954 126.50597 177.53954 C 126.02642 177.53954 125.68741 177.28736 125.57993 176.79954 L 128.21336 176.79954 C 128.22136 176.70034 128.2299 176.6011 128.2299 176.51842 C 128.2299 175.44355 127.65111 174.46376 126.38608 174.46376 z M 126.38608 175.32314 C 126.8367 175.32314 127.12196 175.64973 127.18397 176.12929 L 125.56753 176.12929 C 125.65433 175.64146 125.94373 175.32314 126.38608 175.32314 z M 128.43092 181.04372 L 128.43092 186.19328 L 129.50321 186.19328 L 129.50321 181.04372 L 128.43092 181.04372 z M 120.84534 181.21994 L 118.72919 186.19328 L 119.83661 186.19328 L 120.28826 185.08585 L 122.37651 185.08585 L 122.82764 186.19328 L 123.96349 186.19328 L 121.84734 181.21994 L 120.84534 181.21994 z M 133.75153 181.44576 L 133.75153 182.41211 L 133.30039 182.41211 L 133.30039 183.32937 L 133.75153 183.32937 L 133.75153 185.12099 C 133.75153 185.9957 134.1962 186.25684 134.85223 186.25684 C 135.21198 186.25684 135.47295 186.1717 135.69869 186.03773 L 135.69869 185.17732 C 135.54349 185.26192 135.36703 185.31116 135.16953 185.31116 C 134.92968 185.31116 134.82381 185.19169 134.82381 184.94478 L 134.82381 183.32937 L 135.71265 183.32937 L 135.71265 182.41211 L 134.82381 182.41211 L 134.82381 181.44576 L 133.75153 181.44576 z M 131.58525 182.35579 C 130.82341 182.35579 130.20239 182.78632 130.20239 183.5552 L 130.20239 183.56915 C 130.20239 184.30279 130.80195 184.54982 131.331 184.705 C 131.7472 184.83199 132.1139 184.9094 132.1139 185.14218 L 132.1139 185.15613 C 132.1139 185.32542 131.97314 185.43829 131.66276 185.43829 C 131.31006 185.43829 130.87973 185.28291 130.47059 184.98663 L 130.01222 185.69202 C 130.51306 186.08705 131.10528 186.26356 131.63434 186.26356 C 132.4526 186.26356 133.08025 185.88292 133.08025 185.04348 L 133.08025 185.02952 C 133.08025 184.33823 132.46672 184.08399 131.93768 183.90763 C 131.52854 183.76655 131.16874 183.6681 131.16874 183.45649 L 131.16874 183.44202 C 131.16874 183.29388 131.30306 183.18106 131.56406 183.18106 C 131.83916 183.18106 132.21288 183.31534 132.58674 183.53401 L 132.99602 182.79349 C 132.5869 182.5184 132.06492 182.35579 131.58525 182.35579 z M 125.97474 182.36974 C 125.33283 182.36974 124.92383 182.48967 124.50765 182.67308 L 124.77585 183.49163 C 125.12152 183.36466 125.41058 183.287 125.81971 183.287 C 126.35581 183.287 126.63103 183.53403 126.63103 183.97843 L 126.63103 184.04147 C 126.36297 183.94977 126.08797 183.88644 125.70706 183.88644 C 124.8112 183.88644 124.18312 184.26726 124.18312 185.09257 L 124.18312 185.10652 C 124.18312 185.85424 124.76877 186.26356 125.48123 186.26356 C 126.00324 186.26356 126.36281 186.07322 126.6238 185.784 L 126.6238 186.19328 L 127.66094 186.19328 L 127.66094 183.9991 C 127.66094 183.49122 127.53382 183.07512 127.25166 182.79297 C 126.9836 182.52491 126.56022 182.36974 125.97474 182.36974 z M 121.33213 182.52528 L 121.98842 184.12622 L 120.67635 184.12622 L 121.33213 182.52528 z M 125.96079 184.52826 C 126.22179 184.52826 126.46158 184.58477 126.64498 184.66934 L 126.64498 184.86003 C 126.64498 185.248 126.30661 185.52303 125.80576 185.52303 C 125.46013 185.52303 125.22026 185.35389 125.22026 185.06466 L 125.22026 185.05071 C 125.22026 184.71212 125.50227 184.52826 125.96079 184.52826 z " />
  </g>
</svg>
