<?xml version="1.0" encoding="UTF-8" standalone="no"?>
<!-- Created with Inkscape (http://www.inkscape.org/) -->

<svg
   width="68.175369mm"
   height="140.24838mm"
   viewBox="0 0 68.175369 140.24838"
   version="1.1"
   id="svg1"
   inkscape:version="1.3 (0e150ed6c4, 2023-07-21)"
   sodipodi:docname="CBC_All_Portrait_Less_Text.svg"
   xmlns:inkscape="http://www.inkscape.org/namespaces/inkscape"
   xmlns:sodipodi="http://sodipodi.sourceforge.net/DTD/sodipodi-0.dtd"
   xmlns="http://www.w3.org/2000/svg"
   xmlns:svg="http://www.w3.org/2000/svg">
  <sodipodi:namedview
     id="namedview1"
     pagecolor="#a2a2a2"
     bordercolor="#999999"
     borderopacity="1"
     inkscape:showpageshadow="2"
     inkscape:pageopacity="0"
     inkscape:pagecheckerboard="true"
     inkscape:deskcolor="#d1d1d1"
     inkscape:document-units="mm"
     showguides="true"
     inkscape:zoom="1.833091"
     inkscape:cx="60.826221"
     inkscape:cy="243.57765"
     inkscape:window-width="3200"
     inkscape:window-height="1711"
     inkscape:window-x="2391"
     inkscape:window-y="369"
     inkscape:window-maximized="1"
     inkscape:current-layer="layer1"
     showgrid="false" />
  <defs
     id="defs1" />
  <g
     inkscape:label="Layer 1"
     inkscape:groupmode="layer"
     id="layer1"
     transform="translate(-93.133333,-55.033325)">
    <path
       id="path3"
       d="m 112.23347,194.74841 c 0.74827,0 1.2609,-0.59532 1.2609,-1.27744 v -0.004 c 0,-0.68213 -0.50436,-1.26917 -1.25677,-1.26917 -0.74827,0 -1.2609,0.59531 -1.2609,1.2733 v 0.008 c 0,0.68213 0.50436,1.26918 1.25677,1.26918 z m 0.004,-0.25632 c -0.56224,0 -0.97152,-0.45889 -0.97152,-1.02112 v -0.004 c 0,-0.56224 0.40101,-1.01286 0.96739,-1.01286 0.56224,0 0.97151,0.45889 0.97151,1.01699 v 0.008 c 0,0.56224 -0.401,1.01286 -0.96738,1.01286 z m 1.71152,0.77721 h 0.27286 v -0.9095 c 0.14056,0.20257 0.35966,0.38447 0.69866,0.38447 0.44235,0 0.8723,-0.3514 0.8723,-0.94671 v -0.008 c 0,-0.59944 -0.43408,-0.94258 -0.8723,-0.94258 -0.33486,0 -0.54984,0.18604 -0.69866,0.40515 v -0.36794 h -0.27286 z m 0.92191,-0.76481 c -0.339,0 -0.66146,-0.28525 -0.66146,-0.70693 v -0.008 c 0,-0.41341 0.32246,-0.7028 0.66146,-0.7028 0.34727,0 0.64079,0.27699 0.64079,0.70694 v 0.008 c 0,0.43822 -0.28939,0.7028 -0.64079,0.7028 z m 1.49759,-0.59944 h 1.4428 c 0.004,-0.0413 0.004,-0.0703 0.004,-0.0951 0,-0.5333 -0.31006,-0.96324 -0.8475,-0.96324 -0.50436,0 -0.87643,0.42168 -0.87643,0.95085 0,0.56637 0.40928,0.95085 0.9095,0.95085 0.34727,0 0.56638,-0.13643 0.75241,-0.34314 l -0.1695,-0.14882 c -0.14882,0.15296 -0.32659,0.25631 -0.57464,0.25631 -0.32246,0 -0.60358,-0.22324 -0.64078,-0.60771 z m 0,-0.21911 c 0.0372,-0.3514 0.27698,-0.61185 0.59117,-0.61185 0.35967,0 0.54984,0.28112 0.58291,0.61185 z m 1.83451,1.02113 h 0.27285 v -0.72761 c 0,-0.54983 0.3266,-0.83509 0.72347,-0.83509 h 0.0207 v -0.29352 c -0.34727,-0.0124 -0.61185,0.2067 -0.74414,0.50849 v -0.47542 h -0.27285 z m 1.79834,0.0372 c 0.31833,0 0.52916,-0.14469 0.65319,-0.31006 v 0.27286 h 0.26872 v -1.11622 c 0,-0.23151 -0.062,-0.40514 -0.19017,-0.5333 -0.12816,-0.13229 -0.33073,-0.20257 -0.58705,-0.20257 -0.26872,0 -0.46302,0.0661 -0.66559,0.1571 l 0.0827,0.21911 c 0.1695,-0.0744 0.339,-0.12816 0.55397,-0.12816 0.34314,0 0.53744,0.1695 0.53744,0.49196 v 0.0579 c -0.16123,-0.0455 -0.32246,-0.0786 -0.55397,-0.0786 -0.46302,0 -0.78135,0.2067 -0.78135,0.59531 v 0.008 c 0,0.37207 0.339,0.56637 0.68213,0.56637 z m 0.0537,-0.21911 c -0.24805,0 -0.45888,-0.1323 -0.45888,-0.35966 v -0.008 c 0,-0.21911 0.1943,-0.36795 0.52916,-0.36795 0.22324,0 0.40101,0.0413 0.5333,0.0785 v 0.1695 c 0,0.28939 -0.26871,0.48782 -0.60358,0.48782 z m 1.94924,0.21497 c 0.12815,0 0.23151,-0.0289 0.32659,-0.0786 v -0.23151 c -0.0951,0.0455 -0.17363,0.062 -0.26458,0.062 -0.1819,0 -0.30593,-0.0827 -0.30593,-0.30179 v -1.0666 h 0.57878 v -0.23978 h -0.57878 v -0.54984 h -0.27285 v 0.54984 h -0.25218 v 0.23978 h 0.25218 v 1.09967 c 0,0.37207 0.22324,0.51677 0.51677,0.51677 z m 0.83715,-0.83509 h 1.44281 c 0.004,-0.0413 0.004,-0.0703 0.004,-0.0951 0,-0.5333 -0.31006,-0.96324 -0.8475,-0.96324 -0.50436,0 -0.87643,0.42168 -0.87643,0.95085 0,0.56637 0.40928,0.95085 0.9095,0.95085 0.34727,0 0.56638,-0.13643 0.75241,-0.34314 l -0.1695,-0.14882 c -0.14882,0.15296 -0.32659,0.25631 -0.57464,0.25631 -0.32246,0 -0.60358,-0.22324 -0.64079,-0.60771 z m 0,-0.21911 c 0.0372,-0.3514 0.27699,-0.61185 0.59118,-0.61185 0.35967,0 0.54984,0.28112 0.58291,0.61185 z m 2.60036,1.05834 c 0.33487,0 0.55397,-0.18603 0.69867,-0.40514 v 0.36794 h 0.27285 v -2.57556 h -0.27285 v 1.09968 c -0.14056,-0.20258 -0.35967,-0.38448 -0.69867,-0.38448 -0.43408,0 -0.86816,0.3514 -0.86816,0.94672 v 0.008 c 0,0.59945 0.43408,0.94258 0.86816,0.94258 z m 0.0496,-0.23978 c -0.34313,0 -0.64079,-0.27699 -0.64079,-0.70693 v -0.008 c 0,-0.43821 0.28939,-0.70279 0.64079,-0.70279 0.339,0 0.66146,0.28525 0.66146,0.70279 v 0.008 c 0,0.41755 -0.32246,0.70693 -0.66146,0.70693 z m 3.38067,0.23978 c 0.44235,0 0.8723,-0.35141 0.8723,-0.94671 v -0.008 c 0,-0.59943 -0.43408,-0.94257 -0.8723,-0.94257 -0.33486,0 -0.54983,0.18603 -0.69866,0.40514 v -1.12035 h -0.27285 v 2.57556 h 0.27285 v -0.34727 c 0.14056,0.20257 0.35967,0.38447 0.69866,0.38447 z m -0.0496,-0.23978 c -0.33899,0 -0.66145,-0.28525 -0.66145,-0.70693 v -0.008 c 0,-0.41341 0.32246,-0.70279 0.66145,-0.70279 0.34727,0 0.64079,0.27699 0.64079,0.70694 v 0.008 c 0,0.43822 -0.28939,0.7028 -0.64079,0.7028 z m 1.52963,0.77722 c 0.27285,0 0.45062,-0.13643 0.60358,-0.51263 l 0.76481,-1.88517 h -0.28939 l -0.58291,1.52136 -0.66146,-1.52136 h -0.30179 l 0.82683,1.81488 c -0.10749,0.26045 -0.21084,0.34313 -0.37208,0.34313 -0.11575,0 -0.19843,-0.0207 -0.28525,-0.0661 l -0.091,0.21498 c 0.12402,0.0579 0.23564,0.0909 0.38861,0.0909 z m 2.69027,-2.79466 h 0.31006 v -0.30179 h -0.31006 z m 0.0165,2.22002 h 0.27285 v -1.82315 h -0.27285 z m 0.85989,0 h 0.8599 c 0.77308,0 1.31051,-0.54157 1.31051,-1.2361 v -0.004 c 0,-0.69453 -0.53743,-1.22783 -1.31051,-1.22783 h -0.8599 z m 0.28112,-0.25632 v -1.95544 h 0.57878 c 0.62425,0 1.02113,0.42995 1.02113,0.97566 v 0.008 c 0,0.54571 -0.39688,0.97152 -1.02113,0.97152 z m 3.17914,0.29766 c 0.54984,0 0.95498,-0.43822 0.95498,-0.95085 v -0.008 c 0,-0.51263 -0.40101,-0.94258 -0.95085,-0.94258 -0.54984,0 -0.95084,0.43409 -0.95084,0.95085 v 0.008 c 0,0.51263 0.39687,0.94258 0.94671,0.94258 z m 0.004,-0.24392 c -0.38447,0 -0.67386,-0.31419 -0.67386,-0.70693 v -0.008 c 0,-0.38447 0.27285,-0.7028 0.66973,-0.7028 0.38447,0 0.67386,0.31833 0.67386,0.71107 v 0.008 c 0,0.38447 -0.27285,0.69866 -0.66973,0.69866 z m 2.17351,0.24392 c 0.34313,0 0.56224,-0.14883 0.74414,-0.3514 l -0.17363,-0.16123 c -0.14469,0.15296 -0.32246,0.26871 -0.55397,0.26871 -0.38447,0 -0.67386,-0.31419 -0.67386,-0.70693 v -0.008 c 0,-0.3886 0.28525,-0.7028 0.65319,-0.7028 0.24805,0 0.40928,0.11989 0.55397,0.27285 l 0.1819,-0.19017 c -0.1695,-0.17776 -0.38447,-0.32246 -0.73174,-0.32246 -0.5333,0 -0.93431,0.43409 -0.93431,0.95085 v 0.008 c 0,0.50849 0.40101,0.94258 0.93431,0.94258 z m 1.71566,-0.008 c 0.12816,0 0.23151,-0.0289 0.3266,-0.0786 v -0.23151 c -0.0951,0.0455 -0.17364,0.062 -0.26459,0.062 -0.1819,0 -0.30592,-0.0827 -0.30592,-0.30179 v -1.0666 h 0.57877 v -0.23978 h -0.57877 v -0.54984 h -0.27285 v 0.54984 h -0.25219 v 0.23978 h 0.25219 v 1.09967 c 0,0.37207 0.22324,0.51677 0.51676,0.51677 z m 1.27124,0.004 c 0.31833,0 0.52917,-0.14469 0.65319,-0.31006 v 0.27286 h 0.26872 v -1.11622 c 0,-0.23151 -0.062,-0.40514 -0.19017,-0.5333 -0.12816,-0.13229 -0.33073,-0.20257 -0.58705,-0.20257 -0.26871,0 -0.46302,0.0661 -0.66559,0.1571 l 0.0827,0.21911 c 0.1695,-0.0744 0.339,-0.12816 0.55398,-0.12816 0.34313,0 0.53743,0.1695 0.53743,0.49196 v 0.0579 c -0.16123,-0.0455 -0.32246,-0.0786 -0.55397,-0.0786 -0.46302,0 -0.78135,0.2067 -0.78135,0.59531 v 0.008 c 0,0.37207 0.339,0.56637 0.68213,0.56637 z m 0.0537,-0.21911 c -0.24804,0 -0.45888,-0.13229 -0.45888,-0.35966 v -0.008 c 0,-0.21911 0.1943,-0.36794 0.52916,-0.36794 0.22325,0 0.40101,0.0413 0.5333,0.0785 v 0.1695 c 0,0.28939 -0.26871,0.48782 -0.60358,0.48782 z m 0,0"
       style="fill:#ffffff;fill-opacity:1;fill-rule:nonzero;stroke:none;stroke-width:0.35278"
       aria-label="Operated by iDocta"
       inkscape:label="Operated by iDocta" />
    <g
       id="g1"
       inkscape:label="C logo"
       transform="translate(0,-8.5209447)">
      <path
         id="path23"
         d="m 127.22186,146.43241 c -8.81807,0 -16.85367,-3.34892 -22.90618,-8.84379 l 22.90618,22.90548 22.90273,-22.9023 c -6.05155,5.4931 -14.08607,8.84061 -22.90273,8.84061"
         style="fill:#bdbcbc;fill-opacity:1;fill-rule:nonzero;stroke:none;stroke-width:0.0352778" />
      <path
         id="path28"
         d="m 151.7396,136.01347 c 6.04062,-6.14927 9.5691,-14.36723 9.5691,-23.66822 0,-9.15987 -3.61915,-17.469553 -9.49748,-23.594128 0.89676,0.932038 1.45133,2.196041 1.45133,3.592336 0,2.864556 -2.32199,5.185834 -5.18619,5.185834 -1.48696,0 -2.82293,-0.628298 -3.76837,-1.630892 4.10598,4.26544 6.63539,10.05911 6.63539,16.44685 0,6.36235 -2.51036,12.13521 -6.58777,16.39606 0.94262,-0.97402 2.25778,-1.58468 3.72075,-1.58468 2.8642,0 5.18619,2.32128 5.18619,5.18619 0,1.43404 -0.58244,2.73226 -1.52295,3.67065"
         style="fill:#bdbcbc;fill-opacity:1;fill-rule:nonzero;stroke:none;stroke-width:0.0352778" />
      <path
         id="path34"
         d="m 148.07636,127.15663 c -1.48837,0 -2.82575,0.63006 -3.7712,1.63371 -4.31588,4.48134 -10.37025,7.2764 -17.0833,7.2764 -13.101,0 -23.7225,-10.62144 -23.7225,-23.7229 0,-7e-4 0,-7e-4 0,-7e-4 0,0 0,-3.6e-4 0,-7.1e-4 0,-13.101461 10.6215,-23.723247 23.7225,-23.723247 6.71305,0 12.76742,2.795058 17.0833,7.276747 0.94545,1.003653 2.28283,1.633362 3.7712,1.633362 2.8642,0 5.18619,-2.321278 5.18619,-5.185834 0,-1.434395 -0.58244,-2.731911 -1.52295,-3.670653 l 7.1e-4,-7.06e-4 c -6.19972,-6.41985 -14.88969,-10.418586 -24.51845,-10.418586 -18.82634,0 -34.088527,15.262226 -34.088527,34.088917 0,3.5e-4 0,3.5e-4 0,3.5e-4 0,3.6e-4 0,3.6e-4 0,10e-4 0,18.82634 15.262187,34.08857 34.088527,34.08857 9.62876,0 18.31873,-3.99874 24.51845,-10.41824 l -7.1e-4,-7e-4 c 0.94051,-0.93839 1.52295,-2.23661 1.52295,-3.67065 0,-2.86491 -2.32199,-5.18619 -5.18619,-5.18619"
         style="fill:#e31b22;fill-opacity:1;fill-rule:nonzero;stroke:none;stroke-width:0.0352778" />
    </g>
    <path
       id="path35"
       style="fill:#e31b22;fill-opacity:1;fill-rule:nonzero;stroke:none;stroke-width:0.0352778"
       d="m 109.75283,55.033325 c -2.08717,0 -3.91495,0.760761 -4.93924,1.90376 -0.74965,0.84349 -1.20457,1.90599 -1.20457,3.060278 0,1.157816 0.45492,2.215467 1.20457,3.063896 1.02429,1.141236 2.8302,1.901692 4.87878,1.901692 2.05108,0 3.85282,-0.760456 4.87877,-1.901692 0.0558,-0.06597 0.11241,-0.128335 0.16381,-0.194304 l -0.15399,-0.583943 c -0.71822,1.035754 -1.91188,1.707906 -3.26182,1.707906 -2.19547,0 -3.9765,-1.786579 -3.9765,-3.993555 0,-2.206623 1.78103,-3.995105 3.9765,-3.995105 0.77668,0 1.49664,0.222269 2.10892,0.609265 l -2.10892,3.38584 3.96823,-2.301668 c -0.43339,-0.688622 -1.05103,-1.287004 -1.8004,-1.738912 -0.94908,-0.570794 -2.26902,-0.923458 -3.73414,-0.923458 z m 10.7828,1.69447 c -0.28345,0 -0.55502,0.05231 -0.80305,0.142627 l -3.58273,1.310514 h 3.6835 l 0.63097,2.362647 c -0.61172,-0.52599 -1.40941,-0.848527 -2.27893,-0.848527 -1.72805,0 -3.13004,1.166974 -3.13004,2.602425 0,1.43651 1.40199,2.605009 3.13004,2.605009 1.24463,0 2.3461,-0.614956 3.0241,-1.555461 l 0.36484,1.37511 h 2.8944 l -1.66347,-6.241996 c -0.27037,-1.010002 -1.18233,-1.752348 -2.26963,-1.752348 z m 6.38204,0 c -0.21661,0 -0.42436,0.0523 -0.60875,0.135909 l -2.81171,1.317232 h 1.97714 v 6.541203 h 2.89078 v -5.814115 c 0,-0.403225 0.32361,-0.727088 0.72295,-0.727088 0.39688,0 0.7214,0.323863 0.7214,0.727088 v 5.814115 h 2.89182 v -6.541203 c 0,-0.802216 -0.64568,-1.453141 -1.44436,-1.453141 -0.22261,0 -0.42608,0.0523 -0.6134,0.135909 l -2.29857,1.080554 c -0.11229,-0.688974 -0.70534,-1.216463 -1.4273,-1.216463 z m 11.08408,0 c -2.26483,0 -4.09484,1.843223 -4.09484,4.117578 0,2.269418 1.83001,4.117578 4.09484,4.117578 2.26272,0 4.09639,-1.84816 4.09639,-4.117578 0,-2.274355 -1.83367,-4.117578 -4.09639,-4.117578 z m 7.04711,0 c -0.21872,0 -0.42915,0.0523 -0.60978,0.135909 l -2.81275,1.317232 h 1.97508 v 6.541203 h 2.89439 v -5.814115 c 0,-0.403225 0.32049,-0.727088 0.72089,-0.727088 0.39829,0 0.72192,0.323863 0.72192,0.727088 v 5.814115 h 2.8944 v -6.541203 c 0,-0.802216 -0.65092,-1.453141 -1.44643,-1.453141 -0.22049,0 -0.42631,0.0523 -0.61081,0.135909 l -2.30064,1.080554 c -0.11607,-0.688974 -0.70767,-1.216463 -1.42627,-1.216463 z m -7.71322,0.578259 c 0.38392,0.01513 0.73259,0.279169 0.83664,0.673861 l 1.40457,5.261695 c 0.12876,0.485068 -0.15914,0.97826 -0.63821,1.109493 -0.48577,0.133702 -0.97763,-0.153652 -1.10639,-0.638721 l -1.40456,-5.262728 c -0.12876,-0.482247 0.15416,-0.9847 0.63923,-1.11311 0.0898,-0.02447 0.18012,-0.03398 0.26872,-0.03049 z m -17.94826,3.539319 c 0.80243,0 1.45004,0.650245 1.45004,1.452108 0,0.802568 -0.64761,1.451591 -1.45004,1.451591 -0.79678,0 -1.4428,-0.649023 -1.4428,-1.451591 0,-0.801863 0.64602,-1.452108 1.4428,-1.452108 z"
       inkscape:label="Canon logo" />
    <g
       id="g24"
       transform="translate(1.7631348e-5,0.68624765)">
      <path
         d="m 118.7293,185.50689 h 1.10748 l 0.45147,-1.10747 h 2.088 l 0.45144,1.10747 h 1.13571 l -2.11621,-4.9731 h -1.00168 z m 1.94691,-2.06683 0.65604,-1.60125 0.656,1.60125 z m 4.8049,2.13737 c 0.52201,0 0.88176,-0.19046 1.14275,-0.47968 v 0.40914 h 1.03694 v -2.19381 c 0,-0.50788 -0.12697,-0.92405 -0.40913,-1.2062 -0.26806,-0.26806 -0.6913,-0.42326 -1.27678,-0.42326 -0.64191,0 -1.05105,0.11992 -1.46724,0.30333 l 0.26804,0.81826 c 0.34567,-0.12697 0.63488,-0.20457 1.04401,-0.20457 0.5361,0 0.81123,0.24691 0.81123,0.69131 v 0.0635 c -0.26806,-0.0917 -0.54318,-0.1552 -0.9241,-0.1552 -0.89586,0 -1.52367,0.38092 -1.52367,1.20623 v 0.014 c 0,0.74772 0.58549,1.15686 1.29795,1.15686 z m 0.32447,-0.74068 c -0.34563,0 -0.58547,-0.16928 -0.58547,-0.45851 v -0.014 c 0,-0.33859 0.28216,-0.522 0.74068,-0.522 0.261,0 0.50083,0.0565 0.68423,0.14107 v 0.19047 c 0,0.38797 -0.33859,0.66307 -0.83944,0.66307 z m 2.62521,0.67014 h 1.07222 v -5.14942 h -1.07222 z m 3.20362,0.0705 c 0.81826,0 1.44607,-0.38092 1.44607,-1.22036 v -0.014 c 0,-0.6913 -0.6137,-0.94523 -1.14274,-1.12159 -0.40914,-0.14108 -0.76889,-0.23984 -0.76889,-0.45145 v -0.014 c 0,-0.14814 0.13401,-0.261 0.39501,-0.261 0.2751,0 0.64898,0.13403 1.02284,0.3527 l 0.40912,-0.74068 c -0.40912,-0.27509 -0.93112,-0.43734 -1.41079,-0.43734 -0.76184,0 -1.38259,0.43029 -1.38259,1.19917 v 0.014 c 0,0.73364 0.59959,0.98053 1.12864,1.13571 0.4162,0.12699 0.783,0.20458 0.783,0.43736 v 0.014 c 0,0.16929 -0.14108,0.28216 -0.45146,0.28216 -0.3527,0 -0.78299,-0.15519 -1.19213,-0.45147 l -0.45852,0.7054 c 0.50084,0.39503 1.09338,0.57138 1.62244,0.57138 z m 3.21773,-0.007 c 0.35975,0 0.62075,-0.0847 0.84649,-0.21867 v -0.86058 c -0.1552,0.0846 -0.33156,0.13402 -0.52906,0.13402 -0.23985,0 -0.34565,-0.11991 -0.34565,-0.36683 v -1.61537 h 0.88882 v -0.91702 h -0.88882 v -0.96642 h -1.07222 v 0.96642 h -0.45145 v 0.91702 h 0.45145 v 1.79172 c 0,0.87471 0.44441,1.13571 1.10044,1.13571 z"
         id="text7"
         style="font-size:9.17222px;font-family:Gotham;-inkscape-font-specification:'Gotham, Normal';text-align:center;letter-spacing:-0.264583px;text-anchor:middle;fill:#ffffff;stroke-width:4.23333"
         aria-label="Aalst"
         inkscape:label="Aalst" />
      <path
         style="fill:#3e444f;fill-opacity:1;fill-rule:nonzero;stroke:none;stroke-width:0.35278"
         d="M 134.86735,177.69202"
         id="path21" />
      <path
         id="path20"
         style="fill:#ffffff;fill-opacity:1;fill-rule:nonzero;stroke:none;stroke-width:0.35278"
         d="m 121.8291,172.60754 c -1.49655,0 -2.59209,1.14929 -2.59209,2.55488 v 0.0124 c 0,1.45934 1.06247,2.53834 2.60036,2.53834 0.90124,0 1.59989,-0.3514 2.10839,-0.78135 v -2.1456 h -2.1456 v 0.93844 h 1.09554 v 0.70694 c -0.27698,0.19844 -0.62838,0.29765 -1.02526,0.29765 -0.87229,0 -1.49655,-0.66559 -1.49655,-1.56683 v -0.0165 c 0,-0.83922 0.62838,-1.53789 1.418,-1.53789 0.57464,0 0.91364,0.18189 1.29398,0.50022 l 0.68213,-0.82682 c -0.51263,-0.43408 -1.05006,-0.67386 -1.9389,-0.67386 z m 11.41636,0.27234 v 0.96738 h -0.45062 v 0.91777 h 0.45062 v 1.79421 c 0,0.8723 0.44235,1.13275 1.09967,1.13275 0.35967,0 0.62011,-0.0827 0.84749,-0.21911 v -0.8599 c -0.1571,0.0868 -0.33072,0.13643 -0.52916,0.13643 -0.23978,0 -0.34727,-0.11989 -0.34727,-0.36794 v -1.61644 h 0.88884 v -0.91777 h -0.88884 v -0.96738 z m -2.21486,0.8971 c -0.54571,0 -0.86403,0.28938 -1.10794,0.60771 v -0.53743 h -1.07487 v 3.78271 h 1.07487 v -2.10839 c 0,-0.5085 0.26045,-0.76895 0.66973,-0.76895 0.40928,0 0.64905,0.26045 0.64905,0.76895 v 2.10839 h 1.07074 v -2.44739 c 0,-0.86816 -0.4713,-1.4056 -1.28158,-1.4056 z m -4.64467,5.2e-4 c -1.09968,0 -1.86862,0.88883 -1.86862,1.96783 v 0.0165 c 0,1.15756 0.83921,1.9513 1.9761,1.9513 0.68213,0 1.19063,-0.26459 1.54203,-0.7028 l -0.61185,-0.5457 c -0.29765,0.27698 -0.55811,0.38861 -0.91778,0.38861 -0.47955,0 -0.81856,-0.25219 -0.92604,-0.74001 h 2.63343 c 0.008,-0.0992 0.0165,-0.19844 0.0165,-0.28112 0,-1.07487 -0.57878,-2.05465 -1.84381,-2.05465 z m 0,0.85937 c 0.45062,0 0.73587,0.3266 0.79788,0.80616 h -1.61644 c 0.0868,-0.48783 0.37621,-0.80616 0.81856,-0.80616 z" />
      <path
         id="path16"
         style="fill:#ffffff;fill-opacity:1;fill-rule:nonzero;stroke:none;stroke-width:0.35278"
         d="m 138.26841,164.71758 v 1.86449 c -0.25631,-0.30592 -0.60772,-0.56637 -1.17823,-0.56637 -0.89709,0 -1.72392,0.69039 -1.72392,1.95543 v 0.0124 c 0,1.26504 0.83923,1.95544 1.72392,1.95544 0.55397,0 0.91778,-0.26045 1.17823,-0.61185 v 0.54157 h 1.07073 v -5.15111 z m -24.845,0.12764 c -1.52549,0 -2.63343,1.14929 -2.63343,2.55489 v 0.0124 c 0,1.4056 1.09554,2.53835 2.62103,2.53835 1.52135,0 2.6293,-1.14929 2.6293,-2.55075 v -0.0165 c 0,-1.4056 -1.09141,-2.53835 -2.6169,-2.53835 z m 11.2758,0.27337 v 0.96739 h -0.45062 v 0.91777 h 0.45062 v 1.7942 c 0,0.8723 0.44234,1.13275 1.09967,1.13275 0.35967,0 0.62013,-0.0827 0.8475,-0.21911 v -0.85989 c -0.15709,0.0868 -0.33074,0.13642 -0.52917,0.13642 -0.23978,0 -0.34726,-0.11988 -0.34726,-0.36793 v -1.61644 h 0.88883 v -0.91777 h -0.88883 v -0.96739 z m -11.2882,0.72709 c 0.87229,0 1.49655,0.70694 1.49655,1.55443 v 0.0124 c 0,0.8475 -0.60772,1.53789 -1.48415,1.53789 -0.8723,0 -1.49655,-0.70693 -1.49655,-1.55029 v -0.0165 c 0,-0.84749 0.60771,-1.53789 1.48415,-1.53789 z m 5.17591,0.1695 c -1.17823,0 -2.05052,0.88057 -2.05052,1.96784 v 0.0165 c 0,1.08727 0.86817,1.95131 2.03812,1.95131 1.17823,0 2.05465,-0.88057 2.05465,-1.96784 v -0.0124 c 0,-1.08726 -0.86817,-1.95543 -2.04225,-1.95543 z m 10.26707,5.2e-4 c -1.09967,0 -1.86861,0.88882 -1.86861,1.96783 v 0.0165 c 0,1.15755 0.83921,1.9513 1.9761,1.9513 0.68213,0 1.19063,-0.26459 1.54203,-0.7028 l -0.61185,-0.5457 c -0.29765,0.27699 -0.55811,0.38861 -0.91778,0.38861 -0.47956,0 -0.81855,-0.25218 -0.92604,-0.74001 h 2.63343 c 0.008,-0.0992 0.0165,-0.19843 0.0165,-0.28112 0,-1.07487 -0.57878,-2.05465 -1.84382,-2.05465 z m 4.64468,0 c -0.5457,0 -0.86403,0.28939 -1.10794,0.60771 v -0.53743 h -1.07487 v 3.78271 h 1.07487 v -2.1084 c 0,-0.50849 0.26045,-0.76894 0.66973,-0.76894 0.40928,0 0.64905,0.26045 0.64905,0.76894 v 2.1084 h 1.07074 v -2.4474 c 0,-0.86816 -0.4713,-1.40559 -1.28158,-1.40559 z m 8.30957,0 c -1.09968,0 -1.86862,0.88882 -1.86862,1.96783 v 0.0165 c 0,1.15756 0.83923,1.9513 1.97611,1.9513 0.68213,0 1.19063,-0.26459 1.54202,-0.7028 l -0.61184,-0.5457 c -0.29766,0.27699 -0.55812,0.38861 -0.91778,0.38861 -0.47956,0 -0.81855,-0.25219 -0.92604,-0.74001 h 2.63343 c 0.008,-0.0992 0.0165,-0.19844 0.0165,-0.28112 0,-1.07487 -0.57879,-2.05465 -1.84382,-2.05465 z m -19.30425,0.0119 c -0.76067,0 -1.38492,0.43409 -1.38492,1.20303 v 0.0124 c 0,0.73587 0.60357,0.97978 1.13274,1.13688 0.41341,0.12816 0.78135,0.20258 0.78135,0.43822 v 0.0124 c 0,0.1695 -0.14056,0.28112 -0.45062,0.28112 -0.35553,0 -0.78548,-0.15296 -1.19476,-0.45062 l -0.45888,0.70694 c 0.50437,0.39274 1.09553,0.5705 1.6247,0.5705 0.81856,0 1.44694,-0.38033 1.44694,-1.21956 v -0.0165 c 0,-0.6904 -0.61598,-0.94257 -1.14515,-1.12034 -0.40927,-0.14056 -0.76894,-0.23978 -0.76894,-0.45062 v -0.0165 c 0,-0.14883 0.13642,-0.26045 0.39687,-0.26045 0.27285,0 0.64906,0.13642 1.02113,0.3514 l 0.40928,-0.74 c -0.40927,-0.27285 -0.93018,-0.43822 -1.40974,-0.43822 z m 6.35,0.84801 c 0.45062,0 0.73587,0.32659 0.79789,0.80615 h -1.61644 c 0.0868,-0.48783 0.37621,-0.80615 0.81855,-0.80615 z m 12.95425,0 c 0.45062,0 0.73588,0.32659 0.79789,0.80615 h -1.61644 c 0.0868,-0.48783 0.3762,-0.80615 0.81855,-0.80615 z m -4.4452,0.0496 c 0.50023,0 0.91777,0.41755 0.91777,1.04593 v 0.0124 c 0,0.62838 -0.41754,1.04593 -0.91777,1.04593 -0.50023,0 -0.92191,-0.41755 -0.92191,-1.04593 v -0.0124 c 0,-0.63665 0.42168,-1.04593 0.92191,-1.04593 z m -18.78852,0.016 c 0.59117,0 0.99632,0.48369 0.99632,1.0418 v 0.0165 c 0,0.55397 -0.36794,1.0294 -0.98392,1.0294 -0.59118,0 -0.99219,-0.48783 -0.99219,-1.04593 v -0.0124 c 0,-0.55809 0.36794,-1.02939 0.97979,-1.02939 z" />
      <path
         id="path8"
         style="fill:#ffffff;fill-opacity:1;fill-rule:nonzero;stroke:none;stroke-width:0.35278"
         d="m 114.09778,157.15474 -1.10794,3.3569 -1.02112,-3.3445 h -1.16582 l 1.68671,4.97747 h 0.94672 l 1.11621,-3.23287 1.11207,3.23287 h 0.94672 l 1.68672,-4.97747 h -1.13689 l -1.02112,3.3445 -1.10795,-3.3569 z m 10.38335,1.09864 c -0.56103,0.0153 -0.88625,0.34365 -1.08779,0.83199 v -0.76068 h -1.07487 v 3.78272 h 1.07487 v -1.39733 c 0,-0.90124 0.43409,-1.33532 1.14929,-1.33532 h 0.0537 v -1.12035 c -0.0395,-0.002 -0.0778,-0.002 -0.11524,-0.001 z m 2.19056,0.001 c -1.09967,0 -1.86862,0.88884 -1.86862,1.96784 v 0.0165 c 0,1.15755 0.83923,1.9513 1.97611,1.9513 0.68212,0 1.19063,-0.26458 1.54203,-0.7028 l -0.61185,-0.5457 c -0.29765,0.27698 -0.55811,0.3886 -0.91778,0.3886 -0.47956,0 -0.81856,-0.25218 -0.92604,-0.74 h 2.63343 c 0.008,-0.0992 0.0165,-0.19844 0.0165,-0.28112 0,-1.07487 -0.57878,-2.05466 -1.84382,-2.05466 z m 3.97082,0 c -0.86817,0 -1.67845,0.63666 -1.67845,1.76527 v 0.0124 c 0,1.12448 0.79788,1.76527 1.67845,1.76527 0.57464,0 0.91777,-0.23152 1.2361,-0.61598 v 0.18603 c 0,0.678 -0.34726,1.02939 -1.079,1.02939 -0.50023,0 -0.88883,-0.12815 -1.27744,-0.34726 l -0.36794,0.80615 c 0.47956,0.25218 1.05834,0.39688 1.67432,0.39688 0.73174,0 1.27744,-0.1571 1.62884,-0.5085 0.31833,-0.31832 0.47955,-0.81443 0.47955,-1.49242 v -2.92695 h -1.07073 v 0.4961 c -0.28938,-0.31833 -0.63666,-0.56638 -1.2237,-0.56638 z m 4.76353,0 c -1.09967,0 -1.86861,0.88884 -1.86861,1.96784 v 0.0165 c 0,1.15755 0.83922,1.9513 1.9761,1.9513 0.68212,0 1.19063,-0.26458 1.54203,-0.7028 l -0.61185,-0.5457 c -0.29765,0.27698 -0.55811,0.3886 -0.91778,0.3886 -0.47956,0 -0.81856,-0.25218 -0.92604,-0.74 h 2.63343 c 0.008,-0.0992 0.0165,-0.19844 0.0165,-0.28112 0,-1.07487 -0.57878,-2.05466 -1.84382,-2.05466 z m 4.64882,0 c -0.54157,0 -0.86816,0.28939 -1.11208,0.60772 v -0.53744 h -1.07487 v 3.78272 h 1.07487 v -2.1084 c 0,-0.5085 0.24392,-0.76895 0.64906,-0.76895 0.40101,0 0.62838,0.26045 0.62838,0.76895 v 2.1084 h 1.07074 v -2.1084 c 0,-0.5085 0.24804,-0.76895 0.64905,-0.76895 0.40101,0 0.62839,0.26045 0.62839,0.76895 v 2.1084 h 1.07073 v -2.46394 c 0,-0.9095 -0.47956,-1.38906 -1.27744,-1.38906 -0.51263,0 -0.9095,0.21084 -1.24023,0.59945 -0.19844,-0.38034 -0.57051,-0.59945 -1.0666,-0.59945 z m -20.17035,0.0289 c -0.64079,0 -1.05007,0.11989 -1.46761,0.30179 l 0.26872,0.81856 c 0.34314,-0.12816 0.63252,-0.20258 1.0418,-0.20258 0.53743,0 0.81442,0.24392 0.81442,0.6904 v 0.062 c -0.26872,-0.091 -0.54571,-0.15296 -0.92605,-0.15296 -0.89709,0 -1.52548,0.38034 -1.52548,1.20716 v 0.0124 c 0,0.74827 0.58704,1.15756 1.30224,1.15756 0.5209,0 0.88057,-0.19017 1.14102,-0.47956 v 0.40928 h 1.03766 v -2.19522 c 0,-0.50849 -0.12816,-0.9219 -0.40928,-1.20716 -0.26872,-0.26872 -0.6904,-0.42168 -1.27744,-0.42168 z m 6.78718,0.83096 c 0.45062,0 0.73588,0.32659 0.79789,0.80615 h -1.61644 c 0.0868,-0.48782 0.3762,-0.80615 0.81855,-0.80615 z m 8.73435,0 c 0.45062,0 0.73588,0.32659 0.79789,0.80615 h -1.61644 c 0.0868,-0.48782 0.37621,-0.80615 0.81855,-0.80615 z m -4.45347,0.0289 c 0.52504,0 0.92604,0.35967 0.92604,0.87643 v 0.0124 c 0,0.51677 -0.401,0.87643 -0.92604,0.87643 -0.52089,0 -0.91364,-0.35553 -0.91364,-0.87643 v -0.0124 c 0,-0.51676 0.39275,-0.87643 0.91364,-0.87643 z m -11.08046,1.29811 c 0.26045,0 0.50023,0.0579 0.68213,0.14056 v 0.19017 c 0,0.38861 -0.339,0.66559 -0.83923,0.66559 -0.34727,0 -0.58704,-0.1695 -0.58704,-0.45889 v -0.0165 c 0,-0.33486 0.28526,-0.5209 0.74414,-0.5209 z" />
    </g>
  </g>
</svg>
