<?xml version="1.0" encoding="UTF-8" standalone="no"?>
<!-- Created with Inkscape (http://www.inkscape.org/) -->

<svg
   width="68.175369mm"
   height="82.240585mm"
   viewBox="0 0 68.175369 82.240585"
   version="1.1"
   id="svg1"
   inkscape:version="1.3 (0e150ed6c4, 2023-07-21)"
   sodipodi:docname="CBC_Arrow_White.svg"
   xmlns:inkscape="http://www.inkscape.org/namespaces/inkscape"
   xmlns:sodipodi="http://sodipodi.sourceforge.net/DTD/sodipodi-0.dtd"
   xmlns="http://www.w3.org/2000/svg"
   xmlns:svg="http://www.w3.org/2000/svg">
  <sodipodi:namedview
     id="namedview1"
     pagecolor="#c6c6c6"
     bordercolor="#999999"
     borderopacity="1"
     inkscape:showpageshadow="2"
     inkscape:pageopacity="0"
     inkscape:pagecheckerboard="true"
     inkscape:deskcolor="#d1d1d1"
     inkscape:document-units="mm"
     inkscape:zoom="3.6661821"
     inkscape:cx="104.05921"
     inkscape:cy="152.88384"
     inkscape:window-width="3200"
     inkscape:window-height="1711"
     inkscape:window-x="2391"
     inkscape:window-y="369"
     inkscape:window-maximized="1"
     inkscape:current-layer="layer1" />
  <defs
     id="defs1" />
  <g
     inkscape:label="Layer 1"
     inkscape:groupmode="layer"
     id="layer1"
     transform="translate(-56.620832,-61.11875)">
    <g
       id="g1"
       style="display:inline">
      <path
         id="path4"
         style="fill:#ffffff;fill-opacity:1;fill-rule:nonzero;stroke:none;stroke-width:0.0352778"
         d="m 81.697854,82.404789 c -1.778633,0.0088 -3.049558,1.430818 -3.041158,3.140377 v 0.01705 c 0.0087,1.735665 1.301607,3.102368 3.045809,3.093868 1.096503,-0.0053 1.784854,-0.431781 2.411739,-1.073836 l -0.450618,-0.438216 c -0.575593,0.555624 -1.118424,0.8777 -1.947168,0.8816 -1.329795,0.0064 -2.344895,-1.084972 -2.351795,-2.484086 l -5.16e-4,-0.01705 c -0.0066,-1.389943 0.989514,-2.482953 2.328023,-2.489253 0.820348,-0.0042 1.39195,0.337883 1.90376,0.819071 l 0.463537,-0.502812 C 83.452443,82.784589 82.794498,82.39949 81.697854,82.404789 Z m 20.736716,1.488281 c -0.7687,0.0035 -1.2329,0.394817 -1.52393,0.879533 l -0.004,-0.777213 -0.66456,0.0031 0.0217,4.464327 0.66456,-0.0036 -0.0124,-2.555916 c -0.004,-0.837494 0.56284,-1.401183 1.33118,-1.405083 0.78599,-0.0039 1.23779,0.511977 1.24179,1.341004 l 0.0129,2.607593 0.66456,-0.0031 -0.014,-2.771924 c -0.005,-1.061861 -0.63909,-1.784003 -1.71824,-1.778703 z m -5.458062,0.02687 c -1.346898,0.0063 -2.325755,1.081666 -2.319755,2.342493 v 0.01705 c 0.0064,1.260474 0.987001,2.309102 2.32544,2.302702 1.346898,-0.0067 2.33454,-1.082019 2.32854,-2.342493 v -0.01757 c -0.0063,-1.260473 -0.995786,-2.308885 -2.334225,-2.302185 z m -4.923213,0.02325 c -0.76828,0.0039 -1.232799,0.394981 -1.523938,0.880049 l -0.0036,-0.777213 -0.665075,0.0031 0.02222,4.464327 0.664559,-0.0031 -0.0124,-2.555917 c -0.0041,-0.837494 0.563322,-1.401182 1.331702,-1.405082 0.785779,-0.0039 1.237268,0.511813 1.241268,1.340487 l 0.01292,2.607593 0.664559,-0.0031 -0.01344,-2.771924 c -0.0053,-1.061861 -0.63926,-1.784119 -1.718758,-1.779219 z m -5.250843,0.05168 c -0.656229,0.0035 -1.130235,0.161254 -1.621089,0.38809 l 0.201021,0.543119 c 0.413557,-0.192263 0.827223,-0.323578 1.353922,-0.326078 0.83742,-0.0039 1.323051,0.40754 1.327051,1.201994 l 5.17e-4,0.138493 c -0.39787,-0.110421 -0.795202,-0.186135 -1.365291,-0.182935 -1.130967,0.0053 -1.90526,0.509632 -1.90066,1.468128 v 0.01757 h 5.17e-4 c 0.0044,0.915457 0.835202,1.386027 1.672766,1.381827 0.78564,-0.0039 1.293697,-0.36892 1.602487,-0.767911 l 0.0031,0.665075 0.656291,-0.0031 -0.01344,-2.728516 c -0.0028,-0.570088 -0.16028,-1.000776 -0.472839,-1.310514 -0.32106,-0.3175 -0.814187,-0.488042 -1.444357,-0.485242 z m 10.159587,0.512113 c 0.941209,-0.0046 1.661048,0.777316 1.666048,1.735812 l 5.17e-4,0.01757 c 0.0046,0.94121 -0.6655,1.721393 -1.632459,1.725993 -0.940859,0.0046 -1.652263,-0.769047 -1.657263,-1.727543 v -0.01757 c -0.0049,-0.940859 0.656188,-1.729362 1.623157,-1.734262 z M 86.77093,86.283622 c 0.543779,-0.0028 0.975943,0.08996 1.304313,0.183452 l 0.0021,0.414445 c 0.0034,0.708024 -0.659287,1.203778 -1.479496,1.207678 -0.60441,0.0032 -1.123747,-0.322916 -1.126547,-0.884184 v -0.01705 c -0.0026,-0.535164 0.470783,-0.900438 1.299663,-0.904338 z m 3.774446,5.265829 -0.76016,0.0036 0.0041,0.733805 0.759644,-0.0036 z m -13.170772,0.193786 -2.57297,0.0124 0.02946,6.044075 2.685107,-0.01344 c 1.321116,-0.0063 2.19018,-0.623575 2.18488,-1.65933 v -0.01705 c -0.004,-0.829027 -0.584273,-1.240769 -1.302246,-1.453141 0.474062,-0.20955 0.95558,-0.617896 0.95188,-1.403532 l -5.17e-4,-0.01705 c -0.0019,-0.388407 -0.141481,-0.707435 -0.393258,-0.965315 -0.34685,-0.335139 -0.891664,-0.530817 -1.582332,-0.527617 z m -0.05736,0.6134 c 0.863352,-0.0042 1.340171,0.381877 1.343071,0.977718 v 0.01757 c 0.0037,0.708024 -0.564722,1.081821 -1.384929,1.085721 l -1.787488,0.0088 -0.0098,-2.080493 z m 29.705676,0.74414 c -0.88054,0.0042 -1.5176,0.516844 -1.5136,1.285193 v 0.01757 c 0.004,0.820207 0.78284,1.057715 1.48311,1.253154 0.58772,0.161218 1.11525,0.331064 1.11725,0.779797 l 5.2e-4,0.01757 c 0.002,0.431799 -0.38519,0.709601 -0.92036,0.712101 -0.52669,0.0028 -1.06315,-0.201537 -1.54823,-0.561723 l -0.33486,0.476457 c 0.50306,0.403226 1.21217,0.650189 1.85105,0.646989 0.88935,-0.0042 1.58633,-0.499858 1.58233,-1.346171 v -0.01705 c -0.004,-0.80257 -0.7479,-1.066818 -1.4397,-1.270724 -0.59655,-0.178505 -1.14987,-0.339764 -1.15187,-0.762744 v -0.01757 c -0.002,-0.371122 0.3332,-0.64884 0.85989,-0.65164 0.43145,-0.0021 0.90735,0.159656 1.32292,0.425297 l 0.29972,-0.502295 c -0.45895,-0.29986 -1.06419,-0.487008 -1.60817,-0.484208 z m -3.95583,0.01912 c -0.88053,0.0042 -1.51708,0.517361 -1.51308,1.28571 v 0.01705 c 0.004,0.820207 0.78231,1.058067 1.48259,1.253154 0.58773,0.161219 1.11576,0.331581 1.11776,0.780314 v 0.01705 c 0.002,0.4318 -0.38518,0.709818 -0.92035,0.712618 -0.52669,0.0025 -1.06316,-0.202053 -1.54823,-0.562239 l -0.33486,0.476456 c 0.50307,0.403578 1.21234,0.650706 1.85156,0.647506 0.88936,-0.0046 1.58582,-0.499858 1.58182,-1.346171 v -0.01705 c -0.004,-0.802922 -0.74791,-1.067336 -1.4397,-1.271241 -0.59654,-0.178505 -1.14987,-0.339763 -1.15187,-0.762744 v -0.01705 c -0.002,-0.371475 0.33319,-0.649656 0.85989,-0.652156 0.43143,-0.0021 0.90735,0.159655 1.32292,0.425297 l 0.29972,-0.502295 c -0.45895,-0.299861 -1.06419,-0.487009 -1.60817,-0.484209 z m -4.352702,0.0041 c -1.234719,0.006 -2.135586,1.046577 -2.129586,2.341975 0.0067,1.38959 1.012724,2.326272 2.238623,2.320272 0.846319,-0.0042 1.388425,-0.343916 1.835025,-0.846976 l -0.41651,-0.36897 c -0.360882,0.381705 -0.790926,0.63397 -1.404046,0.63717 h -5.16e-4 c -0.78564,0.0035 -1.478916,-0.536924 -1.578715,-1.477429 l 3.540347,-0.01705 c 0.008,-0.103717 0.008,-0.173258 0.008,-0.233578 -0.007,-1.312684 -0.77122,-2.362111 -2.092382,-2.355411 z m -4.733562,0.02325 c -0.768349,0.0039 -1.232381,0.394464 -1.523421,0.879533 l -0.0041,-0.777214 -0.664559,0.0031 -5.17e-4,5.17e-4 0.02222,4.463293 0.664559,-0.0031 -0.0124,-2.555917 c -0.0042,-0.837141 0.563002,-1.401182 1.331702,-1.405082 0.785639,-0.0039 1.237267,0.511977 1.241267,1.341003 l 0.0124,2.607593 0.665076,-0.0036 -0.01395,-2.771407 c -0.0053,-1.062213 -0.638743,-1.784003 -1.718242,-1.778703 z m -6.882784,0.05064 c -0.880569,0.0046 -1.516885,0.517359 -1.513085,1.28571 v 0.01705 c 0.004,0.820207 0.782127,1.058067 1.482596,1.253153 0.58773,0.161573 1.115762,0.331582 1.117762,0.780314 v 0.01705 c 0.0021,0.431799 -0.385118,0.709818 -0.920358,0.712618 -0.526659,0.0025 -1.063016,-0.202054 -1.548226,-0.56224 l -0.334346,0.476457 c 0.503128,0.403224 1.21221,0.650189 1.85105,0.646989 0.889389,-0.0042 1.585815,-0.499695 1.581815,-1.345655 v -0.01705 c -0.004,-0.802921 -0.747946,-1.067172 -1.439705,-1.270723 -0.596549,-0.178506 -1.149868,-0.340281 -1.151868,-0.763261 v -0.01705 c -0.0019,-0.371122 0.333347,-0.64914 0.859896,-0.65164 0.43173,-0.0021 0.907794,0.159138 1.323434,0.42478 L 88.70673,93.682094 C 88.2477,93.382233 87.642092,93.195386 87.098042,93.197887 Z m 3.40341,0.06149 -0.664559,0.0031 0.0217,4.463811 0.664559,-0.0036 z m -6.003251,0.02894 -0.655774,0.0031 0.0124,2.555917 c 0.0041,0.837141 -0.571855,1.401182 -1.331702,1.405082 -0.7856,0.0039 -1.237268,-0.511813 -1.241268,-1.340487 l -0.01292,-2.607593 -0.664559,0.0031 0.01344,2.771924 c 0.0053,1.06186 0.63913,1.783786 1.718241,1.778186 0.768561,-0.0035 1.224594,-0.3943 1.524455,-0.879016 l 0.0036,0.776696 0.655774,-0.0031 z m 14.201717,0.396875 c 0.880529,-0.0042 1.350052,0.684127 1.431952,1.495516 l -2.875274,0.01447 c 0.09066,-0.864304 0.674973,-1.506485 1.443322,-1.509986 z M 77.39941,95.041698 c 1.053394,-0.0053 1.607454,0.372196 1.610754,1.028361 v 0.01705 c 0.0033,0.6731 -0.564356,1.081639 -1.479496,1.086239 l -2.029334,0.0098 -0.01033,-2.132686 z m 4.199227,5.789822 c -1.778634,0.008 -3.049558,1.43082 -3.041158,3.14038 v 0.0176 c 0.0087,1.73566 1.301747,3.10235 3.045808,3.09335 1.096644,-0.005 1.785465,-0.43143 2.412773,-1.07384 l -0.451135,-0.43821 c -0.57591,0.55527 -1.118283,0.8776 -1.947168,0.8816 -1.329795,0.007 -2.345411,-1.08532 -2.352311,-2.48409 v -0.017 c -0.0068,-1.38994 0.989514,-2.48326 2.328023,-2.48926 0.820066,-0.004 1.391574,0.33875 1.903243,0.81959 l 0.464054,-0.50333 C 83.353601,101.2114 82.69528,100.8266 81.598637,100.8316 Z m 13.941784,0.2682 -0.665075,0.003 0.0072,1.34721 -0.622184,0.003 0.0031,0.58756 0.621667,-0.003 0.01292,2.69441 -5.17e-4,-5.2e-4 c 0.0046,0.90663 0.550617,1.25922 1.267107,1.25522 0.319619,-0.002 0.569538,-0.0728 0.802018,-0.19482 l -0.0031,-0.56947 c -0.23212,0.1136 -0.421752,0.15713 -0.646472,0.15813 -0.44908,0.002 -0.752476,-0.19448 -0.754476,-0.73846 l -0.01292,-2.60759 1.415934,-0.007 -0.0031,-0.58756 -1.415935,0.007 z m 4.215764,1.21647 c -1.234719,0.006 -2.135586,1.04709 -2.129586,2.34249 0.0067,1.38994 1.012891,2.32627 2.23914,2.32027 0.845961,-0.004 1.388411,-0.34375 1.835031,-0.84646 l -0.41651,-0.36949 c -0.36079,0.3816 -0.7912,0.63455 -1.404052,0.63769 h -5.17e-4 c -0.785416,0.003 -1.47842,-0.53729 -1.578198,-1.47795 l 3.540347,-0.0176 c 0.008,-0.10337 0.007,-0.17236 0.007,-0.23306 -0.006,-1.31267 -0.77122,-2.36192 -2.092375,-2.35592 z m 5.380545,0.0284 c -0.80757,0.005 -1.42294,0.53291 -1.73736,1.25367 l -0.006,-1.16582 -0.66456,0.003 0.0222,4.46432 0.66456,-0.003 -0.009,-1.77922 c -0.006,-1.34655 0.78415,-2.04965 1.75958,-2.05465 h 0.0522 l -0.003,-0.71727 c -0.0265,-9.4e-4 -0.0525,-10e-4 -0.0786,-10e-4 z m -13.355769,0.0258 c -0.768529,0.004 -1.232609,0.39498 -1.523938,0.88005 l -0.0041,-0.77722 -0.664559,0.003 0.02222,4.4633 0.664559,-0.003 -0.0124,-2.55592 c -0.0041,-0.83714 0.562806,-1.40157 1.331185,-1.40457 0.785809,-0.004 1.237785,0.51182 1.241785,1.34049 l 0.0124,2.60759 0.664559,-0.003 -0.01292,-2.7714 c -0.0053,-1.06221 -0.639469,-1.78422 -1.718758,-1.77922 z m -5.182113,0.0253 c -1.234716,0.006 -2.136302,1.04657 -2.130102,2.34197 0.0069,1.38959 1.013096,2.32627 2.239139,2.32027 0.84628,-0.004 1.388411,-0.34375 1.835031,-0.84646 l -0.416513,-0.36896 c -0.360759,0.38169 -0.790959,0.63317 -1.404048,0.63717 -0.785639,0.004 -1.478579,-0.53674 -1.578198,-1.47795 l 3.539835,-0.017 c 0.0077,-0.10336 0.0075,-0.17236 0.0072,-0.23306 -0.0065,-1.31269 -0.7714,-2.36193 -2.092379,-2.35593 z m 13.142867,0.48214 c 0.880895,-0.005 1.350455,0.68412 1.431955,1.49551 l -2.874761,0.014 c 0.09067,-0.8643 0.674457,-1.50547 1.442806,-1.50947 z m -13.157853,0.0791 c 0.880669,-0.005 1.350871,0.68413 1.432471,1.49552 l -2.875277,0.0139 c 0.0907,-0.8636 0.674247,-1.50547 1.442806,-1.50947 z" />
      <path
         id="path23"
         d="m 90.709365,129.29765 c -8.818071,0 -16.853679,-3.34892 -22.906182,-8.84379 l 22.906182,22.90548 22.902725,-22.90231 c -6.05156,5.49311 -14.086065,8.84062 -22.902725,8.84062"
         style="fill:#ffffff;fill-opacity:1;fill-rule:nonzero;stroke:none;stroke-width:0.0352778" />
      <path
         id="path28"
         d="m 115.2271,118.87871 c 6.04061,-6.14927 9.5691,-14.36723 9.5691,-23.668219 0,-9.159876 -3.61915,-17.469557 -9.49749,-23.594132 0.89676,0.932038 1.45134,2.196041 1.45134,3.592336 0,2.864556 -2.32198,5.185834 -5.18619,5.185834 -1.48696,0 -2.82293,-0.628298 -3.76837,-1.630892 4.10598,4.265436 6.63539,10.059106 6.63539,16.446854 0,6.362349 -2.51037,12.135199 -6.58777,16.396049 0.94262,-0.97401 2.25777,-1.58467 3.72074,-1.58467 2.86421,0 5.1862,2.32127 5.1862,5.18618 0,1.43405 -0.58244,2.73227 -1.52295,3.67066"
         style="fill:#ffffff;fill-opacity:1;fill-rule:nonzero;stroke:none;stroke-width:0.0352778" />
      <path
         id="path34"
         d="m 111.56385,110.02187 c -1.48837,0 -2.82575,0.63006 -3.77118,1.63371 -4.31589,4.48134 -10.370265,7.27639 -17.083305,7.27639 -13.101006,0 -23.72251,-10.62143 -23.72251,-23.722891 0,-7.05e-4 0,-7.05e-4 0,-7.05e-4 0,0 0,-3.53e-4 0,-7.06e-4 0,-13.101462 10.621504,-23.723248 23.72251,-23.723248 6.71304,0 12.767415,2.795058 17.083305,7.276747 0.94544,1.003653 2.28282,1.633362 3.77119,1.633362 2.86421,0 5.18619,-2.321278 5.18619,-5.185834 0,-1.434395 -0.58244,-2.731911 -1.52295,-3.670653 l 7e-4,-7.06e-4 C 109.0281,65.117486 100.33811,61.11875 90.709365,61.11875 c -18.826342,0 -34.088533,15.262226 -34.088533,34.088918 0,3.53e-4 0,3.53e-4 0,3.53e-4 0,3.53e-4 0,3.53e-4 0,0.0011 0,18.826339 15.262191,34.088569 34.088533,34.088569 9.628745,0 18.318735,-3.99874 24.518435,-10.41824 l -7e-4,-7e-4 c 0.9405,-0.93839 1.52295,-2.23661 1.52295,-3.67065 0,-2.86491 -2.32198,-5.18619 -5.18619,-5.18619"
         style="fill:#e31b22;fill-opacity:1;fill-rule:nonzero;stroke:none;stroke-width:0.0352778" />
    </g>
  </g>
</svg>
