<?xml version="1.0" encoding="UTF-8" standalone="no"?>
<!-- Created with Inkscape (http://www.inkscape.org/) -->

<svg
   width="113.28259mm"
   height="60.938126mm"
   viewBox="0 0 113.28259 60.938126"
   version="1.1"
   id="svg1"
   inkscape:version="1.3 (0e150ed6c4, 2023-07-21)"
   sodipodi:docname="CBC_Aalst_Landscape_Light.svg"
   xmlns:inkscape="http://www.inkscape.org/namespaces/inkscape"
   xmlns:sodipodi="http://sodipodi.sourceforge.net/DTD/sodipodi-0.dtd"
   xmlns="http://www.w3.org/2000/svg"
   xmlns:svg="http://www.w3.org/2000/svg">
  <sodipodi:namedview
     id="namedview1"
     pagecolor="#bebebe"
     bordercolor="#999999"
     borderopacity="1"
     inkscape:showpageshadow="2"
     inkscape:pageopacity="0"
     inkscape:pagecheckerboard="true"
     inkscape:deskcolor="#d1d1d1"
     inkscape:document-units="mm"
     showborder="true"
     showguides="false"
     inkscape:zoom="2.5923822"
     inkscape:cx="198.85185"
     inkscape:cy="172.62115"
     inkscape:window-width="2400"
     inkscape:window-height="1261"
     inkscape:window-x="5591"
     inkscape:window-y="-9"
     inkscape:window-maximized="1"
     inkscape:current-layer="layer1" />
  <defs
     id="defs1" />
  <g
     inkscape:label="Layer 1"
     inkscape:groupmode="layer"
     id="layer1"
     transform="translate(-14.2875,-74.083333)">
    <g
       id="g1">
      <path
         id="path2"
         d="m 33.984919,126.89586 c -5.095311,0 -9.738608,-1.93464 -13.235376,-5.10964 l 13.235376,13.23524 13.233295,-13.23372 c -3.496769,3.17433 -8.139113,5.10812 -13.233295,5.10812"
         style="fill:#bdbcbc;fill-opacity:1;fill-rule:nonzero;stroke:none;stroke-width:0.0352778" />
      <path
         id="path7"
         d="m 48.151417,120.87549 c 3.490666,-3.55286 5.529369,-8.3016 5.529369,-13.67578 0,-5.29237 -2.09162,-10.094102 -5.487635,-13.632817 0.517736,0.537987 0.837847,1.268237 0.837847,2.07504 0,1.655939 -1.341226,2.996847 -2.996248,2.996847 -0.858943,0 -1.631174,-0.363361 -2.177591,-0.941917 2.372572,2.464507 3.833989,5.811767 3.833989,9.502847 0,3.67658 -1.449705,7.01213 -3.806402,9.47413 0.545289,-0.56307 1.304996,-0.91585 2.150004,-0.91585 1.655022,0 2.996248,1.34165 2.996248,2.99724 0,0.82836 -0.335527,1.57868 -0.879581,2.12026"
         style="fill:#bdbcbc;fill-opacity:1;fill-rule:nonzero;stroke:none;stroke-width:0.0352778" />
      <path
         id="path13"
         d="m 46.03475,115.75799 c -0.860319,0 -1.632973,0.36449 -2.178967,0.94411 -2.493963,2.58974 -5.99239,4.2044 -9.870864,4.2044 -7.570682,0 -13.707358,-6.13738 -13.707358,-13.7082 v 0 -6.7e-4 c 0,-7.569661 6.136676,-13.707289 13.707358,-13.707289 3.878474,0 7.376901,1.614311 9.870864,4.205111 0.545994,0.579261 1.318648,0.943328 2.178967,0.943328 1.655022,0 2.996248,-1.340908 2.996248,-2.996847 0,-0.828676 -0.335527,-1.578328 -0.879581,-2.121253 v 0 c -3.581541,-3.709106 -8.603086,-6.020154 -14.166498,-6.020154 -10.878927,0 -19.697419,8.81874 -19.697419,19.697104 v 0 c 0,6.7e-4 0,6.7e-4 0,6.7e-4 0,10.87892 8.818492,19.69756 19.697419,19.69756 5.563412,0 10.584957,-2.31027 14.166498,-6.0197 v -6.7e-4 c 0.544054,-0.54158 0.879581,-1.2919 0.879581,-2.12026 0,-1.65559 -1.341226,-2.99724 -2.996248,-2.99724"
         style="fill:#e31b22;fill-opacity:1;fill-rule:nonzero;stroke:none;stroke-width:0.0352778" />
    </g>
    <path
       id="path14"
       style="fill:#e31b22;fill-opacity:1;fill-rule:nonzero;stroke:none;stroke-width:0.0352778"
       d="m 23.873478,74.083333 c -1.205758,0 -2.262482,0.43944 -2.854089,1.100191 -0.432964,0.487892 -0.696598,1.101265 -0.696598,1.768368 0,0.668865 0.263634,1.280074 0.696598,1.770434 0.591607,0.659695 1.63524,1.098641 2.818949,1.098641 1.185403,0 2.226389,-0.438946 2.81895,-1.098641 0.03239,-0.03775 0.06516,-0.07403 0.09508,-0.112138 l -0.0894,-0.337447 c -0.414373,0.597958 -1.104684,0.986503 -1.884639,0.986503 -1.268905,0 -2.298051,-1.032063 -2.298051,-2.307352 0,-1.275291 1.029146,-2.308386 2.298051,-2.308386 0.448274,0 0.864377,0.128091 1.21853,0.351399 l -1.21853,1.956987 2.2934,-1.330152 c -0.250539,-0.397932 -0.608078,-0.743017 -1.04076,-1.004073 -0.548462,-0.330199 -1.310684,-0.534334 -2.157491,-0.534334 z m 6.230628,0.978752 c -0.164007,0 -0.32118,0.03064 -0.464055,0.0832 l -2.070674,0.756026 h 2.128552 l 0.364835,1.365808 c -0.353482,-0.303742 -0.814007,-0.489376 -1.316715,-0.489376 -0.998818,0 -1.808675,0.673535 -1.808675,1.503268 0,0.830086 0.809857,1.504817 1.808675,1.504817 0.719313,0 1.355809,-0.355023 1.74718,-0.898653 l 0.21084,0.794267 h 1.672766 L 31.415653,76.07546 c -0.156421,-0.584552 -0.683427,-1.013374 -1.311547,-1.013374 z m 3.68763,0 c -0.125131,0 -0.245096,0.03074 -0.351917,0.07906 l -1.624707,0.76016 h 1.142566 v 3.780131 h 1.670183 v -3.359485 c 0,-0.232833 0.187146,-0.420646 0.417545,-0.420646 0.22987,0 0.417546,0.187813 0.417546,0.420646 v 3.359485 h 1.670182 V 75.90131 c 0,-0.462844 -0.373083,-0.839225 -0.834058,-0.839225 -0.128834,0 -0.246303,0.03074 -0.3545,0.07906 l -1.328084,0.624251 C 34.551012,75.367115 34.209,75.062085 33.791736,75.062085 Z m 6.40426,0 c -1.308452,0 -2.365747,1.065604 -2.365747,2.379699 0,1.311627 1.057295,2.379183 2.365747,2.379183 1.307499,0 2.367814,-1.067556 2.367814,-2.379183 0,-1.314095 -1.060315,-2.379699 -2.367814,-2.379699 z m 4.072103,0 c -0.126083,0 -0.247411,0.03074 -0.352433,0.07906 l -1.624707,0.76016 h 1.140499 v 3.780131 h 1.672766 v -3.359485 c 0,-0.232833 0.184984,-0.420646 0.416512,-0.420646 0.230539,0 0.417028,0.187813 0.417028,0.420646 v 3.359485 h 1.673283 V 75.90131 c 0,-0.462844 -0.376373,-0.839225 -0.836641,-0.839225 -0.127882,0 -0.246599,0.03074 -0.352433,0.07906 l -1.329635,0.624251 C 45.025908,75.36711 44.683565,75.06208 44.268099,75.06208 Z m -4.456576,0.334863 c 0.221976,0.0085 0.422928,0.161252 0.483175,0.389123 l 0.81132,3.040125 c 0.07482,0.280458 -0.09177,0.565455 -0.368453,0.641304 -0.280458,0.07726 -0.565074,-0.08903 -0.639754,-0.369486 l -0.810803,-3.040641 c -0.07511,-0.279047 0.08826,-0.569125 0.368969,-0.642855 0.05193,-0.01422 0.104321,-0.01954 0.155546,-0.01757 z M 29.44058,77.441784 c 0.463444,0 0.837675,0.376029 0.837675,0.839226 0,0.463549 -0.374231,0.838191 -0.837675,0.838191 -0.460515,0 -0.833541,-0.374642 -0.833541,-0.838191 0,-0.463197 0.373026,-0.839226 0.833541,-0.839226 z" />
    <path
       id="path19"
       style="fill:#231f20;fill-opacity:1;fill-rule:nonzero;stroke:none;stroke-width:0.0352778"
       d="m 31.879708,82.758256 v 1.682068 h 0.17725 v -0.682646 c 0,-0.223309 0.151767,-0.373621 0.357084,-0.373621 0.20948,0 0.329696,0.138994 0.329696,0.360185 v 0.696082 h 0.17725 V 83.6998 c 0,-0.283279 -0.168296,-0.476456 -0.456303,-0.476456 -0.20507,0 -0.329447,0.10378 -0.407727,0.232544 v -0.697632 z m 7.497217,0 v 0.718302 c -0.0919,-0.133703 -0.234595,-0.253214 -0.455786,-0.253214 -0.285644,0 -0.569475,0.231003 -0.569475,0.620117 v 0.0041 c 0,0.391935 0.283831,0.61805 0.569475,0.61805 0.21911,0 0.359476,-0.122578 0.455786,-0.2651 v 0.239779 h 0.177767 v -1.682068 z m -3.86023,0.03462 v 0.195337 h 0.202572 v -0.195337 z m -14.437878,0.0067 c -0.474733,0 -0.815454,0.3774 -0.815454,0.833541 v 0.0047 c 0,0.463197 0.343245,0.829923 0.808736,0.829923 0.292417,0 0.4764,-0.113148 0.644922,-0.283187 l -0.11989,-0.117822 c -0.154339,0.147464 -0.299706,0.232544 -0.520898,0.232544 -0.3544,0 -0.624251,-0.292518 -0.624251,-0.666109 v -0.0041 c 0,-0.371475 0.267346,-0.661459 0.624251,-0.661459 0.219111,0 0.371468,0.09206 0.507462,0.221175 l 0.124024,-0.133325 c -0.161254,-0.1524 -0.336485,-0.255798 -0.628902,-0.255798 z m 20.198767,0 c -0.474733,0 -0.815454,0.3774 -0.815454,0.833541 v 0.0047 c 0,0.463197 0.342871,0.829923 0.808219,0.829923 0.292558,0 0.477058,-0.113148 0.645439,-0.283187 l -0.11989,-0.117822 c -0.154339,0.147464 -0.299707,0.232544 -0.520898,0.232544 -0.354577,0 -0.624251,-0.292518 -0.624251,-0.666109 v -0.0041 c 0,-0.371475 0.267345,-0.661459 0.624251,-0.661459 0.21911,0 0.37095,0.09206 0.506946,0.221175 l 0.12454,-0.133325 c -0.161361,-0.1524 -0.336484,-0.255798 -0.628902,-0.255798 z m -12.710335,0.0155 -0.734839,1.625224 h 0.187068 l 0.191203,-0.426848 h 0.877466 l 0.189136,0.426848 h 0.195337 l -0.734839,-1.6252 z m 2.513024,0.0739 v 0.359668 h -0.165881 v 0.15658 h 0.165881 v 0.719336 c 0,0.242006 0.145279,0.335896 0.336414,0.335896 0.08516,0 0.151641,-0.01854 0.21394,-0.05064 v -0.151928 c -0.0623,0.02963 -0.112659,0.04134 -0.172599,0.04134 -0.119626,0 -0.200504,-0.05258 -0.200504,-0.197921 v -0.696081 h 0.377754 v -0.15658 h -0.377754 v -0.359668 z m 13.737146,0 v 0.359668 h -0.165881 v 0.15658 h 0.165881 v 0.719336 c 0,0.242006 0.145279,0.335896 0.336414,0.335896 0.08544,0 0.152047,-0.01854 0.214457,-0.05064 v -0.151928 c -0.06241,0.02963 -0.113036,0.04134 -0.173116,0.04134 -0.119486,0 -0.199988,-0.05258 -0.199988,-0.197921 v -0.696081 h 0.377238 v -0.15658 h -0.377238 v -0.359668 z m -16.166971,0.138493 0.366385,0.822689 h -0.734838 z m -4.865337,0.195854 c -0.205034,0 -0.329447,0.10378 -0.407727,0.232544 v -0.207223 h -0.17725 v 1.191659 h 0.17725 v -0.682646 c 0,-0.223309 0.151768,-0.373621 0.357085,-0.373621 0.209443,0 0.329695,0.138994 0.329695,0.360185 v 0.696082 h 0.17725 V 83.6998 c 0,-0.283279 -0.16826,-0.476456 -0.456303,-0.476456 z m 1.313099,0 c -0.359233,0 -0.622185,0.285986 -0.622185,0.622184 v 0.0047 c 0,0.336196 0.260593,0.617533 0.617534,0.617533 0.359655,0 0.624251,-0.285988 0.624251,-0.622184 v -0.0052 c 0,-0.336196 -0.26266,-0.617016 -0.6196,-0.617016 z m 1.455725,0 c -0.204928,0 -0.329587,0.10378 -0.407727,0.232544 v -0.207223 h -0.17725 v 1.191659 h 0.17725 v -0.682646 c 0,-0.223309 0.151767,-0.373621 0.357084,-0.373621 0.209479,0 0.329695,0.138994 0.329695,0.360185 v 0.696082 h 0.177251 V 83.6998 c 0,-0.283279 -0.168296,-0.476456 -0.456303,-0.476456 z m 7.223848,0 c -0.359233,0 -0.622184,0.285986 -0.622184,0.622184 v 0.0047 c 0,0.336196 0.260629,0.617533 0.617533,0.617533 0.359657,0 0.624252,-0.285988 0.624252,-0.622184 v -0.0052 c 0,-0.336196 -0.262661,-0.617016 -0.619601,-0.617016 z m 3.846794,0 c -0.3296,0 -0.571542,0.276461 -0.571542,0.622184 0,0.370768 0.26749,0.622184 0.594796,0.622184 0.225566,0 0.370536,-0.09024 0.49041,-0.223242 l -0.110588,-0.09922 c -0.09687,0.101242 -0.211999,0.167949 -0.375688,0.167949 -0.209761,0 -0.394016,-0.145534 -0.419096,-0.396359 h 0.944646 c 0.0021,-0.02752 0.0021,-0.04595 0.0021,-0.06253 0,-0.349955 -0.202475,-0.630969 -0.555005,-0.630969 z m 4.984192,0 c -0.329635,0 -0.571542,0.276461 -0.571542,0.622184 0,0.370768 0.267488,0.622184 0.594796,0.622184 0.225566,0 0.370678,-0.09024 0.490409,-0.223242 l -0.110587,-0.09922 c -0.09687,0.101242 -0.211482,0.167949 -0.375171,0.167949 -0.209761,0 -0.394533,-0.145534 -0.419613,-0.396359 h 0.944646 c 0.0021,-0.02752 0.0021,-0.04595 0.0021,-0.06253 0,-0.349955 -0.20251,-0.630969 -0.555005,-0.630969 z m 1.381828,0 c -0.205034,0 -0.329588,0.10378 -0.407728,0.232544 v -0.207223 h -0.17725 v 1.191659 h 0.17725 v -0.682646 c 0,-0.223309 0.151768,-0.373621 0.357085,-0.373621 0.209443,0 0.329695,0.138994 0.329695,0.360185 v 0.696082 h 0.17725 V 83.6998 c 0,-0.283279 -0.168295,-0.476456 -0.456302,-0.476456 z m 2.089794,0 c -0.329634,0 -0.571541,0.276461 -0.571541,0.622184 0,0.370768 0.267007,0.622184 0.594279,0.622184 0.225601,0 0.370911,-0.09024 0.490926,-0.223242 l -0.110587,-0.09922 c -0.09673,0.101242 -0.211963,0.167949 -0.375688,0.167949 -0.209726,0 -0.394016,-0.145534 -0.419096,-0.396359 h 0.944645 c 0.002,-0.02752 0.0021,-0.04595 0.0021,-0.06253 0,-0.349955 -0.20265,-0.630969 -0.555005,-0.630969 z m -10.789522,0.0041 c -0.215459,5.27e-4 -0.380332,0.14038 -0.465088,0.331762 V 83.24861 h -0.17725 v 1.191659 h 0.17725 v -0.474907 c 0,-0.359832 0.212008,-0.546737 0.472323,-0.546737 h 0.01395 v -0.190686 c -0.0071,-2.75e-4 -0.01424,-5.33e-4 -0.02119,-5.16e-4 z m 12.228194,0 c -0.215452,5.27e-4 -0.380303,0.14038 -0.465088,0.331762 V 83.24861 h -0.17725 v 1.191659 h 0.17725 v -0.474907 c 0,-0.359832 0.211867,-0.546737 0.472323,-0.546737 h 0.01395 v -0.190686 c -0.0071,-2.75e-4 -0.01424,-5.33e-4 -0.02119,-5.16e-4 z m -11.106299,5.16e-4 c -0.234949,0 -0.40566,0.135748 -0.40566,0.341065 v 0.0041 c 0,0.219428 0.207473,0.28366 0.393775,0.33693 0.156809,0.04339 0.297139,0.08935 0.297139,0.20929 v 0.0052 c 0,0.115005 -0.103586,0.188619 -0.246496,0.188619 -0.140688,0 -0.283261,-0.05492 -0.412378,-0.151929 l -0.0894,0.126607 c 0.133385,0.108308 0.32239,0.174666 0.492993,0.174666 0.236997,0 0.423747,-0.130437 0.423747,-0.356567 v -0.0047 c 0,-0.214489 -0.19815,-0.285841 -0.382406,-0.341581 -0.158856,-0.04833 -0.306441,-0.09123 -0.306441,-0.204122 v -0.0052 c 0,-0.09913 0.08941,-0.172599 0.22996,-0.172599 0.115499,0 0.242425,0.04381 0.35295,0.114722 l 0.08061,-0.132809 c -0.122202,-0.08114 -0.283301,-0.131775 -0.428398,-0.131775 z m -14.028084,0.0021 c -0.174978,0 -0.301709,0.04131 -0.433048,0.101285 l 0.05271,0.145211 c 0.110667,-0.0508 0.221188,-0.08527 0.361735,-0.08527 0.223237,0 0.352433,0.110794 0.352433,0.322461 v 0.03721 c -0.105974,-0.03034 -0.211544,-0.05064 -0.363802,-0.05064 -0.301802,0 -0.50953,0.133713 -0.50953,0.389124 v 0.0047 c 0,0.244475 0.221274,0.371554 0.444934,0.371554 0.209726,0 0.345458,-0.09725 0.428398,-0.203088 v 0.177767 h 0.175183 v -0.728638 c 0,-0.1524 -0.0416,-0.2673 -0.12454,-0.34985 -0.08502,-0.08537 -0.21648,-0.131774 -0.384473,-0.131774 z m 7.26519,0.0186 v 0.73949 c 0,0.283985 0.168295,0.47749 0.456303,0.47749 0.205069,0 0.32674,-0.104297 0.40721,-0.233061 v 0.20774 h 0.1757 v -1.191659 h -0.1757 v 0.682129 c 0,0.223308 -0.154144,0.373104 -0.356567,0.373104 -0.209867,0 -0.329696,-0.13796 -0.329696,-0.359151 v -0.696082 z m 5.878194,0 v 1.191659 h 0.177767 v -1.191659 z m 2.091862,0.12454 c 0.23495,0 0.359379,0.18424 0.380338,0.400493 h -0.767395 c 0.02508,-0.230011 0.181987,-0.400493 0.387057,-0.400493 z m 4.984192,0 c 0.23495,0 0.359378,0.18424 0.380338,0.400493 h -0.767395 c 0.02508,-0.230011 0.182129,-0.400493 0.387057,-0.400493 z m 3.471106,0 c 0.23495,0 0.359418,0.18424 0.380338,0.400493 h -0.766878 c 0.02508,-0.230011 0.181647,-0.400493 0.38654,-0.400493 z m -20.981665,0.0072 c 0.251213,0 0.44235,0.209324 0.44235,0.465088 v 0.0047 c 0,0.250824 -0.179572,0.457853 -0.437699,0.457853 -0.251213,0 -0.440284,-0.20674 -0.440284,-0.462504 v -0.0052 c 0,-0.250825 0.177505,-0.45992 0.435633,-0.45992 z m 8.679573,0 c 0.251213,0 0.442351,0.209324 0.442351,0.465088 v 0.0047 c 0,0.250824 -0.179573,0.457853 -0.4377,0.457853 -0.251072,0 -0.440283,-0.20674 -0.440283,-0.462504 v -0.0052 c 0,-0.250825 0.177647,-0.45992 0.435632,-0.45992 z m 5.180046,0.0016 c 0.221192,0 0.430981,0.184261 0.430981,0.45837 v 0.0052 c 0,0.274108 -0.209789,0.460954 -0.430981,0.460954 -0.225707,0 -0.419096,-0.17979 -0.419096,-0.460954 v -0.0052 c 0,-0.287867 0.188556,-0.45837 0.419096,-0.45837 z m -16.579867,0.45837 c 0.145133,0 0.259973,0.02576 0.347783,0.05116 v 0.110071 c 0,0.189441 -0.17739,0.32091 -0.396358,0.32091 -0.16122,0 -0.299724,-0.08797 -0.299724,-0.237195 v -0.0052 c 0,-0.142519 0.127143,-0.239779 0.348299,-0.239779 z" />
    <path
       id="path40"
       style="fill:#231f20;fill-opacity:1;fill-rule:nonzero;stroke:none;stroke-width:0.0352778"
       d="m 62.679895,93.703841 c -1.890887,0 -3.248897,1.505473 -3.248897,3.322278 v 0.0186 c 0,1.844673 1.367663,3.304191 3.221509,3.304191 1.165576,0 1.899591,-0.44994 2.569868,-1.128613 l -0.478007,-0.468705 c -0.614538,0.587727 -1.192889,0.927592 -2.073775,0.927592 -1.413225,0 -2.487186,-1.166112 -2.487186,-2.653068 v -0.01809 c 0,-1.477432 1.064436,-2.633431 2.487186,-2.633431 0.872066,0 1.478002,0.36657 2.019515,0.880566 L 65.185168,94.7229 C 64.54276,94.117182 63.845472,93.703841 62.679895,93.703841 Z m 10.783838,1.688786 c -0.81668,0 -1.312852,0.413267 -1.624707,0.926558 v -0.825273 h -0.706417 v 4.744418 h 0.706417 v -2.716634 c 0,-0.89041 0.605619,-1.486215 1.422652,-1.486215 0.835024,0 1.312581,0.550716 1.312581,1.431954 v 2.770895 h 0.706934 v -2.946078 c 0,-1.128535 -0.670228,-1.899625 -1.81746,-1.899625 z m 5.231205,0 c -1.431571,0 -2.477885,1.138201 -2.477885,2.478401 v 0.01809 c 0,1.339849 1.03653,2.459792 2.459282,2.459792 1.43157,0 2.487186,-1.138382 2.487186,-2.477879 v -0.0186 c 0,-1.340202 -1.046184,-2.459798 -2.468583,-2.459798 z m 5.80068,0 c -0.817034,0 -1.312499,0.413267 -1.624707,0.926558 v -0.825273 h -0.706934 v 4.744418 h 0.706934 v -2.716634 c 0,-0.89041 0.605973,-1.486215 1.422652,-1.486215 0.835377,0 1.312064,0.550716 1.312064,1.431954 v 2.770895 h 0.706934 v -2.946078 c 0,-1.128535 -0.669711,-1.899625 -1.816943,-1.899625 z m -16.611906,0.0279 c -0.697794,0 -1.202308,0.165115 -1.725476,0.403593 l 0.21084,0.578259 c 0.440618,-0.202142 0.881398,-0.338997 1.441255,-0.338997 0.890058,0 1.404049,0.439799 1.404049,1.283642 v 0.146761 c -0.422275,-0.118889 -0.844321,-0.201538 -1.450041,-0.201538 -1.202266,0 -2.0283,0.53267 -2.0283,1.551844 v 0.01757 c 0,0.973031 0.880894,1.477939 1.770952,1.477939 0.835377,0 1.377189,-0.385575 1.707389,-0.807179 v 0.705899 h 0.697632 v -2.900081 c 0,-0.605719 -0.165541,-1.064711 -0.496094,-1.395263 -0.339372,-0.339725 -0.862282,-0.522449 -1.532206,-0.522449 z m 10.792623,0.596346 c 1.000124,0 1.762166,0.834976 1.762166,1.85415 v 0.01809 c 0,1.000477 -0.715923,1.826245 -1.743563,1.826245 -1.000477,0 -1.752864,-0.825863 -1.752864,-1.844332 v -0.0186 c 0,-1.000477 0.706268,-1.835547 1.734261,-1.835547 z M 67.83772,97.852425 c 0.578202,0 1.036712,0.100808 1.385962,0.202055 v 0.439766 c 0,0.753179 -0.706649,1.276408 -1.578715,1.276408 -0.642055,0 -1.193209,-0.348615 -1.193209,-0.945162 v -0.0186 c 0,-0.56903 0.504724,-0.954464 1.385962,-0.954464 z m 7.800557,6.044075 v 0.7798 h 0.80822 v -0.7798 z m 26.716203,0.0274 c -1.89089,0 -3.248385,1.50585 -3.248385,3.32279 v 0.0186 c 0,1.8445 1.367145,3.30367 3.220995,3.30367 1.16558,0 1.89959,-0.45018 2.56987,-1.12861 l -0.47749,-0.46871 c -0.61454,0.58787 -1.19341,0.92759 -2.0743,0.92759 -1.41357,0 -2.486666,-1.16566 -2.486666,-2.65255 v -0.0186 c 0,-1.47726 1.063926,-2.63343 2.486666,-2.63343 0.87207,0 1.478,0.36658 2.01952,0.88057 l 0.49558,-0.53227 c -0.64241,-0.60565 -1.34022,-1.01906 -2.50579,-1.01906 z m -42.639262,0.11059 v 6.42389 h 2.854606 c 1.404407,0 2.331124,-0.65048 2.331124,-1.75234 v -0.0186 c 0,-0.88057 -0.615178,-1.32188 -1.377177,-1.55132 0.505178,-0.21982 1.019059,-0.65094 1.019059,-1.48674 v -0.0181 c 0,-0.41338 -0.1469,-0.75293 -0.412894,-1.02785 -0.367241,-0.35828 -0.945518,-0.56895 -1.680001,-0.56895 z m 56.745372,0.24804 v 1.43144 h -0.66042 v 0.62373 h 0.66042 v 2.8634 c 0,0.96379 0.57885,1.34048 1.34049,1.34048 0.33973,0 0.60553,-0.0729 0.85318,-0.20205 v -0.60565 c -0.24765,0.1192 -0.44985,0.16536 -0.68833,0.16536 -0.47731,0 -0.7984,-0.21151 -0.7984,-0.78961 v -2.77193 h 1.50533 v -0.62373 h -1.50533 v -1.43144 z m -56.029653,0.4036 h 1.955436 c 0.917574,0 1.422135,0.41273 1.422135,1.04593 v 0.0186 c 0,0.75241 -0.605716,1.14722 -1.477429,1.14722 h -1.900142 z m 19.658748,0.92655 c -0.81668,0 -1.312498,0.41375 -1.624707,0.92708 v -0.82579 h -0.706417 v 4.74441 h 0.706417 v -2.71663 c 0,-0.89023 0.606489,-1.48621 1.423169,-1.48621 0.835024,0 1.312065,0.55068 1.312065,1.43195 v 2.77089 h 0.706933 v -2.94607 c 0,-1.12861 -0.670228,-1.89963 -1.81746,-1.89963 z m 5.02915,0 c -1.311978,0 -2.27583,1.10177 -2.27583,2.47841 0,1.47725 1.064655,2.47788 2.367814,2.47788 0.899584,0 1.477612,-0.35775 1.95492,-0.89038 l -0.440283,-0.39481 c -0.385586,0.40376 -0.844454,0.67076 -1.496033,0.67076 -0.835024,0 -1.569805,-0.57895 -1.670699,-1.57872 h 3.763078 c 0.0095,-0.11025 0.0093,-0.18394 0.0093,-0.24804 0,-1.39527 -0.807861,-2.5151 -2.212269,-2.5151 z m 22.540225,0 c -1.31234,0 -2.27531,1.10177 -2.27531,2.47841 0,1.47725 1.0643,2.47788 2.36781,2.47788 0.89923,0 1.47711,-0.35775 1.95441,-0.89038 l -0.44029,-0.39481 c -0.38512,0.40365 -0.84437,0.67062 -1.49603,0.67076 h -5.2e-4 c -0.8348,-2.4e-4 -1.56878,-0.57915 -1.66966,-1.57872 h 3.76256 c 0.009,-0.11025 0.009,-0.18394 0.009,-0.24804 0,-1.39527 -0.80822,-2.5151 -2.21227,-2.5151 z m 5.50716,0 c -0.81668,0 -1.31286,0.41375 -1.62471,0.92708 v -0.82579 h -0.70641 v 4.74441 h 0.70641 v -2.71663 c 0,-0.89023 0.60563,-1.48621 1.42265,-1.48621 0.83502,0 1.31259,0.55068 1.31259,1.43195 v 2.77089 h 0.70693 v -2.94607 c 0,-1.12861 -0.67023,-1.89963 -1.81746,-1.89963 z m 8.49354,0 c -1.31198,0 -2.27583,1.10177 -2.27583,2.47841 0,1.47725 1.06465,2.47788 2.36781,2.47788 0.89959,0 1.47797,-0.35775 1.95492,-0.89038 l -0.44028,-0.39481 c -0.38549,0.40365 -0.84473,0.67062 -1.49603,0.67076 h -5.2e-4 c -0.83482,-2.4e-4 -1.56896,-0.57915 -1.67018,-1.57872 h 3.76307 c 0.009,-0.11025 0.009,-0.18394 0.009,-0.24804 0,-1.39527 -0.80786,-2.5151 -2.21227,-2.5151 z m 5.82652,0.0171 c -0.85857,3.2e-4 -1.51513,0.55852 -1.85312,1.32343 v -1.2392 h -0.70642 v 4.74441 h 0.70642 v -1.89032 c 0,-1.43178 0.8449,-2.17506 1.88205,-2.17506 h 0.0548 v -0.76171 c -0.0281,-0.001 -0.056,-0.002 -0.0837,-0.002 z m -54.710877,0.002 c -0.935918,0 -1.615405,0.54156 -1.615405,1.35805 v 0.0186 c 0,0.87161 0.826111,1.12897 1.569413,1.34048 0.624416,0.17435 1.184424,0.35761 1.184424,0.8351 v 0.0176 c 0,0.45903 -0.413504,0.75344 -0.982886,0.75344 -0.559859,0 -1.128633,-0.22071 -1.642277,-0.60668 l -0.358118,0.50539 c 0.532342,0.43106 1.284772,0.69712 1.964221,0.69712 0.945443,0 1.688786,-0.52284 1.688786,-1.42214 v -0.0186 c 0,-0.85369 -0.789292,-1.13824 -1.523421,-1.35806 -0.633235,-0.19293 -1.220597,-0.36707 -1.220597,-0.817 v -0.0181 c 0,-0.39479 0.357398,-0.68833 0.917256,-0.68833 0.458963,0 0.963947,0.17434 1.404566,0.45889 l 0.32091,-0.53279 c -0.486127,-0.32109 -1.128317,-0.52296 -1.706872,-0.52296 z m 16.969507,0 c -0.936272,0 -1.615406,0.54156 -1.615406,1.35805 v 0.0186 c 0,0.87161 0.825759,1.12897 1.569414,1.34048 0.624063,0.17435 1.183907,0.35761 1.183907,0.8351 v 0.0176 c 0,0.45903 -0.412822,0.75344 -0.981853,0.75344 -0.559857,0 -1.12915,-0.22071 -1.642793,-0.60668 l -0.358118,0.50539 c 0.532342,0.43106 1.285125,0.69712 1.964221,0.69712 0.945444,0 1.688786,-0.52284 1.688786,-1.42214 v -0.0186 c 0,-0.85369 -0.789808,-1.13824 -1.523938,-1.35806 -0.633235,-0.19293 -1.220597,-0.36707 -1.220597,-0.817 v -0.0181 c 0,-0.39479 0.357916,-0.68833 0.917773,-0.68833 0.458964,0 0.963946,0.17434 1.404566,0.45889 l 0.32091,-0.53279 c -0.486127,-0.32109 -1.128671,-0.52296 -1.706872,-0.52296 z m 4.203361,0 c -0.936271,0 -1.615406,0.54156 -1.615406,1.35805 v 0.0186 c 0,0.87161 0.825758,1.12897 1.569414,1.34048 0.624063,0.17435 1.183907,0.35761 1.183907,0.8351 v 0.0176 c 0,0.45903 -0.412823,0.75344 -0.981853,0.75344 -0.559858,0 -1.129149,-0.22071 -1.642793,-0.60668 l -0.358118,0.50539 c 0.532342,0.43106 1.285125,0.69712 1.964221,0.69712 0.945443,0 1.688786,-0.52284 1.688786,-1.42214 v -0.0186 c 0,-0.85369 -0.789808,-1.13824 -1.523938,-1.35806 -0.633235,-0.19293 -1.220597,-0.36707 -1.220597,-0.817 v -0.0181 c 0,-0.39479 0.357915,-0.68833 0.917773,-0.68833 0.458963,0 0.96343,0.17434 1.404049,0.45889 l 0.321427,-0.53279 c -0.486127,-0.32109 -1.12867,-0.52296 -1.706872,-0.52296 z m -28.074256,0.0827 v 2.94556 c 0,1.12931 0.669712,1.90066 1.816944,1.90066 0.81668,0 1.303163,-0.41357 1.62419,-0.9276 v 0.82579 h 0.697632 v -4.74441 h -0.697632 v 2.71611 c 0,0.8909 -0.614627,1.48673 -1.422135,1.48673 -0.835025,0 -1.313099,-0.55005 -1.313099,-1.43143 v -2.77141 z m 9.810771,0 v 4.74441 h 0.706417 v -4.74441 z m 9.415963,0.49558 c 0.936624,0 1.431569,0.73464 1.514119,1.59732 h -3.056144 c 0.100894,-0.91778 0.725345,-1.59732 1.542025,-1.59732 z m 22.540221,0 c 0.93627,0 1.43214,0.73464 1.51464,1.59732 h -3.05614 c 0.1009,-0.91778 0.72483,-1.59732 1.5415,-1.59732 z m 14.0007,0 c 0.93627,0 1.43162,0.73464 1.51412,1.59732 h -3.05614 c 0.10125,-0.91778 0.72498,-1.59732 1.54202,-1.59732 z m -61.210733,1.33067 h 2.028816 c 1.119716,0 1.706873,0.40377 1.706873,1.10174 v 0.0176 c 0,0.71589 -0.605754,1.14825 -1.578715,1.14825 h -2.156974 z" />
    <path
       id="path60"
       d="m 60.811793,127.77961 c 0.826822,0 1.389062,-0.65319 1.389062,-1.4056 v -0.008 c 0,-0.74827 -0.553971,-1.39733 -1.380794,-1.39733 -0.826823,0 -1.389063,0.65732 -1.389063,1.4056 v 0.008 c 0,0.74827 0.553972,1.39733 1.380795,1.39733 z m 0.0083,-0.28112 c -0.620118,0 -1.070736,-0.50436 -1.070736,-1.12448 v -0.008 c 0,-0.61598 0.44235,-1.11208 1.062467,-1.11208 0.620117,0 1.070736,0.50437 1.070736,1.12035 v 0.008 c 0,0.62012 -0.44235,1.11621 -1.062467,1.11621 z m 1.863452,0.85576 h 0.297656 v -1.00459 c 0.157096,0.22738 0.396875,0.42582 0.768945,0.42582 0.483691,0 0.959115,-0.38861 0.959115,-1.0418 v -0.008 c 0,-0.66146 -0.479557,-1.0418 -0.959115,-1.0418 -0.367936,0 -0.607715,0.20671 -0.768945,0.44649 v -0.40101 h -0.297656 z m 1.012858,-0.84336 c -0.37207,0 -0.727604,-0.31419 -0.727604,-0.77721 v -0.008 c 0,-0.45889 0.355534,-0.77308 0.727604,-0.77308 0.380338,0 0.706933,0.30179 0.706933,0.77721 v 0.008 c 0,0.48369 -0.318326,0.77308 -0.706933,0.77308 z m 1.624706,-0.65732 h 1.591634 c 0.0041,-0.0455 0.0041,-0.0786 0.0041,-0.10749 0,-0.58704 -0.343132,-1.06247 -0.93431,-1.06247 -0.558105,0 -0.963248,0.46716 -0.963248,1.05007 0,0.62425 0.450618,1.04593 1.000455,1.04593 0.380339,0 0.624251,-0.14883 0.826823,-0.3762 l -0.186035,-0.16537 c -0.165365,0.1695 -0.355534,0.28112 -0.632519,0.28112 -0.355534,0 -0.665593,-0.24391 -0.706934,-0.66559 z m 0,-0.23978 c 0.04134,-0.38861 0.305925,-0.678 0.653191,-0.678 0.39274,0 0.60358,0.31006 0.640787,0.678 z m 2.002979,1.12034 h 0.297657 v -0.79788 c 0,-0.60771 0.355533,-0.92191 0.797883,-0.92191 h 0.02067 v -0.32246 c -0.380339,-0.0165 -0.669727,0.22738 -0.818555,0.55811 v -0.5209 h -0.297656 z m 1.953369,0.0414 c 0.355534,0 0.58291,-0.16123 0.72347,-0.339 v 0.29765 h 0.293522 v -1.22783 c 0,-0.25631 -0.07028,-0.45062 -0.206705,-0.58704 -0.144694,-0.1447 -0.367937,-0.22324 -0.649056,-0.22324 -0.297657,0 -0.508496,0.0703 -0.731739,0.16949 l 0.09095,0.24392 c 0.186035,-0.0827 0.37207,-0.14056 0.607715,-0.14056 0.376204,0 0.595312,0.18603 0.595312,0.54157 v 0.062 c -0.177767,-0.0496 -0.355533,-0.0827 -0.611849,-0.0827 -0.508496,0 -0.859896,0.22324 -0.859896,0.65319 v 0.008 c 0,0.41341 0.372071,0.62425 0.748275,0.62425 z m 0.05788,-0.23978 c -0.268717,0 -0.504362,-0.14883 -0.504362,-0.40101 v -0.004 c 0,-0.24391 0.214974,-0.40514 0.587044,-0.40514 0.243913,0 0.438216,0.0413 0.587044,0.0868 v 0.18603 c 0,0.31833 -0.297656,0.53744 -0.669726,0.53744 z m 2.128035,0.23151 c 0.144694,0 0.256315,-0.0289 0.363802,-0.0827 v -0.25632 c -0.107487,0.0496 -0.190169,0.0703 -0.293522,0.0703 -0.202571,0 -0.338997,-0.091 -0.338997,-0.33486 v -1.17409 h 0.636653 v -0.26045 h -0.636653 v -0.60772 h -0.297657 v 0.60772 h -0.281119 v 0.26045 h 0.281119 v 1.21129 c 0,0.40928 0.243913,0.56638 0.566374,0.56638 z m 0.901237,-0.91364 h 1.591634 c 0.0041,-0.0455 0.0041,-0.0786 0.0041,-0.10749 0,-0.58704 -0.343132,-1.06247 -0.93431,-1.06247 -0.558106,0 -0.963249,0.46716 -0.963249,1.05007 0,0.62425 0.450619,1.04593 1.000456,1.04593 0.380338,0 0.624251,-0.14883 0.826823,-0.3762 l -0.186035,-0.16537 c -0.165365,0.1695 -0.355534,0.28112 -0.63252,0.28112 -0.355534,0 -0.665592,-0.24391 -0.706934,-0.66559 z m 0,-0.23978 c 0.04134,-0.38861 0.305925,-0.678 0.65319,-0.678 0.392741,0 0.603581,0.31006 0.640788,0.678 z m 2.846338,1.16169 c 0.367936,0 0.60358,-0.20258 0.764811,-0.44649 v 0.40514 h 0.30179 v -2.83186 h -0.30179 v 1.20716 c -0.152962,-0.22324 -0.392741,-0.42582 -0.764811,-0.42582 -0.483692,0 -0.959115,0.38861 -0.959115,1.04593 v 0.008 c 0,0.65733 0.475423,1.03767 0.959115,1.03767 z m 0.05374,-0.26459 c -0.380339,0 -0.706934,-0.30592 -0.706934,-0.77721 v -0.008 c 0,-0.48783 0.318327,-0.77308 0.706934,-0.77308 0.37207,0 0.723469,0.31006 0.723469,0.77308 v 0.008 c 0,0.45889 -0.351399,0.77721 -0.723469,0.77721 z m 3.677294,0.26459 c 0.483691,0 0.959115,-0.38861 0.959115,-1.0418 v -0.008 c 0,-0.66146 -0.479558,-1.0418 -0.959115,-1.0418 -0.367936,0 -0.607715,0.20671 -0.768945,0.44649 v -1.22783 H 77.87535 v 2.83186 h 0.297656 v -0.38447 c 0.157096,0.22738 0.396875,0.42582 0.768945,0.42582 z m -0.05374,-0.26459 c -0.372071,0 -0.727605,-0.31419 -0.727605,-0.77721 v -0.008 c 0,-0.45889 0.355534,-0.77308 0.727605,-0.77308 0.380338,0 0.706933,0.30179 0.706933,0.77721 v 0.008 c 0,0.48369 -0.318327,0.77308 -0.706933,0.77308 z m 1.66088,0.85576 c 0.301791,0 0.496094,-0.15296 0.665593,-0.56637 l 0.843359,-2.07119 h -0.318327 l -0.644922,1.67018 -0.727604,-1.67018 h -0.330729 l 0.913639,1.99678 c -0.124023,0.28525 -0.235644,0.3762 -0.413411,0.3762 -0.128158,0 -0.219108,-0.0207 -0.314193,-0.0744 l -0.09922,0.23978 c 0.132292,0.0661 0.256315,0.0992 0.425815,0.0992 z m 2.922819,-3.07991 h 0.338997 v -0.3266 H 83.47194 Z m 0.01654,2.44739 h 0.30179 v -2.00504 h -0.30179 z m 0.929141,0 H 85.3602 c 0.855761,0 1.442806,-0.59531 1.442806,-1.36012 v -0.008 c 0,-0.76481 -0.587045,-1.34772 -1.442806,-1.34772 h -0.942579 z m 0.305925,-0.28525 v -2.14974 H 85.3602 c 0.686263,0 1.124479,0.47542 1.124479,1.07487 v 0.008 c 0,0.60358 -0.438216,1.0666 -1.124479,1.0666 z m 3.475757,0.33073 c 0.607715,0 1.054199,-0.47956 1.054199,-1.04593 v -0.008 c 0,-0.56637 -0.44235,-1.0418 -1.045931,-1.0418 -0.603581,0 -1.045931,0.48369 -1.045931,1.05007 v 0.008 c 0,0.56637 0.438216,1.03766 1.037663,1.03766 z m 0.0083,-0.26872 c -0.42168,0 -0.740007,-0.34726 -0.740007,-0.77721 v -0.008 c 0,-0.42168 0.297657,-0.77721 0.731739,-0.77721 0.425813,0 0.748274,0.35553 0.748274,0.78548 v 0.008 c 0,0.42168 -0.305924,0.76894 -0.740006,0.76894 z m 2.374015,0.26872 c 0.376205,0 0.615983,-0.16123 0.818555,-0.38861 l -0.190169,-0.17776 c -0.16123,0.16949 -0.359667,0.29765 -0.615982,0.29765 -0.417546,0 -0.735873,-0.34313 -0.735873,-0.77721 v -0.008 c 0,-0.42995 0.310059,-0.77721 0.719336,-0.77721 0.268717,0 0.450618,0.13642 0.607715,0.30179 l 0.198437,-0.20671 c -0.186035,-0.19844 -0.421679,-0.35967 -0.802018,-0.35967 -0.587044,0 -1.029394,0.48369 -1.029394,1.05007 v 0.008 c 0,0.56224 0.44235,1.03766 1.029393,1.03766 z m 1.863452,-0.0124 c 0.144694,0 0.256315,-0.0289 0.363802,-0.0827 v -0.25631 c -0.107487,0.0496 -0.190169,0.0703 -0.293522,0.0703 -0.202572,0 -0.338997,-0.091 -0.338997,-0.33486 v -1.17409 h 0.636653 v -0.26045 h -0.636653 v -0.60772 h -0.297657 v 0.60772 h -0.281119 v 0.26045 h 0.281119 v 1.21129 c 0,0.40928 0.243913,0.56638 0.566374,0.56638 z m 1.37666,0.008 c 0.355534,0 0.58291,-0.16124 0.723471,-0.339 v 0.29765 h 0.293521 v -1.22783 c 0,-0.25631 -0.07028,-0.45062 -0.206703,-0.58704 -0.144695,-0.1447 -0.367939,-0.22324 -0.649058,-0.22324 -0.297657,0 -0.508496,0.0703 -0.731739,0.16949 l 0.09095,0.24392 c 0.186035,-0.0827 0.37207,-0.14056 0.607715,-0.14056 0.376204,0 0.595313,0.18603 0.595313,0.54157 v 0.062 c -0.177768,-0.0496 -0.355535,-0.0827 -0.61185,-0.0827 -0.508496,0 -0.859895,0.22324 -0.859895,0.65319 v 0.008 c 0,0.41342 0.37207,0.62426 0.748274,0.62426 z m 0.05788,-0.23978 c -0.268718,0 -0.504362,-0.14883 -0.504362,-0.40101 v -0.004 c 0,-0.24391 0.214974,-0.40514 0.587044,-0.40514 0.243913,0 0.438216,0.0413 0.587045,0.0868 v 0.18603 c 0,0.31833 -0.297657,0.53744 -0.669727,0.53744 z m 0,0"
       style="fill:#3e444f;fill-opacity:1;fill-rule:nonzero;stroke:none;stroke-width:0.352778" />
    <path
       d="m 45.143498,47.320707 h 1.440039 l 0.587022,-1.440038 h 2.714977 l 0.587022,1.440038 h 1.476728 l -2.751667,-6.466415 h -1.302455 z m 2.531533,-2.68746 0.853016,-2.082094 0.853017,2.082094 z m 6.247701,2.779182 c 0.678745,0 1.146528,-0.24765 1.4859,-0.623711 v 0.531989 h 1.348317 v -2.85256 c 0,-0.6604 -0.1651,-1.201561 -0.531989,-1.56845 -0.348545,-0.348544 -0.898878,-0.550333 -1.660172,-0.550333 -0.834672,0 -1.366661,0.155928 -1.907822,0.394405 l 0.348544,1.063978 c 0.449439,-0.1651 0.8255,-0.265995 1.357489,-0.265995 0.697089,0 1.054805,0.321028 1.054805,0.898878 v 0.08255 c -0.348544,-0.119239 -0.706261,-0.201789 -1.20156,-0.201789 -1.164872,0 -1.9812,0.4953 -1.9812,1.56845 v 0.01834 c 0,0.972256 0.761294,1.504244 1.687688,1.504244 z m 0.421923,-0.963083 c -0.449439,0 -0.761295,-0.220133 -0.761295,-0.596194 v -0.01835 c 0,-0.440266 0.366889,-0.678744 0.963083,-0.678744 0.339373,0 0.651228,0.07338 0.889706,0.183445 v 0.24765 c 0,0.504472 -0.440267,0.862188 -1.091494,0.862188 z m 3.413486,0.871361 h 1.394177 v -6.695721 h -1.394177 z m 4.1656,0.09172 c 1.063977,0 1.880305,-0.4953 1.880305,-1.586794 v -0.01834 c 0,-0.898878 -0.797983,-1.229078 -1.4859,-1.458383 -0.531989,-0.183445 -0.999772,-0.311856 -0.999772,-0.587022 v -0.01834 c 0,-0.192616 0.174272,-0.339372 0.513645,-0.339372 0.357716,0 0.843844,0.174272 1.329971,0.458611 l 0.531989,-0.963083 c -0.531989,-0.357717 -1.210733,-0.568678 -1.834444,-0.568678 -0.9906,0 -1.797755,0.559506 -1.797755,1.559278 v 0.01834 c 0,0.953911 0.779639,1.274939 1.467555,1.476728 0.541161,0.1651 1.018117,0.265994 1.018117,0.568677 v 0.01835 c 0,0.220133 -0.183445,0.366889 -0.587022,0.366889 -0.458611,0 -1.018117,-0.201789 -1.550106,-0.587023 l -0.596194,0.917223 c 0.651228,0.513644 1.421694,0.742949 2.109611,0.742949 z m 4.183949,-0.0092 c 0.467783,0 0.807155,-0.110067 1.100666,-0.284339 v -1.119011 c -0.201789,0.110067 -0.431094,0.174273 -0.687916,0.174273 -0.311856,0 -0.449439,-0.155928 -0.449439,-0.476956 v -2.100438 h 1.1557 v -1.192389 h -1.1557 v -1.256594 h -1.394178 v 1.256594 h -0.587022 v 1.192389 h 0.587022 V 45.9265 c 0,1.137355 0.57785,1.476727 1.430867,1.476727 z"
       id="text7"
       style="font-size:9.17222px;font-family:Gotham;-inkscape-font-specification:'Gotham, Normal';text-align:center;letter-spacing:-0.264583px;text-anchor:middle;opacity:1;fill:#3e444f;stroke-width:4.23333;fill-opacity:1"
       aria-label="Aalst"
       transform="translate(14.2875,74.083333)" />
  </g>
</svg>
