<?xml version="1.0" encoding="UTF-8" standalone="no"?>
<!-- Created with Inkscape (http://www.inkscape.org/) -->

<svg
   width="68.175369mm"
   height="132.4243mm"
   viewBox="0 0 68.175369 132.4243"
   version="1.1"
   id="svg1"
   inkscape:version="1.3 (0e150ed6c4, 2023-07-21)"
   sodipodi:docname="CBC_Aalst_Portrait_Light.svg"
   xmlns:inkscape="http://www.inkscape.org/namespaces/inkscape"
   xmlns:sodipodi="http://sodipodi.sourceforge.net/DTD/sodipodi-0.dtd"
   xmlns="http://www.w3.org/2000/svg"
   xmlns:svg="http://www.w3.org/2000/svg">
  <sodipodi:namedview
     id="namedview1"
     pagecolor="#a2a2a2"
     bordercolor="#999999"
     borderopacity="1"
     inkscape:showpageshadow="2"
     inkscape:pageopacity="0"
     inkscape:pagecheckerboard="true"
     inkscape:deskcolor="#d1d1d1"
     inkscape:document-units="mm"
     showguides="true"
     inkscape:zoom="2.5923822"
     inkscape:cx="-10.222258"
     inkscape:cy="276.77246"
     inkscape:window-width="3200"
     inkscape:window-height="1711"
     inkscape:window-x="2391"
     inkscape:window-y="369"
     inkscape:window-maximized="1"
     inkscape:current-layer="layer1" />
  <defs
     id="defs1" />
  <g
     inkscape:label="Layer 1"
     inkscape:groupmode="layer"
     id="layer1"
     transform="translate(-93.133333,-55.033325)">
    <path
       id="path3"
       d="m 112.21641,186.92432 c 0.74827,0 1.2609,-0.59532 1.2609,-1.27744 v -0.004 c 0,-0.68213 -0.50436,-1.26917 -1.25677,-1.26917 -0.74827,0 -1.2609,0.59531 -1.2609,1.2733 v 0.008 c 0,0.68213 0.50436,1.26918 1.25677,1.26918 z m 0.004,-0.25632 c -0.56224,0 -0.97152,-0.45889 -0.97152,-1.02112 v -0.004 c 0,-0.56224 0.40101,-1.01286 0.96739,-1.01286 0.56224,0 0.97151,0.45889 0.97151,1.01699 v 0.008 c 0,0.56224 -0.401,1.01286 -0.96738,1.01286 z m 1.71152,0.77721 h 0.27286 v -0.9095 c 0.14056,0.20257 0.35966,0.38447 0.69866,0.38447 0.44235,0 0.8723,-0.3514 0.8723,-0.94671 v -0.008 c 0,-0.59944 -0.43408,-0.94258 -0.8723,-0.94258 -0.33486,0 -0.54984,0.18604 -0.69866,0.40515 v -0.36794 h -0.27286 z m 0.92191,-0.76481 c -0.339,0 -0.66146,-0.28525 -0.66146,-0.70693 v -0.008 c 0,-0.41341 0.32246,-0.7028 0.66146,-0.7028 0.34727,0 0.64079,0.27699 0.64079,0.70694 v 0.008 c 0,0.43822 -0.28939,0.7028 -0.64079,0.7028 z m 1.49759,-0.59944 h 1.4428 c 0.004,-0.0413 0.004,-0.0703 0.004,-0.0951 0,-0.5333 -0.31006,-0.96325 -0.8475,-0.96325 -0.50436,0 -0.87643,0.42168 -0.87643,0.95085 0,0.56637 0.40928,0.95085 0.9095,0.95085 0.34727,0 0.56638,-0.13643 0.75241,-0.34314 l -0.1695,-0.14882 c -0.14882,0.15296 -0.32659,0.25631 -0.57464,0.25631 -0.32246,0 -0.60358,-0.22324 -0.64078,-0.60771 z m 0,-0.21911 c 0.0372,-0.3514 0.27698,-0.61185 0.59117,-0.61185 0.35967,0 0.54984,0.28112 0.58291,0.61185 z m 1.83451,1.02113 h 0.27285 v -0.72761 c 0,-0.54984 0.3266,-0.83509 0.72347,-0.83509 h 0.0207 v -0.29352 c -0.34727,-0.0124 -0.61185,0.2067 -0.74414,0.50849 v -0.47542 h -0.27285 z m 1.79834,0.0372 c 0.31833,0 0.52916,-0.14469 0.65319,-0.31006 v 0.27286 h 0.26872 v -1.11622 c 0,-0.23151 -0.062,-0.40514 -0.19017,-0.5333 -0.12816,-0.13229 -0.33073,-0.20257 -0.58705,-0.20257 -0.26872,0 -0.46302,0.0661 -0.66559,0.1571 l 0.0827,0.21911 c 0.1695,-0.0744 0.339,-0.12816 0.55397,-0.12816 0.34314,0 0.53744,0.1695 0.53744,0.49196 v 0.0579 c -0.16123,-0.0455 -0.32246,-0.0786 -0.55397,-0.0786 -0.46302,0 -0.78135,0.2067 -0.78135,0.59531 v 0.008 c 0,0.37207 0.339,0.56637 0.68213,0.56637 z m 0.0537,-0.21911 c -0.24805,0 -0.45888,-0.13229 -0.45888,-0.35966 v -0.008 c 0,-0.21911 0.1943,-0.36794 0.52916,-0.36794 0.22324,0 0.40101,0.0413 0.5333,0.0785 v 0.1695 c 0,0.28939 -0.26871,0.48782 -0.60358,0.48782 z m 1.94924,0.21498 c 0.12815,0 0.23151,-0.0289 0.32659,-0.0786 v -0.23151 c -0.0951,0.0455 -0.17363,0.062 -0.26458,0.062 -0.1819,0 -0.30593,-0.0827 -0.30593,-0.30179 v -1.0666 h 0.57878 v -0.23978 h -0.57878 v -0.54984 h -0.27285 v 0.54984 h -0.25218 v 0.23978 h 0.25218 v 1.09967 c 0,0.37207 0.22324,0.51677 0.51677,0.51677 z m 0.83715,-0.83509 h 1.44281 c 0.004,-0.0413 0.004,-0.0703 0.004,-0.0951 0,-0.5333 -0.31006,-0.96325 -0.8475,-0.96325 -0.50436,0 -0.87643,0.42168 -0.87643,0.95085 0,0.56637 0.40928,0.95085 0.9095,0.95085 0.34727,0 0.56638,-0.13643 0.75241,-0.34314 l -0.1695,-0.14882 c -0.14882,0.15296 -0.32659,0.25631 -0.57464,0.25631 -0.32246,0 -0.60358,-0.22324 -0.64079,-0.60771 z m 0,-0.21911 c 0.0372,-0.3514 0.27699,-0.61185 0.59118,-0.61185 0.35967,0 0.54984,0.28112 0.58291,0.61185 z m 2.60036,1.05833 c 0.33487,0 0.55397,-0.18603 0.69867,-0.40514 v 0.36794 h 0.27285 v -2.57556 h -0.27285 v 1.09968 c -0.14056,-0.20258 -0.35967,-0.38448 -0.69867,-0.38448 -0.43408,0 -0.86816,0.3514 -0.86816,0.94672 v 0.008 c 0,0.59945 0.43408,0.94258 0.86816,0.94258 z m 0.0496,-0.23978 c -0.34313,0 -0.64079,-0.27698 -0.64079,-0.70693 v -0.008 c 0,-0.43821 0.28939,-0.7028 0.64079,-0.7028 0.339,0 0.66146,0.28526 0.66146,0.7028 v 0.008 c 0,0.41755 -0.32246,0.70693 -0.66146,0.70693 z m 3.38067,0.23978 c 0.44235,0 0.8723,-0.3514 0.8723,-0.94671 v -0.008 c 0,-0.59944 -0.43408,-0.94258 -0.8723,-0.94258 -0.33486,0 -0.54983,0.18604 -0.69866,0.40515 v -1.12035 h -0.27285 v 2.57556 h 0.27285 v -0.34727 c 0.14056,0.20257 0.35967,0.38447 0.69866,0.38447 z m -0.0496,-0.23978 c -0.33899,0 -0.66145,-0.28525 -0.66145,-0.70693 v -0.008 c 0,-0.41341 0.32246,-0.7028 0.66145,-0.7028 0.34727,0 0.64079,0.27699 0.64079,0.70694 v 0.008 c 0,0.43822 -0.28939,0.7028 -0.64079,0.7028 z m 1.52963,0.77722 c 0.27285,0 0.45062,-0.13643 0.60358,-0.51263 l 0.76481,-1.88516 h -0.28939 l -0.58291,1.52135 -0.66146,-1.52135 h -0.30179 l 0.82683,1.81488 c -0.10749,0.26045 -0.21084,0.34313 -0.37208,0.34313 -0.11575,0 -0.19843,-0.0207 -0.28525,-0.0661 l -0.091,0.21498 c 0.12402,0.0579 0.23564,0.0909 0.38861,0.0909 z m 2.69027,-2.79466 h 0.31006 v -0.30179 h -0.31006 z m 0.0165,2.22002 h 0.27285 v -1.82315 h -0.27285 z m 0.85989,0 h 0.8599 c 0.77308,0 1.31051,-0.54157 1.31051,-1.2361 v -0.004 c 0,-0.69453 -0.53743,-1.22783 -1.31051,-1.22783 h -0.8599 z m 0.28112,-0.25632 v -1.95544 h 0.57878 c 0.62425,0 1.02113,0.42995 1.02113,0.97566 v 0.008 c 0,0.54571 -0.39688,0.97152 -1.02113,0.97152 z m 3.17914,0.29766 c 0.54984,0 0.95498,-0.43822 0.95498,-0.95085 v -0.008 c 0,-0.51263 -0.40101,-0.94258 -0.95085,-0.94258 -0.54984,0 -0.95084,0.43409 -0.95084,0.95085 v 0.008 c 0,0.51263 0.39687,0.94258 0.94671,0.94258 z m 0.004,-0.24392 c -0.38447,0 -0.67386,-0.31419 -0.67386,-0.70693 v -0.008 c 0,-0.38447 0.27285,-0.7028 0.66973,-0.7028 0.38447,0 0.67386,0.31833 0.67386,0.71107 v 0.008 c 0,0.38447 -0.27285,0.69866 -0.66973,0.69866 z m 2.17351,0.24392 c 0.34313,0 0.56224,-0.14883 0.74414,-0.3514 l -0.17363,-0.16123 c -0.14469,0.15296 -0.32246,0.26871 -0.55397,0.26871 -0.38447,0 -0.67386,-0.31419 -0.67386,-0.70693 v -0.008 c 0,-0.3886 0.28525,-0.7028 0.65319,-0.7028 0.24805,0 0.40928,0.11989 0.55397,0.27285 l 0.1819,-0.19017 c -0.1695,-0.17776 -0.38447,-0.32246 -0.73174,-0.32246 -0.5333,0 -0.93431,0.43409 -0.93431,0.95085 v 0.008 c 0,0.50849 0.40101,0.94258 0.93431,0.94258 z m 1.71566,-0.008 c 0.12816,0 0.23151,-0.0289 0.3266,-0.0786 v -0.23151 c -0.0951,0.0455 -0.17364,0.062 -0.26459,0.062 -0.1819,0 -0.30592,-0.0827 -0.30592,-0.30179 v -1.0666 h 0.57877 v -0.23978 h -0.57877 v -0.54984 h -0.27285 v 0.54984 h -0.25219 v 0.23978 h 0.25219 v 1.09967 c 0,0.37207 0.22324,0.51677 0.51676,0.51677 z m 1.27124,0.004 c 0.31833,0 0.52917,-0.14469 0.65319,-0.31006 v 0.27286 h 0.26872 v -1.11622 c 0,-0.23151 -0.062,-0.40514 -0.19017,-0.5333 -0.12816,-0.13229 -0.33073,-0.20257 -0.58705,-0.20257 -0.26871,0 -0.46302,0.0661 -0.66559,0.1571 l 0.0827,0.21911 c 0.1695,-0.0744 0.339,-0.12816 0.55398,-0.12816 0.34313,0 0.53743,0.1695 0.53743,0.49196 v 0.0579 c -0.16123,-0.0455 -0.32246,-0.0786 -0.55397,-0.0786 -0.46302,0 -0.78135,0.2067 -0.78135,0.59531 v 0.008 c 0,0.37207 0.339,0.56637 0.68213,0.56637 z m 0.0537,-0.21911 c -0.24804,0 -0.45888,-0.13229 -0.45888,-0.35966 v -0.008 c 0,-0.21911 0.1943,-0.36794 0.52916,-0.36794 0.22325,0 0.40101,0.0413 0.5333,0.0785 v 0.1695 c 0,0.28939 -0.26871,0.48782 -0.60358,0.48782 z m 0,0"
       style="fill:#3e444f;fill-opacity:1;fill-rule:nonzero;stroke:none;stroke-width:0.35278"
       aria-label="Operated by iDocta"
       inkscape:label="Operated by iDocta" />
    <path
       id="path4"
       style="fill:#231f20;fill-opacity:1;fill-rule:nonzero;stroke:none;stroke-width:0.0352778"
       d="m 118.21036,99.539652 c -1.77863,0.0088 -3.04916,1.430818 -3.04116,3.140378 v 0.017 c 0.009,1.73567 1.30161,3.10135 3.04581,3.09335 1.09651,-0.005 1.78485,-0.43178 2.41174,-1.07383 l -0.45062,-0.43822 c -0.57559,0.55562 -1.11842,0.8776 -1.94717,0.8816 -1.32979,0.006 -2.3448,-1.08445 -2.3518,-2.48357 l -5.1e-4,-0.0176 c -0.007,-1.38994 0.98951,-2.48325 2.32802,-2.48925 0.82035,-0.004 1.39195,0.3384 1.90376,0.81959 l 0.46354,-0.50282 c -0.60702,-0.566914 -1.26497,-0.952008 -2.36161,-0.946708 z m 20.73671,1.488278 c -0.7687,0.004 -1.23288,0.39483 -1.52393,0.87954 l -0.004,-0.77722 -0.66456,0.003 0.0217,4.46381 0.66456,-0.003 -0.0124,-2.55591 c -0.004,-0.83749 0.56284,-1.40109 1.33119,-1.40509 0.78598,-0.004 1.23778,0.51199 1.24178,1.34101 l 0.0129,2.60759 0.66456,-0.003 -0.0139,-2.77192 c -0.005,-1.06186 -0.6391,-1.78371 -1.71825,-1.77871 z m -5.45806,0.0269 c -1.34691,0.006 -2.32576,1.08115 -2.31976,2.34197 v 0.0176 c 0.006,1.26048 0.98701,2.3087 2.32544,2.3027 1.34691,-0.007 2.33403,-1.08202 2.32803,-2.34249 v -0.0176 c -0.006,-1.26048 -0.99527,-2.30918 -2.33371,-2.30218 z m -4.92321,0.0238 c -0.76828,0.004 -1.23279,0.39446 -1.52394,0.87953 l -0.004,-0.77721 -0.66508,0.003 0.0222,4.46381 0.66455,-0.003 -0.0124,-2.5554 c -0.004,-0.83749 0.5628,-1.40109 1.33119,-1.40509 0.78578,-0.004 1.23778,0.51182 1.24178,1.34049 l 0.0129,2.60759 0.66456,-0.003 -0.0134,-2.77192 c -0.005,-1.06186 -0.63926,-1.7837 -1.71875,-1.7787 z m -5.25085,0.0512 c -0.65624,0.004 -1.13024,0.16125 -1.62109,0.38809 l 0.20102,0.54312 c 0.41356,-0.19227 0.82724,-0.32408 1.35393,-0.32608 0.83743,-0.004 1.32305,0.40754 1.32705,1.20199 l 5.1e-4,0.13849 c -0.39785,-0.11039 -0.7952,-0.18593 -1.36529,-0.18293 -1.13097,0.005 -1.90566,0.50963 -1.90066,1.46813 v 0.017 h 5.2e-4 c 0.004,0.91546 0.8352,1.38583 1.67277,1.38183 0.78563,-0.004 1.2937,-0.36892 1.60248,-0.76791 l 0.003,0.66507 0.65629,-0.003 -0.0134,-2.72852 c -0.003,-0.57009 -0.16028,-1.00077 -0.47284,-1.31051 -0.32106,-0.3175 -0.81419,-0.48824 -1.44436,-0.48524 z m 10.15959,0.51211 c 0.94121,-0.005 1.66105,0.77731 1.66605,1.73581 l 5.1e-4,0.017 c 0.005,0.94121 -0.66548,1.72151 -1.63245,1.72651 -0.94086,0.005 -1.65227,-0.76905 -1.65727,-1.72754 v -0.0176 c -0.005,-0.94086 0.6562,-1.72926 1.62316,-1.73426 z m -10.19111,1.77612 c 0.54377,-0.003 0.97595,0.0905 1.30431,0.18397 l 0.002,0.41444 c 0.003,0.70803 -0.6593,1.20316 -1.4795,1.20716 -0.60441,0.003 -1.12354,-0.32239 -1.12654,-0.88366 v -0.0171 c -0.003,-0.53516 0.47077,-0.90085 1.29966,-0.90485 z m 3.77445,5.26583 -0.76016,0.004 0.004,0.73381 0.75964,-0.004 z m -13.17078,0.19378 -2.57296,0.0129 0.0295,6.04408 2.68511,-0.0134 c 1.32112,-0.006 2.18988,-0.62357 2.18488,-1.65933 v -0.0176 c -0.004,-0.82902 -0.58427,-1.24025 -1.30225,-1.45262 0.47407,-0.20955 0.95588,-0.6179 0.95188,-1.40353 l -5.2e-4,-0.0176 c -0.002,-0.38841 -0.14147,-0.70692 -0.39325,-0.9648 -0.34685,-0.33514 -0.89168,-0.53114 -1.58234,-0.52814 z m -0.0574,0.61392 c 0.86335,-0.004 1.34007,0.38188 1.34307,0.97772 v 0.017 c 0.004,0.70802 -0.56471,1.08224 -1.38492,1.08624 l -1.78749,0.008 -0.01,-2.0805 z m 29.70568,0.74414 c -0.88052,0.004 -1.5176,0.51684 -1.5136,1.28519 v 0.0171 c 0.004,0.82021 0.78286,1.05823 1.48312,1.25367 0.58772,0.16122 1.11524,0.33106 1.11724,0.77979 l 5.2e-4,0.0176 c 0.002,0.4318 -0.3852,0.71011 -0.92036,0.71211 -0.5267,0.003 -1.06316,-0.20155 -1.54823,-0.56173 l -0.33486,0.47646 c 0.50306,0.40323 1.21217,0.64999 1.85105,0.64699 0.88936,-0.004 1.58582,-0.49986 1.58182,-1.34617 v -0.0176 c -0.004,-0.80257 -0.7474,-1.06682 -1.43919,-1.27073 -0.59655,-0.1785 -1.14987,-0.33976 -1.15187,-0.76274 v -0.017 c -0.002,-0.37112 0.3332,-0.64916 0.8599,-0.65216 0.43144,-0.002 0.90733,0.16017 1.32291,0.42581 l 0.29973,-0.50229 c -0.45897,-0.29986 -1.06419,-0.48721 -1.60818,-0.48421 z m -3.95583,0.0191 c -0.88054,0.004 -1.51708,0.51684 -1.51308,1.28519 v 0.0176 c 0.004,0.82021 0.78234,1.05807 1.48259,1.25316 0.58773,0.16122 1.11577,0.33158 1.11777,0.78031 v 0.017 c 0.002,0.4318 -0.3852,0.70962 -0.92036,0.71262 -0.5267,0.002 -1.06316,-0.20205 -1.54823,-0.56224 l -0.33486,0.47646 c 0.50306,0.40358 1.21234,0.64999 1.85157,0.64699 0.88934,-0.005 1.58581,-0.49986 1.58181,-1.34617 v -0.0165 c -0.004,-0.80293 -0.7479,-1.06734 -1.4397,-1.27124 -0.59655,-0.17851 -1.14987,-0.33976 -1.15187,-0.76274 v -0.0171 c -0.002,-0.37148 0.33319,-0.65015 0.85989,-0.65215 0.43145,-0.002 0.90735,0.15965 1.32292,0.42529 l 0.29972,-0.50229 c -0.45896,-0.29986 -1.06419,-0.48721 -1.60817,-0.48421 z m -4.3527,0.004 c -1.23472,0.006 -2.13559,1.04658 -2.12959,2.34198 0.007,1.3896 1.01273,2.32576 2.23862,2.31976 0.84631,-0.004 1.38842,-0.3434 1.83504,-0.84646 l -0.41652,-0.36949 c -0.36089,0.3817 -0.79092,0.63469 -1.40405,0.63769 h -5.1e-4 c -0.78563,0.004 -1.47892,-0.53693 -1.57872,-1.47743 l 3.54035,-0.0176 c 0.008,-0.10372 0.008,-0.17276 0.008,-0.23306 -0.007,-1.31268 -0.77123,-2.36242 -2.09238,-2.35542 z m -4.73356,0.0227 c -0.76835,0.004 -1.23239,0.39447 -1.52342,0.87954 l -0.004,-0.77774 -0.66456,0.004 -5.1e-4,-5.2e-4 0.0222,4.4633 0.66456,-0.003 -0.0124,-2.55591 c -0.004,-0.83714 0.56301,-1.40109 1.3317,-1.40509 0.78564,-0.004 1.23727,0.51146 1.24127,1.34049 l 0.0124,2.60759 0.66508,-0.003 -0.0139,-2.7714 c -0.005,-1.06221 -0.63874,-1.78371 -1.71824,-1.77871 z m -6.88279,0.0512 c -0.88056,0.005 -1.51708,0.51685 -1.51308,1.28519 v 0.0176 c 0.004,0.82021 0.78211,1.05808 1.48259,1.25316 0.58773,0.16157 1.11576,0.33157 1.11776,0.78031 v 0.0171 c 0.002,0.4318 -0.38512,0.70961 -0.92035,0.71261 -0.52666,0.002 -1.06302,-0.20206 -1.54823,-0.56224 l -0.33435,0.47646 c 0.50313,0.40322 1.21221,0.64999 1.85105,0.64699 0.88939,-0.004 1.58582,-0.4997 1.58182,-1.34565 v -0.0176 c -0.004,-0.80292 -0.74794,-1.06717 -1.43971,-1.27073 -0.59653,-0.1785 -1.14986,-0.33976 -1.15186,-0.76274 v -0.0176 c -0.002,-0.37112 0.33333,-0.64964 0.85989,-0.65164 0.43173,-0.002 0.9078,0.15965 1.32344,0.4253 l 0.29972,-0.5023 c -0.45904,-0.29986 -1.06463,-0.48621 -1.60869,-0.48421 z m 3.40341,0.0615 -0.66456,0.003 0.0217,4.46329 0.66456,-0.003 z m -6.00325,0.0294 -0.65577,0.003 0.0124,2.55592 c 0.004,0.83714 -0.57185,1.40108 -1.3317,1.40508 -0.7856,0.004 -1.23675,-0.51233 -1.24075,-1.341 l -0.0134,-2.60759 -0.66456,0.003 0.0134,2.77192 c 0.005,1.06186 0.63913,1.78419 1.71824,1.77819 0.76856,-0.004 1.22408,-0.39431 1.52394,-0.87902 l 0.004,0.7767 0.65578,-0.003 z m 14.20172,0.39636 c 0.88053,-0.004 1.35015,0.68413 1.43195,1.49552 l -2.87527,0.014 c 0.0907,-0.8643 0.67497,-1.50547 1.44332,-1.50947 z m -21.30051,1.35599 c 1.0534,-0.005 1.60775,0.37219 1.61075,1.02836 v 0.0176 c 0.003,0.6731 -0.56435,1.08124 -1.47949,1.08624 l -2.02934,0.009 -0.0103,-2.13217 z m 4.19923,5.79034 c -1.77864,0.008 -3.04916,1.43082 -3.04116,3.14038 v 0.0176 c 0.009,1.73567 1.30175,3.10235 3.04581,3.09335 1.09664,-0.005 1.78546,-0.43142 2.41277,-1.07383 l -0.45114,-0.43822 c -0.5759,0.55527 -1.11827,0.8776 -1.94716,0.8816 -1.3298,0.007 -2.34531,-1.08533 -2.35231,-2.48409 v -0.017 c -0.007,-1.38995 0.98951,-2.48325 2.32802,-2.48925 0.82007,-0.004 1.39157,0.33876 1.90324,0.81959 l 0.46406,-0.50333 c -0.60717,-0.56691 -1.26549,-0.95172 -2.36213,-0.94672 z m 13.94178,0.26821 -0.66456,0.003 0.007,1.34668 -0.62167,0.003 0.003,0.58757 0.62166,-0.003 0.0129,2.69441 c 0.005,0.90624 0.55024,1.25819 1.26659,1.25419 0.31961,-0.002 0.56954,-0.0722 0.80202,-0.1943 l -0.003,-0.56948 c -0.23213,0.1136 -0.42227,0.15713 -0.64699,0.15813 -0.44909,0.002 -0.75248,-0.19447 -0.75448,-0.73845 l -0.0124,-2.6076 1.41542,-0.007 -0.003,-0.58756 -1.41594,0.007 z m 4.21576,1.21646 c -1.23472,0.006 -2.13558,1.04709 -2.12958,2.34249 0.007,1.38994 1.01288,2.32576 2.23914,2.31976 0.84596,-0.004 1.38842,-0.34324 1.83503,-0.84595 l -0.41651,-0.36948 c -0.3609,0.3817 -0.79144,0.63468 -1.40457,0.63768 l 5.2e-4,-5.1e-4 c -0.78564,0.003 -1.47892,-0.53657 -1.57872,-1.47743 l 3.54036,-0.0176 c 0.008,-0.10336 0.007,-0.17236 0.007,-0.23306 -0.006,-1.31269 -0.77123,-2.36193 -2.09238,-2.35593 z m 5.38055,0.0279 c -0.80758,0.005 -1.42295,0.53343 -1.73736,1.25419 l -0.006,-1.16582 -0.66456,0.003 0.0222,4.46433 0.66456,-0.003 -0.009,-1.77922 c -0.006,-1.34655 0.78415,-2.04966 1.75958,-2.05466 l 0.0522,-5.1e-4 -0.003,-0.71676 c -0.0264,-9.3e-4 -0.0525,-0.002 -0.0786,-0.002 z m -13.35577,0.0264 c -0.76852,0.004 -1.23262,0.39498 -1.52394,0.88005 l -0.004,-0.77722 -0.66456,0.003 0.0222,4.46329 0.66456,-0.003 -0.0124,-2.55592 c -0.004,-0.83714 0.56279,-1.40156 1.33118,-1.40456 0.78581,-0.004 1.23779,0.5118 1.24179,1.34048 l 0.0124,2.6076 0.66456,-0.003 -0.0129,-2.77141 c -0.005,-1.06221 -0.63947,-1.78422 -1.71876,-1.77922 z m -5.18211,0.0253 c -1.23472,0.006 -2.1361,1.04658 -2.1301,2.34198 0.007,1.38959 1.01309,2.32575 2.23914,2.31975 0.84626,-0.004 1.38841,-0.34324 1.83503,-0.84594 l -0.41652,-0.36897 c -0.36075,0.38171 -0.79095,0.63265 -1.40405,0.63665 -0.78562,0.004 -1.47859,-0.53622 -1.57819,-1.47743 l 3.53983,-0.0176 c 0.008,-0.10337 0.008,-0.17184 0.007,-0.23254 -0.006,-1.31268 -0.7714,-2.36193 -2.09238,-2.35593 z m 13.14287,0.48214 c 0.88088,-0.005 1.35045,0.68414 1.43195,1.49552 l -2.87476,0.0139 c 0.0907,-0.86431 0.67446,-1.50547 1.44281,-1.50947 z m -13.15786,0.0791 c 0.88067,-0.005 1.35087,0.68412 1.43247,1.49551 l -2.87527,0.0134 c 0.0907,-0.8636 0.67423,-1.50495 1.4428,-1.50895 z"
       inkscape:label="Canon Business Center" />
    <g
       id="g1"
       inkscape:label="C logo">
      <path
         id="path23"
         d="m 127.22186,146.43241 c -8.81807,0 -16.85367,-3.34892 -22.90618,-8.84379 l 22.90618,22.90548 22.90273,-22.9023 c -6.05155,5.4931 -14.08607,8.84061 -22.90273,8.84061"
         style="fill:#bdbcbc;fill-opacity:1;fill-rule:nonzero;stroke:none;stroke-width:0.0352778" />
      <path
         id="path28"
         d="m 151.7396,136.01347 c 6.04062,-6.14927 9.5691,-14.36723 9.5691,-23.66822 0,-9.15987 -3.61915,-17.469553 -9.49748,-23.594128 0.89676,0.932038 1.45133,2.196041 1.45133,3.592336 0,2.864556 -2.32199,5.185834 -5.18619,5.185834 -1.48696,0 -2.82293,-0.628298 -3.76837,-1.630892 4.10598,4.26544 6.63539,10.05911 6.63539,16.44685 0,6.36235 -2.51036,12.13521 -6.58777,16.39606 0.94262,-0.97402 2.25778,-1.58468 3.72075,-1.58468 2.8642,0 5.18619,2.32128 5.18619,5.18619 0,1.43404 -0.58244,2.73226 -1.52295,3.67065"
         style="fill:#bdbcbc;fill-opacity:1;fill-rule:nonzero;stroke:none;stroke-width:0.0352778" />
      <path
         id="path34"
         d="m 148.07636,127.15663 c -1.48837,0 -2.82575,0.63006 -3.7712,1.63371 -4.31588,4.48134 -10.37025,7.2764 -17.0833,7.2764 -13.101,0 -23.7225,-10.62144 -23.7225,-23.7229 0,-7e-4 0,-7e-4 0,-7e-4 0,0 0,-3.6e-4 0,-7.1e-4 0,-13.101461 10.6215,-23.723247 23.7225,-23.723247 6.71305,0 12.76742,2.795058 17.0833,7.276747 0.94545,1.003653 2.28283,1.633362 3.7712,1.633362 2.8642,0 5.18619,-2.321278 5.18619,-5.185834 0,-1.434395 -0.58244,-2.731911 -1.52295,-3.670653 l 7.1e-4,-7.06e-4 c -6.19972,-6.41985 -14.88969,-10.418586 -24.51845,-10.418586 -18.82634,0 -34.088527,15.262226 -34.088527,34.088917 0,3.5e-4 0,3.5e-4 0,3.5e-4 0,3.6e-4 0,3.6e-4 0,10e-4 0,18.82634 15.262187,34.08857 34.088527,34.08857 9.62876,0 18.31873,-3.99874 24.51845,-10.41824 l -7.1e-4,-7e-4 c 0.94051,-0.93839 1.52295,-2.23661 1.52295,-3.67065 0,-2.86491 -2.32199,-5.18619 -5.18619,-5.18619"
         style="fill:#e31b22;fill-opacity:1;fill-rule:nonzero;stroke:none;stroke-width:0.0352778" />
    </g>
    <path
       id="path35"
       style="fill:#e31b22;fill-opacity:1;fill-rule:nonzero;stroke:none;stroke-width:0.0352778"
       d="m 109.72302,55.033325 c -2.08717,0 -3.91495,0.760761 -4.93924,1.90376 -0.74965,0.84349 -1.20457,1.90599 -1.20457,3.060278 0,1.157816 0.45492,2.215467 1.20457,3.063896 1.02429,1.141236 2.8302,1.901692 4.87878,1.901692 2.05108,0 3.85282,-0.760456 4.87877,-1.901692 0.0558,-0.06597 0.11241,-0.128335 0.16381,-0.194304 l -0.15399,-0.583943 c -0.71822,1.035754 -1.91188,1.707906 -3.26182,1.707906 -2.19547,0 -3.9765,-1.786579 -3.9765,-3.993555 0,-2.206623 1.78103,-3.995105 3.9765,-3.995105 0.77668,0 1.49664,0.222269 2.10892,0.609265 l -2.10892,3.38584 3.96823,-2.301668 c -0.43339,-0.688622 -1.05103,-1.287004 -1.8004,-1.738912 -0.94908,-0.570794 -2.26902,-0.923458 -3.73414,-0.923458 z m 10.7828,1.69447 c -0.28345,0 -0.55502,0.05231 -0.80305,0.142627 l -3.58273,1.310514 h 3.6835 l 0.63097,2.362647 c -0.61172,-0.52599 -1.40941,-0.848527 -2.27893,-0.848527 -1.72805,0 -3.13004,1.166974 -3.13004,2.602425 0,1.43651 1.40199,2.605009 3.13004,2.605009 1.24463,0 2.3461,-0.614956 3.0241,-1.555461 l 0.36484,1.37511 h 2.8944 l -1.66347,-6.241996 c -0.27037,-1.010002 -1.18233,-1.752348 -2.26963,-1.752348 z m 6.38204,0 c -0.21661,0 -0.42436,0.0523 -0.60875,0.135909 l -2.81171,1.317232 h 1.97714 v 6.541203 h 2.89078 v -5.814115 c 0,-0.403225 0.32361,-0.727088 0.72295,-0.727088 0.39688,0 0.7214,0.323863 0.7214,0.727088 v 5.814115 h 2.89182 v -6.541203 c 0,-0.802216 -0.64568,-1.453141 -1.44436,-1.453141 -0.22261,0 -0.42608,0.0523 -0.6134,0.135909 l -2.29857,1.080554 c -0.11229,-0.688974 -0.70534,-1.216463 -1.4273,-1.216463 z m 11.08408,0 c -2.26483,0 -4.09484,1.843223 -4.09484,4.117578 0,2.269418 1.83001,4.117578 4.09484,4.117578 2.26272,0 4.09639,-1.84816 4.09639,-4.117578 0,-2.274355 -1.83367,-4.117578 -4.09639,-4.117578 z m 7.04711,0 c -0.21872,0 -0.42915,0.0523 -0.60978,0.135909 l -2.81275,1.317232 h 1.97508 v 6.541203 h 2.89439 v -5.814115 c 0,-0.403225 0.32049,-0.727088 0.72089,-0.727088 0.39829,0 0.72192,0.323863 0.72192,0.727088 v 5.814115 h 2.8944 v -6.541203 c 0,-0.802216 -0.65092,-1.453141 -1.44643,-1.453141 -0.22049,0 -0.42631,0.0523 -0.61081,0.135909 l -2.30064,1.080554 c -0.11607,-0.688974 -0.70767,-1.216463 -1.42627,-1.216463 z m -7.71322,0.578259 c 0.38392,0.01513 0.73259,0.279169 0.83664,0.673861 l 1.40457,5.261695 c 0.12876,0.485068 -0.15914,0.97826 -0.63821,1.109493 -0.48577,0.133702 -0.97763,-0.153652 -1.10639,-0.638721 l -1.40456,-5.262728 c -0.12876,-0.482247 0.15416,-0.9847 0.63923,-1.11311 0.0898,-0.02447 0.18012,-0.03398 0.26872,-0.03049 z m -17.94826,3.539319 c 0.80243,0 1.45004,0.650245 1.45004,1.452108 0,0.802568 -0.64761,1.451591 -1.45004,1.451591 -0.79678,0 -1.4428,-0.649023 -1.4428,-1.451591 0,-0.801863 0.64602,-1.452108 1.4428,-1.452108 z"
       inkscape:label="Canon logo" />
    <path
       id="path40"
       style="fill:#231f20;fill-opacity:1;fill-rule:nonzero;stroke:none;stroke-width:0.0352778"
       d="m 123.57902,70.046362 v 2.91145 h 0.30696 v -1.180806 c 0,-0.386998 0.26332,-0.645956 0.61856,-0.645956 0.36283,0 0.57051,0.239068 0.57051,0.622185 v 1.204577 h 0.30696 V 71.67727 c 0,-0.490361 -0.29104,-0.825272 -0.78962,-0.825272 -0.35509,0 -0.5707,0.179603 -0.70641,0.402559 v -1.208195 z m 12.97595,0 v 1.243852 c -0.1591,-0.231069 -0.40649,-0.438216 -0.78961,-0.438216 -0.49459,0 -0.98496,0.398644 -0.98496,1.072802 v 0.0083 c 0,0.678038 0.49037,1.068668 0.98496,1.068668 0.37889,0 0.62239,-0.211425 0.78961,-0.45837 v 0.414445 h 0.30748 v -2.91145 z m -6.68176,0.05943 v 0.338997 h 0.3514 V 70.10579 Z m -24.98556,0.01189 c -0.82157,0 -1.41231,0.653971 -1.41231,1.443839 v 0.0083 c 0,0.801512 0.59469,1.435572 1.40043,1.435572 0.50684,0 0.82569,-0.194971 1.11673,-0.489893 l -0.20723,-0.203605 c -0.26734,0.255411 -0.51849,0.402559 -0.90175,0.402559 -0.61418,0 -1.08055,-0.506613 -1.08055,-1.152901 v -0.0078 c 0,-0.642056 0.46266,-1.14515 1.08055,-1.14515 0.37896,0 0.64219,0.159778 0.87798,0.383439 l 0.21498,-0.23151 c -0.27933,-0.263172 -0.58224,-0.442867 -1.08883,-0.442867 z m 34.95653,0 c -0.82198,0 -1.41284,0.653971 -1.41284,1.443839 v 0.0083 c 0,0.801512 0.59469,1.435572 1.40043,1.435572 0.50694,0 0.82569,-0.194971 1.11673,-0.489893 l -0.20722,-0.203605 c -0.26741,0.255411 -0.51863,0.402559 -0.90175,0.402559 -0.61454,0 -1.08107,-0.506613 -1.08107,-1.152901 v -0.0078 c 0,-0.642056 0.46301,-1.14515 1.08107,-1.14515 0.37889,0 0.64233,0.159778 0.87798,0.383439 l 0.21497,-0.23151 c -0.27905,-0.263172 -0.58207,-0.442867 -1.0883,-0.442867 z m -21.99711,0.02791 -1.27227,2.812231 h 0.32297 l 0.33073,-0.737939 h 1.52032 l 0.3266,0.737939 h 0.339 l -1.27228,-2.812231 z m 4.34857,0.127641 v 0.622184 h -0.28732 v 0.271301 h 0.28732 v 1.244885 c 0,0.418747 0.25142,0.581877 0.5824,0.581877 0.1476,0 0.26311,-0.03159 0.37103,-0.08733 v -0.263033 c -0.10792,0.0515 -0.19545,0.07131 -0.2992,0.07131 -0.20726,0 -0.34727,-0.0916 -0.34727,-0.343131 v -1.204578 h 0.65422 v -0.271301 h -0.65422 v -0.622184 z m 23.77426,0 v 0.622184 h -0.28732 v 0.271301 h 0.28732 v 1.244885 c 0,0.418747 0.25132,0.581877 0.58188,0.581877 0.14746,0 0.26343,-0.03159 0.37103,-0.08733 v -0.263033 c -0.1076,0.0515 -0.19513,0.07131 -0.2992,0.07131 -0.20708,0 -0.34623,-0.0916 -0.34623,-0.343131 v -1.204578 h 0.6537 v -0.271301 h -0.6537 v -0.622184 z m -27.97917,0.239262 0.63407,1.424202 h -1.27227 z m -8.41912,0.339514 c -0.35528,0 -0.57053,0.179603 -0.70642,0.402559 v -0.359151 h -0.30696 v 2.062406 h 0.30696 v -1.180806 c 0,-0.386998 0.26329,-0.645956 0.61857,-0.645956 0.36283,0 0.5705,0.239068 0.5705,0.622185 v 1.204577 h 0.30696 V 71.67727 c 0,-0.490361 -0.29117,-0.825272 -0.78961,-0.825272 z m 2.27221,0 c -0.62219,0 -1.07694,0.494501 -1.07694,1.076937 v 0.0078 c 0,0.582435 0.45075,1.068669 1.06867,1.068669 0.62216,0 1.08107,-0.494337 1.08107,-1.07642 v -0.0083 c 0,-0.582435 -0.45448,-1.068668 -1.0728,-1.068668 z m 2.51922,0 c -0.35509,0 -0.57033,0.179603 -0.7059,0.402559 v -0.359151 h -0.30747 v 2.062406 h 0.30747 v -1.180806 c 0,-0.386998 0.26281,-0.645956 0.61805,-0.645956 0.36269,0 0.57051,0.239068 0.57051,0.622185 v 1.204577 h 0.30696 V 71.67727 c 0,-0.490361 -0.29104,-0.825272 -0.78962,-0.825272 z m 12.50105,0 c -0.62216,0 -1.07694,0.494501 -1.07694,1.076937 v 0.0078 c 0,0.582435 0.45098,1.068669 1.06919,1.068669 0.6223,0 1.08107,-0.494337 1.08107,-1.07642 v -0.0083 c 0,-0.582435 -0.45469,-1.068668 -1.07332,-1.068668 z m 6.65748,0 c -0.57044,0 -0.98961,0.478273 -0.98961,1.076937 0,0.642055 0.46267,1.07642 1.02888,1.07642 0.39158,0 0.64229,-0.155471 0.85008,-0.38654 L 134.2192,72.44726 c -0.16793,0.175683 -0.36716,0.291455 -0.65009,0.291455 -0.36336,0 -0.68247,-0.25164 -0.72657,-0.686263 h 1.63607 c 0.004,-0.04763 0.004,-0.07962 0.004,-0.107487 0,-0.606424 -0.35107,-1.092956 -0.96066,-1.092956 z m 8.62634,0 c -0.57044,0 -0.9896,0.478273 -0.9896,1.076937 0,0.642055 0.46267,1.07642 1.02888,1.07642 0.39158,0 0.64228,-0.155471 0.85007,-0.38654 l -0.19172,-0.171566 c -0.16781,0.175574 -0.36692,0.291312 -0.64957,0.291455 h -5.2e-4 c -0.36314,-2.38e-4 -0.68197,-0.251846 -0.72605,-0.686263 h 1.63608 c 0.004,-0.04763 0.004,-0.07962 0.004,-0.107487 0,-0.606424 -0.35158,-1.092956 -0.96118,-1.092956 z m 2.39159,0 c -0.3556,0 -0.5706,0.179603 -0.70642,0.402559 v -0.359151 h -0.30696 v 2.062406 h 0.30696 v -1.180806 c 0,-0.386998 0.26316,-0.645956 0.61805,-0.645956 0.36337,0 0.57051,0.239068 0.57051,0.622185 v 1.204577 h 0.30747 V 71.67727 c 0,-0.490361 -0.29149,-0.825272 -0.78961,-0.825272 z m 3.61528,0 c -0.57045,0 -0.98909,0.478273 -0.98909,1.076937 0,0.642055 0.46284,1.07642 1.0294,1.07642 0.39053,0 0.64161,-0.155471 0.84904,-0.38654 l -0.1912,-0.171566 c -0.16747,0.175574 -0.36657,0.291312 -0.64957,0.291455 h -5.2e-4 c -0.3628,-2.38e-4 -0.68197,-0.251846 -0.72605,-0.686263 h 1.63504 c 0.004,-0.04763 0.004,-0.07962 0.004,-0.107487 0,-0.606424 -0.35053,-1.092956 -0.96118,-1.092956 z m -18.67173,0.0067 c -0.37277,3.96e-4 -0.65868,0.242974 -0.80563,0.575158 v -0.538468 h -0.30644 v 2.062406 h 0.30644 V 72.13615 c 0,-0.622651 0.36719,-0.945162 0.81803,-0.945162 h 0.0243 v -0.331246 c -0.0122,-4.96e-4 -0.0247,-10e-4 -0.0367,-10e-4 z m 21.16253,0 c -0.37274,3.96e-4 -0.65799,0.242974 -0.8046,0.575158 v -0.538468 h -0.30747 v 2.062406 h 0.30747 V 72.13615 c 0,-0.622651 0.36632,-0.945162 0.81752,-0.945162 h 0.0233 v -0.331246 c -0.0122,-4.96e-4 -0.0241,-10e-4 -0.0362,-10e-4 z m -19.22156,10e-4 c -0.40675,0 -0.70228,0.235414 -0.70228,0.590662 v 0.0078 c 0,0.378883 0.35899,0.490674 0.68213,0.582394 0.27128,0.07585 0.51469,0.155335 0.51469,0.362768 v 0.0083 c 0,0.19932 -0.17903,0.327112 -0.42633,0.327112 -0.24341,0 -0.49051,-0.09598 -0.71417,-0.26355 l -0.15554,0.219109 c 0.23071,0.187677 0.55806,0.30334 0.85369,0.30334 0.41063,0 0.73381,-0.227172 0.73381,-0.61805 v -0.0083 c 0,-0.37077 -0.34307,-0.494545 -0.66198,-0.590145 -0.27552,-0.08361 -0.53071,-0.159578 -0.53071,-0.355017 v -0.0083 c 0,-0.17145 0.15587,-0.29869 0.39894,-0.29869 0.19932,0 0.41945,0.07565 0.6103,0.199471 l 0.13952,-0.231511 c -0.21167,-0.1397 -0.49089,-0.227376 -0.74207,-0.227376 z m -24.27656,0.0041 c -0.3029,0 -0.52246,0.07147 -0.74982,0.175183 l 0.0915,0.251148 c 0.19152,-0.08784 0.38308,-0.147278 0.62632,-0.147278 0.38681,0 0.61029,0.191735 0.61029,0.558622 v 0.06356 c -0.18344,-0.05186 -0.36672,-0.08785 -0.62993,-0.08785 -0.52254,0 -0.8816,0.231642 -0.8816,0.674378 v 0.0078 5.17e-4 c 0,0.422628 0.38302,0.641821 0.76998,0.641821 0.36269,0 0.59779,-0.167439 0.74155,-0.350883 v 0.306958 h 0.30283 v -1.260388 c 0,-0.263525 -0.0714,-0.462585 -0.21498,-0.606164 -0.14746,-0.147459 -0.37464,-0.227377 -0.66611,-0.227377 z m 12.57236,0.03152 v 1.280542 c 0,0.490713 0.29145,0.825789 0.79014,0.825789 0.355,0 0.56631,-0.179767 0.7059,-0.403076 v 0.359151 h 0.30282 v -2.062406 h -0.30282 v 1.180806 c 0,0.386998 -0.26759,0.646473 -0.61857,0.646473 -0.36284,0 -0.56999,-0.239585 -0.56999,-0.622701 v -1.204578 z m 10.17354,0 v 2.062406 h 0.30696 v -2.062406 z m 3.61942,0.216007 c 0.40675,0 0.62236,0.318495 0.65836,0.693498 h -1.3286 c 0.0441,-0.398992 0.31569,-0.693498 0.67024,-0.693498 z m 8.62686,0 c 0.40675,0 0.62185,0.318495 0.65785,0.693498 h -1.32809 c 0.0441,-0.398992 0.3157,-0.693498 0.67024,-0.693498 z m 6.00687,0 c 0.40711,0 0.62288,0.318495 0.65888,0.693498 h -1.3286 c 0.0441,-0.398992 0.31483,-0.693498 0.66972,-0.693498 z m -36.31096,0.01137 c 0.43491,0 0.76585,0.363064 0.76585,0.806153 v 0.0078 c 0,0.434623 -0.31082,0.79375 -0.75758,0.79375 -0.43476,0 -0.76171,-0.359118 -0.76171,-0.801501 v -0.0083 c 0,-0.434974 0.30665,-0.797884 0.75344,-0.797884 z m 15.02079,0 c 0.43491,0 0.76584,0.363064 0.76584,0.806153 v 0.0078 c 0,0.434623 -0.31105,0.79375 -0.75809,0.79375 -0.43476,0 -0.76119,-0.359118 -0.76119,-0.801501 v -0.0083 c 0,-0.434974 0.30654,-0.797884 0.75344,-0.797884 z m 8.96483,0.0041 c 0.38312,0 0.74569,0.318912 0.74569,0.79375 v 0.0083 c 0,0.474485 -0.36257,0.797367 -0.74569,0.797367 -0.39052,0 -0.72606,-0.310887 -0.72606,-0.797367 v -0.0083 c 0,-0.498827 0.32742,-0.79375 0.72606,-0.79375 z m -28.69334,0.79375 c 0.25122,0 0.45044,0.04411 0.60203,0.08785 v 0.191203 c 0,0.327026 -0.30732,0.554488 -0.68626,0.554488 -0.27919,0 -0.51832,-0.151536 -0.51832,-0.410827 v -0.0078 c 0,-0.247297 0.21944,-0.414962 0.60255,-0.414962 z"
       inkscape:label="Canon Authorised Center" />
    <path
       d="m 114.37923,173.12348 h 1.67482 l 0.68273,-1.67479 h 3.15762 l 0.68272,1.67479 h 1.71749 l -3.20029,-7.52067 h -1.51481 z m 2.94426,-3.1256 0.99211,-2.42154 0.99206,2.42154 z m 7.26631,3.23228 c 0.78941,0 1.33345,-0.28803 1.72815,-0.72541 v 0.61873 h 1.56815 v -3.31763 c 0,-0.76806 -0.19202,-1.39743 -0.61873,-1.82411 -0.40538,-0.40538 -1.04544,-0.64008 -1.93083,-0.64008 -0.97076,0 -1.58949,0.18136 -2.21887,0.45872 l 0.40536,1.23743 c 0.52273,-0.19202 0.9601,-0.30936 1.57881,-0.30936 0.81074,0 1.22679,0.37338 1.22679,1.04544 v 0.0959 c -0.40538,-0.13867 -0.82142,-0.23469 -1.39748,-0.23469 -1.35478,0 -2.30421,0.57605 -2.30421,1.82414 v 0.0213 c 0,1.13077 0.88543,1.74949 1.96286,1.74949 z m 0.49069,-1.1201 c -0.52269,0 -0.88539,-0.256 -0.88539,-0.6934 v -0.0213 c 0,-0.51205 0.4267,-0.7894 1.1201,-0.7894 0.39471,0 0.75739,0.0854 1.03476,0.21334 v 0.28803 c 0,0.58672 -0.51205,1.00276 -1.26947,1.00276 z m 3.97002,1.01342 h 1.6215 v -7.78732 h -1.6215 z m 4.84476,0.10666 c 1.23743,0 2.18685,-0.57604 2.18685,-1.84551 v -0.0213 c 0,-1.04543 -0.92809,-1.42945 -1.72815,-1.69614 -0.61873,-0.21335 -1.16277,-0.36271 -1.16277,-0.68273 v -0.0213 c 0,-0.22402 0.20267,-0.39469 0.59738,-0.39469 0.41603,0 0.98142,0.20269 1.5468,0.53338 l 0.61872,-1.12011 c -0.61872,-0.41602 -1.40812,-0.66138 -2.13352,-0.66138 -1.1521,0 -2.09083,0.65071 -2.09083,1.81347 v 0.0213 c 0,1.10946 0.90674,1.48282 1.7068,1.71751 0.6294,0.19202 1.1841,0.30937 1.1841,0.66139 v 0.0213 c 0,0.25601 -0.21335,0.4267 -0.68272,0.4267 -0.53338,0 -1.18411,-0.23469 -1.80284,-0.68275 l -0.69339,1.06677 c 0.7574,0.59738 1.65348,0.86408 2.45357,0.86408 z m 4.86607,-0.0104 c 0.54404,0 0.93874,-0.12799 1.28013,-0.33068 v -1.30143 c -0.23471,0.12797 -0.5014,0.20267 -0.80009,0.20267 -0.36271,0 -0.52272,-0.18134 -0.52272,-0.55474 v -2.44288 h 1.34414 v -1.38679 h -1.34414 v -1.46148 h -1.62147 v 1.46148 h -0.68272 v 1.38679 h 0.68272 v 2.70956 c 0,1.3228 0.67205,1.7175 1.66415,1.7175 z"
       id="text7"
       style="font-size:9.17222px;font-family:Gotham;-inkscape-font-specification:'Gotham, Normal';text-align:center;letter-spacing:-0.264583px;text-anchor:middle;fill:#3e444f;stroke-width:4.23333;fill-opacity:1"
       aria-label="Aalst"
       inkscape:label="Aalst" />
  </g>
</svg>
