<?xml version="1.0" encoding="UTF-8" standalone="no"?>
<!-- Created with Inkscape (http://www.inkscape.org/) -->

<svg
   width="68.175369mm"
   height="150mm"
   viewBox="0 0 68.175369 150"
   version="1.1"
   id="svg1"
   inkscape:version="1.3 (0e150ed6c4, 2023-07-21)"
   sodipodi:docname="CBC_All_Portrait_Dark.svg"
   xmlns:inkscape="http://www.inkscape.org/namespaces/inkscape"
   xmlns:sodipodi="http://sodipodi.sourceforge.net/DTD/sodipodi-0.dtd"
   xmlns="http://www.w3.org/2000/svg"
   xmlns:svg="http://www.w3.org/2000/svg">
  <sodipodi:namedview
     id="namedview1"
     pagecolor="#a2a2a2"
     bordercolor="#999999"
     borderopacity="1"
     inkscape:showpageshadow="2"
     inkscape:pageopacity="0"
     inkscape:pagecheckerboard="true"
     inkscape:deskcolor="#d1d1d1"
     inkscape:document-units="mm"
     showguides="true"
     inkscape:zoom="1.2961911"
     inkscape:cx="-51.304164"
     inkscape:cy="211.77433"
     inkscape:window-width="2400"
     inkscape:window-height="1261"
     inkscape:window-x="5591"
     inkscape:window-y="-9"
     inkscape:window-maximized="1"
     inkscape:current-layer="layer1"
     showgrid="false" />
  <defs
     id="defs1" />
  <g
     inkscape:label="Layer 1"
     inkscape:groupmode="layer"
     id="layer1"
     transform="translate(-93.133333,-55.033325)">
    <path
       id="path3"
       d="m 112.23347,204.50003 c 0.74827,0 1.2609,-0.59532 1.2609,-1.27744 v -0.004 c 0,-0.68213 -0.50436,-1.26917 -1.25677,-1.26917 -0.74827,0 -1.2609,0.59531 -1.2609,1.2733 v 0.008 c 0,0.68213 0.50436,1.26918 1.25677,1.26918 z m 0.004,-0.25632 c -0.56224,0 -0.97152,-0.45889 -0.97152,-1.02112 v -0.004 c 0,-0.56224 0.40101,-1.01286 0.96739,-1.01286 0.56224,0 0.97151,0.45889 0.97151,1.01699 v 0.008 c 0,0.56224 -0.401,1.01286 -0.96738,1.01286 z m 1.71152,0.77721 h 0.27286 v -0.9095 c 0.14056,0.20257 0.35966,0.38447 0.69866,0.38447 0.44235,0 0.8723,-0.3514 0.8723,-0.94671 v -0.008 c 0,-0.59943 -0.43408,-0.94257 -0.8723,-0.94257 -0.33486,0 -0.54984,0.18603 -0.69866,0.40514 v -0.36794 h -0.27286 z m 0.92191,-0.76481 c -0.339,0 -0.66146,-0.28525 -0.66146,-0.70693 v -0.008 c 0,-0.41341 0.32246,-0.70279 0.66146,-0.70279 0.34727,0 0.64079,0.27699 0.64079,0.70694 v 0.008 c 0,0.43822 -0.28939,0.7028 -0.64079,0.7028 z m 1.49759,-0.59944 h 1.4428 c 0.004,-0.0413 0.004,-0.0703 0.004,-0.0951 0,-0.5333 -0.31006,-0.96324 -0.8475,-0.96324 -0.50436,0 -0.87643,0.42168 -0.87643,0.95085 0,0.56637 0.40928,0.95085 0.9095,0.95085 0.34727,0 0.56638,-0.13643 0.75241,-0.34314 l -0.1695,-0.14882 c -0.14882,0.15296 -0.32659,0.25631 -0.57464,0.25631 -0.32246,0 -0.60358,-0.22324 -0.64078,-0.60771 z m 0,-0.21911 c 0.0372,-0.3514 0.27698,-0.61185 0.59117,-0.61185 0.35967,0 0.54984,0.28112 0.58291,0.61185 z m 1.83451,1.02113 h 0.27285 v -0.72761 c 0,-0.54983 0.3266,-0.83509 0.72347,-0.83509 h 0.0207 v -0.29352 c -0.34727,-0.0124 -0.61185,0.20669 -0.74414,0.50849 v -0.47542 h -0.27285 z m 1.79834,0.0372 c 0.31833,0 0.52916,-0.14469 0.65319,-0.31006 v 0.27286 h 0.26872 v -1.11622 c 0,-0.23151 -0.062,-0.40514 -0.19017,-0.5333 -0.12816,-0.13229 -0.33073,-0.20257 -0.58705,-0.20257 -0.26872,0 -0.46302,0.0661 -0.66559,0.1571 l 0.0827,0.21911 c 0.1695,-0.0744 0.339,-0.12816 0.55397,-0.12816 0.34314,0 0.53744,0.1695 0.53744,0.49195 v 0.0579 c -0.16123,-0.0455 -0.32246,-0.0786 -0.55397,-0.0786 -0.46302,0 -0.78135,0.2067 -0.78135,0.59531 v 0.008 c 0,0.37206 0.339,0.56636 0.68213,0.56636 z m 0.0537,-0.21911 c -0.24805,0 -0.45888,-0.1323 -0.45888,-0.35966 v -0.008 c 0,-0.21911 0.1943,-0.36795 0.52916,-0.36795 0.22324,0 0.40101,0.0413 0.5333,0.0785 v 0.1695 c 0,0.28939 -0.26871,0.48782 -0.60358,0.48782 z m 1.94924,0.21497 c 0.12815,0 0.23151,-0.0289 0.32659,-0.0786 v -0.23151 c -0.0951,0.0455 -0.17363,0.062 -0.26458,0.062 -0.1819,0 -0.30593,-0.0827 -0.30593,-0.30178 v -1.06661 h 0.57878 v -0.23978 h -0.57878 v -0.54983 h -0.27285 v 0.54983 h -0.25218 v 0.23978 h 0.25218 v 1.09967 c 0,0.37208 0.22324,0.51678 0.51677,0.51678 z m 0.83715,-0.83509 h 1.44281 c 0.004,-0.0413 0.004,-0.0703 0.004,-0.0951 0,-0.5333 -0.31006,-0.96324 -0.8475,-0.96324 -0.50436,0 -0.87643,0.42168 -0.87643,0.95085 0,0.56637 0.40928,0.95085 0.9095,0.95085 0.34727,0 0.56638,-0.13643 0.75241,-0.34314 l -0.1695,-0.14882 c -0.14882,0.15296 -0.32659,0.25631 -0.57464,0.25631 -0.32246,0 -0.60358,-0.22324 -0.64079,-0.60771 z m 0,-0.21911 c 0.0372,-0.3514 0.27699,-0.61185 0.59118,-0.61185 0.35967,0 0.54984,0.28112 0.58291,0.61185 z m 2.60036,1.05834 c 0.33487,0 0.55397,-0.18603 0.69867,-0.40514 v 0.36793 h 0.27285 v -2.57556 h -0.27285 v 1.09969 c -0.14056,-0.20258 -0.35967,-0.38448 -0.69867,-0.38448 -0.43408,0 -0.86816,0.35139 -0.86816,0.94672 v 0.008 c 0,0.59946 0.43408,0.94259 0.86816,0.94259 z m 0.0496,-0.23978 c -0.34313,0 -0.64079,-0.27699 -0.64079,-0.70693 v -0.008 c 0,-0.43821 0.28939,-0.70278 0.64079,-0.70278 0.339,0 0.66146,0.28524 0.66146,0.70278 v 0.008 c 0,0.41755 -0.32246,0.70693 -0.66146,0.70693 z m 3.38067,0.23978 c 0.44235,0 0.8723,-0.35141 0.8723,-0.94671 v -0.008 c 0,-0.59942 -0.43408,-0.94256 -0.8723,-0.94256 -0.33486,0 -0.54983,0.18602 -0.69866,0.40513 v -1.12035 h -0.27285 v 2.57556 h 0.27285 v -0.34726 c 0.14056,0.20256 0.35967,0.38447 0.69866,0.38447 z m -0.0496,-0.23978 c -0.33899,0 -0.66145,-0.28525 -0.66145,-0.70693 v -0.008 c 0,-0.41341 0.32246,-0.70278 0.66145,-0.70278 0.34727,0 0.64079,0.27699 0.64079,0.70694 v 0.008 c 0,0.43822 -0.28939,0.7028 -0.64079,0.7028 z m 1.52963,0.77722 c 0.27285,0 0.45062,-0.13643 0.60358,-0.51263 l 0.76481,-1.88517 h -0.28939 l -0.58291,1.52136 -0.66146,-1.52136 h -0.30179 l 0.82683,1.81488 c -0.10749,0.26044 -0.21084,0.34313 -0.37208,0.34313 -0.11575,0 -0.19843,-0.0207 -0.28525,-0.0661 l -0.091,0.21497 c 0.12402,0.0579 0.23564,0.0909 0.38861,0.0909 z m 2.69027,-2.79466 h 0.31006 v -0.30179 h -0.31006 z m 0.0165,2.22001 h 0.27285 v -1.82315 h -0.27285 z m 0.85989,0 h 0.8599 c 0.77308,0 1.31051,-0.54156 1.31051,-1.2361 v -0.004 c 0,-0.69453 -0.53743,-1.22783 -1.31051,-1.22783 h -0.8599 z m 0.28112,-0.25631 v -1.95545 h 0.57878 c 0.62425,0 1.02113,0.42995 1.02113,0.97566 v 0.008 c 0,0.5457 -0.39688,0.97152 -1.02113,0.97152 z m 3.17914,0.29766 c 0.54984,0 0.95498,-0.43822 0.95498,-0.95085 v -0.008 c 0,-0.51263 -0.40101,-0.94257 -0.95085,-0.94257 -0.54984,0 -0.95084,0.43409 -0.95084,0.95085 v 0.008 c 0,0.51263 0.39687,0.94258 0.94671,0.94258 z m 0.004,-0.24392 c -0.38447,0 -0.67386,-0.3142 -0.67386,-0.70693 v -0.008 c 0,-0.38446 0.27285,-0.70279 0.66973,-0.70279 0.38447,0 0.67386,0.31833 0.67386,0.71106 v 0.008 c 0,0.38447 -0.27285,0.69866 -0.66973,0.69867 z m 2.17351,0.24392 c 0.34313,0 0.56224,-0.14883 0.74414,-0.35141 l -0.17363,-0.16122 c -0.14469,0.15295 -0.32246,0.26871 -0.55397,0.26871 -0.38447,0 -0.67386,-0.3142 -0.67386,-0.70693 v -0.008 c 0,-0.38859 0.28525,-0.70279 0.65319,-0.70279 0.24805,0 0.40928,0.11988 0.55397,0.27284 l 0.1819,-0.19017 c -0.1695,-0.17776 -0.38447,-0.32246 -0.73174,-0.32246 -0.5333,0 -0.93431,0.4341 -0.93431,0.95085 v 0.008 c 0,0.5085 0.40101,0.94258 0.93431,0.94259 z m 1.71566,-0.008 c 0.12816,0 0.23151,-0.0289 0.3266,-0.0786 v -0.23152 c -0.0951,0.0455 -0.17364,0.062 -0.26459,0.062 -0.1819,0 -0.30592,-0.0827 -0.30592,-0.3018 v -1.0666 h 0.57877 v -0.23977 h -0.57877 v -0.54985 h -0.27285 v 0.54985 h -0.25219 v 0.23977 h 0.25219 v 1.09968 c 0,0.37207 0.22324,0.51677 0.51676,0.51677 z m 1.27124,0.004 c 0.31833,0 0.52917,-0.14469 0.65319,-0.31006 v 0.27287 h 0.26872 v -1.11622 c 0,-0.23152 -0.062,-0.40515 -0.19017,-0.5333 -0.12816,-0.1323 -0.33073,-0.20257 -0.58705,-0.20257 -0.26871,0 -0.46302,0.0661 -0.66559,0.1571 l 0.0827,0.21911 c 0.1695,-0.0744 0.339,-0.12816 0.55398,-0.12816 0.34313,0 0.53743,0.1695 0.53743,0.49195 v 0.0579 c -0.16123,-0.0455 -0.32246,-0.0786 -0.55397,-0.0786 -0.46302,0 -0.78135,0.20669 -0.78135,0.5953 v 0.008 c 0,0.37206 0.339,0.56636 0.68213,0.56636 z m 0.0537,-0.21911 c -0.24804,0 -0.45888,-0.13228 -0.45888,-0.35966 v -0.008 c 0,-0.21911 0.1943,-0.36794 0.52916,-0.36794 0.22325,0 0.40101,0.0413 0.5333,0.0785 v 0.1695 c 0,0.28939 -0.26871,0.48782 -0.60358,0.48782 z m 0,0"
       style="fill:#ffffff;fill-opacity:1;fill-rule:nonzero;stroke:none;stroke-width:0.35278"
       aria-label="Operated by iDocta"
       inkscape:label="Operated by iDocta" />
    <g
       id="g24"
       transform="translate(1.7631348e-5,10.234367)">
      <path
         d="m 118.7293,185.50689 h 1.10748 l 0.45147,-1.10747 h 2.088 l 0.45144,1.10747 h 1.13571 l -2.11621,-4.9731 h -1.00168 z m 1.94691,-2.06683 0.65604,-1.60125 0.656,1.60125 z m 4.8049,2.13737 c 0.52201,0 0.88176,-0.19046 1.14275,-0.47968 v 0.40914 h 1.03694 v -2.19381 c 0,-0.50788 -0.12697,-0.92405 -0.40913,-1.2062 -0.26806,-0.26806 -0.6913,-0.42326 -1.27678,-0.42326 -0.64191,0 -1.05105,0.11992 -1.46724,0.30333 l 0.26804,0.81826 c 0.34567,-0.12697 0.63488,-0.20457 1.04401,-0.20457 0.5361,0 0.81123,0.24691 0.81123,0.69131 v 0.0635 c -0.26806,-0.0917 -0.54318,-0.1552 -0.9241,-0.1552 -0.89586,0 -1.52367,0.38092 -1.52367,1.20623 v 0.014 c 0,0.74772 0.58549,1.15686 1.29795,1.15686 z m 0.32447,-0.74068 c -0.34563,0 -0.58547,-0.16928 -0.58547,-0.45851 v -0.014 c 0,-0.33859 0.28216,-0.522 0.74068,-0.522 0.261,0 0.50083,0.0565 0.68423,0.14107 v 0.19047 c 0,0.38797 -0.33859,0.66307 -0.83944,0.66307 z m 2.62521,0.67014 h 1.07222 v -5.14942 h -1.07222 z m 3.20362,0.0705 c 0.81826,0 1.44607,-0.38092 1.44607,-1.22036 v -0.014 c 0,-0.6913 -0.6137,-0.94523 -1.14274,-1.12159 -0.40914,-0.14108 -0.76889,-0.23984 -0.76889,-0.45145 v -0.014 c 0,-0.14814 0.13401,-0.261 0.39501,-0.261 0.2751,0 0.64898,0.13403 1.02284,0.3527 l 0.40912,-0.74068 c -0.40912,-0.27509 -0.93112,-0.43734 -1.41079,-0.43734 -0.76184,0 -1.38259,0.43029 -1.38259,1.19917 v 0.014 c 0,0.73364 0.59959,0.98053 1.12864,1.13571 0.4162,0.12699 0.783,0.20458 0.783,0.43736 v 0.014 c 0,0.16929 -0.14108,0.28216 -0.45146,0.28216 -0.3527,0 -0.78299,-0.15519 -1.19213,-0.45147 l -0.45852,0.7054 c 0.50084,0.39503 1.09338,0.57138 1.62244,0.57138 z m 3.21773,-0.007 c 0.35975,0 0.62075,-0.0847 0.84649,-0.21867 v -0.86058 c -0.1552,0.0846 -0.33156,0.13402 -0.52906,0.13402 -0.23985,0 -0.34565,-0.11991 -0.34565,-0.36683 v -1.61537 h 0.88882 v -0.91702 h -0.88882 v -0.96642 h -1.07222 v 0.96642 h -0.45145 v 0.91702 h 0.45145 v 1.79172 c 0,0.87471 0.44441,1.13571 1.10044,1.13571 z"
         id="text7"
         style="font-size:9.17222px;font-family:Gotham;-inkscape-font-specification:'Gotham, Normal';text-align:center;letter-spacing:-0.264583px;text-anchor:middle;fill:#ffffff;stroke-width:4.23333"
         aria-label="Aalst"
         inkscape:label="Aalst" />
      <path
         style="fill:#3e444f;fill-opacity:1;fill-rule:nonzero;stroke:none;stroke-width:0.35278"
         d="M 134.86735,177.69202"
         id="path21" />
      <path
         id="path20"
         style="fill:#ffffff;fill-opacity:1;fill-rule:nonzero;stroke:none;stroke-width:0.35278"
         d="m 121.8291,172.60754 c -1.49655,0 -2.59209,1.14929 -2.59209,2.55488 v 0.0124 c 0,1.45934 1.06247,2.53834 2.60036,2.53834 0.90124,0 1.59989,-0.3514 2.10839,-0.78135 v -2.1456 h -2.1456 v 0.93844 h 1.09554 v 0.70694 c -0.27698,0.19844 -0.62838,0.29765 -1.02526,0.29765 -0.87229,0 -1.49655,-0.66559 -1.49655,-1.56683 v -0.0165 c 0,-0.83922 0.62838,-1.53789 1.418,-1.53789 0.57464,0 0.91364,0.18189 1.29398,0.50022 l 0.68213,-0.82682 c -0.51263,-0.43408 -1.05006,-0.67386 -1.9389,-0.67386 z m 11.41636,0.27234 v 0.96738 h -0.45062 v 0.91777 h 0.45062 v 1.79421 c 0,0.8723 0.44235,1.13275 1.09967,1.13275 0.35967,0 0.62011,-0.0827 0.84749,-0.21911 v -0.8599 c -0.1571,0.0868 -0.33072,0.13643 -0.52916,0.13643 -0.23978,0 -0.34727,-0.11989 -0.34727,-0.36794 v -1.61644 h 0.88884 v -0.91777 h -0.88884 v -0.96738 z m -2.21486,0.8971 c -0.54571,0 -0.86403,0.28938 -1.10794,0.60771 v -0.53743 h -1.07487 v 3.78271 h 1.07487 v -2.10839 c 0,-0.5085 0.26045,-0.76895 0.66973,-0.76895 0.40928,0 0.64905,0.26045 0.64905,0.76895 v 2.10839 h 1.07074 v -2.44739 c 0,-0.86816 -0.4713,-1.4056 -1.28158,-1.4056 z m -4.64467,5.2e-4 c -1.09968,0 -1.86862,0.88883 -1.86862,1.96783 v 0.0165 c 0,1.15756 0.83921,1.9513 1.9761,1.9513 0.68213,0 1.19063,-0.26459 1.54203,-0.7028 l -0.61185,-0.5457 c -0.29765,0.27698 -0.55811,0.38861 -0.91778,0.38861 -0.47955,0 -0.81856,-0.25219 -0.92604,-0.74001 h 2.63343 c 0.008,-0.0992 0.0165,-0.19844 0.0165,-0.28112 0,-1.07487 -0.57878,-2.05465 -1.84381,-2.05465 z m 0,0.85937 c 0.45062,0 0.73587,0.3266 0.79788,0.80616 h -1.61644 c 0.0868,-0.48783 0.37621,-0.80616 0.81856,-0.80616 z" />
      <path
         id="path16"
         style="fill:#ffffff;fill-opacity:1;fill-rule:nonzero;stroke:none;stroke-width:0.35278"
         d="m 138.26841,164.71758 v 1.86449 c -0.25631,-0.30592 -0.60772,-0.56637 -1.17823,-0.56637 -0.89709,0 -1.72392,0.69039 -1.72392,1.95543 v 0.0124 c 0,1.26504 0.83923,1.95544 1.72392,1.95544 0.55397,0 0.91778,-0.26045 1.17823,-0.61185 v 0.54157 h 1.07073 v -5.15111 z m -24.845,0.12764 c -1.52549,0 -2.63343,1.14929 -2.63343,2.55489 v 0.0124 c 0,1.4056 1.09554,2.53835 2.62103,2.53835 1.52135,0 2.6293,-1.14929 2.6293,-2.55075 v -0.0165 c 0,-1.4056 -1.09141,-2.53835 -2.6169,-2.53835 z m 11.2758,0.27337 v 0.96739 h -0.45062 v 0.91777 h 0.45062 v 1.7942 c 0,0.8723 0.44234,1.13275 1.09967,1.13275 0.35967,0 0.62013,-0.0827 0.8475,-0.21911 v -0.85989 c -0.15709,0.0868 -0.33074,0.13642 -0.52917,0.13642 -0.23978,0 -0.34726,-0.11988 -0.34726,-0.36793 v -1.61644 h 0.88883 v -0.91777 h -0.88883 v -0.96739 z m -11.2882,0.72709 c 0.87229,0 1.49655,0.70694 1.49655,1.55443 v 0.0124 c 0,0.8475 -0.60772,1.53789 -1.48415,1.53789 -0.8723,0 -1.49655,-0.70693 -1.49655,-1.55029 v -0.0165 c 0,-0.84749 0.60771,-1.53789 1.48415,-1.53789 z m 5.17591,0.1695 c -1.17823,0 -2.05052,0.88057 -2.05052,1.96784 v 0.0165 c 0,1.08727 0.86817,1.95131 2.03812,1.95131 1.17823,0 2.05465,-0.88057 2.05465,-1.96784 v -0.0124 c 0,-1.08726 -0.86817,-1.95543 -2.04225,-1.95543 z m 10.26707,5.2e-4 c -1.09967,0 -1.86861,0.88882 -1.86861,1.96783 v 0.0165 c 0,1.15755 0.83921,1.9513 1.9761,1.9513 0.68213,0 1.19063,-0.26459 1.54203,-0.7028 l -0.61185,-0.5457 c -0.29765,0.27699 -0.55811,0.38861 -0.91778,0.38861 -0.47956,0 -0.81855,-0.25218 -0.92604,-0.74001 h 2.63343 c 0.008,-0.0992 0.0165,-0.19843 0.0165,-0.28112 0,-1.07487 -0.57878,-2.05465 -1.84382,-2.05465 z m 4.64468,0 c -0.5457,0 -0.86403,0.28939 -1.10794,0.60771 v -0.53743 h -1.07487 v 3.78271 h 1.07487 v -2.1084 c 0,-0.50849 0.26045,-0.76894 0.66973,-0.76894 0.40928,0 0.64905,0.26045 0.64905,0.76894 v 2.1084 h 1.07074 v -2.4474 c 0,-0.86816 -0.4713,-1.40559 -1.28158,-1.40559 z m 8.30957,0 c -1.09968,0 -1.86862,0.88882 -1.86862,1.96783 v 0.0165 c 0,1.15756 0.83923,1.9513 1.97611,1.9513 0.68213,0 1.19063,-0.26459 1.54202,-0.7028 l -0.61184,-0.5457 c -0.29766,0.27699 -0.55812,0.38861 -0.91778,0.38861 -0.47956,0 -0.81855,-0.25219 -0.92604,-0.74001 h 2.63343 c 0.008,-0.0992 0.0165,-0.19844 0.0165,-0.28112 0,-1.07487 -0.57879,-2.05465 -1.84382,-2.05465 z m -19.30425,0.0119 c -0.76067,0 -1.38492,0.43409 -1.38492,1.20303 v 0.0124 c 0,0.73587 0.60357,0.97978 1.13274,1.13688 0.41341,0.12816 0.78135,0.20258 0.78135,0.43822 v 0.0124 c 0,0.1695 -0.14056,0.28112 -0.45062,0.28112 -0.35553,0 -0.78548,-0.15296 -1.19476,-0.45062 l -0.45888,0.70694 c 0.50437,0.39274 1.09553,0.5705 1.6247,0.5705 0.81856,0 1.44694,-0.38033 1.44694,-1.21956 v -0.0165 c 0,-0.6904 -0.61598,-0.94257 -1.14515,-1.12034 -0.40927,-0.14056 -0.76894,-0.23978 -0.76894,-0.45062 v -0.0165 c 0,-0.14883 0.13642,-0.26045 0.39687,-0.26045 0.27285,0 0.64906,0.13642 1.02113,0.3514 l 0.40928,-0.74 c -0.40927,-0.27285 -0.93018,-0.43822 -1.40974,-0.43822 z m 6.35,0.84801 c 0.45062,0 0.73587,0.32659 0.79789,0.80615 h -1.61644 c 0.0868,-0.48783 0.37621,-0.80615 0.81855,-0.80615 z m 12.95425,0 c 0.45062,0 0.73588,0.32659 0.79789,0.80615 h -1.61644 c 0.0868,-0.48783 0.3762,-0.80615 0.81855,-0.80615 z m -4.4452,0.0496 c 0.50023,0 0.91777,0.41755 0.91777,1.04593 v 0.0124 c 0,0.62838 -0.41754,1.04593 -0.91777,1.04593 -0.50023,0 -0.92191,-0.41755 -0.92191,-1.04593 v -0.0124 c 0,-0.63665 0.42168,-1.04593 0.92191,-1.04593 z m -18.78852,0.016 c 0.59117,0 0.99632,0.48369 0.99632,1.0418 v 0.0165 c 0,0.55397 -0.36794,1.0294 -0.98392,1.0294 -0.59118,0 -0.99219,-0.48783 -0.99219,-1.04593 v -0.0124 c 0,-0.55809 0.36794,-1.02939 0.97979,-1.02939 z" />
      <path
         id="path8"
         style="fill:#ffffff;fill-opacity:1;fill-rule:nonzero;stroke:none;stroke-width:0.35278"
         d="m 114.09778,157.15474 -1.10794,3.3569 -1.02112,-3.3445 h -1.16582 l 1.68671,4.97747 h 0.94672 l 1.11621,-3.23287 1.11207,3.23287 h 0.94672 l 1.68672,-4.97747 h -1.13689 l -1.02112,3.3445 -1.10795,-3.3569 z m 10.38335,1.09864 c -0.56103,0.0153 -0.88625,0.34365 -1.08779,0.83199 v -0.76068 h -1.07487 v 3.78272 h 1.07487 v -1.39733 c 0,-0.90124 0.43409,-1.33532 1.14929,-1.33532 h 0.0537 v -1.12035 c -0.0395,-0.002 -0.0778,-0.002 -0.11524,-0.001 z m 2.19056,0.001 c -1.09967,0 -1.86862,0.88884 -1.86862,1.96784 v 0.0165 c 0,1.15755 0.83923,1.9513 1.97611,1.9513 0.68212,0 1.19063,-0.26458 1.54203,-0.7028 l -0.61185,-0.5457 c -0.29765,0.27698 -0.55811,0.3886 -0.91778,0.3886 -0.47956,0 -0.81856,-0.25218 -0.92604,-0.74 h 2.63343 c 0.008,-0.0992 0.0165,-0.19844 0.0165,-0.28112 0,-1.07487 -0.57878,-2.05466 -1.84382,-2.05466 z m 3.97082,0 c -0.86817,0 -1.67845,0.63666 -1.67845,1.76527 v 0.0124 c 0,1.12448 0.79788,1.76527 1.67845,1.76527 0.57464,0 0.91777,-0.23152 1.2361,-0.61598 v 0.18603 c 0,0.678 -0.34726,1.02939 -1.079,1.02939 -0.50023,0 -0.88883,-0.12815 -1.27744,-0.34726 l -0.36794,0.80615 c 0.47956,0.25218 1.05834,0.39688 1.67432,0.39688 0.73174,0 1.27744,-0.1571 1.62884,-0.5085 0.31833,-0.31832 0.47955,-0.81443 0.47955,-1.49242 v -2.92695 h -1.07073 v 0.4961 c -0.28938,-0.31833 -0.63666,-0.56638 -1.2237,-0.56638 z m 4.76353,0 c -1.09967,0 -1.86861,0.88884 -1.86861,1.96784 v 0.0165 c 0,1.15755 0.83922,1.9513 1.9761,1.9513 0.68212,0 1.19063,-0.26458 1.54203,-0.7028 l -0.61185,-0.5457 c -0.29765,0.27698 -0.55811,0.3886 -0.91778,0.3886 -0.47956,0 -0.81856,-0.25218 -0.92604,-0.74 h 2.63343 c 0.008,-0.0992 0.0165,-0.19844 0.0165,-0.28112 0,-1.07487 -0.57878,-2.05466 -1.84382,-2.05466 z m 4.64882,0 c -0.54157,0 -0.86816,0.28939 -1.11208,0.60772 v -0.53744 h -1.07487 v 3.78272 h 1.07487 v -2.1084 c 0,-0.5085 0.24392,-0.76895 0.64906,-0.76895 0.40101,0 0.62838,0.26045 0.62838,0.76895 v 2.1084 h 1.07074 v -2.1084 c 0,-0.5085 0.24804,-0.76895 0.64905,-0.76895 0.40101,0 0.62839,0.26045 0.62839,0.76895 v 2.1084 h 1.07073 v -2.46394 c 0,-0.9095 -0.47956,-1.38906 -1.27744,-1.38906 -0.51263,0 -0.9095,0.21084 -1.24023,0.59945 -0.19844,-0.38034 -0.57051,-0.59945 -1.0666,-0.59945 z m -20.17035,0.0289 c -0.64079,0 -1.05007,0.11989 -1.46761,0.30179 l 0.26872,0.81856 c 0.34314,-0.12816 0.63252,-0.20258 1.0418,-0.20258 0.53743,0 0.81442,0.24392 0.81442,0.6904 v 0.062 c -0.26872,-0.091 -0.54571,-0.15296 -0.92605,-0.15296 -0.89709,0 -1.52548,0.38034 -1.52548,1.20716 v 0.0124 c 0,0.74827 0.58704,1.15756 1.30224,1.15756 0.5209,0 0.88057,-0.19017 1.14102,-0.47956 v 0.40928 h 1.03766 v -2.19522 c 0,-0.50849 -0.12816,-0.9219 -0.40928,-1.20716 -0.26872,-0.26872 -0.6904,-0.42168 -1.27744,-0.42168 z m 6.78718,0.83096 c 0.45062,0 0.73588,0.32659 0.79789,0.80615 h -1.61644 c 0.0868,-0.48782 0.3762,-0.80615 0.81855,-0.80615 z m 8.73435,0 c 0.45062,0 0.73588,0.32659 0.79789,0.80615 h -1.61644 c 0.0868,-0.48782 0.37621,-0.80615 0.81855,-0.80615 z m -4.45347,0.0289 c 0.52504,0 0.92604,0.35967 0.92604,0.87643 v 0.0124 c 0,0.51677 -0.401,0.87643 -0.92604,0.87643 -0.52089,0 -0.91364,-0.35553 -0.91364,-0.87643 v -0.0124 c 0,-0.51676 0.39275,-0.87643 0.91364,-0.87643 z m -11.08046,1.29811 c 0.26045,0 0.50023,0.0579 0.68213,0.14056 v 0.19017 c 0,0.38861 -0.339,0.66559 -0.83923,0.66559 -0.34727,0 -0.58704,-0.1695 -0.58704,-0.45889 v -0.0165 c 0,-0.33486 0.28526,-0.5209 0.74414,-0.5209 z" />
    </g>
    <g
       id="g2"
       transform="translate(0,9.3446249)">
      <g
         id="g1"
         inkscape:label="CBC Logo">
        <path
           id="path23"
           d="m 127.22186,137.91147 c -8.81807,0 -16.85367,-3.34892 -22.90618,-8.84379 l 22.90618,22.90548 22.90273,-22.9023 c -6.05155,5.4931 -14.08607,8.84061 -22.90273,8.84061"
           style="fill:#bdbcbc;fill-opacity:1;fill-rule:nonzero;stroke:none;stroke-width:0.0352778" />
        <path
           id="path28"
           d="m 151.7396,127.49253 c 6.04062,-6.14927 9.5691,-14.36723 9.5691,-23.66822 0,-9.159875 -3.61915,-17.469558 -9.49748,-23.594133 0.89676,0.932038 1.45133,2.196041 1.45133,3.592336 0,2.864556 -2.32199,5.185834 -5.18619,5.185834 -1.48696,0 -2.82293,-0.628298 -3.76837,-1.630892 4.10598,4.26544 6.63539,10.05911 6.63539,16.446855 0,6.36235 -2.51036,12.13521 -6.58777,16.39606 0.94262,-0.97402 2.25778,-1.58468 3.72075,-1.58468 2.8642,0 5.18619,2.32128 5.18619,5.18619 0,1.43404 -0.58244,2.73226 -1.52295,3.67065"
           style="fill:#bdbcbc;fill-opacity:1;fill-rule:nonzero;stroke:none;stroke-width:0.0352778" />
        <path
           id="path34"
           d="m 148.07636,118.63569 c -1.48837,0 -2.82575,0.63006 -3.7712,1.63371 -4.31588,4.48134 -10.37025,7.2764 -17.0833,7.2764 -13.101,0 -23.7225,-10.62144 -23.7225,-23.7229 0,-7e-4 0,-7e-4 0,-7e-4 0,0 0,-3.6e-4 0,-7.1e-4 0,-13.101466 10.6215,-23.723252 23.7225,-23.723252 6.71305,0 12.76742,2.795058 17.0833,7.276747 0.94545,1.003653 2.28283,1.633362 3.7712,1.633362 2.8642,0 5.18619,-2.321278 5.18619,-5.185834 0,-1.434395 -0.58244,-2.731911 -1.52295,-3.670653 l 7.1e-4,-7.06e-4 c -6.19972,-6.41985 -14.88969,-10.418586 -24.51845,-10.418586 -18.82634,0 -34.088527,15.262226 -34.088527,34.088922 0,3.5e-4 0,3.5e-4 0,3.5e-4 0,3.6e-4 0,3.6e-4 0,0.001 0,18.82634 15.262187,34.08857 34.088527,34.08857 9.62876,0 18.31873,-3.99874 24.51845,-10.41824 l -7.1e-4,-7e-4 c 0.94051,-0.93839 1.52295,-2.23661 1.52295,-3.67065 0,-2.86491 -2.32199,-5.18619 -5.18619,-5.18619"
           style="fill:#e31b22;fill-opacity:1;fill-rule:nonzero;stroke:none;stroke-width:0.0352778" />
      </g>
      <path
         id="path4"
         style="fill:#ffffff;fill-opacity:1;fill-rule:nonzero;stroke:none;stroke-width:0.0352778"
         d="m 117.14799,91.482745 c -1.77862,0.009 -3.04915,1.430824 -3.04115,3.140384 v 0.0176 c 0.009,1.73567 1.30161,3.10135 3.04581,3.09335 1.0965,-0.005 1.78537,-0.43178 2.41225,-1.07384 l -0.45113,-0.43821 c -0.57559,0.55563 -1.11792,0.8776 -1.94665,0.8816 -1.3298,0.006 -2.34532,-1.08498 -2.35232,-2.48409 v -0.017 c -0.007,-1.38994 0.98952,-2.483264 2.32803,-2.489264 0.82035,-0.004 1.39143,0.3384 1.90324,0.819594 l 0.46354,-0.503334 c -0.60702,-0.56691 -1.26497,-0.95171 -2.36162,-0.94671 z m 20.73724,1.488804 c -0.76871,0.004 -1.2329,0.3943 -1.52394,0.87902 l -0.004,-0.7767 -0.66456,0.003 0.0217,4.46381 0.66508,-0.003 -0.0124,-2.55592 c -0.004,-0.8375 0.56232,-1.40108 1.33066,-1.40508 0.78599,-0.004 1.23779,0.51197 1.24179,1.341 l 0.0129,2.60708 0.66456,-0.003 -0.0139,-2.77141 c -0.005,-1.06186 -0.63859,-1.7837 -1.71773,-1.7787 z m -5.45858,0.0263 c -1.34691,0.006 -2.32576,1.08167 -2.31976,2.3425 v 0.017 c 0.006,1.26047 0.987,2.3087 2.32544,2.3027 1.34691,-0.007 2.33454,-1.08201 2.32854,-2.34249 v -0.0176 c -0.006,-1.26047 -0.99578,-2.30919 -2.33422,-2.30219 z m -4.92321,0.0238 c -0.76828,0.004 -1.23228,0.39498 -1.52343,0.88005 l -0.004,-0.77722 -0.66456,0.003 0.0217,4.46381 0.66507,-0.003 -0.0129,-2.55591 c -0.004,-0.8375 0.56331,-1.40109 1.3317,-1.40509 0.78578,-0.004 1.23779,0.51181 1.24179,1.34049 l 0.0124,2.60759 0.66456,-0.003 -0.0134,-2.77192 c -0.005,-1.06186 -0.63926,-1.78422 -1.71875,-1.77922 z m -5.25033,0.0512 c -0.65624,0.004 -1.13075,0.16126 -1.62161,0.38809 l 0.20154,0.54363 c 0.41356,-0.19226 0.82722,-0.32459 1.35392,-0.32659 0.83742,-0.004 1.32254,0.40805 1.32654,1.20251 l 0.001,0.13797 c -0.39786,-0.11039 -0.7952,-0.18593 -1.36529,-0.18293 -1.13097,0.005 -1.90618,0.50963 -1.90118,1.46813 l 5.2e-4,0.0176 c 0.005,0.91511 0.83587,1.38531 1.67328,1.38131 0.78563,-0.004 1.29319,-0.36841 1.60197,-0.7674 l 0.003,0.66508 0.65629,-0.003 -0.0134,-2.72852 c -0.003,-0.57009 -0.16028,-1.00077 -0.47284,-1.31051 -0.32106,-0.3175 -0.81367,-0.48824 -1.44384,-0.48524 z m 10.15907,0.51211 c 0.94121,-0.005 1.66156,0.77731 1.66656,1.73581 v 0.0176 c 0.005,0.94122 -0.66497,1.72099 -1.63194,1.72599 -0.94086,0.005 -1.65226,-0.76904 -1.65726,-1.72754 v -0.017 c -0.005,-0.94086 0.65568,-1.72978 1.62264,-1.73478 z m -10.19111,1.77663 c 0.54377,-0.003 0.97595,0.0905 1.30431,0.18397 l 0.002,0.41445 c 0.003,0.70802 -0.65878,1.20316 -1.47898,1.20716 -0.60442,0.003 -1.12355,-0.3224 -1.12655,-0.88367 l -5.1e-4,-0.0176 c -0.003,-0.53516 0.47077,-0.90034 1.29966,-0.90434 z m 3.77445,5.265831 -0.75965,0.004 0.004,0.7338 0.76016,-0.004 z m -13.17026,0.19379 -2.57349,0.0124 v 5.2e-4 l 0.0295,6.04356 2.68511,-0.0129 c 1.32112,-0.006 2.19039,-0.6241 2.18539,-1.65985 v -0.017 c -0.004,-0.82903 -0.58479,-1.24077 -1.30276,-1.45314 0.47406,-0.20955 0.95588,-0.6179 0.95188,-1.40354 v -0.0171 c -0.002,-0.38841 -0.14148,-0.70743 -0.39326,-0.96531 -0.34685,-0.33514 -0.89167,-0.53062 -1.58233,-0.52762 z m -0.0579,0.6134 c 0.86335,-0.004 1.34007,0.38188 1.34307,0.97772 v 0.0176 c 0.004,0.70803 -0.5642,1.08172 -1.38441,1.08572 l -1.78749,0.009 -0.0103,-2.08101 z m 29.70568,0.74414 c -0.88053,0.004 -1.51708,0.51684 -1.51308,1.28519 v 0.0176 c 0.004,0.82021 0.78234,1.05773 1.48259,1.25316 0.58773,0.16122 1.11577,0.33157 1.11777,0.78031 v 0.0171 c 0.002,0.4318 -0.3852,0.71062 -0.92036,0.71262 -0.5267,0.003 -1.06316,-0.20206 -1.54823,-0.56224 l -0.33486,0.47646 c 0.50306,0.40322 1.21217,0.64999 1.85105,0.64699 0.88936,-0.004 1.58633,-0.49985 1.58233,-1.34617 v -0.0171 c -0.004,-0.80257 -0.74791,-1.06681 -1.4397,-1.27072 -0.59655,-0.1785 -1.14987,-0.33977 -1.15187,-0.76274 v -0.0176 c -0.002,-0.37112 0.3332,-0.64864 0.85989,-0.65164 0.43145,-0.002 0.90734,0.15964 1.32292,0.42529 l 0.30024,-0.50229 c -0.45897,-0.29986 -1.0647,-0.48721 -1.60869,-0.48421 z m -3.95531,0.0191 c -0.88054,0.004 -1.5176,0.51736 -1.5136,1.28571 v 0.0171 c 0.004,0.82021 0.78233,1.05808 1.48259,1.25316 0.58773,0.16122 1.11577,0.33158 1.11777,0.78031 l 5.1e-4,0.0176 c 0.002,0.4318 -0.3852,0.70962 -0.92036,0.71262 -0.52669,0.002 -1.06367,-0.20206 -1.54874,-0.56224 l -0.33434,0.47594 c 0.50306,0.40358 1.21182,0.6505 1.85105,0.6475 0.88934,-0.005 1.58581,-0.49986 1.58181,-1.34617 v -0.0171 c -0.004,-0.80292 -0.74791,-1.06733 -1.4397,-1.27124 -0.59655,-0.1785 -1.14987,-0.33976 -1.15187,-0.76274 v -0.0171 c -0.002,-0.37147 0.33372,-0.65015 0.86041,-0.65215 0.43145,-0.002 0.90735,0.16017 1.32292,0.42581 l 0.29972,-0.5023 c -0.45896,-0.29985 -1.06419,-0.48772 -1.60817,-0.48472 z m -4.35322,0.005 c -1.23472,0.006 -2.13559,1.04606 -2.12959,2.34146 0.007,1.38959 1.01273,2.32627 2.23862,2.32027 0.84631,-0.004 1.38842,-0.34339 1.83503,-0.84646 l -0.41599,-0.36948 c -0.36089,0.38169 -0.79144,0.63417 -1.40457,0.63717 -0.78563,0.004 -1.47891,-0.53692 -1.57871,-1.47743 l 3.53983,-0.0171 c 0.008,-0.10372 0.008,-0.17276 0.008,-0.23306 -0.007,-1.31269 -0.77174,-2.36241 -2.09289,-2.35541 z m -4.73356,0.0222 c -0.76835,0.004 -1.23238,0.39498 -1.52343,0.88005 l -0.004,-0.77773 -0.66456,0.004 0.0217,4.46278 0.66455,-0.003 -0.0124,-2.55592 c -0.004,-0.83713 0.563,-1.40108 1.3317,-1.40508 0.78564,-0.004 1.23727,0.51198 1.24127,1.34101 l 0.0129,2.60759 0.66456,-0.003 -0.0134,-2.77141 c -0.005,-1.06221 -0.63925,-1.78422 -1.71875,-1.77922 z m -6.88227,0.0512 c -0.88057,0.005 -1.51709,0.51736 -1.51309,1.28571 v 0.017 c 0.004,0.82021 0.78213,1.05807 1.4826,1.25316 0.58773,0.16157 1.11576,0.33158 1.11776,0.78031 v 0.0176 c 0.002,0.4318 -0.38513,0.70962 -0.92036,0.71262 -0.52666,0.002 -1.06301,-0.20257 -1.54822,-0.56276 l -0.33487,0.47698 c 0.50313,0.40323 1.2122,0.64999 1.85105,0.64699 0.88939,-0.004 1.58634,-0.50022 1.58234,-1.34618 v -0.017 c -0.004,-0.80293 -0.74795,-1.06717 -1.43971,-1.27072 -0.59655,-0.17851 -1.14987,-0.34028 -1.15187,-0.76326 v -0.0171 c -0.002,-0.37113 0.33335,-0.64964 0.8599,-0.65164 0.43173,-0.002 0.90728,0.15966 1.32292,0.4253 l 0.29972,-0.50281 c -0.45903,-0.29986 -1.06412,-0.48621 -1.60817,-0.48421 z m 3.40289,0.0615 -0.66456,0.003 0.0217,4.46381 0.66507,-0.003 z m -6.00273,0.0294 -0.65629,0.003 0.0129,2.55592 c 0.004,0.83714 -0.57186,1.40108 -1.33171,1.40508 -0.78559,0.004 -1.23726,-0.51232 -1.24126,-1.341 l -0.0129,-2.60708 -0.66508,0.003 0.0139,2.77141 -5.1e-4,5.2e-4 c 0.005,1.06185 0.63913,1.78418 1.71824,1.77818 0.76857,-0.004 1.22458,-0.39429 1.52445,-0.87901 l 0.004,0.77669 0.65577,-0.003 z m 14.2012,0.39688 c 0.88053,-0.004 1.35015,0.68412 1.43195,1.49551 l -2.87527,0.014 c 0.0907,-0.86431 0.67497,-1.50547 1.44332,-1.50947 z m -21.30052,1.35599 c 1.0534,-0.005 1.60828,0.37219 1.61128,1.02836 v 0.0171 c 0.003,0.6731 -0.56487,1.08124 -1.48002,1.08624 l -2.02882,0.01 -0.0108,-2.13269 z m 4.19975,5.78982 c -1.77864,0.008 -3.04967,1.43134 -3.04167,3.1409 v 0.0171 c 0.009,1.73566 1.30227,3.10235 3.04632,3.09335 1.09664,-0.005 1.78495,-0.43143 2.41226,-1.07383 l -0.45114,-0.43822 c -0.57591,0.55527 -1.11827,0.8776 -1.94716,0.8816 -1.32979,0.007 -2.3448,-1.0848 -2.3518,-2.48357 v -0.0176 c -0.007,-1.38995 0.98901,-2.48325 2.32751,-2.48925 0.82007,-0.004 1.39209,0.33874 1.90376,0.81958 l 0.46354,-0.50281 c -0.60717,-0.56692 -1.26498,-0.95223 -2.36162,-0.94723 z m 13.94179,0.26872 -0.66508,0.003 0.007,1.3472 -0.62167,0.003 0.003,0.58704 0.62167,-0.003 0.0129,2.69441 h -5.2e-4 c 0.005,0.90664 0.5501,1.25871 1.26659,1.25471 0.31962,-0.002 0.57005,-0.0723 0.80254,-0.19431 l -0.003,-0.56999 c -0.23213,0.11359 -0.42176,0.15765 -0.64648,0.15865 -0.44909,0.002 -0.75299,-0.19499 -0.75499,-0.73897 l -0.0124,-2.60708 1.41542,-0.007 -0.003,-0.58757 -1.41645,0.007 z m 4.21576,1.21646 c -1.23473,0.006 -2.13558,1.04658 -2.12958,2.34198 0.007,1.38994 1.01288,2.32627 2.23913,2.32027 0.84596,-0.004 1.3879,-0.34375 1.83452,-0.84646 l -0.416,-0.36948 c -0.36078,0.3816 -0.7912,0.63454 -1.40405,0.63768 h -5.1e-4 c -0.78543,0.003 -1.47842,-0.5373 -1.5782,-1.47794 l 3.53983,-0.0176 c 0.008,-0.10337 0.008,-0.17185 0.007,-0.23255 -0.006,-1.31268 -0.77123,-2.36193 -2.09238,-2.35593 z m 5.38003,0.0279 c -0.80758,0.005 -1.42295,0.53291 -1.73736,1.25367 l -0.006,-1.1653 -0.66404,0.003 0.0217,4.46381 0.66456,-0.003 -0.009,-1.77871 c -0.006,-1.34654 0.78467,-2.04965 1.7601,-2.05465 l 0.0517,-5.2e-4 -0.003,-0.71727 c -0.0264,-9.3e-4 -0.0525,-0.001 -0.0786,-0.001 z m -13.35577,0.0263 c -0.76853,0.004 -1.23262,0.39447 -1.52394,0.87954 l -0.004,-0.77722 -0.66456,0.003 0.0217,4.4633 0.66456,-0.003 -0.0124,-2.55591 c -0.004,-0.83714 0.56331,-1.40208 1.3317,-1.40508 0.78581,-0.004 1.23727,0.51233 1.24127,1.341 l 0.0129,2.60708 0.66455,-0.003 -0.0134,-2.7714 c -0.005,-1.06222 -0.63948,-1.78371 -1.71876,-1.77871 z m -5.18211,0.0248 c -1.23472,0.006 -2.13559,1.04709 -2.12959,2.34249 0.007,1.38959 1.01258,2.32576 2.23863,2.31976 0.84626,-0.004 1.38892,-0.34375 1.83554,-0.84646 l -0.41651,-0.36897 c -0.36065,0.38159 -0.79123,0.63303 -1.40405,0.63717 h -5.2e-4 c -0.78541,0.003 -1.47862,-0.53695 -1.57819,-1.47795 l 3.54035,-0.017 c 0.008,-0.10336 0.007,-0.17236 0.007,-0.23306 -0.006,-1.31269 -0.7714,-2.36193 -2.09238,-2.35593 z m 13.14286,0.48266 c 0.88089,-0.005 1.35098,0.68361 1.43248,1.495 l -2.87528,0.0145 c 0.0907,-0.8643 0.67446,-1.50547 1.4428,-1.50947 z m -13.15733,0.0791 c 0.88067,-0.005 1.35035,0.68361 1.43195,1.495 l -2.87527,0.0139 c 0.0907,-0.8636 0.67476,-1.50495 1.44332,-1.50895 z" />
    </g>
    <g
       id="g60"
       transform="matrix(0.26458333,0,0,0.26458333,93.215083,55.032807)">
      <path
         id="path35"
         style="fill:#e31b22;fill-opacity:1;fill-rule:nonzero;stroke:none"
         d="m 470.2588,4201.8854 c -59.16394,0 -110.9748,-21.5795 -140.00977,-53.9795 -21.24998,-23.9099 -34.14551,-54.0134 -34.14551,-86.7334 0,-32.8199 12.89553,-62.8152 34.14551,-86.8652 29.03497,-32.35 80.22596,-53.8916 138.2959,-53.8916 58.14095,0 109.21393,21.5416 138.29591,53.8916 1.58199,1.87 3.18655,3.6378 4.64355,5.5078 l -4.36523,16.5527 c -20.35898,-29.3599 -54.19498,-48.3984 -92.46094,-48.3984 -62.23394,0 -112.71973,50.6432 -112.71973,113.2031 0,62.55 50.48579,113.2471 112.71973,113.2471 22.01597,0 42.42429,-6.3005 59.78027,-17.2705 l -59.78027,-95.9766 112.48535,65.2442 c -12.28499,19.52 -29.79318,36.4673 -51.03516,49.2773 -26.90297,16.18 -64.31865,26.1914 -105.84961,26.1914 z m 305.65431,-48.0322 c -8.035,0 -15.73268,-1.4976 -22.76368,-4.0576 l -101.55762,-37.1338 h 104.41407 l 17.88574,-66.9873 c -17.33998,14.91 -39.95163,24.0527 -64.59961,24.0527 -48.98395,0 -88.72559,-33.0649 -88.72559,-73.7549 0,-40.7199 39.74164,-73.8427 88.72559,-73.8427 35.28096,0 66.50368,17.4171 85.72266,44.0771 l 10.3418,-38.9648 h 82.0459 l -47.15333,176.9385 c -7.66399,28.6299 -33.51497,49.6728 -64.33593,49.6728 z m 180.9082,0 c -6.13999,0 -12.02886,-1.4972 -17.25586,-3.8672 l -79.70215,-37.3242 h 56.04493 v -185.4199 h 81.94336 v 164.8095 c 0,11.43 9.17321,20.6104 20.49321,20.6104 11.2499,0 20.4492,-9.1804 20.4492,-20.6104 v -164.8095 h 81.9726 v 185.4199 c 0,22.74 -18.3024,41.1914 -40.9424,41.1914 -6.3099,0 -12.0777,-1.4972 -17.3877,-3.8672 l -65.1562,-30.6152 c -3.183,19.53 -19.99401,34.4824 -40.45899,34.4824 z m 314.19439,0 c -64.2,0 -116.0743,-52.2488 -116.0743,-116.7187 0,-64.33 51.8743,-116.7188 116.0743,-116.7188 64.1399,0 116.1181,52.3888 116.1181,116.7188 0,64.4699 -51.9782,116.7187 -116.1181,116.7187 z m 199.7607,0 c -6.2,0 -12.1652,-1.4972 -17.2852,-3.8672 l -79.7314,-37.3242 h 55.9863 v -185.4199 h 82.0459 v 164.8095 c 0,11.43 9.0846,20.6104 20.4346,20.6104 11.29,0 20.4639,-9.1804 20.4639,-20.6104 v -164.8095 h 82.0459 v 185.4199 c 0,22.74 -18.451,41.1914 -41.001,41.1914 -6.25,0 -12.0845,-1.4972 -17.3145,-3.8672 l -65.2148,-30.6152 c -3.29,19.53 -20.0597,34.4824 -40.4297,34.4824 z m -218.6426,-16.3916 c 10.8828,-0.4288 20.7665,-7.9134 23.7158,-19.1016 l 39.8145,-149.165 c 3.65,-13.75 -4.5108,-27.7156 -18.0908,-31.4356 -13.77,-3.7899 -27.7123,4.3555 -31.3623,18.1055 l -39.8145,149.1797 c -3.65,13.67 4.3701,27.8981 18.1201,31.5381 2.5444,0.6937 5.1058,0.9779 7.6172,0.8789 z M 743.36428,4037.1345 c 22.74597,0 41.10351,-18.4322 41.10351,-41.1622 0,-22.7499 -18.35754,-41.1474 -41.10351,-41.1474 -22.58598,0 -40.89844,18.3975 -40.89844,41.1474 0,22.73 18.31246,41.1622 40.89844,41.1622 z"
         transform="matrix(0.13333333,0,0,-0.13333333,0,560.25333)" />
      <path
         id="path40"
         style="fill:#ffffff;fill-opacity:1;fill-rule:nonzero;stroke:none"
         d="m 863.02737,3776.319 v -82.5293 h 8.70117 v 33.457 c 0,10.97 7.46419,18.3252 17.53418,18.3252 10.28499,0 16.17187,-6.7767 16.17187,-17.6367 v -34.1455 h 8.70118 v 36.2842 c 0,13.9 -8.24983,23.4082 -22.38282,23.4082 -10.06599,0 -16.17742,-5.0911 -20.02441,-11.4111 v 34.248 z m 367.82223,0 v -35.2734 c -4.51,6.55 -11.5228,12.4365 -22.3828,12.4365 -14.02,0 -27.9199,-11.3002 -27.9199,-30.4102 v -0.2343 c 0,-19.22 13.8999,-30.293 27.9199,-30.293 10.74,0 17.6428,5.9932 22.3828,12.9932 v -11.7481 h 8.7159 v 82.5293 z m -189.4043,-1.6846 v -9.6093 h 9.961 v 9.6093 z m -708.25193,-0.3515 c -23.28898,0 -40.03418,-18.5378 -40.03418,-40.9278 v -0.2197 c 0,-22.72 16.85729,-40.708 39.69726,-40.708 14.36699,0 23.40529,5.5414 31.65528,13.9014 l -5.87403,5.7715 c -7.57799,-7.24 -14.69753,-11.4258 -25.56152,-11.4258 -17.40998,0 -30.62988,14.3607 -30.62988,32.6806 v 0.2344 c 0,18.2 13.1149,32.4463 30.62988,32.4463 10.74199,0 18.2037,-4.5145 24.8877,-10.8545 l 6.09375,6.5625 c -7.918,7.46 -16.50428,12.5391 -30.86426,12.5391 z m 990.89353,0 c -23.2999,0 -40.0488,-18.5378 -40.0488,-40.9278 v -0.2197 c 0,-22.72 16.8573,-40.708 39.6973,-40.708 14.37,0 23.4053,5.5414 31.6553,13.9014 l -5.8741,5.7715 c -7.58,-7.24 -14.7015,-11.4258 -25.5615,-11.4258 -17.42,0 -30.6445,14.3607 -30.6445,32.6806 v 0.2344 c 0,18.2 13.1245,32.4463 30.6445,32.4463 10.74,0 18.2077,-4.5145 24.8877,-10.8545 l 6.0938,6.5625 c -7.91,7.46 -16.4997,12.5391 -30.8497,12.5391 z m -623.54001,-0.7764 -36.06445,-79.7168 h 9.15527 l 9.375,20.9033 h 43.09571 l 9.25781,-20.9033 h 9.60937 l -36.06445,79.7168 z m 123.26661,-3.6328 v -17.6367 h -8.14453 v -7.6904 h 8.14453 v -35.2735 c 0,-11.87 7.1268,-16.5088 16.50879,-16.5088 4.18399,0 7.45858,0.9103 10.51758,2.4903 v 7.456 c -3.059,-1.46 -5.54045,-2.0361 -8.48145,-2.0361 -5.87499,0 -9.84375,2.6112 -9.84375,9.7412 v 34.1309 h 18.54492 v 7.6904 h -18.54492 v 17.6367 z m 673.916,0 v -17.6367 h -8.1445 v -7.6904 h 8.1445 v -35.2735 c 0,-11.87 7.1242,-16.5088 16.4942,-16.5088 4.18,0 7.4676,0.9103 10.5175,2.4903 v 7.456 c -3.0499,-1.46 -5.5314,-2.0361 -8.4814,-2.0361 -5.87,0 -9.8144,2.6112 -9.8144,9.7412 v 34.1309 h 18.5302 v 7.6904 h -18.5302 v 17.6367 z m -793.11034,-6.7676 17.97363,-40.3711 h -36.06445 z m -238.65235,-9.624 c -10.07099,0 -16.17242,-5.0911 -20.02442,-11.4111 v 10.166 h -8.70117 v -58.4473 h 8.70117 v 33.457 c 0,10.97 7.46319,18.3252 17.53418,18.3252 10.28499,0 16.17188,-6.7767 16.17188,-17.6367 v -34.1455 h 8.70117 v 36.2842 c 0,13.9 -8.25383,23.4082 -22.38281,23.4082 z m 64.40918,0 c -17.63698,0 -30.52734,-14.0174 -30.52734,-30.5273 v -0.2198 c 0,-16.51 12.77698,-30.3076 30.29296,-30.3076 17.63599,0 30.64454,14.0274 30.64454,30.5274 v 0.2197 c 0,16.51 -12.88318,30.3076 -30.41016,30.3076 z m 71.41113,0 c -10.06599,0 -16.18141,-5.0911 -20.02441,-11.4111 v 10.166 h -8.70117 v -58.4473 h 8.70117 v 33.457 c 0,10.97 7.46419,18.3252 17.53418,18.3252 10.28099,0 16.17188,-6.7767 16.17188,-17.6367 v -34.1455 h 8.70117 v 36.2842 c 0,13.9 -8.24983,23.4082 -22.38282,23.4082 z m 354.36036,0 c -17.63598,0 -30.52734,-14.0174 -30.52734,-30.5273 v -0.2198 c 0,-16.51 12.78364,-30.3076 30.30762,-30.3076 17.63998,0 30.64453,14.0274 30.64453,30.5274 v 0.2197 c 0,16.51 -12.88882,30.3076 -30.42481,30.3076 z m 188.71582,0 c -16.17,0 -28.0517,-13.5574 -28.0517,-30.5273 0,-18.2 13.115,-30.5274 29.165,-30.5274 11.1,0 18.2067,4.407 24.0967,10.957 l -5.4346,4.878 c -4.76,-4.98 -10.4077,-8.2617 -18.4277,-8.2617 -10.3,0 -19.3457,7.1331 -20.5957,19.4531 h 46.3769 c 0.11,1.35 0.1026,2.2569 0.1026,3.0469 0,17.1899 -9.9515,30.9814 -27.2315,30.9814 z m 244.5264,0 c -16.17,0 -28.0518,-13.5574 -28.0518,-30.5273 0,-18.2 13.1151,-30.5274 29.1651,-30.5274 11.1,0 18.2067,4.407 24.0966,10.957 l -5.4345,4.878 c -4.76,-4.98 -10.4078,-8.2617 -18.4278,-8.2617 -10.3,0 -19.331,7.1331 -20.581,19.4531 h 46.3623 c 0.12,1.35 0.1172,2.2569 0.1172,3.0469 0,17.1899 -9.9661,30.9814 -27.2461,30.9814 z m 67.793,0 c -10.08,0 -16.1745,-5.0911 -20.0245,-11.4111 v 10.166 h -8.7011 v -58.4473 h 8.7011 v 33.457 c 0,10.97 7.4596,18.3252 17.5196,18.3252 10.3,0 16.1718,-6.7767 16.1718,-17.6367 v -34.1455 h 8.7159 v 36.2842 c 0,13.9 -8.2629,23.4082 -22.3828,23.4082 z m 102.4804,0 c -16.17,0 -28.0371,-13.5574 -28.0371,-30.5273 0,-18.2 13.1197,-30.5274 29.1797,-30.5274 11.07,0 18.1874,4.407 24.0674,10.957 l -5.4199,4.878 c -4.75,-4.98 -10.3978,-8.2617 -18.4278,-8.2617 -10.29,0 -19.331,7.1331 -20.581,19.4531 h 46.3476 c 0.12,1.35 0.1172,2.2569 0.1172,3.0469 0,17.1899 -9.9361,30.9814 -27.2461,30.9814 z m -529.2773,-0.2051 c -10.5669,-0.011 -18.6713,-6.8874 -22.8369,-16.3037 v 15.2637 h -8.68657 v -58.4473 h 8.68657 v 23.2764 c 0,17.65 10.4084,26.8066 23.1884,26.8066 h 0.6885 v 9.3897 c -0.3459,0.014 -0.6992,0.015 -1.04,0.015 z m 599.8828,0 c -10.5657,-0.011 -18.6517,-6.8874 -22.8076,-16.3037 v 15.2637 h -8.7158 v -58.4473 h 8.7158 v 23.2764 c 0,17.65 10.3838,26.8066 23.1738,26.8066 h 0.6592 v 9.3897 c -0.346,0.014 -0.6846,0.015 -1.0254,0.015 z m -544.8633,-0.015 c -11.53,0 -19.9072,-6.6732 -19.9072,-16.7432 v -0.2197 c 0,-10.74 10.1759,-13.9088 19.3359,-16.5088 7.69,-2.15 14.5899,-4.4179 14.5899,-10.2979 v -0.2197 c 0,-5.65 -5.075,-9.2724 -12.085,-9.2724 -6.9,0 -13.9042,2.706 -20.2441,7.456 l -4.4092,-6.2109 c 6.54,-5.32 15.8192,-8.5987 24.1992,-8.5987 11.64,0 20.8008,6.4542 20.8008,17.5342 v 0.2344 c 0,10.51 -9.7247,14.0185 -18.7647,16.7285 -7.81,2.37 -15.0439,4.5088 -15.0439,10.0488 v 0.2344 c 0,4.86 4.4186,8.4815 11.3086,8.4815 5.65,0 11.8898,-2.1443 17.2998,-5.6543 l 3.9551,6.5625 c -6,3.96 -13.9152,6.4453 -21.0352,6.4453 z m -688.15431,-0.1172 c -8.58599,0 -14.80989,-2.0405 -21.25489,-4.9805 l 2.59278,-7.1191 c 5.42899,2.49 10.85891,4.1894 17.7539,4.1894 10.96499,0 17.29981,-5.4349 17.29981,-15.8349 v -1.8164 c -5.2,1.47 -10.39545,2.4902 -17.85645,2.4902 -14.81198,0 -24.99023,-6.5516 -24.99023,-19.1016 v -0.2343 c 0,-11.98 10.85718,-18.1934 21.82617,-18.1934 10.28099,0 16.94551,4.7463 21.02051,9.9463 v -8.7012 h 8.59863 v 35.7276 c 0,7.4699 -2.0384,13.1126 -6.1084,17.1826 -4.17999,4.18 -10.61984,6.4453 -18.88183,6.4453 z m 356.38184,-0.9082 v -36.2842 c 0,-13.91 8.26148,-23.4082 22.39746,-23.4082 10.06299,0 16.05277,5.0811 20.00977,11.4111 v -10.166 h 8.58398 v 58.4473 h -8.58398 v -33.4717 c 0,-10.97 -7.58519,-18.3105 -17.53418,-18.3105 -10.28499,0 -16.15723,6.7913 -16.15723,17.6513 v 34.1309 z m 288.38377,0 v -58.4473 h 8.7012 v 58.4473 z m 102.5977,-6.1084 c 11.53,0 17.6421,-9.0429 18.6621,-19.6729 h -37.6611 c 1.25,11.31 8.949,19.6729 18.999,19.6729 z m 244.541,0 c 11.53,0 17.6275,-9.0429 18.6475,-19.6729 h -37.6465 c 1.25,11.31 8.949,19.6729 18.999,19.6729 z m 170.2734,0 c 11.54,0 17.6568,-9.0429 18.6768,-19.6729 h -37.6611 c 1.25,11.31 8.9244,19.6729 18.9843,19.6729 z m -1029.28709,-0.3223 c 12.32799,0 21.70899,-10.2916 21.70899,-22.8515 v -0.2198 c 0,-12.32 -8.81062,-22.5 -21.47461,-22.5 -12.32399,0 -21.5918,10.1798 -21.5918,22.7198 v 0.2197 c 0,12.33 8.69244,22.6318 21.35742,22.6318 z m 425.78615,0 c 12.32799,0 21.70898,-10.2916 21.70898,-22.8515 v -0.2198 c 0,-12.32 -8.81727,-22.5 -21.48926,-22.5 -12.32398,0 -21.59179,10.1798 -21.59179,22.7198 v 0.2197 c 0,12.33 8.70408,22.6318 21.37207,22.6318 z m 254.12114,-0.1318 c 10.8599,0 21.1377,-9.04 21.1377,-22.5 v -0.2197 c 0,-13.45 -10.2778,-22.6172 -21.1377,-22.6172 -11.07,0 -20.5811,8.8272 -20.5811,22.6172 v 0.2197 c 0,14.14 9.2811,22.5 20.5811,22.5 z m -813.35455,-22.5 c 7.12099,0 12.76843,-1.2356 17.06543,-2.4756 v -5.4346 c 0,-9.27 -8.71114,-15.7177 -19.45313,-15.7177 -7.91399,0 -14.69238,4.3101 -14.69238,11.6601 v 0.2197 c 0,7.01 6.22009,11.7481 17.08008,11.7481 z"
         transform="matrix(0.13333333,0,0,-0.13333333,0,560.25333)" />
    </g>
  </g>
</svg>
