<?xml version="1.0" encoding="UTF-8" standalone="no"?>
<!-- Created with Inkscape (http://www.inkscape.org/) -->

<svg
   width="146.37453mm"
   height="61.706169mm"
   viewBox="0 0 146.37453 61.706169"
   version="1.1"
   id="svg1"
   inkscape:version="1.3 (0e150ed6c4, 2023-07-21)"
   sodipodi:docname="CBC_All_Landscape_Light.svg"
   xmlns:inkscape="http://www.inkscape.org/namespaces/inkscape"
   xmlns:sodipodi="http://sodipodi.sourceforge.net/DTD/sodipodi-0.dtd"
   xmlns="http://www.w3.org/2000/svg"
   xmlns:svg="http://www.w3.org/2000/svg">
  <sodipodi:namedview
     id="namedview1"
     pagecolor="#b5b5b5"
     bordercolor="#999999"
     borderopacity="1"
     inkscape:showpageshadow="2"
     inkscape:pageopacity="0"
     inkscape:pagecheckerboard="true"
     inkscape:deskcolor="#d1d1d1"
     inkscape:document-units="mm"
     showguides="true"
     inkscape:zoom="3.581229"
     inkscape:cx="190.01857"
     inkscape:cy="148.13351"
     inkscape:window-width="3200"
     inkscape:window-height="1711"
     inkscape:window-x="2391"
     inkscape:window-y="369"
     inkscape:window-maximized="1"
     inkscape:current-layer="layer1" />
  <defs
     id="defs1" />
  <g
     inkscape:label="Layer 1"
     inkscape:groupmode="layer"
     id="layer1"
     transform="translate(-45.373946,-57.617288)">
    <g
       id="g64"
       inkscape:label="CBC Logo">
      <path
         id="path2"
         d="m 65.071365,110.42988 c -5.095311,0 -9.738608,-1.93463 -13.235376,-5.10963 l 13.235376,13.23509 13.233295,-13.23372 c -3.496769,3.17433 -8.139113,5.10826 -13.233295,5.10826"
         style="fill:#bdbcbc;fill-opacity:1;fill-rule:nonzero;stroke:none;stroke-width:0.0352778" />
      <path
         id="path7"
         d="m 79.237863,104.40937 c 3.490666,-3.55286 5.529369,-8.301563 5.529369,-13.67578 0,-5.292373 -2.09162,-10.094032 -5.487635,-13.633098 0.517736,0.538338 0.837847,1.268588 0.837847,2.075391 0,1.655939 -1.341226,2.996495 -2.996248,2.996495 -0.858943,0 -1.631174,-0.363008 -2.177591,-0.941917 2.372572,2.464859 3.833989,5.812014 3.833989,9.503129 0,3.676615 -1.449705,7.012129 -3.806402,9.47413 0.545289,-0.562928 1.304996,-0.915706 2.150004,-0.915706 1.655022,0 2.996248,1.341546 2.996248,2.997096 0,0.82836 -0.335527,1.57868 -0.879581,2.12026"
         style="fill:#bdbcbc;fill-opacity:1;fill-rule:nonzero;stroke:none;stroke-width:0.0352778" />
      <path
         id="path13"
         d="m 77.121196,99.292014 c -0.860319,0 -1.632973,0.364384 -2.178967,0.943966 -2.493963,2.58974 -5.99239,4.2044 -9.870864,4.2044 -7.570682,0 -13.707358,-6.137237 -13.707358,-13.708166 v 0 -7.06e-4 c 0,-7.569588 6.136676,-13.707216 13.707358,-13.707216 3.878474,0 7.376901,1.614311 9.870864,4.205111 0.545994,0.579261 1.318648,0.942975 2.178967,0.942975 1.655022,0 2.996248,-1.340556 2.996248,-2.996495 0,-0.828675 -0.335527,-1.578328 -0.879581,-2.121253 v 0 c -3.581541,-3.709105 -8.603086,-6.020153 -14.166498,-6.020153 -10.878927,0 -19.697419,8.81874 -19.697419,19.697031 v 0 c 0,7.06e-4 0,7.06e-4 0,7.06e-4 0,10.878926 8.818492,19.697666 19.697419,19.697666 5.563412,0 10.584957,-2.31027 14.166498,-6.0198 v -7.1e-4 c 0.544054,-0.54158 0.879581,-1.2919 0.879581,-2.12026 0,-1.65555 -1.341226,-2.997096 -2.996248,-2.997096"
         style="fill:#e31b22;fill-opacity:1;fill-rule:nonzero;stroke:none;stroke-width:0.0352778" />
    </g>
    <path
       id="path14"
       style="fill:#e31b22;fill-opacity:1;fill-rule:nonzero;stroke:none;stroke-width:0.0352778"
       d="M 54.959924 57.617288 C 53.754166 57.617288 52.697442 58.056727 52.105835 58.717479 C 51.672871 59.205371 51.409237 59.818745 51.409237 60.485847 C 51.409237 61.154713 51.672871 61.765921 52.105835 62.256281 C 52.697442 62.915623 53.741075 63.354922 54.924784 63.354922 C 56.110187 63.354922 57.151173 62.915623 57.743734 62.256281 C 57.776114 62.218531 57.808898 62.181886 57.838818 62.144143 L 57.749418 61.806696 C 57.335045 62.404654 56.644734 62.793199 55.864779 62.793199 C 54.595874 62.793199 53.566728 61.761137 53.566728 60.485847 C 53.566728 59.210557 54.595874 58.177461 55.864779 58.177461 C 56.313053 58.177461 56.729156 58.305552 57.083309 58.52886 L 55.864779 60.485847 L 58.158179 59.155695 C 57.907636 58.75741 57.550097 58.412677 57.117415 58.151622 C 56.568953 57.821423 55.806731 57.617288 54.959924 57.617288 z M 61.190552 58.59604 C 61.026545 58.59604 60.869372 58.626679 60.726497 58.679239 L 58.655823 59.435265 L 60.784375 59.435265 L 61.14921 60.801073 C 60.795728 60.497331 60.335203 60.311697 59.832495 60.311697 C 58.833677 60.311697 58.02382 60.985069 58.02382 61.814448 C 58.02382 62.644886 58.833677 63.319782 59.832495 63.319782 C 60.551808 63.319782 61.188304 62.96476 61.579675 62.421129 L 61.790515 63.215396 L 63.463281 63.215396 L 62.502099 59.608898 C 62.345678 59.024698 61.818672 58.59604 61.190552 58.59604 z M 64.878182 58.59604 C 64.753051 58.59604 64.633086 58.626775 64.526265 58.675105 L 62.901558 59.435265 L 64.044124 59.435265 L 64.044124 63.215396 L 65.714307 63.215396 L 65.714307 59.855911 C 65.714307 59.622725 65.901453 59.435265 66.131852 59.435265 C 66.361722 59.435265 66.549398 59.622725 66.549398 59.855911 L 66.549398 63.215396 L 68.21958 63.215396 L 68.21958 59.435265 C 68.21958 58.97242 67.846497 58.59604 67.385522 58.59604 C 67.256688 58.59604 67.139219 58.626775 67.031022 58.675105 L 65.702938 59.299356 C 65.637458 58.90107 65.295446 58.59604 64.878182 58.59604 z M 71.282442 58.59604 C 69.97399 58.59604 68.916695 59.66148 68.916695 60.975223 C 68.916695 62.287202 69.97399 63.354922 71.282442 63.354922 C 72.589941 63.354922 73.650256 62.287202 73.650256 60.975223 C 73.650256 59.66148 72.589941 58.59604 71.282442 58.59604 z M 75.354545 58.59604 C 75.228462 58.59604 75.107134 58.626775 75.002112 58.675105 L 73.377405 59.435265 L 74.517904 59.435265 L 74.517904 63.215396 L 76.19067 63.215396 L 76.19067 59.855911 C 76.19067 59.622725 76.375654 59.435265 76.607182 59.435265 C 76.837721 59.435265 77.02421 59.622725 77.02421 59.855911 L 77.02421 63.215396 L 78.697493 63.215396 L 78.697493 59.435265 C 78.697493 58.97242 78.32112 58.59604 77.860852 58.59604 C 77.73297 58.59604 77.614253 58.626775 77.508419 58.675105 L 76.178784 59.299356 C 76.112354 58.90107 75.770011 58.59604 75.354545 58.59604 z M 70.897969 58.930386 C 71.119945 58.939125 71.320897 59.092154 71.381144 59.320026 L 72.192464 62.360151 C 72.267288 62.640609 72.100695 62.925606 71.824011 63.001455 C 71.543553 63.078361 71.258937 62.912427 71.184257 62.631969 L 70.373454 59.591328 C 70.298348 59.31228 70.461719 59.022203 70.742423 58.948473 C 70.794354 58.934318 70.846744 58.92837 70.897969 58.930386 z M 60.527026 60.975223 C 60.99047 60.975223 61.364701 61.351604 61.364701 61.814448 C 61.364701 62.27835 60.99047 62.653156 60.527026 62.653156 C 60.066511 62.653156 59.693485 62.27835 59.693485 61.814448 C 59.693485 61.351604 60.066511 60.975223 60.527026 60.975223 z "
       inkscape:label="Canon" />
    <path
       id="path19"
       style="fill:#231f20;fill-opacity:1;fill-rule:nonzero;stroke:none;stroke-width:0.0352778"
       d="M 62.966154 66.292211 L 62.966154 67.973762 L 63.143404 67.973762 L 63.143404 67.291633 C 63.143404 67.068324 63.295171 66.918012 63.500488 66.918012 C 63.709968 66.918012 63.830184 67.057006 63.830184 67.278197 L 63.830184 67.973762 L 64.007434 67.973762 L 64.007434 67.233755 C 64.007434 66.950475 63.839138 66.757299 63.551131 66.757299 C 63.346061 66.757299 63.221684 66.861079 63.143404 66.989843 L 63.143404 66.292211 L 62.966154 66.292211 z M 70.463371 66.292211 L 70.463371 67.010513 C 70.371472 66.87681 70.228776 66.757299 70.007585 66.757299 C 69.721941 66.757299 69.43811 66.987949 69.43811 67.377416 L 69.43811 67.38155 C 69.43811 67.773485 69.721941 67.9996 70.007585 67.9996 C 70.226695 67.9996 70.367061 67.877022 70.463371 67.7345 L 70.463371 67.973762 L 70.641138 67.973762 L 70.641138 66.292211 L 70.463371 66.292211 z M 66.603141 66.326317 L 66.603141 66.522171 L 66.805713 66.522171 L 66.805713 66.326317 L 66.603141 66.326317 z M 52.165263 66.333552 C 51.69053 66.333552 51.349809 66.710952 51.349809 67.167093 L 51.349809 67.171744 C 51.349809 67.634588 51.693054 68.00115 52.158545 68.00115 C 52.450962 68.00115 52.634945 67.888519 52.803467 67.71848 L 52.683577 67.600658 C 52.529238 67.748121 52.383871 67.833202 52.162679 67.833202 C 51.808279 67.833202 51.538428 67.540684 51.538428 67.167093 L 51.538428 67.162959 C 51.538428 66.791484 51.805774 66.5015 52.162679 66.5015 C 52.38179 66.5015 52.534147 66.593911 52.670141 66.722675 L 52.794165 66.58935 C 52.632911 66.43695 52.45768 66.333552 52.165263 66.333552 z M 72.36403 66.333552 C 71.889297 66.333552 71.548576 66.710952 71.548576 67.167093 L 71.548576 67.171744 C 71.548576 67.634588 71.891447 68.00115 72.356795 68.00115 C 72.649353 68.00115 72.833853 67.888519 73.002234 67.71848 L 72.882344 67.600658 C 72.728005 67.748121 72.582637 67.833202 72.361446 67.833202 C 72.006869 67.833202 71.737195 67.540684 71.737195 67.167093 L 71.737195 67.162959 C 71.737195 66.791484 72.00454 66.5015 72.361446 66.5015 C 72.580556 66.5015 72.732396 66.593911 72.868392 66.722675 L 72.992932 66.58935 C 72.831571 66.43695 72.656448 66.333552 72.36403 66.333552 z M 59.653695 66.349055 L 58.918856 67.973762 L 59.105924 67.973762 L 59.297127 67.547431 L 60.174593 67.547431 L 60.363729 67.973762 L 60.559066 67.973762 L 59.824227 66.349055 L 59.653695 66.349055 z M 62.166719 66.422952 L 62.166719 66.78262 L 62.000838 66.78262 L 62.000838 66.9392 L 62.166719 66.9392 L 62.166719 67.658536 C 62.166719 67.900192 62.311998 67.994432 62.503133 67.994432 C 62.588294 67.994432 62.654774 67.975733 62.717073 67.943273 L 62.717073 67.791861 C 62.654774 67.821491 62.604414 67.833202 62.544474 67.833202 C 62.424848 67.833202 62.34397 67.780461 62.34397 67.634764 L 62.34397 66.9392 L 62.721724 66.9392 L 62.721724 66.78262 L 62.34397 66.78262 L 62.34397 66.422952 L 62.166719 66.422952 z M 75.903865 66.422952 L 75.903865 66.78262 L 75.737984 66.78262 L 75.737984 66.9392 L 75.903865 66.9392 L 75.903865 67.658536 C 75.903865 67.900192 76.049144 67.994432 76.240279 67.994432 C 76.325722 67.994432 76.392326 67.975733 76.454736 67.943273 L 76.454736 67.791861 C 76.392329 67.821491 76.3417 67.833202 76.28162 67.833202 C 76.162134 67.833202 76.081632 67.780461 76.081632 67.634764 L 76.081632 66.9392 L 76.45887 66.9392 L 76.45887 66.78262 L 76.081632 66.78262 L 76.081632 66.422952 L 75.903865 66.422952 z M 59.736894 66.561445 L 60.103279 67.384134 L 59.368441 67.384134 L 59.736894 66.561445 z M 56.184656 66.756782 C 55.825423 66.756782 55.562471 67.043286 55.562471 67.379483 L 55.562471 67.384134 C 55.562471 67.720683 55.823064 68.00115 56.180005 68.00115 C 56.53966 68.00115 56.804256 67.71568 56.804256 67.379483 L 56.804256 67.374315 C 56.804256 67.038118 56.541596 66.756782 56.184656 66.756782 z M 64.864229 66.756782 C 64.504996 66.756782 64.242045 67.043286 64.242045 67.379483 L 64.242045 67.384134 C 64.242045 67.720683 64.502674 68.00115 64.859578 68.00115 C 65.219235 68.00115 65.48383 67.71568 65.48383 67.379483 L 65.48383 67.374315 C 65.48383 67.038118 65.221169 66.756782 64.864229 66.756782 z M 54.871557 66.757299 C 54.666523 66.757299 54.54211 66.861079 54.46383 66.989843 L 54.46383 66.78262 L 54.28658 66.78262 L 54.28658 67.973762 L 54.46383 67.973762 L 54.46383 67.291633 C 54.46383 67.068324 54.615598 66.918012 54.820915 66.918012 C 55.030358 66.918012 55.15061 67.057006 55.15061 67.278197 L 55.15061 67.973762 L 55.32786 67.973762 L 55.32786 67.233755 C 55.32786 66.950475 55.1596 66.757299 54.871557 66.757299 z M 57.640381 66.757299 C 57.435453 66.757299 57.310794 66.861079 57.232654 66.989843 L 57.232654 66.78262 L 57.055404 66.78262 L 57.055404 67.973762 L 57.232654 67.973762 L 57.232654 67.291633 C 57.232654 67.068324 57.384421 66.918012 57.589738 66.918012 C 57.799217 66.918012 57.919433 67.057006 57.919433 67.278197 L 57.919433 67.973762 L 58.096684 67.973762 L 58.096684 67.233755 C 58.096684 66.950475 57.928388 66.757299 57.640381 66.757299 z M 68.711023 66.757299 C 68.381423 66.757299 68.139481 67.033408 68.139481 67.379483 C 68.139481 67.750252 68.406971 68.00115 68.734277 68.00115 C 68.959843 68.00115 69.104813 67.911422 69.224687 67.778425 L 69.114099 67.678689 C 69.017226 67.780284 68.9021 67.847155 68.738411 67.847155 C 68.52865 67.847155 68.344395 67.701621 68.319315 67.450796 L 69.263961 67.450796 C 69.266061 67.423286 69.266028 67.404848 69.266028 67.388268 C 69.266028 67.038312 69.063553 66.757299 68.711023 66.757299 z M 73.695215 66.757299 C 73.36558 66.757299 73.123673 67.033408 73.123673 67.379483 C 73.123673 67.750252 73.391161 68.00115 73.718469 68.00115 C 73.944035 68.00115 74.089147 67.911422 74.208878 67.778425 L 74.098291 67.678689 C 74.001418 67.780284 73.886809 67.847155 73.72312 67.847155 C 73.513359 67.847155 73.328587 67.701621 73.303507 67.450796 L 74.248153 67.450796 C 74.250253 67.423286 74.25022 67.404848 74.25022 67.388268 C 74.25022 67.038312 74.04771 66.757299 73.695215 66.757299 z M 75.077043 66.757299 C 74.872009 66.757299 74.747455 66.861079 74.669315 66.989843 L 74.669315 66.78262 L 74.492065 66.78262 L 74.492065 67.973762 L 74.669315 67.973762 L 74.669315 67.291633 C 74.669315 67.068324 74.821083 66.918012 75.0264 66.918012 C 75.235843 66.918012 75.356095 67.057006 75.356095 67.278197 L 75.356095 67.973762 L 75.533345 67.973762 L 75.533345 67.233755 C 75.533345 66.950475 75.36505 66.757299 75.077043 66.757299 z M 77.166837 66.757299 C 76.837203 66.757299 76.595296 67.033408 76.595296 67.379483 C 76.595296 67.750252 76.862303 68.00115 77.189575 68.00115 C 77.415176 68.00115 77.560486 67.911422 77.680501 67.778425 L 77.569914 67.678689 C 77.473183 67.780284 77.357951 67.847155 77.194226 67.847155 C 76.9845 67.847155 76.80021 67.701621 76.77513 67.450796 L 77.719775 67.450796 C 77.721775 67.423286 77.721842 67.404848 77.721842 67.388268 C 77.721842 67.038312 77.519192 66.757299 77.166837 66.757299 z M 66.377315 66.761433 C 66.161856 66.761661 65.996983 66.901813 65.912227 67.093195 L 65.912227 66.78262 L 65.734977 66.78262 L 65.734977 67.973762 L 65.912227 67.973762 L 65.912227 67.499372 C 65.912227 67.13954 66.124235 66.952635 66.38455 66.952635 L 66.398502 66.952635 L 66.398502 66.761949 C 66.391448 66.761663 66.384265 66.761425 66.377315 66.761433 z M 78.605509 66.761433 C 78.390057 66.761661 78.225206 66.901813 78.140421 67.093195 L 78.140421 66.78262 L 77.963171 66.78262 L 77.963171 67.973762 L 78.140421 67.973762 L 78.140421 67.499372 C 78.140421 67.13954 78.352288 66.952635 78.612744 66.952635 L 78.626697 66.952635 L 78.626697 66.761949 C 78.619642 66.761663 78.612459 66.761425 78.605509 66.761433 z M 67.49921 66.761949 C 67.264261 66.761949 67.09355 66.897698 67.09355 67.103014 L 67.09355 67.107148 C 67.09355 67.326223 67.301023 67.391158 67.487325 67.444078 C 67.644134 67.487469 67.784464 67.533423 67.784464 67.653368 L 67.784464 67.658536 C 67.784464 67.773541 67.680878 67.847155 67.537968 67.847155 C 67.39728 67.847155 67.254707 67.792079 67.12559 67.694709 L 67.03619 67.821833 C 67.169575 67.929781 67.35858 67.996499 67.529183 67.996499 C 67.76618 67.996499 67.95293 67.865546 67.95293 67.639415 L 67.95293 67.634764 C 67.95293 67.420628 67.75478 67.34944 67.570524 67.2937 C 67.411668 67.24537 67.264083 67.202467 67.264083 67.089578 L 67.264083 67.08441 C 67.264083 66.985279 67.353496 66.911811 67.494043 66.911811 C 67.609542 66.911811 67.736468 66.955623 67.846993 67.026533 L 67.927608 66.893724 C 67.805406 66.812228 67.644307 66.761949 67.49921 66.761949 z M 53.471126 66.764017 C 53.296148 66.764017 53.169417 66.805332 53.038078 66.865302 L 53.090788 67.010513 C 53.201455 66.959363 53.311976 66.925247 53.452523 66.925247 C 53.67576 66.925247 53.804956 67.036042 53.804956 67.247708 L 53.804956 67.284915 C 53.698982 67.254575 53.593412 67.234272 53.441154 67.234272 C 53.139352 67.234272 52.931624 67.367985 52.931624 67.623396 L 52.931624 67.628046 C 52.931624 67.872521 53.152898 67.9996 53.376558 67.9996 C 53.586284 67.9996 53.722016 67.902181 53.804956 67.795995 L 53.804956 67.973762 L 53.980139 67.973762 L 53.980139 67.245641 C 53.980139 67.093241 53.938539 66.978341 53.855599 66.895791 C 53.770579 66.810416 53.639119 66.764017 53.471126 66.764017 z M 60.736316 66.78262 L 60.736316 67.52211 C 60.736316 67.806095 60.904611 67.9996 61.192619 67.9996 C 61.397688 67.9996 61.519359 67.895655 61.599829 67.766539 L 61.599829 67.973762 L 61.775529 67.973762 L 61.775529 66.78262 L 61.599829 66.78262 L 61.599829 67.464749 C 61.599829 67.688057 61.445685 67.837853 61.243262 67.837853 C 61.033395 67.837853 60.913566 67.699893 60.913566 67.478702 L 60.913566 66.78262 L 60.736316 66.78262 z M 66.61451 66.78262 L 66.61451 67.973762 L 66.792277 67.973762 L 66.792277 66.78262 L 66.61451 66.78262 z M 68.706372 66.90716 C 68.941322 66.90716 69.065751 67.091047 69.08671 67.307653 L 68.319315 67.307653 C 68.344398 67.077289 68.501302 66.90716 68.706372 66.90716 z M 73.690564 66.90716 C 73.925514 66.90716 74.049942 67.091047 74.070902 67.307653 L 73.303507 67.307653 C 73.32859 67.077289 73.485636 66.90716 73.690564 66.90716 z M 77.16167 66.90716 C 77.39662 66.90716 77.521088 67.091047 77.542008 67.307653 L 76.77513 67.307653 C 76.800213 67.077289 76.956777 66.90716 77.16167 66.90716 z M 56.180005 66.913878 C 56.431218 66.913878 56.622355 67.12372 56.622355 67.379483 L 56.622355 67.384134 C 56.622355 67.634958 56.442783 67.841987 56.184656 67.841987 C 55.933443 67.841987 55.744372 67.634895 55.744372 67.379483 L 55.744372 67.374315 C 55.744372 67.12349 55.921877 66.913878 56.180005 66.913878 z M 64.859578 66.913878 C 65.110791 66.913878 65.301929 67.12372 65.301929 67.379483 L 65.301929 67.384134 C 65.301929 67.634958 65.122356 67.841987 64.864229 67.841987 C 64.613157 67.841987 64.423946 67.634895 64.423946 67.379483 L 64.423946 67.374315 C 64.423946 67.12349 64.601593 66.913878 64.859578 66.913878 z M 70.039624 66.915945 C 70.260816 66.915945 70.470605 67.100206 70.470605 67.374315 L 70.470605 67.379483 C 70.470605 67.653592 70.260816 67.83992 70.039624 67.83992 C 69.813917 67.83992 69.620528 67.660647 69.620528 67.379483 L 69.620528 67.374315 C 69.620528 67.086448 69.809084 66.915945 70.039624 66.915945 z M 53.459757 67.374315 C 53.60489 67.374315 53.71973 67.399725 53.80754 67.425475 L 53.80754 67.535546 C 53.80754 67.724987 53.63015 67.85594 53.411182 67.85594 C 53.249962 67.85594 53.111458 67.768322 53.111458 67.618745 L 53.111458 67.614094 C 53.111458 67.471576 53.238601 67.374315 53.459757 67.374315 z "
       inkscape:label="Canon Authorised Center" />
    <path
       id="path41"
       d="m 96.878812,78.185917 c 1.211296,0 1.971973,-0.467155 2.666504,-1.174088 l -0.49196,-0.483692 c -0.640787,0.607715 -1.240234,0.959115 -2.153873,0.959115 -1.467611,0 -2.579687,-1.207162 -2.579687,-2.749186 v -0.02067 c 0,-1.533756 1.103808,-2.732649 2.579687,-2.732649 0.905371,0 1.533756,0.380338 2.095996,0.913639 l 0.51263,-0.553971 c -0.665592,-0.628386 -1.389062,-1.0542 -2.600358,-1.0542 -1.95957,0 -3.369303,1.558561 -3.369303,3.447852 v 0.01654 c 0,1.914095 1.418001,3.431315 3.340364,3.431315 z m 4.850348,-0.0124 c 0.86817,0 1.43041,-0.396875 1.77354,-0.835091 v 0.731738 h 0.72347 v -3.009635 c 0,-0.628386 -0.17364,-1.103809 -0.51677,-1.44694 -0.3514,-0.355534 -0.89297,-0.545703 -1.59163,-0.545703 -0.72347,0 -1.24437,0.173632 -1.79007,0.421679 l 0.21911,0.599447 c 0.45888,-0.21084 0.91363,-0.3514 1.49654,-0.3514 0.92191,0 1.45935,0.454753 1.45935,1.331185 v 0.152962 c -0.43822,-0.124023 -0.87644,-0.21084 -1.50895,-0.21084 -1.24437,0 -2.104269,0.553972 -2.104269,1.612305 v 0.01654 c 0,1.012858 0.913639,1.533757 1.839679,1.533757 z m 0.1447,-0.591179 c -0.66973,0 -1.24024,-0.359667 -1.24024,-0.979785 v -0.01654 c 0,-0.591178 0.52503,-0.992188 1.43867,-0.992188 0.59945,0 1.07487,0.103353 1.43868,0.21084 v 0.454753 c 0,0.781347 -0.73588,1.322916 -1.63711,1.322916 z M 105.3,78.070162 h 0.73588 v -2.819466 c 0,-0.921907 0.62838,-1.542025 1.47587,-1.542025 0.86403,0 1.36013,0.570508 1.36013,1.484147 v 2.877344 h 0.73587 v -3.059245 c 0,-1.169954 -0.69866,-1.971972 -1.88929,-1.971972 -0.84749,0 -1.36012,0.429948 -1.68258,0.963248 V 73.146432 H 105.3 Z m 7.63985,0.115755 c 1.48414,0 2.57968,-1.182357 2.57968,-2.571419 v -0.02067 c 0,-1.389062 -1.08313,-2.554882 -2.56315,-2.554882 -1.48414,0 -2.57142,1.182356 -2.57142,2.575553 v 0.01654 c 0,1.393197 1.07901,2.554883 2.55489,2.554883 z m 0.0165,-0.657324 c -1.03766,0 -1.81901,-0.859896 -1.81901,-1.914095 v -0.02067 c 0,-1.037662 0.73588,-1.905826 1.80248,-1.905826 1.03766,0 1.82728,0.868164 1.82728,1.926497 v 0.01654 c 0,1.037663 -0.74001,1.897559 -1.81075,1.897559 z m 3.41168,0.541569 h 0.73587 v -2.819466 c 0,-0.921907 0.62839,-1.542025 1.47588,-1.542025 0.86403,0 1.36013,0.570508 1.36013,1.484147 v 2.877344 h 0.73587 v -3.059245 c 0,-1.169954 -0.69867,-1.971972 -1.88929,-1.971972 -0.8475,0 -1.36013,0.429948 -1.68259,0.963248 v -0.855761 h -0.73587 z m 7.89616,0 h 2.96416 c 1.45521,0 2.41846,-0.677995 2.41846,-1.81901 v -0.02067 c 0,-0.913639 -0.64079,-1.368392 -1.43041,-1.60817 0.52503,-0.227377 1.05834,-0.677995 1.05834,-1.542025 v -0.02067 c 0,-0.429948 -0.15297,-0.781348 -0.42995,-1.066602 -0.38034,-0.37207 -0.97979,-0.591178 -1.74046,-0.591178 h -2.84014 z m 0.74414,-3.695898 V 72.07983 h 2.02985 c 0.95085,0 1.47588,0.425814 1.47588,1.083138 v 0.02067 c 0,0.781348 -0.62839,1.190625 -1.53376,1.190625 z m 0,3.017903 v -2.352311 h 2.10426 c 1.16169,0 1.77354,0.42168 1.77354,1.14515 v 0.01654 c 0,0.744141 -0.63252,1.190625 -1.64124,1.190625 z m 7.34322,0.781348 c 0.8475,0 1.35186,-0.425814 1.68672,-0.959115 v 0.855762 h 0.72347 v -4.92373 h -0.72347 v 2.819466 c 0,0.921907 -0.64079,1.542024 -1.47588,1.542024 -0.86816,0 -1.36426,-0.570507 -1.36426,-1.484147 v -2.877343 h -0.73174 v 3.05511 c 0,1.174089 0.69454,1.971973 1.88516,1.971973 z m 5.20899,-0.0083 c 0.97978,0 1.75286,-0.541569 1.75286,-1.475879 v -0.02067 c 0,-0.8847 -0.81856,-1.178222 -1.57923,-1.409733 C 137.07684,75.060496 136.465,74.878595 136.465,74.41144 V 74.3949 c 0,-0.409277 0.37207,-0.715202 0.95498,-0.715202 0.47542,0 0.99632,0.181901 1.4552,0.475423 l 0.33487,-0.553971 c -0.50437,-0.330729 -1.17409,-0.541569 -1.77354,-0.541569 -0.97151,0 -1.67431,0.56224 -1.67431,1.409733 v 0.02067 c 0,0.905371 0.85576,1.169955 1.62884,1.389063 0.64492,0.181901 1.22783,0.37207 1.22783,0.868164 v 0.01654 c 0,0.479557 -0.42995,0.781348 -1.02113,0.781348 -0.57877,0 -1.16995,-0.227376 -1.70325,-0.628386 l -0.37207,0.525033 c 0.55397,0.446484 1.33532,0.72347 2.03812,0.723469 z m 2.65823,-6.097819 h 0.83923 v -0.806152 h -0.83923 z m 0.0455,6.002734 h 0.73587 V 73.1464 h -0.73587 z m 1.96267,0 h 0.73587 v -2.819466 c 0,-0.921907 0.62838,-1.542025 1.47588,-1.542025 0.86403,0 1.36012,0.570508 1.36012,1.484147 v 2.877344 h 0.73587 v -3.059245 c 0,-1.169954 -0.69866,-1.971972 -1.88929,-1.971972 -0.84749,0 -1.36012,0.429948 -1.68258,0.963248 V 73.1464 h -0.73587 z m 5.8291,-2.162142 h 3.90674 c 0.008,-0.115755 0.008,-0.190169 0.008,-0.256315 0,-1.44694 -0.83923,-2.61276 -2.29443,-2.61276 -1.36426,0 -2.36472,1.145149 -2.36472,2.575553 0,1.533756 1.10794,2.571419 2.4598,2.571419 0.93431,0 1.53376,-0.37207 2.02985,-0.926041 l -0.45889,-0.409278 c -0.401,0.417546 -0.87643,0.694531 -1.55442,0.694531 -0.86403,0 -1.62884,-0.599446 -1.7322,-1.637109 z m 0,-0.591178 c 0.10335,-0.950847 0.75241,-1.65778 1.5999,-1.65778 0.97152,0 1.48828,0.764811 1.57096,1.65778 z m 6.3531,2.848405 c 0.97978,0 1.75286,-0.541569 1.75286,-1.475879 v -0.02067 c 0,-0.8847 -0.81855,-1.178222 -1.57923,-1.409733 -0.65732,-0.198437 -1.26917,-0.380338 -1.26917,-0.847493 V 74.3949 c 0,-0.409277 0.37207,-0.715202 0.95498,-0.715202 0.47542,0 0.99632,0.181901 1.4552,0.475423 l 0.33487,-0.553971 c -0.50436,-0.330729 -1.17409,-0.541569 -1.77354,-0.541569 -0.97151,0 -1.67431,0.56224 -1.67431,1.409733 v 0.02067 c 0,0.905371 0.85576,1.169955 1.62884,1.389063 0.64492,0.181901 1.22783,0.37207 1.22783,0.868164 v 0.01654 c 0,0.479557 -0.42995,0.781348 -1.02113,0.781348 -0.57877,0 -1.16995,-0.227376 -1.70325,-0.628386 l -0.37207,0.525033 c 0.55397,0.446484 1.33532,0.72347 2.03812,0.723469 z m 4.17235,0 c 0.97979,0 1.75287,-0.541569 1.75287,-1.475879 v -0.02067 c 0,-0.8847 -0.81856,-1.178222 -1.57923,-1.409733 -0.65733,-0.198437 -1.26918,-0.380338 -1.26918,-0.847493 V 74.3949 c 0,-0.409277 0.37207,-0.715202 0.95498,-0.715202 0.47543,0 0.99632,0.181901 1.45521,0.475423 L 160.231,73.60115 c -0.50436,-0.330729 -1.17408,-0.541569 -1.77353,-0.541569 -0.97152,0 -1.67432,0.56224 -1.67432,1.409733 v 0.02067 c 0,0.905371 0.85577,1.169955 1.62884,1.389063 0.64493,0.181901 1.22784,0.37207 1.22784,0.868164 v 0.01654 c 0,0.479557 -0.42995,0.781348 -1.02113,0.781348 -0.57878,0 -1.16996,-0.227376 -1.70326,-0.628386 l -0.37206,0.525033 c 0.55397,0.446484 1.33531,0.72347 2.03811,0.723469 z m 8.18968,0.02067 c 1.2113,0 1.97198,-0.467155 2.66651,-1.174088 l -0.49196,-0.483692 c -0.64079,0.607715 -1.24024,0.959115 -2.15388,0.959115 -1.46761,0 -2.57968,-1.207162 -2.57968,-2.749186 v -0.02067 c 0,-1.533756 1.1038,-2.732649 2.57968,-2.732649 0.90537,0 1.53376,0.380338 2.096,0.913639 l 0.51263,-0.553971 c -0.66559,-0.628386 -1.38906,-1.0542 -2.60036,-1.0542 -1.95957,0 -3.3693,1.558561 -3.3693,3.447852 v 0.01654 c 0,1.914095 1.418,3.431315 3.34036,3.431315 z m 3.72484,-2.277897 h 3.90674 c 0.008,-0.115755 0.008,-0.190169 0.008,-0.256315 0,-1.44694 -0.83922,-2.61276 -2.29443,-2.61276 -1.36425,0 -2.36471,1.145149 -2.36471,2.575553 0,1.533756 1.10794,2.571419 2.4598,2.571419 0.93431,0 1.53376,-0.37207 2.02985,-0.926041 l -0.45889,-0.409278 c -0.40101,0.417546 -0.87643,0.694531 -1.55443,0.694531 -0.86402,0 -1.62884,-0.599446 -1.73219,-1.637109 z m 0,-0.591178 c 0.10335,-0.950847 0.75241,-1.65778 1.5999,-1.65778 0.97152,0 1.48828,0.764811 1.57097,1.65778 z m 4.72426,2.75332 h 0.73587 v -2.819466 c 0,-0.921907 0.62839,-1.542025 1.47588,-1.542025 0.86403,0 1.36012,0.570508 1.36012,1.484147 v 2.877344 h 0.73588 v -3.059245 c 0,-1.169954 -0.69867,-1.971972 -1.88929,-1.971972 -0.8475,0 -1.36013,0.429948 -1.68259,0.963248 V 73.1464 h -0.73587 z m 7.0404,0.08682 c 0.35139,0 0.62838,-0.07855 0.8847,-0.210839 v -0.628386 c -0.25632,0.124024 -0.46716,0.169499 -0.7152,0.169499 -0.4961,0 -0.82683,-0.219108 -0.82683,-0.818555 V 73.79546 h 1.5627 v -0.649056 h -1.5627 v -1.488281 h -0.73587 v 1.488281 h -0.68626 v 0.649056 h 0.68626 v 2.968294 c 0,1.000455 0.60358,1.393196 1.3932,1.393196 z m 2.01848,-2.248958 h 3.90674 c 0.008,-0.115755 0.008,-0.190169 0.008,-0.256315 0,-1.44694 -0.83923,-2.61276 -2.29443,-2.61276 -1.36426,0 -2.36472,1.145149 -2.36472,2.575553 0,1.533756 1.10795,2.571419 2.4598,2.571419 0.93431,0 1.53376,-0.37207 2.02985,-0.926041 l -0.45888,-0.409278 c -0.40101,0.417546 -0.87644,0.694531 -1.55443,0.694531 -0.86403,0 -1.62884,-0.599446 -1.7322,-1.637109 z m 0,-0.591178 c 0.10335,-0.950847 0.75241,-1.65778 1.5999,-1.65778 0.97152,0 1.48828,0.764811 1.57096,1.65778 z m 4.72426,2.75332 h 0.73587 V 76.10643 c 0,-1.484147 0.87643,-2.257227 1.9513,-2.257227 h 0.0579 v -0.789616 c -0.93431,-0.03721 -1.64951,0.553972 -2.00918,1.372526 v -1.285709 h -0.73587 z m 0,0"
       style="fill:#231f20;fill-opacity:1;fill-rule:nonzero;stroke:none;stroke-width:0.352778"
       aria-label="Canon Business Center"
       inkscape:label="Canon Business Center" />
    <path
       id="path42"
       d="m 94.919242,118.73642 c 0.826823,0 1.389063,-0.65319 1.389063,-1.4056 v -0.008 c 0,-0.74828 -0.553972,-1.39733 -1.380795,-1.39733 -0.826823,0 -1.389062,0.65732 -1.389062,1.4056 v 0.008 c 0,0.74827 0.553971,1.39733 1.380794,1.39733 z m 0.0083,-0.28112 c -0.620117,0 -1.070735,-0.50437 -1.070735,-1.12448 v -0.008 c 0,-0.61598 0.44235,-1.11208 1.062467,-1.11208 0.620117,0 1.070736,0.50436 1.070736,1.12035 v 0.008 c 0,0.62011 -0.442351,1.11621 -1.062468,1.11621 z m 1.863452,0.85576 h 0.297657 v -1.00459 c 0.157096,0.22737 0.396875,0.42581 0.768945,0.42581 0.483691,0 0.959115,-0.3886 0.959115,-1.0418 v -0.008 c 0,-0.66146 -0.479558,-1.0418 -0.959115,-1.0418 -0.367936,0 -0.607715,0.20671 -0.768945,0.44648 v -0.401 h -0.297657 z m 1.012858,-0.84336 c -0.37207,0 -0.727604,-0.31419 -0.727604,-0.77722 v -0.008 c 0,-0.45889 0.355534,-0.77308 0.727604,-0.77308 0.380339,0 0.706934,0.30179 0.706934,0.77721 v 0.008 c 0,0.48369 -0.318327,0.77308 -0.706934,0.77308 z m 1.624707,-0.65733 h 1.591631 c 0.004,-0.0455 0.004,-0.0785 0.004,-0.10748 0,-0.58705 -0.34313,-1.06247 -0.93431,-1.06247 -0.558107,0 -0.96325,0.46715 -0.96325,1.05006 0,0.62426 0.450618,1.04594 1.00046,1.04594 0.38033,0 0.62425,-0.14883 0.82682,-0.37621 l -0.18604,-0.16536 c -0.16536,0.1695 -0.35553,0.28112 -0.63252,0.28112 -0.355531,0 -0.66559,-0.24392 -0.706931,-0.6656 z m 0,-0.23977 c 0.04134,-0.38861 0.305925,-0.678 0.653191,-0.678 0.39274,0 0.60358,0.31006 0.64079,0.678 z m 2.002981,1.12034 h 0.29765 v -0.79788 c 0,-0.60772 0.35554,-0.92191 0.79789,-0.92191 h 0.0207 v -0.32246 c -0.38034,-0.0165 -0.66973,0.22737 -0.81856,0.5581 v -0.52089 h -0.29765 z m 1.95337,0.0413 c 0.35553,0 0.58291,-0.16123 0.72347,-0.339 v 0.29766 h 0.29352 v -1.22783 c 0,-0.25632 -0.0703,-0.45062 -0.20671,-0.58705 -0.14469,-0.14469 -0.36793,-0.22324 -0.64905,-0.22324 -0.29766,0 -0.5085,0.0703 -0.73174,0.1695 l 0.0909,0.24391 c 0.18604,-0.0827 0.37207,-0.14056 0.60772,-0.14056 0.3762,0 0.59531,0.18604 0.59531,0.54157 v 0.062 c -0.17777,-0.0496 -0.35554,-0.0827 -0.61185,-0.0827 -0.5085,0 -0.8599,0.22324 -0.8599,0.65319 v 0.008 c 0,0.41341 0.37207,0.62425 0.74828,0.62425 z m 0.0579,-0.23978 c -0.26872,0 -0.50437,-0.14882 -0.50437,-0.40101 v -0.004 c 0,-0.24391 0.21498,-0.40514 0.58705,-0.40514 0.24391,0 0.43821,0.0413 0.58704,0.0868 v 0.18604 c 0,0.31832 -0.29765,0.53743 -0.66972,0.53743 z m 2.12803,0.23151 c 0.14469,0 0.25632,-0.0289 0.3638,-0.0827 v -0.25631 c -0.10748,0.0496 -0.19017,0.0703 -0.29352,0.0703 -0.20257,0 -0.339,-0.0909 -0.339,-0.33487 v -1.17409 h 0.63666 v -0.26044 h -0.63666 v -0.60772 h -0.29765 v 0.60772 h -0.28112 v 0.26044 h 0.28112 v 1.2113 c 0,0.40928 0.24391,0.56637 0.56637,0.56637 z m 0.90124,-0.91364 h 1.59163 c 0.004,-0.0455 0.004,-0.0785 0.004,-0.10748 0,-0.58705 -0.34314,-1.06247 -0.93431,-1.06247 -0.55811,0 -0.96325,0.46715 -0.96325,1.05006 0,0.62426 0.45062,1.04594 1.00045,1.04594 0.38034,0 0.62425,-0.14883 0.82683,-0.37621 l -0.18604,-0.16536 c -0.16536,0.1695 -0.35553,0.28112 -0.63252,0.28112 -0.35553,0 -0.66559,-0.24392 -0.70693,-0.6656 z m 0,-0.23977 c 0.0413,-0.38861 0.30592,-0.678 0.65319,-0.678 0.39274,0 0.60358,0.31006 0.64079,0.678 z m 2.84634,1.16168 c 0.36793,0 0.60358,-0.20257 0.76481,-0.44648 v 0.40514 h 0.30179 v -2.83187 h -0.30179 v 1.20716 c -0.15297,-0.22324 -0.39274,-0.42581 -0.76481,-0.42581 -0.4837,0 -0.95912,0.38861 -0.95912,1.04593 v 0.008 c 0,0.65732 0.47542,1.03766 0.95912,1.03766 z m 0.0537,-0.26458 c -0.38034,0 -0.70693,-0.30593 -0.70693,-0.77722 v -0.008 c 0,-0.48783 0.31832,-0.77308 0.70693,-0.77308 0.37207,0 0.72347,0.31006 0.72347,0.77308 v 0.008 c 0,0.45889 -0.3514,0.77722 -0.72347,0.77722 z m 3.67729,0.26458 c 0.4837,0 0.95912,-0.3886 0.95912,-1.0418 v -0.008 c 0,-0.66146 -0.47956,-1.0418 -0.95912,-1.0418 -0.36793,0 -0.60771,0.20671 -0.76894,0.44648 v -1.22783 h -0.29766 v 2.83187 h 0.29766 v -0.38447 c 0.15709,0.22737 0.39687,0.42581 0.76894,0.42581 z m -0.0537,-0.26458 c -0.37207,0 -0.7276,-0.31419 -0.7276,-0.77722 v -0.008 c 0,-0.45889 0.35553,-0.77308 0.7276,-0.77308 0.38034,0 0.70693,0.30179 0.70693,0.77721 v 0.008 c 0,0.48369 -0.31832,0.77308 -0.70693,0.77308 z m 1.66088,0.85576 c 0.30179,0 0.49609,-0.15296 0.66559,-0.56637 l 0.84336,-2.07119 h -0.31832 l -0.64493,1.67018 -0.7276,-1.67018 h -0.33078 l 0.91364,1.99677 c -0.12402,0.28526 -0.23564,0.37621 -0.41341,0.37621 -0.12816,0 -0.21911,-0.0207 -0.31419,-0.0744 l -0.0992,0.23978 c 0.13229,0.0662 0.25631,0.0992 0.42581,0.0992 z m 2.92179,-3.07992 h 0.33899 v -0.32659 h -0.33899 z m 0.0165,2.4474 h 0.30179 v -2.00504 h -0.30179 z m 0.92914,0 h 0.94258 c 0.85576,0 1.44281,-0.59531 1.44281,-1.36012 v -0.008 c 0,-0.76481 -0.58705,-1.34772 -1.44281,-1.34772 h -0.94258 z m 0.30593,-0.28525 v -2.14974 h 0.63665 c 0.68627,0 1.12448,0.47542 1.12448,1.07487 v 0.008 c 0,0.60358 -0.43821,1.0666 -1.12448,1.0666 z m 3.47575,0.33073 c 0.60772,0 1.0542,-0.47956 1.0542,-1.04594 v -0.008 c 0,-0.56638 -0.44235,-1.0418 -1.04593,-1.0418 -0.60358,0 -1.04593,0.48369 -1.04593,1.05007 v 0.008 c 0,0.56638 0.43822,1.03767 1.03766,1.03767 z m 0.008,-0.26872 c -0.42168,0 -0.74,-0.34727 -0.74,-0.77722 v -0.008 c 0,-0.42168 0.29765,-0.77722 0.73174,-0.77722 0.42581,0 0.74827,0.35554 0.74827,0.78549 v 0.008 c 0,0.42168 -0.30592,0.76895 -0.74001,0.76895 z m 2.37402,0.26872 c 0.3762,0 0.61598,-0.16123 0.81855,-0.38861 L 125.3161,118.17 c -0.16123,0.1695 -0.35966,0.29766 -0.61598,0.29766 -0.41754,0 -0.73587,-0.34313 -0.73587,-0.77722 v -0.008 c 0,-0.42995 0.31006,-0.77722 0.71934,-0.77722 0.26871,0 0.45061,0.13643 0.60771,0.30179 l 0.19844,-0.2067 c -0.18604,-0.19844 -0.42168,-0.35967 -0.80202,-0.35967 -0.58704,0 -1.0294,0.48369 -1.0294,1.05007 v 0.008 c 0,0.56224 0.44236,1.03767 1.0294,1.03767 z m 1.86448,-0.0124 c 0.1447,0 0.25632,-0.0289 0.36381,-0.0827 v -0.25631 c -0.10749,0.0496 -0.19017,0.0703 -0.29353,0.0703 -0.20257,0 -0.33899,-0.0909 -0.33899,-0.33487 v -1.17409 h 0.63665 v -0.26044 h -0.63665 v -0.60772 h -0.29766 v 0.60772 h -0.28112 v 0.26044 h 0.28112 v 1.2113 c 0,0.40928 0.24391,0.56637 0.56637,0.56637 z m 1.37666,0.008 c 0.35554,0 0.58291,-0.16123 0.72347,-0.339 v 0.29766 h 0.29353 v -1.22783 c 0,-0.25632 -0.0703,-0.45062 -0.20671,-0.58705 -0.14469,-0.14469 -0.36794,-0.22324 -0.64906,-0.22324 -0.29765,0 -0.50849,0.0703 -0.73173,0.1695 l 0.0909,0.24391 c 0.18603,-0.0827 0.37207,-0.14056 0.60771,-0.14056 0.37621,0 0.59531,0.18604 0.59531,0.54157 v 0.062 c -0.17776,-0.0496 -0.35553,-0.0827 -0.61184,-0.0827 -0.5085,0 -0.8599,0.22324 -0.8599,0.65319 v 0.008 c 0,0.41341 0.37207,0.62425 0.74827,0.62425 z m 0.0579,-0.23978 c -0.26872,0 -0.50436,-0.14882 -0.50436,-0.40101 v -0.004 c 0,-0.24391 0.21497,-0.40514 0.58704,-0.40514 0.24392,0 0.43822,0.0413 0.58705,0.0868 v 0.18604 c 0,0.31832 -0.29766,0.53743 -0.66973,0.53743 z m 0,0"
       style="fill:#3e444f;fill-opacity:1;fill-rule:nonzero;stroke:none;stroke-width:0.352778"
       aria-label="Operated by iDocta"
       inkscape:label="Operated by iDocta" />
    <path
       id="path60"
       style="fill:#3e444f;fill-opacity:1;fill-rule:nonzero;stroke:none;stroke-width:0.352778"
       d="m 97.734057,81.882056 -1.384928,4.196126 -1.277441,-4.17959 h -1.455209 l 2.108399,6.217709 h 1.182357 l 1.393196,-4.03903 1.393197,4.03903 h 1.178222 l 2.10839,-6.217709 h -1.418 l -1.27743,4.17959 -1.384932,-4.196126 z m 12.891203,1.371492 c -0.70363,0.02147 -1.10846,0.430466 -1.36426,1.042831 v -0.950847 h -1.33945 v 4.725293 h 1.33945 v -1.744596 c 0,-1.128611 0.54984,-1.666048 1.43867,-1.666048 h 0.0703 v -1.405599 c -0.0496,-0.0021 -0.0978,-0.002 -0.14469,-5.17e-4 z m 2.69441,0.001 c -1.37666,0 -2.33578,1.112078 -2.33578,2.459798 v 0.02067 c 0,1.446937 1.04593,2.443261 2.46807,2.443261 0.85576,0 1.48828,-0.334865 1.93063,-0.8847 l -0.76895,-0.677995 c -0.36793,0.343131 -0.69453,0.483691 -1.14515,0.483691 -0.59944,0 -1.02111,-0.314193 -1.15341,-0.926041 h 3.28662 c 0.008,-0.119888 0.0207,-0.243913 0.0207,-0.3514 0,-1.339451 -0.72348,-2.567285 -2.3027,-2.567285 z m 4.92269,0 c -1.08727,0 -2.10013,0.793752 -2.10013,2.207617 v 0.01654 c 0,1.401462 0.99632,2.203484 2.10013,2.203484 0.71107,0 1.14515,-0.289389 1.54203,-0.764812 v 0.227377 c 0,0.847492 -0.43409,1.285709 -1.35186,1.285709 -0.62425,0 -1.10794,-0.157096 -1.59577,-0.429948 l -0.45888,1.00459 c 0.59944,0.318327 1.32291,0.496094 2.09186,0.496094 0.91777,0 1.59577,-0.194303 2.03812,-0.636654 0.39687,-0.396874 0.59944,-1.01286 0.59944,-1.860351 v -3.658692 h -1.33945 v 0.615983 c -0.3638,-0.396873 -0.79375,-0.706933 -1.52549,-0.706933 z m 5.90765,0 c -1.37666,0 -2.33577,1.112078 -2.33577,2.459798 v 0.02067 c 0,1.446937 1.04595,2.443261 2.46806,2.443261 0.85576,0 1.48829,-0.334865 1.93064,-0.8847 l -0.76895,-0.677995 c -0.36794,0.343131 -0.69453,0.483691 -1.14515,0.483691 -0.59945,0 -1.02113,-0.314193 -1.15342,-0.926041 h 3.28662 c 0.008,-0.119888 0.0207,-0.243913 0.0207,-0.3514 0,-1.339451 -0.72347,-2.567285 -2.3027,-2.567285 z m 5.76606,0 c -0.678,0 -1.08314,0.363802 -1.3932,0.760677 v -0.669727 h -1.33945 v 4.725293 h 1.33945 V 85.43326 c 0,-0.632518 0.31006,-0.959114 0.81029,-0.959114 0.50436,0 0.78548,0.326597 0.78548,0.959114 v 2.637565 h 1.34359 V 85.43326 c 0,-0.632518 0.30592,-0.959114 0.81028,-0.959114 0.50023,0 0.78549,0.326597 0.78549,0.959114 v 2.637565 h 1.33945 v -3.075781 c 0,-1.141013 -0.59945,-1.740462 -1.59577,-1.740462 -0.64492,0 -1.13688,0.264584 -1.55443,0.752409 -0.24391,-0.475422 -0.71107,-0.752409 -1.33118,-0.752409 z m -24.99176,0.03721 c -0.80615,0 -1.31466,0.148828 -1.83554,0.380338 l 0.33486,1.021127 c 0.42995,-0.157095 0.79375,-0.256315 1.30638,-0.256315 0.66972,0 1.01286,0.310059 1.01286,0.86403 v 0.07855 c -0.33487,-0.11162 -0.678,-0.19017 -1.15342,-0.19017 -1.12035,0 -1.90583,0.475426 -1.90583,1.504818 v 0.02067 c 0,0.934309 0.73175,1.442806 1.62058,1.442806 0.65317,0 1.1038,-0.235646 1.4304,-0.599447 v 0.51263 h 1.29398 v -2.740918 c 0,-0.636652 -0.1571,-1.157552 -0.5085,-1.508952 -0.33486,-0.334861 -0.86403,-0.529166 -1.59577,-0.529166 z m 8.39536,1.041797 c 0.56222,0 0.91777,0.405145 0.99632,1.00459 h -2.02159 c 0.10749,-0.607714 0.46717,-1.00459 1.02527,-1.00459 z m 10.83034,0 c 0.56224,0 0.91777,0.405145 0.99632,1.00459 h -2.02158 c 0.10749,-0.607714 0.46716,-1.00459 1.02526,-1.00459 z m -5.52318,0.03307 c 0.65319,0 1.15756,0.45062 1.15756,1.09554 v 0.01654 c 0,0.644921 -0.50437,1.091407 -1.15756,1.091407 -0.64903,0 -1.14514,-0.438217 -1.14514,-1.091407 v -0.01654 c 0,-0.64492 0.49611,-1.09554 1.14514,-1.09554 z m -13.72319,1.624707 c 0.3266,0 0.62839,0.07028 0.85576,0.173632 v 0.239779 c 0,0.483691 -0.42168,0.826823 -1.05006,0.826823 -0.42995,0 -0.73174,-0.21084 -0.73174,-0.570508 v -0.02067 c 0,-0.421679 0.35553,-0.649057 0.92604,-0.649056 z M 96.853491,89.7911 c -1.868617,0 -3.237012,1.438674 -3.237012,3.191536 v 0.02067 c 0,1.82314 1.322921,3.175 3.24528,3.175 1.128611,0 2.000913,-0.442351 2.637565,-0.979785 V 92.51548 h -2.68304 v 1.174089 h 1.368392 v 0.880566 c -0.343132,0.248046 -0.785482,0.37207 -1.277441,0.37207 -1.095538,0 -1.872754,-0.830959 -1.872754,-1.95957 v -0.01654 c 0,-1.050063 0.785484,-1.922364 1.773535,-1.922364 0.715201,0 1.136883,0.231512 1.616439,0.628386 l 0.851627,-1.033529 c -0.640787,-0.545704 -1.310517,-0.847493 -2.422591,-0.847493 z m 14.135569,0.343131 v 1.211296 h -0.56224 v 1.14515 h 0.56224 v 2.24069 c 0,1.091404 0.5581,1.418001 1.37666,1.418001 0.45062,0 0.77721,-0.103355 1.05833,-0.272852 v -1.074869 c -0.1943,0.103352 -0.41342,0.165364 -0.66146,0.165364 -0.29765,0 -0.42994,-0.148828 -0.42994,-0.458887 v -2.017447 h 1.10794 v -1.14515 h -1.10794 v -1.211296 z m -8.48217,1.120345 c -1.37666,0 -2.33577,1.11208 -2.33577,2.459798 v 0.02067 c 0,1.446938 1.04592,2.443262 2.46806,2.443262 0.85576,0 1.48828,-0.334865 1.93063,-0.884701 l -0.76894,-0.677995 c -0.36794,0.343131 -0.69453,0.483692 -1.14515,0.483692 -0.59945,0 -1.02113,-0.314194 -1.15342,-0.926042 h 3.28662 c 0.008,-0.119889 0.0207,-0.243914 0.0207,-0.3514 0,-1.33945 -0.72347,-2.567285 -2.3027,-2.567285 z m 5.75779,0 c -0.678,0 -1.07487,0.363803 -1.38493,0.760677 v -0.669726 h -1.33945 v 4.725293 h 1.33945 v -2.637565 c 0,-0.632518 0.32659,-0.959115 0.83922,-0.959115 0.51262,0 0.81029,0.326597 0.81029,0.959115 v 2.637565 h 1.33945 v -3.059245 c 0,-1.087269 -0.59117,-1.756999 -1.60403,-1.756999 z m -5.75779,1.079004 c 0.56224,0 0.91777,0.405145 0.99632,1.00459 h -2.02158 c 0.10749,-0.607713 0.46715,-1.00459 1.02526,-1.00459 z m 25.39173,5.300452 v 2.327506 c -0.31833,-0.380329 -0.76068,-0.706933 -1.47588,-0.706933 -1.12034,0 -2.14974,0.864035 -2.14974,2.443265 v 0.016 c 0,1.57923 1.05007,2.44326 2.14974,2.44326 v 5.2e-4 c 0.69867,0 1.14928,-0.32659 1.47588,-0.76481 v 0.678 h 1.33945 v -6.436828 z m -30.788814,0.156579 c -1.905823,0 -3.290755,1.438678 -3.290755,3.191539 v 0.0207 c 0,1.75288 1.368395,3.17501 3.270085,3.17501 1.905823,0 3.290754,-1.43867 3.290754,-3.19568 v -0.0165 c 0,-1.752867 -1.368395,-3.174999 -3.270084,-3.174999 z m 13.958834,0.343649 v 1.211295 h -0.56224 v 1.145155 h 0.56224 v 2.24069 c 0,1.0914 0.5581,1.418 1.37666,1.418 0.45062,0 0.77721,-0.10335 1.05833,-0.27285 v -1.07487 c -0.1943,0.10335 -0.41342,0.16537 -0.66145,0.16537 -0.29765,0 -0.42995,-0.14883 -0.42995,-0.45889 v -2.01745 h 1.10794 v -1.145155 h -1.10794 V 98.13426 Z m -13.979504,0.908988 c 1.095536,0 1.872753,0.880571 1.872753,1.938902 v 0.0207 c 0,1.05835 -0.760679,1.92237 -1.852083,1.92237 -1.095539,0 -1.872754,-0.8847 -1.872754,-1.94304 v -0.0165 c 0,-1.058338 0.76068,-1.922362 1.852084,-1.922362 z m 6.430614,0.21084 c -1.47175,0 -2.56315,1.103812 -2.56315,2.459802 v 0.0207 c 0,1.35599 1.08313,2.44327 2.54661,2.44327 1.47174,0 2.56729,-1.10382 2.56729,-2.46394 v -0.0165 c 0,-1.356 -1.08728,-2.443272 -2.55075,-2.443272 z m 12.70103,5.17e-4 c -1.37666,0 -2.33577,1.112075 -2.33577,2.459805 v 0.0207 c 0,1.44694 1.04592,2.44326 2.46806,2.44326 0.85576,0 1.48828,-0.33487 1.93063,-0.8847 l -0.76894,-0.67799 c -0.36794,0.34313 -0.69453,0.48369 -1.14515,0.48369 -0.59945,0 -1.02113,-0.3142 -1.15342,-0.92604 h 3.28662 c 0.008,-0.11989 0.0207,-0.24392 0.0207,-0.3514 0,-1.33947 -0.72347,-2.567295 -2.3027,-2.567295 z m 5.75779,0 c -0.678,0 -1.07487,0.363797 -1.38493,0.760685 v -0.669735 h -1.33945 v 4.725305 h 1.33945 v -2.63757 c 0,-0.63252 0.3266,-0.95912 0.83923,-0.95912 0.51261,0 0.81028,0.3266 0.81028,0.95912 v 2.63757 h 1.33945 v -3.05925 c 0,-1.087265 -0.59118,-1.757005 -1.60403,-1.757005 z m 10.30221,0 c -1.37666,0 -2.33577,1.112075 -2.33577,2.459805 v 0.0207 c 0,1.44694 1.04595,2.44326 2.46806,2.44326 0.85576,0 1.48829,-0.33487 1.93064,-0.8847 l -0.76895,-0.67799 c -0.36794,0.34313 -0.69453,0.48369 -1.14515,0.48369 -0.59945,0 -1.02113,-0.3142 -1.15342,-0.92604 h 3.28662 c 0.008,-0.11989 0.0207,-0.24392 0.0207,-0.3514 0,-1.33947 -0.72347,-2.567295 -2.3027,-2.567295 z m -23.90965,0.02015 c -0.95085,0 -1.72806,0.53744 -1.72806,1.496545 v 0.0207 c 0,0.91365 0.74827,1.22371 1.40973,1.41801 0.5209,0.1571 0.97979,0.25631 0.97979,0.5457 v 0.0165 c 0,0.21498 -0.17777,0.35553 -0.56224,0.35553 -0.44235,0 -0.97979,-0.1943 -1.49242,-0.56637 l -0.57464,0.8847 c 0.62838,0.49196 1.36839,0.71106 2.02985,0.71106 1.02112,0 1.80661,-0.47541 1.80661,-1.52548 v -0.0165 c 0,-0.86403 -0.76482,-1.18236 -1.42627,-1.40147 -0.51263,-0.17776 -0.96325,-0.3018 -0.96325,-0.56637 v -0.016 c 0,-0.18603 0.16951,-0.3266 0.4961,-0.3266 0.34313,0 0.81029,0.1695 1.27744,0.44235 l 0.51263,-0.926036 c -0.51263,-0.343129 -1.16583,-0.545703 -1.76527,-0.545703 z m 7.84965,1.058845 c 0.56224,0 0.91777,0.40515 0.99632,1.00459 h -2.02158 c 0.10749,-0.60771 0.46715,-1.00459 1.02526,-1.00459 z m 16.06,0 c 0.56224,0 0.91778,0.40515 0.99632,1.00459 h -2.02158 c 0.10749,-0.60771 0.46715,-1.00459 1.02526,-1.00459 z m -5.51491,0.062 c 0.62839,0 1.14929,0.51677 1.14929,1.30225 v 0.0165 c 0,0.78548 -0.5209,1.30638 -1.14929,1.30638 -0.62425,0 -1.15341,-0.5209 -1.15341,-1.30638 v -0.0165 c 0,-0.79375 0.52916,-1.30225 1.15341,-1.30225 z m -23.26266,0.016 c 0.74,0 1.24437,0.60772 1.24437,1.30225 v 0.0207 c 0,0.69453 -0.45888,1.28571 -1.22783,1.28571 -0.74,0 -1.24024,-0.60772 -1.24024,-1.30638 v -0.0165 c 0,-0.69454 0.45475,-1.28572 1.2237,-1.28572 z m 2.64997,4.96353 v 6.69571 h 1.39423 v -6.69571 z m -9.862962,0.22944 -2.75177,6.46627 h 1.440222 l 0.587044,-1.4397 h 2.714563 l 0.587045,1.4397 h 1.476908 l -2.751766,-6.46627 z m 16.781402,0.29352 v 1.25677 h -0.58705 v 1.19218 h 0.58705 v 2.33009 c 0,1.13735 0.5779,1.4764 1.43092,1.4764 0.46778,0 0.8072,-0.10995 1.10071,-0.28422 v -1.1188 c -0.20179,0.11006 -0.431,0.17415 -0.68782,0.17415 -0.31186,0 -0.44958,-0.15594 -0.44958,-0.47697 v -2.10065 h 1.156 v -1.19218 h -1.156 v -1.25677 z m -2.81688,1.18339 c -0.9906,0 -1.79783,0.55931 -1.79783,1.55908 v 0.0186 c 0,0.95391 0.77969,1.2746 1.46761,1.47639 0.54116,0.1651 1.01803,0.26628 1.01803,0.56896 v 0.0181 c 0,0.22013 -0.18347,0.3669 -0.58704,0.3669 -0.45861,0 -1.01831,-0.20181 -1.5503,-0.58705 l -0.59634,0.91726 c 0.65123,0.51364 1.42203,0.74311 2.10994,0.74311 1.06398,0 1.87999,-0.49549 1.87999,-1.58699 v -0.0181 c 0,-0.89888 -0.79778,-1.22901 -1.48569,-1.45831 -0.53199,-0.18344 -0.99994,-0.31189 -0.99994,-0.58705 v -0.0186 c 0,-0.19262 0.17429,-0.33951 0.51366,-0.33951 0.35772,0 0.84402,0.17454 1.33015,0.45888 l 0.53175,-0.96325 c -0.53199,-0.3577 -1.21028,-0.56844 -1.83399,-0.56844 z m -7.29517,0.0181 c -0.83466,0 -1.36621,0.15581 -1.90737,0.39429 l 0.3483,1.06402 c 0.44944,-0.1651 0.82555,-0.26562 1.35754,-0.26562 0.69709,0 1.05471,0.32081 1.05471,0.89866 v 0.0827 c -0.34854,-0.11924 -0.70618,-0.20206 -1.20147,-0.20206 -1.16487,0 -1.98128,0.49523 -1.98128,1.56838 v 0.0186 c 0,0.97226 0.76136,1.5043 1.68775,1.5043 0.67875,0 1.14633,-0.24768 1.4857,-0.62374 v 0.53175 h 1.34824 v -2.85254 c 0,-0.66039 -0.16486,-1.20149 -0.53175,-1.56838 -0.34854,-0.34854 -0.89908,-0.55035 -1.66037,-0.55035 z m -6.036316,0.20206 0.852661,2.08204 h -1.705839 z m 6.018236,2.605 c 0.33938,0 0.65139,0.0729 0.88987,0.18294 v 0.24805 c 0,0.50447 -0.44071,0.86196 -1.09193,0.86196 -0.44944,0 -0.76119,-0.22029 -0.76119,-0.59635 v -0.0181 c 0,-0.44026 0.36706,-0.67852 0.96325,-0.67852 z"
       inkscape:label="Locations" />
  </g>
</svg>
