<?xml version="1.0" encoding="UTF-8" standalone="no"?>
<!-- Created with Inkscape (http://www.inkscape.org/) -->

<svg
   width="68.175369mm"
   height="116.7346mm"
   viewBox="0 0 68.175369 116.7346"
   version="1.1"
   id="svg1"
   inkscape:version="1.3 (0e150ed6c4, 2023-07-21)"
   sodipodi:docname="CBC_All_Portrait_Minimal_Dark.svg"
   xmlns:inkscape="http://www.inkscape.org/namespaces/inkscape"
   xmlns:sodipodi="http://sodipodi.sourceforge.net/DTD/sodipodi-0.dtd"
   xmlns="http://www.w3.org/2000/svg"
   xmlns:svg="http://www.w3.org/2000/svg">
  <sodipodi:namedview
     id="namedview1"
     pagecolor="#a2a2a2"
     bordercolor="#999999"
     borderopacity="1"
     inkscape:showpageshadow="2"
     inkscape:pageopacity="0"
     inkscape:pagecheckerboard="true"
     inkscape:deskcolor="#d1d1d1"
     inkscape:document-units="mm"
     showguides="true"
     inkscape:zoom="1.2961911"
     inkscape:cx="-51.304164"
     inkscape:cy="244.17696"
     inkscape:window-width="2400"
     inkscape:window-height="1261"
     inkscape:window-x="5591"
     inkscape:window-y="-9"
     inkscape:window-maximized="1"
     inkscape:current-layer="layer1"
     showgrid="false" />
  <defs
     id="defs1" />
  <g
     inkscape:label="Layer 1"
     inkscape:groupmode="layer"
     id="layer1"
     transform="translate(-93.133333,-79.077193)">
    <g
       id="g24"
       transform="translate(1.7631348e-5,10.234367)">
      <path
         d="m 118.7293,185.50689 h 1.10748 l 0.45147,-1.10747 h 2.088 l 0.45144,1.10747 h 1.13571 l -2.11621,-4.9731 h -1.00168 z m 1.94691,-2.06683 0.65604,-1.60125 0.656,1.60125 z m 4.8049,2.13737 c 0.52201,0 0.88176,-0.19046 1.14275,-0.47968 v 0.40914 h 1.03694 v -2.19381 c 0,-0.50788 -0.12697,-0.92405 -0.40913,-1.2062 -0.26806,-0.26806 -0.6913,-0.42326 -1.27678,-0.42326 -0.64191,0 -1.05105,0.11992 -1.46724,0.30333 l 0.26804,0.81826 c 0.34567,-0.12697 0.63488,-0.20457 1.04401,-0.20457 0.5361,0 0.81123,0.24691 0.81123,0.69131 v 0.0635 c -0.26806,-0.0917 -0.54318,-0.1552 -0.9241,-0.1552 -0.89586,0 -1.52367,0.38092 -1.52367,1.20623 v 0.014 c 0,0.74772 0.58549,1.15686 1.29795,1.15686 z m 0.32447,-0.74068 c -0.34563,0 -0.58547,-0.16928 -0.58547,-0.45851 v -0.014 c 0,-0.33859 0.28216,-0.522 0.74068,-0.522 0.261,0 0.50083,0.0565 0.68423,0.14107 v 0.19047 c 0,0.38797 -0.33859,0.66307 -0.83944,0.66307 z m 2.62521,0.67014 h 1.07222 v -5.14942 h -1.07222 z m 3.20362,0.0705 c 0.81826,0 1.44607,-0.38092 1.44607,-1.22036 v -0.014 c 0,-0.6913 -0.6137,-0.94523 -1.14274,-1.12159 -0.40914,-0.14108 -0.76889,-0.23984 -0.76889,-0.45145 v -0.014 c 0,-0.14814 0.13401,-0.261 0.39501,-0.261 0.2751,0 0.64898,0.13403 1.02284,0.3527 l 0.40912,-0.74068 c -0.40912,-0.27509 -0.93112,-0.43734 -1.41079,-0.43734 -0.76184,0 -1.38259,0.43029 -1.38259,1.19917 v 0.014 c 0,0.73364 0.59959,0.98053 1.12864,1.13571 0.4162,0.12699 0.783,0.20458 0.783,0.43736 v 0.014 c 0,0.16929 -0.14108,0.28216 -0.45146,0.28216 -0.3527,0 -0.78299,-0.15519 -1.19213,-0.45147 l -0.45852,0.7054 c 0.50084,0.39503 1.09338,0.57138 1.62244,0.57138 z m 3.21773,-0.007 c 0.35975,0 0.62075,-0.0847 0.84649,-0.21867 v -0.86058 c -0.1552,0.0846 -0.33156,0.13402 -0.52906,0.13402 -0.23985,0 -0.34565,-0.11991 -0.34565,-0.36683 v -1.61537 h 0.88882 v -0.91702 h -0.88882 v -0.96642 h -1.07222 v 0.96642 h -0.45145 v 0.91702 h 0.45145 v 1.79172 c 0,0.87471 0.44441,1.13571 1.10044,1.13571 z"
         id="text7"
         style="font-size:9.17222px;font-family:Gotham;-inkscape-font-specification:'Gotham, Normal';text-align:center;letter-spacing:-0.264583px;text-anchor:middle;fill:#ffffff;stroke-width:4.23333"
         aria-label="Aalst"
         inkscape:label="Aalst" />
      <path
         style="fill:#3e444f;fill-opacity:1;fill-rule:nonzero;stroke:none;stroke-width:0.35278"
         d="M 134.86735,177.69202"
         id="path21" />
      <path
         id="path20"
         style="fill:#ffffff;fill-opacity:1;fill-rule:nonzero;stroke:none;stroke-width:0.35278"
         d="m 121.8291,172.60754 c -1.49655,0 -2.59209,1.14929 -2.59209,2.55488 v 0.0124 c 0,1.45934 1.06247,2.53834 2.60036,2.53834 0.90124,0 1.59989,-0.3514 2.10839,-0.78135 v -2.1456 h -2.1456 v 0.93844 h 1.09554 v 0.70694 c -0.27698,0.19844 -0.62838,0.29765 -1.02526,0.29765 -0.87229,0 -1.49655,-0.66559 -1.49655,-1.56683 v -0.0165 c 0,-0.83922 0.62838,-1.53789 1.418,-1.53789 0.57464,0 0.91364,0.18189 1.29398,0.50022 l 0.68213,-0.82682 c -0.51263,-0.43408 -1.05006,-0.67386 -1.9389,-0.67386 z m 11.41636,0.27234 v 0.96738 h -0.45062 v 0.91777 h 0.45062 v 1.79421 c 0,0.8723 0.44235,1.13275 1.09967,1.13275 0.35967,0 0.62011,-0.0827 0.84749,-0.21911 v -0.8599 c -0.1571,0.0868 -0.33072,0.13643 -0.52916,0.13643 -0.23978,0 -0.34727,-0.11989 -0.34727,-0.36794 v -1.61644 h 0.88884 v -0.91777 h -0.88884 v -0.96738 z m -2.21486,0.8971 c -0.54571,0 -0.86403,0.28938 -1.10794,0.60771 v -0.53743 h -1.07487 v 3.78271 h 1.07487 v -2.10839 c 0,-0.5085 0.26045,-0.76895 0.66973,-0.76895 0.40928,0 0.64905,0.26045 0.64905,0.76895 v 2.10839 h 1.07074 v -2.44739 c 0,-0.86816 -0.4713,-1.4056 -1.28158,-1.4056 z m -4.64467,5.2e-4 c -1.09968,0 -1.86862,0.88883 -1.86862,1.96783 v 0.0165 c 0,1.15756 0.83921,1.9513 1.9761,1.9513 0.68213,0 1.19063,-0.26459 1.54203,-0.7028 l -0.61185,-0.5457 c -0.29765,0.27698 -0.55811,0.38861 -0.91778,0.38861 -0.47955,0 -0.81856,-0.25219 -0.92604,-0.74001 h 2.63343 c 0.008,-0.0992 0.0165,-0.19844 0.0165,-0.28112 0,-1.07487 -0.57878,-2.05465 -1.84381,-2.05465 z m 0,0.85937 c 0.45062,0 0.73587,0.3266 0.79788,0.80616 h -1.61644 c 0.0868,-0.48783 0.37621,-0.80616 0.81856,-0.80616 z" />
      <path
         id="path16"
         style="fill:#ffffff;fill-opacity:1;fill-rule:nonzero;stroke:none;stroke-width:0.35278"
         d="m 138.26841,164.71758 v 1.86449 c -0.25631,-0.30592 -0.60772,-0.56637 -1.17823,-0.56637 -0.89709,0 -1.72392,0.69039 -1.72392,1.95543 v 0.0124 c 0,1.26504 0.83923,1.95544 1.72392,1.95544 0.55397,0 0.91778,-0.26045 1.17823,-0.61185 v 0.54157 h 1.07073 v -5.15111 z m -24.845,0.12764 c -1.52549,0 -2.63343,1.14929 -2.63343,2.55489 v 0.0124 c 0,1.4056 1.09554,2.53835 2.62103,2.53835 1.52135,0 2.6293,-1.14929 2.6293,-2.55075 v -0.0165 c 0,-1.4056 -1.09141,-2.53835 -2.6169,-2.53835 z m 11.2758,0.27337 v 0.96739 h -0.45062 v 0.91777 h 0.45062 v 1.7942 c 0,0.8723 0.44234,1.13275 1.09967,1.13275 0.35967,0 0.62013,-0.0827 0.8475,-0.21911 v -0.85989 c -0.15709,0.0868 -0.33074,0.13642 -0.52917,0.13642 -0.23978,0 -0.34726,-0.11988 -0.34726,-0.36793 v -1.61644 h 0.88883 v -0.91777 h -0.88883 v -0.96739 z m -11.2882,0.72709 c 0.87229,0 1.49655,0.70694 1.49655,1.55443 v 0.0124 c 0,0.8475 -0.60772,1.53789 -1.48415,1.53789 -0.8723,0 -1.49655,-0.70693 -1.49655,-1.55029 v -0.0165 c 0,-0.84749 0.60771,-1.53789 1.48415,-1.53789 z m 5.17591,0.1695 c -1.17823,0 -2.05052,0.88057 -2.05052,1.96784 v 0.0165 c 0,1.08727 0.86817,1.95131 2.03812,1.95131 1.17823,0 2.05465,-0.88057 2.05465,-1.96784 v -0.0124 c 0,-1.08726 -0.86817,-1.95543 -2.04225,-1.95543 z m 10.26707,5.2e-4 c -1.09967,0 -1.86861,0.88882 -1.86861,1.96783 v 0.0165 c 0,1.15755 0.83921,1.9513 1.9761,1.9513 0.68213,0 1.19063,-0.26459 1.54203,-0.7028 l -0.61185,-0.5457 c -0.29765,0.27699 -0.55811,0.38861 -0.91778,0.38861 -0.47956,0 -0.81855,-0.25218 -0.92604,-0.74001 h 2.63343 c 0.008,-0.0992 0.0165,-0.19843 0.0165,-0.28112 0,-1.07487 -0.57878,-2.05465 -1.84382,-2.05465 z m 4.64468,0 c -0.5457,0 -0.86403,0.28939 -1.10794,0.60771 v -0.53743 h -1.07487 v 3.78271 h 1.07487 v -2.1084 c 0,-0.50849 0.26045,-0.76894 0.66973,-0.76894 0.40928,0 0.64905,0.26045 0.64905,0.76894 v 2.1084 h 1.07074 v -2.4474 c 0,-0.86816 -0.4713,-1.40559 -1.28158,-1.40559 z m 8.30957,0 c -1.09968,0 -1.86862,0.88882 -1.86862,1.96783 v 0.0165 c 0,1.15756 0.83923,1.9513 1.97611,1.9513 0.68213,0 1.19063,-0.26459 1.54202,-0.7028 l -0.61184,-0.5457 c -0.29766,0.27699 -0.55812,0.38861 -0.91778,0.38861 -0.47956,0 -0.81855,-0.25219 -0.92604,-0.74001 h 2.63343 c 0.008,-0.0992 0.0165,-0.19844 0.0165,-0.28112 0,-1.07487 -0.57879,-2.05465 -1.84382,-2.05465 z m -19.30425,0.0119 c -0.76067,0 -1.38492,0.43409 -1.38492,1.20303 v 0.0124 c 0,0.73587 0.60357,0.97978 1.13274,1.13688 0.41341,0.12816 0.78135,0.20258 0.78135,0.43822 v 0.0124 c 0,0.1695 -0.14056,0.28112 -0.45062,0.28112 -0.35553,0 -0.78548,-0.15296 -1.19476,-0.45062 l -0.45888,0.70694 c 0.50437,0.39274 1.09553,0.5705 1.6247,0.5705 0.81856,0 1.44694,-0.38033 1.44694,-1.21956 v -0.0165 c 0,-0.6904 -0.61598,-0.94257 -1.14515,-1.12034 -0.40927,-0.14056 -0.76894,-0.23978 -0.76894,-0.45062 v -0.0165 c 0,-0.14883 0.13642,-0.26045 0.39687,-0.26045 0.27285,0 0.64906,0.13642 1.02113,0.3514 l 0.40928,-0.74 c -0.40927,-0.27285 -0.93018,-0.43822 -1.40974,-0.43822 z m 6.35,0.84801 c 0.45062,0 0.73587,0.32659 0.79789,0.80615 h -1.61644 c 0.0868,-0.48783 0.37621,-0.80615 0.81855,-0.80615 z m 12.95425,0 c 0.45062,0 0.73588,0.32659 0.79789,0.80615 h -1.61644 c 0.0868,-0.48783 0.3762,-0.80615 0.81855,-0.80615 z m -4.4452,0.0496 c 0.50023,0 0.91777,0.41755 0.91777,1.04593 v 0.0124 c 0,0.62838 -0.41754,1.04593 -0.91777,1.04593 -0.50023,0 -0.92191,-0.41755 -0.92191,-1.04593 v -0.0124 c 0,-0.63665 0.42168,-1.04593 0.92191,-1.04593 z m -18.78852,0.016 c 0.59117,0 0.99632,0.48369 0.99632,1.0418 v 0.0165 c 0,0.55397 -0.36794,1.0294 -0.98392,1.0294 -0.59118,0 -0.99219,-0.48783 -0.99219,-1.04593 v -0.0124 c 0,-0.55809 0.36794,-1.02939 0.97979,-1.02939 z" />
      <path
         id="path8"
         style="fill:#ffffff;fill-opacity:1;fill-rule:nonzero;stroke:none;stroke-width:0.35278"
         d="m 114.09778,157.15474 -1.10794,3.3569 -1.02112,-3.3445 h -1.16582 l 1.68671,4.97747 h 0.94672 l 1.11621,-3.23287 1.11207,3.23287 h 0.94672 l 1.68672,-4.97747 h -1.13689 l -1.02112,3.3445 -1.10795,-3.3569 z m 10.38335,1.09864 c -0.56103,0.0153 -0.88625,0.34365 -1.08779,0.83199 v -0.76068 h -1.07487 v 3.78272 h 1.07487 v -1.39733 c 0,-0.90124 0.43409,-1.33532 1.14929,-1.33532 h 0.0537 v -1.12035 c -0.0395,-0.002 -0.0778,-0.002 -0.11524,-0.001 z m 2.19056,0.001 c -1.09967,0 -1.86862,0.88884 -1.86862,1.96784 v 0.0165 c 0,1.15755 0.83923,1.9513 1.97611,1.9513 0.68212,0 1.19063,-0.26458 1.54203,-0.7028 l -0.61185,-0.5457 c -0.29765,0.27698 -0.55811,0.3886 -0.91778,0.3886 -0.47956,0 -0.81856,-0.25218 -0.92604,-0.74 h 2.63343 c 0.008,-0.0992 0.0165,-0.19844 0.0165,-0.28112 0,-1.07487 -0.57878,-2.05466 -1.84382,-2.05466 z m 3.97082,0 c -0.86817,0 -1.67845,0.63666 -1.67845,1.76527 v 0.0124 c 0,1.12448 0.79788,1.76527 1.67845,1.76527 0.57464,0 0.91777,-0.23152 1.2361,-0.61598 v 0.18603 c 0,0.678 -0.34726,1.02939 -1.079,1.02939 -0.50023,0 -0.88883,-0.12815 -1.27744,-0.34726 l -0.36794,0.80615 c 0.47956,0.25218 1.05834,0.39688 1.67432,0.39688 0.73174,0 1.27744,-0.1571 1.62884,-0.5085 0.31833,-0.31832 0.47955,-0.81443 0.47955,-1.49242 v -2.92695 h -1.07073 v 0.4961 c -0.28938,-0.31833 -0.63666,-0.56638 -1.2237,-0.56638 z m 4.76353,0 c -1.09967,0 -1.86861,0.88884 -1.86861,1.96784 v 0.0165 c 0,1.15755 0.83922,1.9513 1.9761,1.9513 0.68212,0 1.19063,-0.26458 1.54203,-0.7028 l -0.61185,-0.5457 c -0.29765,0.27698 -0.55811,0.3886 -0.91778,0.3886 -0.47956,0 -0.81856,-0.25218 -0.92604,-0.74 h 2.63343 c 0.008,-0.0992 0.0165,-0.19844 0.0165,-0.28112 0,-1.07487 -0.57878,-2.05466 -1.84382,-2.05466 z m 4.64882,0 c -0.54157,0 -0.86816,0.28939 -1.11208,0.60772 v -0.53744 h -1.07487 v 3.78272 h 1.07487 v -2.1084 c 0,-0.5085 0.24392,-0.76895 0.64906,-0.76895 0.40101,0 0.62838,0.26045 0.62838,0.76895 v 2.1084 h 1.07074 v -2.1084 c 0,-0.5085 0.24804,-0.76895 0.64905,-0.76895 0.40101,0 0.62839,0.26045 0.62839,0.76895 v 2.1084 h 1.07073 v -2.46394 c 0,-0.9095 -0.47956,-1.38906 -1.27744,-1.38906 -0.51263,0 -0.9095,0.21084 -1.24023,0.59945 -0.19844,-0.38034 -0.57051,-0.59945 -1.0666,-0.59945 z m -20.17035,0.0289 c -0.64079,0 -1.05007,0.11989 -1.46761,0.30179 l 0.26872,0.81856 c 0.34314,-0.12816 0.63252,-0.20258 1.0418,-0.20258 0.53743,0 0.81442,0.24392 0.81442,0.6904 v 0.062 c -0.26872,-0.091 -0.54571,-0.15296 -0.92605,-0.15296 -0.89709,0 -1.52548,0.38034 -1.52548,1.20716 v 0.0124 c 0,0.74827 0.58704,1.15756 1.30224,1.15756 0.5209,0 0.88057,-0.19017 1.14102,-0.47956 v 0.40928 h 1.03766 v -2.19522 c 0,-0.50849 -0.12816,-0.9219 -0.40928,-1.20716 -0.26872,-0.26872 -0.6904,-0.42168 -1.27744,-0.42168 z m 6.78718,0.83096 c 0.45062,0 0.73588,0.32659 0.79789,0.80615 h -1.61644 c 0.0868,-0.48782 0.3762,-0.80615 0.81855,-0.80615 z m 8.73435,0 c 0.45062,0 0.73588,0.32659 0.79789,0.80615 h -1.61644 c 0.0868,-0.48782 0.37621,-0.80615 0.81855,-0.80615 z m -4.45347,0.0289 c 0.52504,0 0.92604,0.35967 0.92604,0.87643 v 0.0124 c 0,0.51677 -0.401,0.87643 -0.92604,0.87643 -0.52089,0 -0.91364,-0.35553 -0.91364,-0.87643 v -0.0124 c 0,-0.51676 0.39275,-0.87643 0.91364,-0.87643 z m -11.08046,1.29811 c 0.26045,0 0.50023,0.0579 0.68213,0.14056 v 0.19017 c 0,0.38861 -0.339,0.66559 -0.83923,0.66559 -0.34727,0 -0.58704,-0.1695 -0.58704,-0.45889 v -0.0165 c 0,-0.33486 0.28526,-0.5209 0.74414,-0.5209 z" />
    </g>
    <g
       id="g2"
       transform="translate(0,9.3446249)">
      <g
         id="g1"
         inkscape:label="CBC Logo">
        <path
           id="path23"
           d="m 127.22186,137.91147 c -8.81807,0 -16.85367,-3.34892 -22.90618,-8.84379 l 22.90618,22.90548 22.90273,-22.9023 c -6.05155,5.4931 -14.08607,8.84061 -22.90273,8.84061"
           style="fill:#bdbcbc;fill-opacity:1;fill-rule:nonzero;stroke:none;stroke-width:0.0352778" />
        <path
           id="path28"
           d="m 151.7396,127.49253 c 6.04062,-6.14927 9.5691,-14.36723 9.5691,-23.66822 0,-9.159875 -3.61915,-17.469558 -9.49748,-23.594133 0.89676,0.932038 1.45133,2.196041 1.45133,3.592336 0,2.864556 -2.32199,5.185834 -5.18619,5.185834 -1.48696,0 -2.82293,-0.628298 -3.76837,-1.630892 4.10598,4.26544 6.63539,10.05911 6.63539,16.446855 0,6.36235 -2.51036,12.13521 -6.58777,16.39606 0.94262,-0.97402 2.25778,-1.58468 3.72075,-1.58468 2.8642,0 5.18619,2.32128 5.18619,5.18619 0,1.43404 -0.58244,2.73226 -1.52295,3.67065"
           style="fill:#bdbcbc;fill-opacity:1;fill-rule:nonzero;stroke:none;stroke-width:0.0352778" />
        <path
           id="path34"
           d="m 148.07636,118.63569 c -1.48837,0 -2.82575,0.63006 -3.7712,1.63371 -4.31588,4.48134 -10.37025,7.2764 -17.0833,7.2764 -13.101,0 -23.7225,-10.62144 -23.7225,-23.7229 0,-7e-4 0,-7e-4 0,-7e-4 0,0 0,-3.6e-4 0,-7.1e-4 0,-13.101466 10.6215,-23.723252 23.7225,-23.723252 6.71305,0 12.76742,2.795058 17.0833,7.276747 0.94545,1.003653 2.28283,1.633362 3.7712,1.633362 2.8642,0 5.18619,-2.321278 5.18619,-5.185834 0,-1.434395 -0.58244,-2.731911 -1.52295,-3.670653 l 7.1e-4,-7.06e-4 c -6.19972,-6.41985 -14.88969,-10.418586 -24.51845,-10.418586 -18.82634,0 -34.088527,15.262226 -34.088527,34.088922 0,3.5e-4 0,3.5e-4 0,3.5e-4 0,3.6e-4 0,3.6e-4 0,0.001 0,18.82634 15.262187,34.08857 34.088527,34.08857 9.62876,0 18.31873,-3.99874 24.51845,-10.41824 l -7.1e-4,-7e-4 c 0.94051,-0.93839 1.52295,-2.23661 1.52295,-3.67065 0,-2.86491 -2.32199,-5.18619 -5.18619,-5.18619"
           style="fill:#e31b22;fill-opacity:1;fill-rule:nonzero;stroke:none;stroke-width:0.0352778" />
      </g>
      <path
         id="path4"
         style="fill:#ffffff;fill-opacity:1;fill-rule:nonzero;stroke:none;stroke-width:0.0352778"
         d="m 117.14799,91.482745 c -1.77862,0.009 -3.04915,1.430824 -3.04115,3.140384 v 0.0176 c 0.009,1.73567 1.30161,3.10135 3.04581,3.09335 1.0965,-0.005 1.78537,-0.43178 2.41225,-1.07384 l -0.45113,-0.43821 c -0.57559,0.55563 -1.11792,0.8776 -1.94665,0.8816 -1.3298,0.006 -2.34532,-1.08498 -2.35232,-2.48409 v -0.017 c -0.007,-1.38994 0.98952,-2.483264 2.32803,-2.489264 0.82035,-0.004 1.39143,0.3384 1.90324,0.819594 l 0.46354,-0.503334 c -0.60702,-0.56691 -1.26497,-0.95171 -2.36162,-0.94671 z m 20.73724,1.488804 c -0.76871,0.004 -1.2329,0.3943 -1.52394,0.87902 l -0.004,-0.7767 -0.66456,0.003 0.0217,4.46381 0.66508,-0.003 -0.0124,-2.55592 c -0.004,-0.8375 0.56232,-1.40108 1.33066,-1.40508 0.78599,-0.004 1.23779,0.51197 1.24179,1.341 l 0.0129,2.60708 0.66456,-0.003 -0.0139,-2.77141 c -0.005,-1.06186 -0.63859,-1.7837 -1.71773,-1.7787 z m -5.45858,0.0263 c -1.34691,0.006 -2.32576,1.08167 -2.31976,2.3425 v 0.017 c 0.006,1.26047 0.987,2.3087 2.32544,2.3027 1.34691,-0.007 2.33454,-1.08201 2.32854,-2.34249 v -0.0176 c -0.006,-1.26047 -0.99578,-2.30919 -2.33422,-2.30219 z m -4.92321,0.0238 c -0.76828,0.004 -1.23228,0.39498 -1.52343,0.88005 l -0.004,-0.77722 -0.66456,0.003 0.0217,4.46381 0.66507,-0.003 -0.0129,-2.55591 c -0.004,-0.8375 0.56331,-1.40109 1.3317,-1.40509 0.78578,-0.004 1.23779,0.51181 1.24179,1.34049 l 0.0124,2.60759 0.66456,-0.003 -0.0134,-2.77192 c -0.005,-1.06186 -0.63926,-1.78422 -1.71875,-1.77922 z m -5.25033,0.0512 c -0.65624,0.004 -1.13075,0.16126 -1.62161,0.38809 l 0.20154,0.54363 c 0.41356,-0.19226 0.82722,-0.32459 1.35392,-0.32659 0.83742,-0.004 1.32254,0.40805 1.32654,1.20251 l 0.001,0.13797 c -0.39786,-0.11039 -0.7952,-0.18593 -1.36529,-0.18293 -1.13097,0.005 -1.90618,0.50963 -1.90118,1.46813 l 5.2e-4,0.0176 c 0.005,0.91511 0.83587,1.38531 1.67328,1.38131 0.78563,-0.004 1.29319,-0.36841 1.60197,-0.7674 l 0.003,0.66508 0.65629,-0.003 -0.0134,-2.72852 c -0.003,-0.57009 -0.16028,-1.00077 -0.47284,-1.31051 -0.32106,-0.3175 -0.81367,-0.48824 -1.44384,-0.48524 z m 10.15907,0.51211 c 0.94121,-0.005 1.66156,0.77731 1.66656,1.73581 v 0.0176 c 0.005,0.94122 -0.66497,1.72099 -1.63194,1.72599 -0.94086,0.005 -1.65226,-0.76904 -1.65726,-1.72754 v -0.017 c -0.005,-0.94086 0.65568,-1.72978 1.62264,-1.73478 z m -10.19111,1.77663 c 0.54377,-0.003 0.97595,0.0905 1.30431,0.18397 l 0.002,0.41445 c 0.003,0.70802 -0.65878,1.20316 -1.47898,1.20716 -0.60442,0.003 -1.12355,-0.3224 -1.12655,-0.88367 l -5.1e-4,-0.0176 c -0.003,-0.53516 0.47077,-0.90034 1.29966,-0.90434 z m 3.77445,5.265831 -0.75965,0.004 0.004,0.7338 0.76016,-0.004 z m -13.17026,0.19379 -2.57349,0.0124 v 5.2e-4 l 0.0295,6.04356 2.68511,-0.0129 c 1.32112,-0.006 2.19039,-0.6241 2.18539,-1.65985 v -0.017 c -0.004,-0.82903 -0.58479,-1.24077 -1.30276,-1.45314 0.47406,-0.20955 0.95588,-0.6179 0.95188,-1.40354 v -0.0171 c -0.002,-0.38841 -0.14148,-0.70743 -0.39326,-0.96531 -0.34685,-0.33514 -0.89167,-0.53062 -1.58233,-0.52762 z m -0.0579,0.6134 c 0.86335,-0.004 1.34007,0.38188 1.34307,0.97772 v 0.0176 c 0.004,0.70803 -0.5642,1.08172 -1.38441,1.08572 l -1.78749,0.009 -0.0103,-2.08101 z m 29.70568,0.74414 c -0.88053,0.004 -1.51708,0.51684 -1.51308,1.28519 v 0.0176 c 0.004,0.82021 0.78234,1.05773 1.48259,1.25316 0.58773,0.16122 1.11577,0.33157 1.11777,0.78031 v 0.0171 c 0.002,0.4318 -0.3852,0.71062 -0.92036,0.71262 -0.5267,0.003 -1.06316,-0.20206 -1.54823,-0.56224 l -0.33486,0.47646 c 0.50306,0.40322 1.21217,0.64999 1.85105,0.64699 0.88936,-0.004 1.58633,-0.49985 1.58233,-1.34617 v -0.0171 c -0.004,-0.80257 -0.74791,-1.06681 -1.4397,-1.27072 -0.59655,-0.1785 -1.14987,-0.33977 -1.15187,-0.76274 v -0.0176 c -0.002,-0.37112 0.3332,-0.64864 0.85989,-0.65164 0.43145,-0.002 0.90734,0.15964 1.32292,0.42529 l 0.30024,-0.50229 c -0.45897,-0.29986 -1.0647,-0.48721 -1.60869,-0.48421 z m -3.95531,0.0191 c -0.88054,0.004 -1.5176,0.51736 -1.5136,1.28571 v 0.0171 c 0.004,0.82021 0.78233,1.05808 1.48259,1.25316 0.58773,0.16122 1.11577,0.33158 1.11777,0.78031 l 5.1e-4,0.0176 c 0.002,0.4318 -0.3852,0.70962 -0.92036,0.71262 -0.52669,0.002 -1.06367,-0.20206 -1.54874,-0.56224 l -0.33434,0.47594 c 0.50306,0.40358 1.21182,0.6505 1.85105,0.6475 0.88934,-0.005 1.58581,-0.49986 1.58181,-1.34617 v -0.0171 c -0.004,-0.80292 -0.74791,-1.06733 -1.4397,-1.27124 -0.59655,-0.1785 -1.14987,-0.33976 -1.15187,-0.76274 v -0.0171 c -0.002,-0.37147 0.33372,-0.65015 0.86041,-0.65215 0.43145,-0.002 0.90735,0.16017 1.32292,0.42581 l 0.29972,-0.5023 c -0.45896,-0.29985 -1.06419,-0.48772 -1.60817,-0.48472 z m -4.35322,0.005 c -1.23472,0.006 -2.13559,1.04606 -2.12959,2.34146 0.007,1.38959 1.01273,2.32627 2.23862,2.32027 0.84631,-0.004 1.38842,-0.34339 1.83503,-0.84646 l -0.41599,-0.36948 c -0.36089,0.38169 -0.79144,0.63417 -1.40457,0.63717 -0.78563,0.004 -1.47891,-0.53692 -1.57871,-1.47743 l 3.53983,-0.0171 c 0.008,-0.10372 0.008,-0.17276 0.008,-0.23306 -0.007,-1.31269 -0.77174,-2.36241 -2.09289,-2.35541 z m -4.73356,0.0222 c -0.76835,0.004 -1.23238,0.39498 -1.52343,0.88005 l -0.004,-0.77773 -0.66456,0.004 0.0217,4.46278 0.66455,-0.003 -0.0124,-2.55592 c -0.004,-0.83713 0.563,-1.40108 1.3317,-1.40508 0.78564,-0.004 1.23727,0.51198 1.24127,1.34101 l 0.0129,2.60759 0.66456,-0.003 -0.0134,-2.77141 c -0.005,-1.06221 -0.63925,-1.78422 -1.71875,-1.77922 z m -6.88227,0.0512 c -0.88057,0.005 -1.51709,0.51736 -1.51309,1.28571 v 0.017 c 0.004,0.82021 0.78213,1.05807 1.4826,1.25316 0.58773,0.16157 1.11576,0.33158 1.11776,0.78031 v 0.0176 c 0.002,0.4318 -0.38513,0.70962 -0.92036,0.71262 -0.52666,0.002 -1.06301,-0.20257 -1.54822,-0.56276 l -0.33487,0.47698 c 0.50313,0.40323 1.2122,0.64999 1.85105,0.64699 0.88939,-0.004 1.58634,-0.50022 1.58234,-1.34618 v -0.017 c -0.004,-0.80293 -0.74795,-1.06717 -1.43971,-1.27072 -0.59655,-0.17851 -1.14987,-0.34028 -1.15187,-0.76326 v -0.0171 c -0.002,-0.37113 0.33335,-0.64964 0.8599,-0.65164 0.43173,-0.002 0.90728,0.15966 1.32292,0.4253 l 0.29972,-0.50281 c -0.45903,-0.29986 -1.06412,-0.48621 -1.60817,-0.48421 z m 3.40289,0.0615 -0.66456,0.003 0.0217,4.46381 0.66507,-0.003 z m -6.00273,0.0294 -0.65629,0.003 0.0129,2.55592 c 0.004,0.83714 -0.57186,1.40108 -1.33171,1.40508 -0.78559,0.004 -1.23726,-0.51232 -1.24126,-1.341 l -0.0129,-2.60708 -0.66508,0.003 0.0139,2.77141 -5.1e-4,5.2e-4 c 0.005,1.06185 0.63913,1.78418 1.71824,1.77818 0.76857,-0.004 1.22458,-0.39429 1.52445,-0.87901 l 0.004,0.77669 0.65577,-0.003 z m 14.2012,0.39688 c 0.88053,-0.004 1.35015,0.68412 1.43195,1.49551 l -2.87527,0.014 c 0.0907,-0.86431 0.67497,-1.50547 1.44332,-1.50947 z m -21.30052,1.35599 c 1.0534,-0.005 1.60828,0.37219 1.61128,1.02836 v 0.0171 c 0.003,0.6731 -0.56487,1.08124 -1.48002,1.08624 l -2.02882,0.01 -0.0108,-2.13269 z m 4.19975,5.78982 c -1.77864,0.008 -3.04967,1.43134 -3.04167,3.1409 v 0.0171 c 0.009,1.73566 1.30227,3.10235 3.04632,3.09335 1.09664,-0.005 1.78495,-0.43143 2.41226,-1.07383 l -0.45114,-0.43822 c -0.57591,0.55527 -1.11827,0.8776 -1.94716,0.8816 -1.32979,0.007 -2.3448,-1.0848 -2.3518,-2.48357 v -0.0176 c -0.007,-1.38995 0.98901,-2.48325 2.32751,-2.48925 0.82007,-0.004 1.39209,0.33874 1.90376,0.81958 l 0.46354,-0.50281 c -0.60717,-0.56692 -1.26498,-0.95223 -2.36162,-0.94723 z m 13.94179,0.26872 -0.66508,0.003 0.007,1.3472 -0.62167,0.003 0.003,0.58704 0.62167,-0.003 0.0129,2.69441 h -5.2e-4 c 0.005,0.90664 0.5501,1.25871 1.26659,1.25471 0.31962,-0.002 0.57005,-0.0723 0.80254,-0.19431 l -0.003,-0.56999 c -0.23213,0.11359 -0.42176,0.15765 -0.64648,0.15865 -0.44909,0.002 -0.75299,-0.19499 -0.75499,-0.73897 l -0.0124,-2.60708 1.41542,-0.007 -0.003,-0.58757 -1.41645,0.007 z m 4.21576,1.21646 c -1.23473,0.006 -2.13558,1.04658 -2.12958,2.34198 0.007,1.38994 1.01288,2.32627 2.23913,2.32027 0.84596,-0.004 1.3879,-0.34375 1.83452,-0.84646 l -0.416,-0.36948 c -0.36078,0.3816 -0.7912,0.63454 -1.40405,0.63768 h -5.1e-4 c -0.78543,0.003 -1.47842,-0.5373 -1.5782,-1.47794 l 3.53983,-0.0176 c 0.008,-0.10337 0.008,-0.17185 0.007,-0.23255 -0.006,-1.31268 -0.77123,-2.36193 -2.09238,-2.35593 z m 5.38003,0.0279 c -0.80758,0.005 -1.42295,0.53291 -1.73736,1.25367 l -0.006,-1.1653 -0.66404,0.003 0.0217,4.46381 0.66456,-0.003 -0.009,-1.77871 c -0.006,-1.34654 0.78467,-2.04965 1.7601,-2.05465 l 0.0517,-5.2e-4 -0.003,-0.71727 c -0.0264,-9.3e-4 -0.0525,-0.001 -0.0786,-0.001 z m -13.35577,0.0263 c -0.76853,0.004 -1.23262,0.39447 -1.52394,0.87954 l -0.004,-0.77722 -0.66456,0.003 0.0217,4.4633 0.66456,-0.003 -0.0124,-2.55591 c -0.004,-0.83714 0.56331,-1.40208 1.3317,-1.40508 0.78581,-0.004 1.23727,0.51233 1.24127,1.341 l 0.0129,2.60708 0.66455,-0.003 -0.0134,-2.7714 c -0.005,-1.06222 -0.63948,-1.78371 -1.71876,-1.77871 z m -5.18211,0.0248 c -1.23472,0.006 -2.13559,1.04709 -2.12959,2.34249 0.007,1.38959 1.01258,2.32576 2.23863,2.31976 0.84626,-0.004 1.38892,-0.34375 1.83554,-0.84646 l -0.41651,-0.36897 c -0.36065,0.38159 -0.79123,0.63303 -1.40405,0.63717 h -5.2e-4 c -0.78541,0.003 -1.47862,-0.53695 -1.57819,-1.47795 l 3.54035,-0.017 c 0.008,-0.10336 0.007,-0.17236 0.007,-0.23306 -0.006,-1.31269 -0.7714,-2.36193 -2.09238,-2.35593 z m 13.14286,0.48266 c 0.88089,-0.005 1.35098,0.68361 1.43248,1.495 l -2.87528,0.0145 c 0.0907,-0.8643 0.67446,-1.50547 1.4428,-1.50947 z m -13.15733,0.0791 c 0.88067,-0.005 1.35035,0.68361 1.43195,1.495 l -2.87527,0.0139 c 0.0907,-0.8636 0.67476,-1.50495 1.44332,-1.50895 z" />
    </g>
  </g>
</svg>
