<?xml version="1.0" encoding="UTF-8" standalone="no"?>
<!-- Created with Inkscape (http://www.inkscape.org/) -->

<svg
   width="68.175369mm"
   height="116.7346mm"
   viewBox="0 0 68.175369 116.7346"
   version="1.1"
   id="svg1"
   inkscape:version="1.3 (0e150ed6c4, 2023-07-21)"
   sodipodi:docname="CBC_All_Portrait_Minimal_Light.svg"
   xmlns:inkscape="http://www.inkscape.org/namespaces/inkscape"
   xmlns:sodipodi="http://sodipodi.sourceforge.net/DTD/sodipodi-0.dtd"
   xmlns="http://www.w3.org/2000/svg"
   xmlns:svg="http://www.w3.org/2000/svg">
  <sodipodi:namedview
     id="namedview1"
     pagecolor="#a2a2a2"
     bordercolor="#999999"
     borderopacity="1"
     inkscape:showpageshadow="2"
     inkscape:pageopacity="0"
     inkscape:pagecheckerboard="true"
     inkscape:deskcolor="#d1d1d1"
     inkscape:document-units="mm"
     showguides="true"
     inkscape:zoom="2.5923822"
     inkscape:cx="42.624888"
     inkscape:cy="156.41984"
     inkscape:window-width="3200"
     inkscape:window-height="1711"
     inkscape:window-x="2391"
     inkscape:window-y="369"
     inkscape:window-maximized="1"
     inkscape:current-layer="layer1"
     showgrid="false" />
  <defs
     id="defs1" />
  <g
     inkscape:label="Layer 1"
     inkscape:groupmode="layer"
     id="layer1"
     transform="translate(-93.133333,-79.077193)">
    <path
       id="text7"
       style="font-size:9.17222px;font-family:Gotham;-inkscape-font-specification:'Gotham, Normal';text-align:center;letter-spacing:-0.264583px;text-anchor:middle;fill:#3e444f;stroke-width:4.23333;fill-opacity:1"
       inkscape:label="Aalst"
       d="M 114.09794 167.38912 L 112.99 170.74602 L 111.96888 167.40152 L 110.80306 167.40152 L 112.48977 172.37899 L 113.43649 172.37899 L 114.5527 169.14611 L 115.66477 172.37899 L 116.61149 172.37899 L 118.29821 167.40152 L 117.16132 167.40152 L 116.1402 170.74602 L 115.03225 167.38912 L 114.09794 167.38912 z M 124.48129 168.48776 C 123.92026 168.50306 123.59504 168.83141 123.3935 169.31975 L 123.3935 168.55907 L 122.31863 168.55907 L 122.31863 172.34178 L 123.3935 172.34178 L 123.3935 170.94445 C 123.3935 170.04321 123.82759 169.60913 124.54279 169.60913 L 124.59653 169.60913 L 124.59653 168.48879 C 124.55703 168.48679 124.51873 168.48676 124.48129 168.48776 z M 126.67185 168.48879 C 125.57219 168.48879 124.80323 169.37763 124.80323 170.45663 L 124.80323 170.47316 C 124.80323 171.63071 125.64246 172.42447 126.77934 172.42447 C 127.46146 172.42447 127.96997 172.15989 128.32137 171.72167 L 127.70952 171.17596 C 127.41187 171.45294 127.15141 171.56457 126.79174 171.56457 C 126.31218 171.56457 125.97318 171.31238 125.8657 170.82456 L 128.49913 170.82456 C 128.50713 170.72536 128.51567 170.62612 128.51567 170.54344 C 128.51567 169.46858 127.93689 168.48879 126.67185 168.48879 z M 130.64267 168.48879 C 129.7745 168.48879 128.96422 169.12545 128.96422 170.25406 L 128.96422 170.26646 C 128.96422 171.39094 129.7621 172.03173 130.64267 172.03173 C 131.21731 172.03173 131.56044 171.8002 131.87877 171.41574 L 131.87877 171.60178 C 131.87877 172.27978 131.53151 172.63117 130.79977 172.63117 C 130.29954 172.63117 129.91094 172.50302 129.52233 172.28391 L 129.15439 173.09006 C 129.63395 173.34224 130.21273 173.48693 130.82871 173.48693 C 131.56045 173.48693 132.10615 173.32984 132.45755 172.97844 C 132.77588 172.66012 132.9371 172.16401 132.9371 171.48602 L 132.9371 168.55907 L 131.86637 168.55907 L 131.86637 169.05516 C 131.57699 168.73683 131.22971 168.48879 130.64267 168.48879 z M 135.4062 168.48879 C 134.30654 168.48879 133.53759 169.37763 133.53759 170.45663 L 133.53759 170.47316 C 133.53759 171.63071 134.37681 172.42447 135.51369 172.42447 C 136.19581 172.42447 136.70432 172.15989 137.05572 171.72167 L 136.44387 171.17596 C 136.14622 171.45294 135.88576 171.56457 135.52609 171.56457 C 135.04653 171.56457 134.70753 171.31238 134.60005 170.82456 L 137.23348 170.82456 C 137.24148 170.72536 137.25002 170.62612 137.25002 170.54344 C 137.25002 169.46858 136.67124 168.48879 135.4062 168.48879 z M 140.05502 168.48879 C 139.51345 168.48879 139.18686 168.77817 138.94294 169.0965 L 138.94294 168.55907 L 137.86807 168.55907 L 137.86807 172.34178 L 138.94294 172.34178 L 138.94294 170.23339 C 138.94294 169.72489 139.18686 169.46444 139.592 169.46444 C 139.99301 169.46444 140.22038 169.72489 140.22038 170.23339 L 140.22038 172.34178 L 141.29112 172.34178 L 141.29112 170.23339 C 141.29112 169.72489 141.53916 169.46444 141.94017 169.46444 C 142.34118 169.46444 142.56856 169.72489 142.56856 170.23339 L 142.56856 172.34178 L 143.63929 172.34178 L 143.63929 169.87785 C 143.63929 168.96835 143.15973 168.48879 142.36185 168.48879 C 141.84922 168.48879 141.45235 168.69963 141.12162 169.08824 C 140.92318 168.7079 140.55111 168.48879 140.05502 168.48879 z M 119.88467 168.51773 C 119.24388 168.51773 118.8346 168.63762 118.41706 168.81952 L 118.68578 169.63807 C 119.02892 169.50991 119.3183 169.4355 119.72758 169.4355 C 120.265 169.4355 120.542 169.67942 120.542 170.1259 L 120.542 170.18791 C 120.27328 170.09691 119.99629 170.03495 119.61595 170.03495 C 118.71887 170.03495 118.09047 170.41529 118.09047 171.24211 L 118.09047 171.25451 C 118.09047 172.00278 118.67751 172.41206 119.39271 172.41206 C 119.91361 172.41206 120.27328 172.2219 120.53373 171.93251 L 120.53373 172.34178 L 121.57139 172.34178 L 121.57139 170.14657 C 121.57139 169.63808 121.44323 169.22467 121.16211 168.93941 C 120.89339 168.67069 120.47171 168.51773 119.88467 168.51773 z M 126.67185 169.34869 C 127.12247 169.34869 127.40773 169.67528 127.46974 170.15484 L 125.8533 170.15484 C 125.9401 169.66702 126.2295 169.34869 126.67185 169.34869 z M 135.4062 169.34869 C 135.85682 169.34869 136.14208 169.67528 136.20409 170.15484 L 134.58765 170.15484 C 134.67445 169.66702 134.96387 169.34869 135.4062 169.34869 z M 130.95273 169.37762 C 131.47777 169.37762 131.87877 169.7373 131.87877 170.25406 L 131.87877 170.26646 C 131.87877 170.78323 131.47777 171.14289 130.95273 171.14289 C 130.43184 171.14289 130.03909 170.78736 130.03909 170.26646 L 130.03909 170.25406 C 130.03909 169.7373 130.43184 169.37762 130.95273 169.37762 z M 119.87227 170.67574 C 120.13272 170.67574 120.3725 170.73364 120.5544 170.8163 L 120.5544 171.00647 C 120.5544 171.39508 120.2154 171.67206 119.71517 171.67206 C 119.3679 171.67206 119.12813 171.50256 119.12813 171.21317 L 119.12813 171.19663 C 119.12813 170.86178 119.41339 170.67574 119.87227 170.67574 z M 138.26856 174.95196 L 138.26856 176.81645 C 138.01225 176.51053 137.66085 176.25007 137.09034 176.25007 C 136.19325 176.25007 135.36641 176.94047 135.36641 178.20551 L 135.36641 178.21791 C 135.36641 179.48295 136.20565 180.17335 137.09034 180.17335 C 137.64431 180.17335 138.00811 179.9129 138.26856 179.5615 L 138.26856 180.10307 L 139.3393 180.10307 L 139.3393 174.95196 L 138.26856 174.95196 z M 113.42357 175.0796 C 111.89808 175.0796 110.79014 176.22889 110.79014 177.63448 L 110.79014 177.64689 C 110.79014 179.05249 111.88568 180.18523 113.41117 180.18523 C 114.93251 180.18523 116.04046 179.03594 116.04046 177.63448 L 116.04046 177.61795 C 116.04046 176.21235 114.94906 175.0796 113.42357 175.0796 z M 124.69936 175.35297 L 124.69936 176.32035 L 124.24875 176.32035 L 124.24875 177.23813 L 124.69936 177.23813 L 124.69936 179.03233 C 124.69936 179.90463 125.14171 180.16508 125.79904 180.16508 C 126.15871 180.16508 126.41916 180.08238 126.64653 179.94597 L 126.64653 179.08608 C 126.48944 179.17288 126.3158 179.2225 126.11737 179.2225 C 125.87759 179.2225 125.7701 179.10261 125.7701 178.85457 L 125.7701 177.23813 L 126.65894 177.23813 L 126.65894 176.32035 L 125.7701 176.32035 L 125.7701 175.35297 L 124.69936 175.35297 z M 113.41117 176.08006 C 114.28345 176.08006 114.90771 176.787 114.90771 177.63448 L 114.90771 177.64689 C 114.90771 178.49439 114.3 179.18478 113.42357 179.18478 C 112.55127 179.18478 111.92702 178.47784 111.92702 177.63448 L 111.92702 177.61795 C 111.92702 176.77046 112.53473 176.08006 113.41117 176.08006 z M 118.58708 176.24956 C 117.40885 176.24956 116.53656 177.13013 116.53656 178.21739 L 116.53656 178.23393 C 116.53656 179.3212 117.40473 180.18523 118.57467 180.18523 C 119.7529 180.18523 120.62933 179.30466 120.62933 178.21739 L 120.62933 178.20499 C 120.62933 177.11773 119.76116 176.24956 118.58708 176.24956 z M 128.85415 176.25007 C 127.75448 176.25007 126.98553 177.1389 126.98553 178.21791 L 126.98553 178.23445 C 126.98553 179.392 127.82475 180.18575 128.96164 180.18575 C 129.64377 180.18575 130.15226 179.92116 130.50366 179.48295 L 129.89181 178.93725 C 129.59416 179.21424 129.33371 179.32585 128.97404 179.32585 C 128.49448 179.32585 128.15549 179.07368 128.048 178.58585 L 130.68143 178.58585 C 130.68943 178.48665 130.69797 178.38742 130.69797 178.30473 C 130.69797 177.22986 130.11919 176.25007 128.85415 176.25007 z M 133.49883 176.25007 C 132.95313 176.25007 132.63479 176.53947 132.39089 176.85779 L 132.39089 176.32035 L 131.31602 176.32035 L 131.31602 180.10307 L 132.39089 180.10307 L 132.39089 177.99467 C 132.39089 177.48618 132.65133 177.22572 133.06061 177.22572 C 133.46989 177.22572 133.70967 177.48618 133.70967 177.99467 L 133.70967 180.10307 L 134.7804 180.10307 L 134.7804 177.65567 C 134.7804 176.78751 134.30911 176.25007 133.49883 176.25007 z M 141.8084 176.25007 C 140.70872 176.25007 139.93978 177.1389 139.93978 178.21791 L 139.93978 178.23445 C 139.93978 179.39201 140.77901 180.18575 141.91589 180.18575 C 142.59801 180.18575 143.10652 179.92116 143.45791 179.48295 L 142.84606 178.93725 C 142.5484 179.21424 142.28795 179.32585 141.92829 179.32585 C 141.44873 179.32585 141.10974 179.07367 141.00225 178.58585 L 143.63568 178.58585 C 143.64368 178.48665 143.65221 178.38741 143.65221 178.30473 C 143.65221 177.22986 143.07343 176.25007 141.8084 176.25007 z M 122.50415 176.26196 C 121.74348 176.26196 121.11922 176.69605 121.11922 177.46499 L 121.11922 177.47739 C 121.11922 178.21326 121.7228 178.45717 122.25197 178.61427 C 122.66538 178.74243 123.03332 178.81685 123.03332 179.05249 L 123.03332 179.06489 C 123.03332 179.23439 122.89276 179.34601 122.5827 179.34601 C 122.22717 179.34601 121.79722 179.19305 121.38794 178.89539 L 120.92905 179.60232 C 121.43342 179.99506 122.02459 180.17283 122.55376 180.17283 C 123.37232 180.17283 124.0007 179.7925 124.0007 178.95327 L 124.0007 178.93673 C 124.0007 178.24633 123.38472 177.99416 122.85555 177.81639 C 122.44628 177.67583 122.0866 177.57661 122.0866 177.36577 L 122.0866 177.34923 C 122.0866 177.2004 122.22303 177.08878 122.48348 177.08878 C 122.75633 177.08878 123.13254 177.2252 123.50461 177.44018 L 123.91388 176.70017 C 123.50461 176.42733 122.98371 176.26196 122.50415 176.26196 z M 128.85415 177.10997 C 129.30477 177.10997 129.59001 177.43656 129.65203 177.91612 L 128.0356 177.91612 C 128.1224 177.42829 128.41181 177.10997 128.85415 177.10997 z M 141.8084 177.10997 C 142.25902 177.10997 142.54427 177.43656 142.60628 177.91612 L 140.98984 177.91612 C 141.07664 177.42829 141.36605 177.10997 141.8084 177.10997 z M 137.36319 177.15958 C 137.86342 177.15958 138.28096 177.57713 138.28096 178.20551 L 138.28096 178.21791 C 138.28096 178.84629 137.86342 179.26384 137.36319 179.26384 C 136.86296 179.26384 136.44128 178.84629 136.44128 178.21791 L 136.44128 178.20551 C 136.44128 177.56886 136.86296 177.15958 137.36319 177.15958 z M 118.57467 177.1756 C 119.16584 177.1756 119.571 177.65929 119.571 178.21739 L 119.571 178.23393 C 119.571 178.7879 119.20306 179.26333 118.58708 179.26333 C 117.9959 179.26333 117.59489 178.77549 117.59489 178.21739 L 117.59489 178.20499 C 117.59489 177.6469 117.96282 177.1756 118.57467 177.1756 z M 121.82926 182.84192 C 120.33271 182.84192 119.23717 183.99121 119.23717 185.3968 L 119.23717 185.4092 C 119.23717 186.86854 120.29964 187.94755 121.83752 187.94755 C 122.73876 187.94755 123.43742 187.59615 123.94592 187.1662 L 123.94592 185.0206 L 121.80032 185.0206 L 121.80032 185.95904 L 122.89586 185.95904 L 122.89586 186.66597 C 122.61888 186.86441 122.26748 186.96363 121.8706 186.96363 C 120.99831 186.96363 120.37405 186.29804 120.37405 185.3968 L 120.37405 185.38027 C 120.37405 184.54105 121.00243 183.84237 121.79205 183.84237 C 122.36669 183.84237 122.70569 184.02427 123.08603 184.3426 L 123.76816 183.51578 C 123.25553 183.0817 122.71809 182.84192 121.82926 182.84192 z M 133.24561 183.11425 L 133.24561 184.08164 L 132.79499 184.08164 L 132.79499 184.99941 L 133.24561 184.99941 L 133.24561 186.79362 C 133.24561 187.66591 133.68797 187.92636 134.34529 187.92636 C 134.70496 187.92636 134.9654 187.84366 135.19278 187.70725 L 135.19278 186.84736 C 135.03568 186.93416 134.86205 186.98378 134.66361 186.98378 C 134.42383 186.98378 134.31635 186.8639 134.31635 186.61585 L 134.31635 184.99941 L 135.20518 184.99941 L 135.20518 184.08164 L 134.31635 184.08164 L 134.31635 183.11425 L 133.24561 183.11425 z M 131.03076 184.01136 C 130.48505 184.01136 130.16673 184.30074 129.92282 184.61907 L 129.92282 184.08164 L 128.84795 184.08164 L 128.84795 187.86435 L 129.92282 187.86435 L 129.92282 185.75595 C 129.92282 185.24745 130.18327 184.98701 130.59255 184.98701 C 131.00182 184.98701 131.2416 185.24745 131.2416 185.75595 L 131.2416 187.86435 L 132.31234 187.86435 L 132.31234 185.41696 C 132.31234 184.5488 131.84104 184.01136 131.03076 184.01136 z M 126.38608 184.01187 C 125.2864 184.01187 124.51746 184.90071 124.51746 185.97971 L 124.51746 185.99625 C 124.51746 187.15381 125.35668 187.94755 126.49357 187.94755 C 127.1757 187.94755 127.6842 187.68296 128.0356 187.24475 L 127.42375 186.69905 C 127.1261 186.97603 126.86564 187.08765 126.50597 187.08765 C 126.02642 187.08765 125.68741 186.83547 125.57993 186.34765 L 128.21336 186.34765 C 128.22136 186.24845 128.2299 186.14921 128.2299 186.06653 C 128.2299 184.99166 127.65111 184.01187 126.38608 184.01187 z M 126.38608 184.87125 C 126.8367 184.87125 127.12196 185.19785 127.18397 185.6774 L 125.56753 185.6774 C 125.65433 185.18958 125.94373 184.87125 126.38608 184.87125 z M 128.43092 190.59183 L 128.43092 195.74139 L 129.50321 195.74139 L 129.50321 190.59183 L 128.43092 190.59183 z M 120.84534 190.76805 L 118.72919 195.74139 L 119.83661 195.74139 L 120.28826 194.63396 L 122.37651 194.63396 L 122.82764 195.74139 L 123.96349 195.74139 L 121.84734 190.76805 L 120.84534 190.76805 z M 133.75153 190.99388 L 133.75153 191.96023 L 133.30039 191.96023 L 133.30039 192.87748 L 133.75153 192.87748 L 133.75153 194.6691 C 133.75153 195.54381 134.1962 195.80495 134.85223 195.80495 C 135.21198 195.80495 135.47295 195.71981 135.69869 195.58584 L 135.69869 194.72543 C 135.54349 194.81003 135.36703 194.85927 135.16953 194.85927 C 134.92968 194.85927 134.82381 194.73981 134.82381 194.49289 L 134.82381 192.87748 L 135.71265 192.87748 L 135.71265 191.96023 L 134.82381 191.96023 L 134.82381 190.99388 L 133.75153 190.99388 z M 131.58525 191.9039 C 130.82341 191.9039 130.20239 192.33443 130.20239 193.10331 L 130.20239 193.11726 C 130.20239 193.8509 130.80195 194.09793 131.331 194.25311 C 131.7472 194.3801 132.1139 194.45751 132.1139 194.69029 L 132.1139 194.70424 C 132.1139 194.87353 131.97314 194.9864 131.66276 194.9864 C 131.31006 194.9864 130.87973 194.83102 130.47059 194.53475 L 130.01222 195.24013 C 130.51306 195.63516 131.10528 195.81167 131.63434 195.81167 C 132.4526 195.81167 133.08025 195.43103 133.08025 194.59159 L 133.08025 194.57764 C 133.08025 193.88634 132.46672 193.6321 131.93768 193.45574 C 131.52854 193.31466 131.16874 193.21622 131.16874 193.00461 L 131.16874 192.99014 C 131.16874 192.842 131.30306 192.72917 131.56406 192.72917 C 131.83916 192.72917 132.21288 192.86345 132.58674 193.08212 L 132.99602 192.3416 C 132.5869 192.06651 132.06492 191.9039 131.58525 191.9039 z M 125.97474 191.91785 C 125.33283 191.91785 124.92383 192.03778 124.50765 192.22119 L 124.77585 193.03975 C 125.12152 192.91278 125.41058 192.83511 125.81971 192.83511 C 126.35581 192.83511 126.63103 193.08214 126.63103 193.52654 L 126.63103 193.58958 C 126.36297 193.49788 126.08797 193.43455 125.70706 193.43455 C 124.8112 193.43455 124.18312 193.81537 124.18312 194.64068 L 124.18312 194.65463 C 124.18312 195.40235 124.76877 195.81167 125.48123 195.81167 C 126.00324 195.81167 126.36281 195.62133 126.6238 195.33211 L 126.6238 195.74139 L 127.66094 195.74139 L 127.66094 193.54721 C 127.66094 193.03933 127.53382 192.62323 127.25166 192.34108 C 126.9836 192.07302 126.56022 191.91785 125.97474 191.91785 z M 121.33213 192.0734 L 121.98842 193.67433 L 120.67635 193.67433 L 121.33213 192.0734 z M 125.96079 194.07638 C 126.22179 194.07638 126.46158 194.13288 126.64498 194.21745 L 126.64498 194.40814 C 126.64498 194.79611 126.30661 195.07115 125.80576 195.07115 C 125.46013 195.07115 125.22026 194.90201 125.22026 194.61278 L 125.22026 194.59882 C 125.22026 194.26023 125.50227 194.07638 125.96079 194.07638 z " />
    <g
       id="g2"
       transform="translate(0,9.3446249)">
      <g
         id="g1"
         inkscape:label="CBC Logo">
        <path
           id="path23"
           d="m 127.22186,137.91147 c -8.81807,0 -16.85367,-3.34892 -22.90618,-8.84379 l 22.90618,22.90548 22.90273,-22.9023 c -6.05155,5.4931 -14.08607,8.84061 -22.90273,8.84061"
           style="fill:#bdbcbc;fill-opacity:1;fill-rule:nonzero;stroke:none;stroke-width:0.0352778" />
        <path
           id="path28"
           d="m 151.7396,127.49253 c 6.04062,-6.14927 9.5691,-14.36723 9.5691,-23.66822 0,-9.159875 -3.61915,-17.469558 -9.49748,-23.594133 0.89676,0.932038 1.45133,2.196041 1.45133,3.592336 0,2.864556 -2.32199,5.185834 -5.18619,5.185834 -1.48696,0 -2.82293,-0.628298 -3.76837,-1.630892 4.10598,4.26544 6.63539,10.05911 6.63539,16.446855 0,6.36235 -2.51036,12.13521 -6.58777,16.39606 0.94262,-0.97402 2.25778,-1.58468 3.72075,-1.58468 2.8642,0 5.18619,2.32128 5.18619,5.18619 0,1.43404 -0.58244,2.73226 -1.52295,3.67065"
           style="fill:#bdbcbc;fill-opacity:1;fill-rule:nonzero;stroke:none;stroke-width:0.0352778" />
        <path
           id="path34"
           d="m 148.07636,118.63569 c -1.48837,0 -2.82575,0.63006 -3.7712,1.63371 -4.31588,4.48134 -10.37025,7.2764 -17.0833,7.2764 -13.101,0 -23.7225,-10.62144 -23.7225,-23.7229 0,-7e-4 0,-7e-4 0,-7e-4 0,0 0,-3.6e-4 0,-7.1e-4 0,-13.101466 10.6215,-23.723252 23.7225,-23.723252 6.71305,0 12.76742,2.795058 17.0833,7.276747 0.94545,1.003653 2.28283,1.633362 3.7712,1.633362 2.8642,0 5.18619,-2.321278 5.18619,-5.185834 0,-1.434395 -0.58244,-2.731911 -1.52295,-3.670653 l 7.1e-4,-7.06e-4 c -6.19972,-6.41985 -14.88969,-10.418586 -24.51845,-10.418586 -18.82634,0 -34.088527,15.262226 -34.088527,34.088922 0,3.5e-4 0,3.5e-4 0,3.5e-4 0,3.6e-4 0,3.6e-4 0,0.001 0,18.82634 15.262187,34.08857 34.088527,34.08857 9.62876,0 18.31873,-3.99874 24.51845,-10.41824 l -7.1e-4,-7e-4 c 0.94051,-0.93839 1.52295,-2.23661 1.52295,-3.67065 0,-2.86491 -2.32199,-5.18619 -5.18619,-5.18619"
           style="fill:#e31b22;fill-opacity:1;fill-rule:nonzero;stroke:none;stroke-width:0.0352778" />
      </g>
      <path
         id="path4"
         style="fill:#231f20;fill-opacity:1;fill-rule:nonzero;stroke:none;stroke-width:0.0352778"
         d="m 117.14799,91.482745 c -1.77862,0.009 -3.04915,1.430824 -3.04115,3.140384 v 0.0176 c 0.009,1.73567 1.30161,3.10135 3.04581,3.09335 1.0965,-0.005 1.78537,-0.43178 2.41225,-1.07384 l -0.45113,-0.43821 c -0.57559,0.55563 -1.11792,0.8776 -1.94665,0.8816 -1.3298,0.006 -2.34532,-1.08498 -2.35232,-2.48409 v -0.017 c -0.007,-1.38994 0.98952,-2.483264 2.32803,-2.489264 0.82035,-0.004 1.39143,0.3384 1.90324,0.819594 l 0.46354,-0.503334 c -0.60702,-0.56691 -1.26497,-0.95171 -2.36162,-0.94671 z m 20.73724,1.488804 c -0.76871,0.004 -1.2329,0.3943 -1.52394,0.87902 l -0.004,-0.7767 -0.66456,0.003 0.0217,4.46381 0.66508,-0.003 -0.0124,-2.55592 c -0.004,-0.8375 0.56232,-1.40108 1.33066,-1.40508 0.78599,-0.004 1.23779,0.51197 1.24179,1.341 l 0.0129,2.60708 0.66456,-0.003 -0.0139,-2.77141 c -0.005,-1.06186 -0.63859,-1.7837 -1.71773,-1.7787 z m -5.45858,0.0263 c -1.34691,0.006 -2.32576,1.08167 -2.31976,2.3425 v 0.017 c 0.006,1.26047 0.987,2.3087 2.32544,2.3027 1.34691,-0.007 2.33454,-1.08201 2.32854,-2.34249 v -0.0176 c -0.006,-1.26047 -0.99578,-2.30919 -2.33422,-2.30219 z m -4.92321,0.0238 c -0.76828,0.004 -1.23228,0.39498 -1.52343,0.88005 l -0.004,-0.77722 -0.66456,0.003 0.0217,4.46381 0.66507,-0.003 -0.0129,-2.55591 c -0.004,-0.8375 0.56331,-1.40109 1.3317,-1.40509 0.78578,-0.004 1.23779,0.51181 1.24179,1.34049 l 0.0124,2.60759 0.66456,-0.003 -0.0134,-2.77192 c -0.005,-1.06186 -0.63926,-1.78422 -1.71875,-1.77922 z m -5.25033,0.0512 c -0.65624,0.004 -1.13075,0.16126 -1.62161,0.38809 l 0.20154,0.54363 c 0.41356,-0.19226 0.82722,-0.32459 1.35392,-0.32659 0.83742,-0.004 1.32254,0.40805 1.32654,1.20251 l 0.001,0.13797 c -0.39786,-0.11039 -0.7952,-0.18593 -1.36529,-0.18293 -1.13097,0.005 -1.90618,0.50963 -1.90118,1.46813 l 5.2e-4,0.0176 c 0.005,0.91511 0.83587,1.38531 1.67328,1.38131 0.78563,-0.004 1.29319,-0.36841 1.60197,-0.7674 l 0.003,0.66508 0.65629,-0.003 -0.0134,-2.72852 c -0.003,-0.57009 -0.16028,-1.00077 -0.47284,-1.31051 -0.32106,-0.3175 -0.81367,-0.48824 -1.44384,-0.48524 z m 10.15907,0.51211 c 0.94121,-0.005 1.66156,0.77731 1.66656,1.73581 v 0.0176 c 0.005,0.94122 -0.66497,1.72099 -1.63194,1.72599 -0.94086,0.005 -1.65226,-0.76904 -1.65726,-1.72754 v -0.017 c -0.005,-0.94086 0.65568,-1.72978 1.62264,-1.73478 z m -10.19111,1.77663 c 0.54377,-0.003 0.97595,0.0905 1.30431,0.18397 l 0.002,0.41445 c 0.003,0.70802 -0.65878,1.20316 -1.47898,1.20716 -0.60442,0.003 -1.12355,-0.3224 -1.12655,-0.88367 l -5.1e-4,-0.0176 c -0.003,-0.53516 0.47077,-0.90034 1.29966,-0.90434 z m 3.77445,5.265831 -0.75965,0.004 0.004,0.7338 0.76016,-0.004 z m -13.17026,0.19379 -2.57349,0.0124 v 5.2e-4 l 0.0295,6.04356 2.68511,-0.0129 c 1.32112,-0.006 2.19039,-0.6241 2.18539,-1.65985 v -0.017 c -0.004,-0.82903 -0.58479,-1.24077 -1.30276,-1.45314 0.47406,-0.20955 0.95588,-0.6179 0.95188,-1.40354 v -0.0171 c -0.002,-0.38841 -0.14148,-0.70743 -0.39326,-0.96531 -0.34685,-0.33514 -0.89167,-0.53062 -1.58233,-0.52762 z m -0.0579,0.6134 c 0.86335,-0.004 1.34007,0.38188 1.34307,0.97772 v 0.0176 c 0.004,0.70803 -0.5642,1.08172 -1.38441,1.08572 l -1.78749,0.009 -0.0103,-2.08101 z m 29.70568,0.74414 c -0.88053,0.004 -1.51708,0.51684 -1.51308,1.28519 v 0.0176 c 0.004,0.82021 0.78234,1.05773 1.48259,1.25316 0.58773,0.16122 1.11577,0.33157 1.11777,0.78031 v 0.0171 c 0.002,0.4318 -0.3852,0.71062 -0.92036,0.71262 -0.5267,0.003 -1.06316,-0.20206 -1.54823,-0.56224 l -0.33486,0.47646 c 0.50306,0.40322 1.21217,0.64999 1.85105,0.64699 0.88936,-0.004 1.58633,-0.49985 1.58233,-1.34617 v -0.0171 c -0.004,-0.80257 -0.74791,-1.06681 -1.4397,-1.27072 -0.59655,-0.1785 -1.14987,-0.33977 -1.15187,-0.76274 v -0.0176 c -0.002,-0.37112 0.3332,-0.64864 0.85989,-0.65164 0.43145,-0.002 0.90734,0.15964 1.32292,0.42529 l 0.30024,-0.50229 c -0.45897,-0.29986 -1.0647,-0.48721 -1.60869,-0.48421 z m -3.95531,0.0191 c -0.88054,0.004 -1.5176,0.51736 -1.5136,1.28571 v 0.0171 c 0.004,0.82021 0.78233,1.05808 1.48259,1.25316 0.58773,0.16122 1.11577,0.33158 1.11777,0.78031 l 5.1e-4,0.0176 c 0.002,0.4318 -0.3852,0.70962 -0.92036,0.71262 -0.52669,0.002 -1.06367,-0.20206 -1.54874,-0.56224 l -0.33434,0.47594 c 0.50306,0.40358 1.21182,0.6505 1.85105,0.6475 0.88934,-0.005 1.58581,-0.49986 1.58181,-1.34617 v -0.0171 c -0.004,-0.80292 -0.74791,-1.06733 -1.4397,-1.27124 -0.59655,-0.1785 -1.14987,-0.33976 -1.15187,-0.76274 v -0.0171 c -0.002,-0.37147 0.33372,-0.65015 0.86041,-0.65215 0.43145,-0.002 0.90735,0.16017 1.32292,0.42581 l 0.29972,-0.5023 c -0.45896,-0.29985 -1.06419,-0.48772 -1.60817,-0.48472 z m -4.35322,0.005 c -1.23472,0.006 -2.13559,1.04606 -2.12959,2.34146 0.007,1.38959 1.01273,2.32627 2.23862,2.32027 0.84631,-0.004 1.38842,-0.34339 1.83503,-0.84646 l -0.41599,-0.36948 c -0.36089,0.38169 -0.79144,0.63417 -1.40457,0.63717 -0.78563,0.004 -1.47891,-0.53692 -1.57871,-1.47743 l 3.53983,-0.0171 c 0.008,-0.10372 0.008,-0.17276 0.008,-0.23306 -0.007,-1.31269 -0.77174,-2.36241 -2.09289,-2.35541 z m -4.73356,0.0222 c -0.76835,0.004 -1.23238,0.39498 -1.52343,0.88005 l -0.004,-0.77773 -0.66456,0.004 0.0217,4.46278 0.66455,-0.003 -0.0124,-2.55592 c -0.004,-0.83713 0.563,-1.40108 1.3317,-1.40508 0.78564,-0.004 1.23727,0.51198 1.24127,1.34101 l 0.0129,2.60759 0.66456,-0.003 -0.0134,-2.77141 c -0.005,-1.06221 -0.63925,-1.78422 -1.71875,-1.77922 z m -6.88227,0.0512 c -0.88057,0.005 -1.51709,0.51736 -1.51309,1.28571 v 0.017 c 0.004,0.82021 0.78213,1.05807 1.4826,1.25316 0.58773,0.16157 1.11576,0.33158 1.11776,0.78031 v 0.0176 c 0.002,0.4318 -0.38513,0.70962 -0.92036,0.71262 -0.52666,0.002 -1.06301,-0.20257 -1.54822,-0.56276 l -0.33487,0.47698 c 0.50313,0.40323 1.2122,0.64999 1.85105,0.64699 0.88939,-0.004 1.58634,-0.50022 1.58234,-1.34618 v -0.017 c -0.004,-0.80293 -0.74795,-1.06717 -1.43971,-1.27072 -0.59655,-0.17851 -1.14987,-0.34028 -1.15187,-0.76326 v -0.0171 c -0.002,-0.37113 0.33335,-0.64964 0.8599,-0.65164 0.43173,-0.002 0.90728,0.15966 1.32292,0.4253 l 0.29972,-0.50281 c -0.45903,-0.29986 -1.06412,-0.48621 -1.60817,-0.48421 z m 3.40289,0.0615 -0.66456,0.003 0.0217,4.46381 0.66507,-0.003 z m -6.00273,0.0294 -0.65629,0.003 0.0129,2.55592 c 0.004,0.83714 -0.57186,1.40108 -1.33171,1.40508 -0.78559,0.004 -1.23726,-0.51232 -1.24126,-1.341 l -0.0129,-2.60708 -0.66508,0.003 0.0139,2.77141 -5.1e-4,5.2e-4 c 0.005,1.06185 0.63913,1.78418 1.71824,1.77818 0.76857,-0.004 1.22458,-0.39429 1.52445,-0.87901 l 0.004,0.77669 0.65577,-0.003 z m 14.2012,0.39688 c 0.88053,-0.004 1.35015,0.68412 1.43195,1.49551 l -2.87527,0.014 c 0.0907,-0.86431 0.67497,-1.50547 1.44332,-1.50947 z m -21.30052,1.35599 c 1.0534,-0.005 1.60828,0.37219 1.61128,1.02836 v 0.0171 c 0.003,0.6731 -0.56487,1.08124 -1.48002,1.08624 l -2.02882,0.01 -0.0108,-2.13269 z m 4.19975,5.78982 c -1.77864,0.008 -3.04967,1.43134 -3.04167,3.1409 v 0.0171 c 0.009,1.73566 1.30227,3.10235 3.04632,3.09335 1.09664,-0.005 1.78495,-0.43143 2.41226,-1.07383 l -0.45114,-0.43822 c -0.57591,0.55527 -1.11827,0.8776 -1.94716,0.8816 -1.32979,0.007 -2.3448,-1.0848 -2.3518,-2.48357 v -0.0176 c -0.007,-1.38995 0.98901,-2.48325 2.32751,-2.48925 0.82007,-0.004 1.39209,0.33874 1.90376,0.81958 l 0.46354,-0.50281 c -0.60717,-0.56692 -1.26498,-0.95223 -2.36162,-0.94723 z m 13.94179,0.26872 -0.66508,0.003 0.007,1.3472 -0.62167,0.003 0.003,0.58704 0.62167,-0.003 0.0129,2.69441 h -5.2e-4 c 0.005,0.90664 0.5501,1.25871 1.26659,1.25471 0.31962,-0.002 0.57005,-0.0723 0.80254,-0.19431 l -0.003,-0.56999 c -0.23213,0.11359 -0.42176,0.15765 -0.64648,0.15865 -0.44909,0.002 -0.75299,-0.19499 -0.75499,-0.73897 l -0.0124,-2.60708 1.41542,-0.007 -0.003,-0.58757 -1.41645,0.007 z m 4.21576,1.21646 c -1.23473,0.006 -2.13558,1.04658 -2.12958,2.34198 0.007,1.38994 1.01288,2.32627 2.23913,2.32027 0.84596,-0.004 1.3879,-0.34375 1.83452,-0.84646 l -0.416,-0.36948 c -0.36078,0.3816 -0.7912,0.63454 -1.40405,0.63768 h -5.1e-4 c -0.78543,0.003 -1.47842,-0.5373 -1.5782,-1.47794 l 3.53983,-0.0176 c 0.008,-0.10337 0.008,-0.17185 0.007,-0.23255 -0.006,-1.31268 -0.77123,-2.36193 -2.09238,-2.35593 z m 5.38003,0.0279 c -0.80758,0.005 -1.42295,0.53291 -1.73736,1.25367 l -0.006,-1.1653 -0.66404,0.003 0.0217,4.46381 0.66456,-0.003 -0.009,-1.77871 c -0.006,-1.34654 0.78467,-2.04965 1.7601,-2.05465 l 0.0517,-5.2e-4 -0.003,-0.71727 c -0.0264,-9.3e-4 -0.0525,-0.001 -0.0786,-0.001 z m -13.35577,0.0263 c -0.76853,0.004 -1.23262,0.39447 -1.52394,0.87954 l -0.004,-0.77722 -0.66456,0.003 0.0217,4.4633 0.66456,-0.003 -0.0124,-2.55591 c -0.004,-0.83714 0.56331,-1.40208 1.3317,-1.40508 0.78581,-0.004 1.23727,0.51233 1.24127,1.341 l 0.0129,2.60708 0.66455,-0.003 -0.0134,-2.7714 c -0.005,-1.06222 -0.63948,-1.78371 -1.71876,-1.77871 z m -5.18211,0.0248 c -1.23472,0.006 -2.13559,1.04709 -2.12959,2.34249 0.007,1.38959 1.01258,2.32576 2.23863,2.31976 0.84626,-0.004 1.38892,-0.34375 1.83554,-0.84646 l -0.41651,-0.36897 c -0.36065,0.38159 -0.79123,0.63303 -1.40405,0.63717 h -5.2e-4 c -0.78541,0.003 -1.47862,-0.53695 -1.57819,-1.47795 l 3.54035,-0.017 c 0.008,-0.10336 0.007,-0.17236 0.007,-0.23306 -0.006,-1.31269 -0.7714,-2.36193 -2.09238,-2.35593 z m 13.14286,0.48266 c 0.88089,-0.005 1.35098,0.68361 1.43248,1.495 l -2.87528,0.0145 c 0.0907,-0.8643 0.67446,-1.50547 1.4428,-1.50947 z m -13.15733,0.0791 c 0.88067,-0.005 1.35035,0.68361 1.43195,1.495 l -2.87527,0.0139 c 0.0907,-0.8636 0.67476,-1.50495 1.44332,-1.50895 z" />
    </g>
  </g>
</svg>
